<svg id="Layer_1" enable-background="new 0 0 68 68" height="512" viewBox="0 0 68 68" width="512" xmlns="http://www.w3.org/2000/svg"><g id="_x36_"><g><g><path d="m57.4080009 36.2624626c-1.0653267 11.1862183-9.9631462 20.0744057-21.1494827 21.1396103v-6.8952942c0-.6314621-.256485-1.1935692-.660965-1.5981674-.40448-.4142342-.9765778-.6608467-1.5980492-.6608467-1.242939 0-2.2590141 1.0062027-2.2590141 2.2590141v6.8952942c-11.1764622-1.0652046-20.0741615-9.953392-21.1396065-21.1396103h6.8952932c.6313438 0 1.1935692-.256485 1.5980473-.6608429.4143543-.4144745.6609669-.9768219.6609669-1.5981712 0-1.2528114-1.0062008-2.2590122-2.2590141-2.2590122h-6.8952932c1.0555716-11.1862164 9.9631453-20.0840378 21.1396065-21.1494827v6.9051666c0 .6213493.2564869 1.1836948.660965 1.5981693.4143562.4043579.9765816.6608448 1.5980492.6608448 1.2528152 0 2.2590141-1.0160732 2.2590141-2.2590141v-6.9051666c11.1863365 1.0654459 20.0940323 9.9632664 21.1494827 21.1494827h-6.9051666c-.6213493 0-1.1836967.2564869-1.5979271.6608448-.4046021.4045982-.661087.9768181-.661087 1.5981674 0 1.2429428 1.0160751 2.2590141 2.2590141 2.2590141z" fill="#f95353"/></g></g><g><g><path d="m50.5028343 36.2624626h1.5093002c-1.0160751 8.22686-7.5266342 14.7474174-15.7536163 15.7536163v-1.5093002c0-.6314621-.256485-1.1935692-.660965-1.5981674-.40448-.4142342-.9765778-.6608467-1.5980492-.6608467-1.242939 0-2.2590141 1.0062027-2.2590141 2.2590141v1.5093002c-8.2269783-1.0061989-14.7375412-7.5267563-15.7536154-15.7536163h1.5093012c.6313438 0 1.1935692-.256485 1.5980473-.6608429.4143543-.4144745.6609669-.9768219.6609669-1.5981712 0-1.2528114-1.0062008-2.2590122-2.2590141-2.2590122h-1.5093012c1.0061998-8.22686 7.5266371-14.7474155 15.7536154-15.7634907v1.5191746c0 .6213493.2564869 1.1836948.660965 1.5981693.4143562.4043579.9765816.6608448 1.5980492.6608448 1.2528152 0 2.2590141-1.0160732 2.2590141-2.2590141v-1.5191746c8.2269821 1.0160751 14.7474174 7.5366306 15.7536163 15.7634907h-1.5093002c-.6213493 0-1.1836967.2564869-1.5979271.6608448-.4046021.4045982-.661087.9768181-.661087 1.5981674-.0000001 1.2429428 1.016075 2.2590141 2.259014 2.2590141z" fill="#efefef"/></g></g><g><g><path d="m42.0505943 33.9927597c0 4.4477768-3.6089249 8.0568428-8.0568428 8.0568428-4.4364109 0-8.0453377-3.609066-8.0453377-8.0568428 0-4.436552 3.6089268-8.0453377 8.0453377-8.0453377 4.447918 0 8.0568428 3.6087857 8.0568428 8.0453377z" fill="#f95353"/></g></g><g><g><g><path d="m36.2589531 4.2589521v13.2382383c0 1.2475853-1.0113678 2.2589531-2.2589493 2.2589531h-.0000076c-1.2475815 0-2.2589512-1.0113678-2.2589512-2.2589531v-13.2382383c0-1.2475848 1.0113697-2.2589521 2.2589512-2.2589521h.0000076c1.2475815 0 2.2589493 1.0113673 2.2589493 2.2589521z" fill="#48495b"/></g></g><g><g><path d="m36.2589531 50.5028076v13.2382393c0 1.2475853-1.0113678 2.2589531-2.2589493 2.2589531h-.0000076c-1.2475815 0-2.2589512-1.0113678-2.2589512-2.2589531v-13.2382393c0-1.2475853 1.0113697-2.2589493 2.2589512-2.2589493h.0000076c1.2475815 0 2.2589493 1.011364 2.2589493 2.2589493z" fill="#48495b"/></g></g></g><g><g><g><path d="m63.7410469 36.2589531h-13.2382393c-1.2475853 0-2.2589493-1.0113678-2.2589493-2.2589493v-.0000076c0-1.2475815 1.011364-2.2589512 2.2589493-2.2589512h13.2382393c1.2475853 0 2.2589531 1.0113697 2.2589531 2.2589512v.0000076c0 1.2475815-1.0113678 2.2589493-2.2589531 2.2589493z" fill="#48495b"/></g></g><g><g><path d="m17.4971905 36.2589531h-13.2382384c-1.2475848 0-2.2589521-1.0113678-2.2589521-2.2589493v-.0000076c0-1.2475815 1.0113673-2.2589512 2.2589521-2.2589512h13.2382383c1.2475853 0 2.2589531 1.0113697 2.2589531 2.2589512v.0000076c.0000001 1.2475815-1.0113677 2.2589493-2.258953 2.2589493z" fill="#48495b"/></g></g></g></g></svg>