<svg id="Layer_1" enable-background="new 0 0 512 512" height="512" viewBox="0 0 512 512" width="512" xmlns="http://www.w3.org/2000/svg"><g><path d="m510.416 189.042-60.25-120.5c-2.541-5.082-7.735-8.292-13.416-8.292h-361.5c-5.682 0-10.875 3.21-13.416 8.292l-60.25 120.5c-2.887 5.774-1.755 12.749 2.81 17.314l241 241c2.929 2.929 6.768 4.394 10.606 4.394s7.678-1.464 10.606-4.394l241-241c4.566-4.565 5.697-11.54 2.81-17.314z" fill="#df5ccb"/><path d="m.87 190.75c-1.911 5.395-.6 11.483 3.524 15.606l241 241c2.929 2.929 6.768 4.394 10.606 4.394l-130.5-261z" fill="#f498c6"/><path d="m436.75 60.25h-180.75l-130.5 130.5h385.63c-.204-.578-.435-1.15-.714-1.708l-60.25-120.5c-2.541-5.082-7.735-8.292-13.416-8.292z" fill="#be4dd8"/><path d="m.87 190.75h124.63l-62.246-124.491c-.533.712-1.014 1.471-1.421 2.283l-60.25 120.5c-.278.558-.508 1.13-.713 1.708z" fill="#be4dd8"/><path d="m511.13 190.75c-.204-.578-.435-1.15-.714-1.708l-60.25-120.5c-.406-.813-.887-1.572-1.421-2.283l-62.245 124.491z" fill="#8e4dd5"/><path d="m256 190.75v261l130.5-261z" fill="#be4dd8"/><path d="m256 190.75v-130.5l130.5 130.5z" fill="#8e4dd5"/></g></svg>