<svg id="Layer_1" enable-background="new 0 0 53 53" height="512" viewBox="0 0 53 53" width="512" xmlns="http://www.w3.org/2000/svg"><g id="_x33_14"><g><path d="m42.3926888 14.0792065v32.9208069c0 2.7163773-2.2020607 4.918438-4.918438 4.918438h-21.9485006c-2.7163792 0-4.9184389-2.2020607-4.9184389-4.918438v-32.9208069c0-2.7163792 2.2020597-4.9184389 4.9184389-4.9184389h21.9485016c2.7163763 0 4.918437 2.2020597 4.918437 4.9184389z" fill="#f9b938"/></g><g><path d="m30.9100342 3.2380431v9.6735201h-8.8200684v-9.6735201c0-1.1910005.9654961-2.156497 2.156496-2.156497h4.5070763c1.191 0 2.1564961.9654965 2.1564961 2.156497z" fill="#474646"/></g><g><path d="m30.90979 3.2360129v9.6799927h-8.8199463v-1.7000122h6.3187885c.7627945 0 1.3811626-.6183681 1.3811626-1.3811636v-7.7988291c0-.2600098-.0500488-.5199585-.1400146-.75.7399903.3300171 1.2600098 1.0800171 1.2600098 1.9500122z" fill="#2d2c2c"/></g><g><path d="m28.3681011 5.1980772c0 1.0400219-.8376598 1.8777995-1.8681011 1.8777995s-1.8681011-.8377776-1.8681011-1.8777995c0-1.030324.8376598-1.8681016 1.8681011-1.8681016s1.8681011.8377776 1.8681011 1.8681016z" fill="#fff"/></g><g><path d="m28.0898438 4.2260032c-.3100586-.2399902-.6900635-.3699951-1.1000977-.3699951-1.0300293 0-1.8699951.8400269-1.8699951 1.8699951 0 .3699951.0999756.710022.2900391.9899902-.4700928-.3299561-.7800293-.8899536-.7800293-1.5199585 0-1.0300293.8399658-1.8699951 1.8699951-1.8699951.6799316 0 1.2700195.3599853 1.5900879.8999634z" fill="#d0d0f7"/></g><g><g opacity=".3"><g><path d="m12.7080078 28.5383816c-.359375 0-.6503906-.2910156-.6503906-.6503906v-5.3310547c0-.359375.2910156-.6503906.6503906-.6503906s.6503906.2910156.6503906.6503906v5.3310547c0 .359375-.2910156.6503906-.6503906.6503906z" fill="#fff"/></g></g><g opacity=".3"><g><path d="m12.7080078 19.8010769c-.359375 0-.6503906-.2910156-.6503906-.6503906v-.6923828c0-.359375.2910156-.6503906.6503906-.6503906s.6503906.2910156.6503906.6503906v.6923828c0 .359375-.2910156.6503906-.6503906.6503906z" fill="#fff"/></g></g></g><g><path d="m42.3897705 14.0760403v32.9199829c0 2.7199707-2.2000732 4.9199829-4.9200439 4.9199829h-21.9399414c-1.7199707 0-3.2299805-.8800049-4.1101074-2.2199707.670166.3499756 1.4301758.539978 2.2401123.539978h21.9499512c2.710083 0 4.9100342-2.2000122 4.9100342-4.9099731v-32.9300537c0-1-.3000488-1.9299927-.8200684-2.6999512 1.6000976.8099975 2.6900634 2.4699707 2.6900634 4.3800049z" fill="#e5a320"/></g><g><path d="m15.5253906 47.9184608c-.5058594 0-.9179688-.4121094-.9179688-.9179688v-29.9208983c0-.5068359.4121094-.9189453.9179688-.9189453h21.9492188c.5058594 0 .9179688.4121094.9179688.9189453v29.9208984c0 .5058594-.4121094.9179688-.9179688.9179688h-21.9492188z" fill="#fff"/></g><g><g><path d="m35.8999634 38.5987778c0 .4292259-.3479538.7771797-.7771797.7771797h-17.2455674c-.429224 0-.7771797-.3479538-.7771797-.7771797 0-.4292259.3479557-.7771797.7771797-.7771797h17.2455673c.429226 0 .7771798.3479537.7771798.7771797z" fill="#e4e3ff"/></g><g><path d="m33.8999634 41.6831131v.0000038c0 .4292221-.3479538.7771797-.7771797.7771797h-13.2455674c-.429224 0-.7771797-.3479576-.7771797-.7771797v-.0000038c0-.4292221.3479557-.7771797.7771797-.7771797h13.2455673c.429226 0 .7771798.3479576.7771798.7771797z" fill="#e4e3ff"/></g><g><path d="m32.1499634 44.7674522c0 .4292259-.3479557.7771797-.7771797.7771797h-9.7455673c-.429224 0-.7771797-.3479538-.7771797-.7771797 0-.4292259.3479557-.7771797.7771797-.7771797h9.7455673c.429224 0 .7771797.3479538.7771797.7771797z" fill="#e4e3ff"/></g></g><g><g><path d="m35.8997803 38.5959969c0 .4299927-.3499756.7800293-.7800293.7800293h-17.2399903c-.4300537 0-.7799072-.3500366-.7799072-.7800293 0-.039978 0-.0700073.0098877-.1099854.1500244.1799927.3699951.2999878.6199951.2999878h17.25c.3900146 0 .7099609-.289978.7600098-.6599731.1000977.1300048.1600342.289978.1600342.4699707z" fill="#d0d0f7"/></g><g><path d="m33.8997803 41.6860237c0 .4299927-.3499756.7700195-.7800293.7700195h-13.2399903c-.4300537 0-.7799072-.3400269-.7799072-.7700195 0-.0400391 0-.0700073.0098877-.1099854.1500244.1799927.3699951.2999878.6199951.2999878h13.25c.3900146 0 .7099609-.2900391.7600098-.6699829.1000977.1299439.1600342.2999878.1600342.4799805z" fill="#d0d0f7"/></g><g><path d="m32.1497803 44.7660408c0 .4299927-.3499756.7799683-.7800293.7799683h-9.7399902c-.4300537 0-.7799072-.3499756-.7799072-.7799683 0-.0400391 0-.0700073.0098877-.1100464.1500244.1799927.3699951.3000488.6199951.3000488h9.75c.3900146 0 .7099609-.2900391.7600098-.6700439.1000976.1300049.1600341.2999878.1600341.4800415z" fill="#d0d0f7"/></g></g><g><path d="m33.2605667 13.1353245v.000001c0 .4584932-.3716812.8301754-.8301735.8301754h-11.8607864c-.4584923 0-.8301735-.3716822-.8301735-.8301754v-.000001c0-.4584932.3716812-.8301744.8301735-.8301744h11.8607864c.4584923-.0000001.8301735.3716811.8301735.8301744z" fill="#474646"/></g><g><g><path d="m33.5698242 20.7159939v11.8500347c0 .4599609-.1900635.8900146-.5 1.1900024-.0700684.0799561-.1600342.1499634-.25.2099609-.2700195.1799927-.5900879.2900391-.9400635.2900391h-10.75c-.3499756 0-.6800537-.1100464-.9500732-.2900391-.1799316-.1300049-.3199463-.2699585-.4499512-.4499512-.1799316-.2700195-.2900391-.6000366-.2900391-.9500122v-11.8500346c0-.9299927.75-1.6900024 1.6800537-1.6900024h10.7600098c.0799561 0 .1500244 0 .2200928.0200195.829834.0999756 1.4699707.8200073 1.4699707 1.6699829z" fill="#a2a2f9"/></g><g><path d="m33.5698242 20.7159939v11.8500347c0 .4599609-.1900635.8900146-.5 1.1900024-.0700684.0799561-.1600342.1499634-.25.2099609-.2700195.1799927-.5900879.2900391-.9400635.2900391h-10.75c-.3499756 0-.6800537-.1100464-.9500732-.2900391-.1799316-.1300049-.3199463-.2699585-.4499512-.4499512-.1799316-.2700195-.2900391-.6000366-.2900391-.9500122v-.0800171c.0700684.0200195.1401367.0200195.210083.0200195h10.7600098c.9300537 0 1.6900635-.7600079 1.6900635-1.6900005v-11.7700194c.829834.0999756 1.4699707.8200073 1.4699707 1.6699829z" fill="#7979f7"/></g></g><g><path d="m29.6713696 30.0128994c.678896 0 1.1814709-.6692715.9571877-1.310051-.5976982-1.7076321-2.2190857-2.9324627-4.1237888-2.9324627-1.9122066 0-3.5351772 1.2247601-4.1332626 2.9323158-.2244434.6407909.2781792 1.3101978.9571419 1.3101978h6.3427218z" fill="#fff"/></g><g><path d="m28.3710175 22.9862099c0 1.0364056-.83461 1.9360828-1.8710175 1.9360828-1.0272255 0-1.8710518-.8996773-1.8710518-1.9360828 0-1.0272255.8438358-1.8710632 1.8710632-1.8710632 1.0364056-.0000001 1.8710061.8438377 1.8710061 1.8710632z" fill="#fff"/></g><g opacity=".3"><g><path d="m21.4862289 25.7703857c-.2763672 0-.5-.2236328-.5-.5v-3.3472385c0-.2763672.2236328-.5.5-.5s.5.2236328.5.5v3.3472385c0 .2763672-.2236328.5-.5.5z" fill="#fff"/></g></g><g opacity=".3"><g><path d="m23.3532352 7.6772137c-.2763672 0-.5-.2236328-.5-.5v-1.9061971c0-.2763672.2236328-.5.5-.5s.5.2236328.5.5v1.9061971c0 .2763672-.2236328.5-.5.5z" fill="#fff"/></g></g><g opacity=".3"><g><path d="m23.3532352 4.1316762c-.2763672 0-.5-.2236328-.5-.5v-.1956048c0-.2763672.2236328-.5.5-.5s.5.2236328.5.5v.1956048c0 .2763672-.2236328.5-.5.5z" fill="#fff"/></g></g></g></svg>