<svg id="Layer_1" enable-background="new 0 0 55 55" height="512" viewBox="0 0 55 55" width="512" xmlns="http://www.w3.org/2000/svg"><g id="_x36_1"><g><g><g><path d="m46.3652916 45.2979622h-37.7305813c-2.8341331 0-5.1316519-2.2975197-5.1316519-5.1316528v-20.9576321c0-2.8341331 2.2975187-5.1316509 5.1316519-5.1316509h37.7305832c2.8341331 0 5.131649 2.2975178 5.131649 5.1316509v20.9576321c-.0000019 2.8341331-2.2975178 5.1316528-5.1316509 5.1316528z" fill="#626681"/></g></g><g><g><path d="m46.3652687 14.0770264h-5.7198677c-2.1170692 0-3.8332939 1.7162237-3.8332939 3.8332939v.0000191c0 8.4913788-6.8836231 15.375-15.3750019 15.375h-11.053051c-3.8002543 0-6.880969 3.0807152-6.880969 6.88097v.0000114c0 2.8341331 2.2975192 5.1316528 5.1316528 5.1316528h37.7305298c2.8341331 0 5.1316528-2.2975197 5.1316528-5.1316528v-20.9576416c.0000009-2.8341331-2.2975187-5.1316528-5.1316519-5.1316528z" fill="#4d5471"/></g></g><g><g><path d="m8.6344929 43.120369c-1.6288095 0-2.953546-1.3252716-2.953546-2.9540787v-20.9576321c0-1.628809 1.3247366-2.9540768 2.953546-2.9540768h37.7305374c1.6288109 0 2.9546089 1.3252678 2.9546089 2.9540768v20.9576321c0 1.6288071-1.325798 2.9540787-2.9546089 2.9540787z" fill="#e7e7e7"/></g></g><g><g><path d="m46.3655663 16.2545815h-.5089684c-5.3424797 0-9.6734161 4.3309345-9.6734161 9.6734161v.0000191c0 6.1881256-5.0164661 11.2045898-11.2045898 11.2045898h-16.2639676c-1.6754537 0-3.0336776 1.358223-3.0336776 3.0336761v.0000076c0 1.6314926 1.3225856 2.9540787 2.9540772 2.9540787h37.7300072c1.6317863 0 2.9546089-1.3228264 2.9546089-2.9546127v-20.957098c.000001-1.6314926-1.3225812-2.9540767-2.9540738-2.9540767z" fill="#d5d3d4"/></g></g><g><g><g><path d="m28.464983 21.661974v-.000002c0-.8153057.6609344-1.4762402 1.4762402-1.4762402h10.6081543c.8153038 0 1.4762383.6609344 1.4762383 1.4762402v.0000019c0 .8153057-.6609344 1.4762402-1.4762383 1.4762402h-10.6081544c-.8153057 0-1.4762401-.6609344-1.4762401-1.4762401z" fill="#c4c4c4"/></g></g><g><g><path d="m28.464983 26.1702709v-.2665539c0-.405386.3286285-.7340164.7340145-.7340164h16.9104576c.4053841 0 .7340126.3286304.7340126.7340164v.2665539c0 .4053841-.3286285.7340145-.7340126.7340145h-16.9104576c-.405386 0-.7340145-.3286304-.7340145-.7340145z" fill="#c4c4c4"/></g></g><g><g><path d="m28.464983 29.9363403v-.2665539c0-.4053841.3286285-.7340145.7340145-.7340145h16.9104576c.4053841 0 .7340126.3286304.7340126.7340145v.2665539c0 .405386-.3286285.7340164-.7340126.7340164h-16.9104576c-.405386.0000001-.7340145-.3286304-.7340145-.7340164z" fill="#c4c4c4"/></g></g><g><g><path d="m28.464983 33.7024117v-.266552c0-.4053879.3286285-.7340164.7340145-.7340164h11.2428169c.4053879 0 .7340164.3286285.7340164.7340164v.266552c0 .4053841-.3286285.7340164-.7340164.7340164h-11.2428169c-.405386 0-.7340145-.3286324-.7340145-.7340164z" fill="#c4c4c4"/></g></g><g><g><path d="m27.8525848 21.1176205v-.0000019c0-.8153057.6609344-1.4762402 1.4762402-1.4762402h10.6081524c.8153038 0 1.4762383.6609344 1.4762383 1.4762402v.0000019c0 .8153057-.6609344 1.4762402-1.4762383 1.4762402h-10.6081524c-.8153057-.0000001-1.4762402-.6609345-1.4762402-1.4762402z" fill="#fc4a32"/></g></g><g><g><path d="m27.8736897 21.3270264c.102478.71521.7115479 1.2668457 1.4551392 1.2668457h10.6081561c.7435913 0 1.3526611-.5516357 1.4551392-1.2668457z" fill="#e23e2d"/></g></g><g><g><path d="m34.2080078 38.8864441v-.0000038c0-.8809052.7141151-1.5950203 1.5950203-1.5950203h9.5208054c.880909 0 1.5950241.7141151 1.5950241 1.5950203v.0000038c0 .8809052-.7141151 1.5950241-1.5950241 1.5950241h-9.5208015c-.880909 0-1.5950242-.714119-1.5950242-1.5950241z" fill="#e7e7e7"/></g></g></g></g><g><g><g><path d="m23.9358826 29.6868629c0 1.9631119-.7765331 3.7255669-2.0503922 5.0168419-1.3000088 1.3349419-3.1235447 2.1637688-5.13027 2.1637688-2.0154581 0-3.8302612-.8288269-5.1390018-2.1637688-1.2650738-1.291275-2.0416059-3.05373-2.0416059-5.0168419 0-3.9611034 3.2107716-7.1806087 7.1806078-7.1806087 3.9611568 0 7.1806621 3.2195053 7.1806621 7.1806087z" fill="#63c558"/></g></g><g><g><path d="m19.7675076 27.4909v.0572777c0 2.6653156-2.1606541 4.825983-4.8259706 4.825983h-.6444874c-1.9682102 0-2.7260561 2.6554146-1.0028543 3.6064301 1.283144.708149 2.8062973 1.034584 4.4178581.8258553 3.1388016-.4065361 5.7000351-2.9303207 6.1468906-6.0636368.2104321-1.4755402-.0287781-2.8790016-.6002159-4.0955486-.8238889-1.7540036-3.4912205-1.094225-3.4912205.8436393z" fill="#58b44f"/></g></g><g><g><path d="m21.8854904 34.7037048c-1.3000088 1.3349419-3.1235447 2.1637688-5.13027 2.1637688-2.0154581 0-3.8302612-.8288269-5.1390018-2.1637688.789052-.7462349 1.5091295-.5561142 3.5423765-.9859238v-.6194878l.0697613.0349312c.0087337-.0261993.0087337-.0436134.0087337-.0698128.0087328-.0698166.0174665-.1483116.0174665-.2181244v-.1221619c-.5536013-.4744453-.9518061-.985611-1.3000078-2.2684631-.410099-.0610809-.7852659-.4537144-.6631041-1.038271.0436144-.2093887.1221628-.3228168.2181244-.3751659-.1396294-.3577518-.2443247-.7329178-.3054056-1.1168175-.0086794-.0174141-.0086794-.0348797-.0086794-.0610809h-.0087337v-.0086803c-.6107569-.3490181-.724185-1.2476597-.724185-1.2476597.5758228.3053513 2.6174822-1.3524075 2.6960297-1.3611412 1.338912-.6389961 2.9522772-.5476704 3.8738222.5584087.0436668.0523472.0872822.1046944.1308956.1396294.0698147.0436134.1396294.0610809.2093906.1046944.2007084.1046944.3228188.3228188.3926315.5409412.11343.3402863.1570435.6892509.2006569 1.038271.034935.2181225.0610809.4449806.0262012.6717834-.0348816.2355919-.1396294.4624481-.2268581.6893044.1483097.0087337.3315525.0872288.4013672.4275131.1221085.6020241-.1919765 1.0120697-.6194897 1.0470047-.2127342.8061066-.6376705 1.7370052-1.291275 2.2597294v.1221619c0 .0698128 0 .1483078.0087337.2181244 0 .0261993.0086803.0436134.0086803.0698128l.0698147-.0349312v.6194878c2.2627525.4313278 2.5962601.3144684 3.2369728.7416534.1134283.0697594.2093889.1483078.3053514.2442703z" fill="#e7e7e7"/></g></g></g><g><g><g><path d="m29.0771141 17.4520264h-3.1481113c-1.0941887 0-1.9134064-1.0032825-1.6946259-2.0753736l.8756447-4.2908974c.1643391-.8053055.8727226-1.383729 1.6946259-1.383729h1.396822c.8219032 0 1.5302868.5784235 1.6946259 1.383729l.8756428 4.2908974c.2187823 1.072091-.6004373 2.0753736-1.6946241 2.0753736z" fill="#d5d3d4"/></g></g><g><g><path d="m30.7717609 15.3766479-.8756714-4.2908936c-.1565552-.7674561-.8117676-1.3132324-1.5839844-1.3643799v3.1264648c0 1.6223364-1.3151627 2.9375-2.9375 2.9375h-1.1734619c.0314331.9049683.7746582 1.666687 1.7278442 1.666687h3.1481552c1.0941907.0000002 1.9134084-1.0032862 1.6946183-2.0753783z" fill="#c4c4c4"/></g></g></g><g><g><circle cx="27.504" cy="11.869" fill="#626681" r="1.028"/></g></g></g></svg>