<svg height="512" viewBox="0 0 58 55" width="512" xmlns="http://www.w3.org/2000/svg"><g id="Page-1" fill="none" fill-rule="evenodd"><g id="008---Abacus"><g fill="#b19046"><path id="Rectangle" d="m9 35h40v4h-40z"/><path id="Rectangle" d="m9 20h40v4h-40z"/><path id="Rectangle" d="m9 5h40v4h-40z"/><path id="Path" d="m10 47h46c1.1032019.0032948 1.9967052.8967981 2 2v4c-.0032948 1.1032019-.8967981 1.9967052-2 2h-54c-1.10320187-.0032948-1.9967052-.8967981-2-2v-4c.0032948-1.1032019.89679813-1.9967052 2-2z"/></g><rect id="Rectangle" fill="#e4c05c" height="50" rx="2" width="6" x="4"/><rect id="Rectangle" fill="#e4c05c" height="50" rx="2" width="6" x="48"/><circle id="Oval" cx="17" cy="7" fill="#e64c3c" r="3"/><circle id="Oval" cx="23" cy="7" fill="#3b97d3" r="3"/><circle id="Oval" cx="35" cy="22" fill="#f0c419" r="3"/><circle id="Oval" cx="29" cy="22" fill="#e64c3c" r="3"/><circle id="Oval" cx="41" cy="22" fill="#955ba5" r="3"/><circle id="Oval" cx="17" cy="37" fill="#955ba5" r="3"/><circle id="Oval" cx="23" cy="37" fill="#f0c419" r="3"/></g></g></svg>