<svg height="512pt" viewBox="0 0 512 512.00064" width="512pt" xmlns="http://www.w3.org/2000/svg"><path d="m279.578125 326.621094-103.109375 26.480468-85.449219-26.480468 25.601563-34.78125c4.476562-6.054688 6.886718-13.390625 6.882812-20.921875v-244.433594h123.585938v244.433594c.039062 7.523437 2.449218 14.847656 6.886718 20.921875zm0 0" fill="#b0d3f0"/><g fill="#84b5cb"><path d="m176.46875 114.757812c-.011719 4.871094-3.957031 8.8125-8.824219 8.828126h-44.140625v-17.65625h44.140625c4.867188.015624 8.8125 3.960937 8.824219 8.828124zm0 0"/><path d="m158.816406 158.898438c-.015625 4.867187-3.960937 8.8125-8.828125 8.824218h-26.484375v-17.652344h26.484375c4.867188.011719 8.8125 3.957032 8.828125 8.828126zm0 0"/><path d="m176.46875 203.035156c-.011719 4.867188-3.957031 8.8125-8.824219 8.828125h-44.140625v-17.65625h44.140625c4.867188.015625 8.8125 3.957031 8.824219 8.828125zm0 0"/><path d="m158.816406 247.171875c-.015625 4.871094-3.960937 8.8125-8.828125 8.828125h-26.484375v-17.65625h26.484375c4.867188.015625 8.8125 3.960938 8.828125 8.828125zm0 0"/></g><path d="m346.753906 506.261719c-6.890625 3.804687-14.640625 5.78125-22.507812 5.738281h-277.894532c-17.453124-.003906-33.425781-9.8125-41.328124-25.371094-7.902344-15.5625-6.394532-34.246094 3.898437-48.339844l82.097656-111.667968h188.558594l38.132813 51.90625zm0 0" fill="#d75e72"/><path d="m141.160156 379.585938c0 9.75-7.90625 17.65625-17.65625 17.65625s-17.652344-7.90625-17.652344-17.65625 7.902344-17.65625 17.652344-17.65625 17.65625 7.90625 17.65625 17.65625zm0 0" fill="#fb7b76"/><path d="m176.46875 441.378906c0 9.75-7.902344 17.65625-17.652344 17.65625s-17.65625-7.90625-17.65625-17.65625 7.90625-17.65625 17.65625-17.65625 17.652344 7.90625 17.652344 17.65625zm0 0" fill="#fb7b76"/><path d="m114.675781 485.515625c-.589843-.019531-1.179687-.078125-1.765625-.175781-.550781-.097656-1.085937-.277344-1.585937-.527344-.5625-.195312-1.097657-.460938-1.589844-.796875-.441406-.351563-.882813-.707031-1.324219-1.058594-.777344-.859375-1.40625-1.84375-1.855468-2.914062-.933594-2.136719-.933594-4.570313 0-6.707031.449218-1.070313 1.074218-2.054688 1.855468-2.914063 2.558594-2.464844 6.328125-3.191406 9.621094-1.855469 1.070312.449219 2.054688 1.078125 2.914062 1.855469 2.546876 2.527344 3.3125 6.339844 1.9375 9.652344s-4.621093 5.464843-8.207031 5.441406zm0 0" fill="#f3d55b"/><path d="m176.46875 379.585938c-.589844-.019532-1.179688-.078126-1.765625-.175782-.550781-.097656-1.085937-.277344-1.585937-.53125-.5625-.191406-1.097657-.460937-1.589844-.792968-.441406-.355469-.882813-.707032-1.324219-1.058594-.777344-.859375-1.40625-1.84375-1.855469-2.914063-.933594-2.136719-.933594-4.570312 0-6.710937.449219-1.066406 1.074219-2.054688 1.855469-2.910156 2.558594-2.46875 6.328125-3.195313 9.621094-1.855469 1.070312.449219 2.054687 1.074219 2.914062 1.855469 2.546875 2.523437 3.3125 6.339843 1.9375 9.652343s-4.617187 5.460938-8.207031 5.441407zm0 0" fill="#f3d55b"/><path d="m388.332031 88.277344c0 14.625-11.855469 26.480468-26.480469 26.480468-14.628906 0-26.484374-11.855468-26.484374-26.480468 0-14.628906 11.855468-26.484375 26.484374-26.484375 14.625 0 26.480469 11.855469 26.480469 26.484375zm0 0" fill="#3b97d3"/><path d="m458.953125 150.070312c0 9.75-7.90625 17.652344-17.65625 17.652344s-17.652344-7.902344-17.652344-17.652344c0-9.753906 7.902344-17.65625 17.652344-17.65625s17.65625 7.902344 17.65625 17.65625zm0 0" fill="#67b9cc"/><path d="m458.953125 17.65625c0 9.75-7.90625 17.652344-17.65625 17.652344s-17.652344-7.902344-17.652344-17.652344 7.902344-17.65625 17.652344-17.65625 17.65625 7.90625 17.65625 17.65625zm0 0" fill="#67b9cc"/><path d="m511.917969 211.863281v132.414063l-50.140625-22.246094c-18.226563-8.125-39.339844-6.359375-55.964844 4.675781l-.089844.089844c-16.394531 10.886719-37.171875 12.777344-55.261718 5.03125l-32.75-14.035156v-55.4375c0-4.125-1.433594-8.117188-4.058594-11.300781l-27.984375-33.542969c-2.207031-2.628907-2.6875-6.300781-1.226563-9.410157 1.460938-3.109374 4.589844-5.085937 8.023438-5.066406h210.625c4.871094.011719 8.816406 3.957032 8.828125 8.828125zm0 0" fill="#90bae1"/><path d="m511.917969 317.792969v141.242187c-.023438 29.242188-23.722657 52.941406-52.964844 52.964844h-88.277344c-29.242187-.023438-52.941406-23.722656-52.964843-52.964844v-167.726562l32.75 14.039062c18.089843 7.746094 38.867187 5.851563 55.261718-5.03125l.089844-.089844c16.625-11.039062 37.738281-12.804687 55.964844-4.679687zm0 0" fill="#4482c3"/><path d="m379.503906 247.171875h-17.652344c-4.878906 0-8.828124-3.953125-8.828124-8.828125s3.949218-8.828125 8.828124-8.828125h17.652344c4.875 0 8.828125 3.953125 8.828125 8.828125s-3.953125 8.828125-8.828125 8.828125zm0 0" fill="#b0d3f0"/><path d="m476.609375 247.171875h-61.792969c-4.875 0-8.828125-3.953125-8.828125-8.828125s3.953125-8.828125 8.828125-8.828125h61.792969c4.875 0 8.828125 3.953125 8.828125 8.828125s-3.953125 8.828125-8.828125 8.828125zm0 0" fill="#b0d3f0"/><path d="m397.160156 361.929688c0 9.753906-7.90625 17.65625-17.65625 17.65625s-17.652344-7.902344-17.652344-17.65625c0-9.75 7.902344-17.652344 17.652344-17.652344s17.65625 7.902344 17.65625 17.652344zm0 0" fill="#67b9cc"/><path d="m432.46875 423.722656c0 9.753906-7.902344 17.65625-17.652344 17.65625s-17.65625-7.902344-17.65625-17.65625c0-9.75 7.90625-17.652344 17.65625-17.652344s17.652344 7.902344 17.652344 17.652344zm0 0" fill="#67b9cc"/><path d="m370.675781 467.863281c-.589843-.023437-1.179687-.082031-1.765625-.179687-.550781-.097656-1.085937-.273438-1.585937-.527344-.5625-.195312-1.097657-.460938-1.589844-.792969-.441406-.355469-.882813-.707031-1.324219-1.0625-.777344-.859375-1.40625-1.84375-1.855468-2.910156-.933594-2.140625-.933594-4.570313 0-6.710937.449218-1.070313 1.074218-2.054688 1.855468-2.914063 2.558594-2.464844 6.328125-3.191406 9.621094-1.851563 1.070312.445313 2.054688 1.074219 2.914062 1.851563 2.546876 2.527344 3.3125 6.34375 1.9375 9.652344-1.375 3.3125-4.621093 5.464843-8.207031 5.445312zm0 0" fill="#ecf0f1"/><path d="m432.46875 361.929688c-.589844-.019532-1.179688-.078126-1.765625-.175782-.550781-.097656-1.085937-.277344-1.585937-.527344-.5625-.195312-1.097657-.460937-1.589844-.796874-.441406-.351563-.882813-.707032-1.324219-1.058594-.777344-.859375-1.40625-1.84375-1.855469-2.914063-.933594-2.136719-.933594-4.570312 0-6.707031.449219-1.070312 1.074219-2.054688 1.855469-2.914062 2.558594-2.464844 6.328125-3.191407 9.621094-1.855469 1.070312.449219 2.054687 1.078125 2.914062 1.855469 2.546875 2.527343 3.3125 6.339843 1.9375 9.652343s-4.617187 5.464844-8.207031 5.441407zm0 0" fill="#ecf0f1"/><path d="m114.675781 0h141.242188c4.875 0 8.828125 3.953125 8.828125 8.828125v17.65625c0 9.75-7.902344 17.652344-17.65625 17.652344h-123.585938c-9.75 0-17.652344-7.902344-17.652344-17.652344v-17.65625c0-4.875 3.949219-8.828125 8.824219-8.828125zm0 0" fill="#90bae1"/></svg>