<svg height="512" viewBox="0 0 58 58" width="512" xmlns="http://www.w3.org/2000/svg"><g id="Page-1" fill="none" fill-rule="evenodd"><g id="027---Science" fill-rule="nonzero"><path id="Shape" d="m40.43 54.55c-2.2326557 2.23544-5.2707097 3.4787717-8.43 3.45h-19.98c-4.50812978.0018115-8.63693464-2.5231921-10.68922913-6.5370836-2.05229448-4.0138915-1.68178414-8.8393857.95922913-12.4929164l11.01-14.61c1.1034942-1.5358363 1.6980113-3.3788394 1.7-5.27v-15.09h14v15.09c.0019887 1.8911606.5965058 3.7341637 1.7 5.27l8.3 10.99z" fill="#65ddb9"/><path id="Shape" d="m39 42.13v7.72c-1.3741188 2.5830888-4.0743551 4.1839432-7 4.15h-19.98c-3.00367428.000651-5.75460795-1.681258-7.12313645-4.3550548-1.36852849-2.6737968-1.12401312-5.8888654.63313645-8.3249452l2.33-3.22c.38166484-.5452337 1.01505265-.8581574 1.68-.83 2.38.12 4.41.97 9.46 3.73 5.2759538 2.8394392 11.6531755 2.7104532 16.81-.34.887353-.5080059 2.0152241-.2616892 2.61.57.2187296.2828514.4127752.5839567.58.9z" fill="#ff5364"/><path id="Shape" d="m55 4v46c0 4.418278-3.581722 8-8 8s-8-3.581722-8-8v-46z" fill="#9fc9d3"/><path id="Shape" d="m46.6 53.981c-2.0847937-.265847-3.6357468-2.0576286-3.6-4.159v-17.822c0-.5522847.4477153-1 1-1h6c.5522847 0 1 .4477153 1 1v18c-.0012623 1.1301346-.4799407 2.2071336-1.317972 2.9653614-.8380312.7582279-1.9574027 1.1271008-3.082028 1.0156386z" fill="#955ba5"/><circle id="Oval" cx="51" cy="17" fill="#955ba5" r="1"/><circle id="Oval" cx="48" cy="24" fill="#955ba5" r="3"/><circle id="Oval" cx="45" cy="13" fill="#955ba5" r="2"/><g fill="#ff5364"><circle id="Oval" cx="26" cy="35" r="3"/><circle id="Oval" cx="21" cy="26" r="2"/><circle id="Oval" cx="18" cy="32" r="1"/><circle id="Oval" cx="24" cy="19" r="1"/></g><path id="Shape" d="m58 3c0 1.65685425-1.3431458 3-3 3h-16c-1.6568542 0-3-1.34314575-3-3s1.3431458-3 3-3h16c.7956495 0 1.5587112.31607052 2.1213203.87867966.5626092.56260913.8786797 1.32567087.8786797 2.12132034z" fill="#84b5cb"/><path id="Shape" d="m32 3c0 1.65685425-1.3431458 3-3 3h-14c-1.6568542 0-3-1.34314575-3-3s1.3431458-3 3-3h14c.7956495 0 1.5587112.31607052 2.1213203.87867966.5626092.56260913.8786797 1.32567087.8786797 2.12132034z" fill="#46b29d"/></g></g></svg>