<svg id="Layer_1" enable-background="new 0 0 55 55" height="512" viewBox="0 0 55 55" width="512" xmlns="http://www.w3.org/2000/svg"><g id="_x39_1"><g><g><g><circle cx="27.248" cy="27.662" fill="#ff6252" r="23.463"/></g></g><g><g><path d="m38.0465431 8.4851398v.0000305c0 15.9965229-12.9677429 28.9642658-28.9642639 28.9642658h-.0000334c-1.4679642 0-2.3623013 1.6284332-1.5697193 2.8640442 4.6293316 7.2169876 13.0875139 11.7384911 22.5213852 10.6504517 10.6320591-1.2262268 19.2201519-9.7629738 20.5009441-20.3885956 1.1637726-9.6548119-3.548996-18.3088264-11.0267067-22.9022141-.6375093-.3916053-1.461606.0638386-1.461606.8120175z" fill="#fc4a32"/></g></g><g><g><circle cx="27.248" cy="27.662" fill="#e7e7e7" r="19.779"/></g></g><g><g><path d="m31.5458355 14.9340973v.0000286c0 12.0625153-9.7786007 21.841116-21.841114 21.841116h-.0000229c3.6402149 6.9929008 11.3214512 11.5461578 19.9578896 10.5225639 9.0222454-1.0693169 16.2698307-8.4018135 17.2453976-17.434679.8362274-7.7427311-2.8019485-14.6989107-8.6494217-18.6214657-2.8613931-1.9194546-6.7127286.2468786-6.7127286 3.6924362z" fill="#d5d3d4"/></g></g><g><g><circle cx="27.248" cy="27.662" fill="#ff6252" r="15.328"/></g></g><g><g><path d="m32.0514488 15.3470097v.0000191c0 9.1351719-7.4055214 16.5406914-16.5406914 16.5406914h-.00002c-1.4945641 0-2.5148535 1.5874157-1.8184099 2.9097958 2.8297453 5.3730049 8.7490492 8.8624458 15.4021463 8.0847931 6.9053211-.8071365 12.5098591-6.3703308 13.3613644-13.2703209.8334503-6.7537327-2.7334328-12.7676411-8.2153282-15.5823336-.9980173-.5124351-2.1890612.1954707-2.1890612 1.3173551z" fill="#fc4a32"/></g></g><g><g><circle cx="27.248" cy="27.662" fill="#e7e7e7" r="11.689"/></g></g><g><g><path d="m31.1606331 21.1253853v.0000153c0 6.090107-4.9370079 11.0271149-11.0271149 11.0271149h-.0000152c-1.7590866 0-2.6977406 2.0973396-1.5108414 3.3956642 2.4620991 2.6932411 6.167408 4.2299271 10.2091351 3.6990395 5.2117863-.6845779 9.4158115-4.961998 10.0237484-10.183279.4454308-3.8255634-.9601555-7.3301182-3.4355774-9.7470207-1.5850754-1.5476057-4.2593346-.4068338-4.2593346 1.8084658z" fill="#d5d3d4"/></g></g><g><g><circle cx="27.248" cy="27.662" fill="#ff6252" r="7.742"/></g></g><g><g><path d="m29.812315 23.4006748v.0000095c0 3.4905128-2.8296204 6.3201332-6.3201332 6.3201332h-.0000114c-1.903532 0-2.8746452 2.3547974-1.4739552 3.6437912 1.5417843 1.4188423 3.6605492 2.2189217 5.9671745 2.0054703 3.6119137-.3342438 6.5889206-3.2755318 6.9621124-6.8836288.2564011-2.4789524-.6593208-4.7469597-2.2593536-6.3247929-1.0634594-1.048706-2.8758335-.2545452-2.8758335 1.2390175z" fill="#fc4a32"/></g></g><g><g><circle cx="27.248" cy="27.662" fill="#e7e7e7" r="4.466"/></g></g><g><g><path d="m28.9455528 24.8813953v.0000057c0 2.114254-1.7139416 3.8281937-3.8281937 3.8281937h-.0000076c-1.1528988 0-1.7518234 1.4225731-.9120693 2.2125034 1.0255413.9646912 2.5064907 1.4479237 4.0924206 1.0865803 1.6347923-.3724785 2.954958-1.7120113 3.3089676-3.3509007.3756752-1.739193-.2625332-3.3524876-1.4344711-4.3674221-.4776135-.4136275-1.2266465-.0407828-1.2266465.5910397z" fill="#d5d3d4"/></g></g></g><g><g><g><path d="m13.9955044 47.0103989c1.1877136.8165779 2.4602165 1.5270691 3.7964115 2.1209259-1.336195-.5832405-2.6086979-1.2938004-3.7964115-2.1209259z" fill="#fc4a32"/></g></g><g><g><path d="m26.3817024 32.0366669c.2439518.0563126.5068665.0779305.7693291.084404-.2616215-.0066033-.5182571-.0306168-.7693291-.084404z" fill="#fc4a32"/></g></g><g><g><path d="m27.2512913 32.1320724c-.0342407 0-.0660858-.0101624-.1002598-.0110016.2024612.0051117.4070587.0023308.619875-.0207787-.1697102.0211679-.3393555.0317803-.5196152.0317803z" fill="#fc4a32"/></g></g><g><g><path d="m27.2512913 35.4089317c-.2545662 0-.4984512-.0106125-.7423382-.0423927.4772224.0423927.9649925.0423927 1.4740601 0-.2333355.0317802-.4878369.0423927-.7317219.0423927z" fill="#fc4a32"/></g></g><g><g><path d="m27.2512913 47.4451599c.7422714 0 1.4846077-.0423965 2.2481747-.1378632-.7423363.0954667-1.4846726.1378632-2.2481747.1378632z" fill="#fc4a32"/></g></g><g><g><path d="m28.8313694 39.2478027c-.0954704.0106163-.2014904.0212288-.2969608.0317802.1590958-.0105515.3287411-.0317802.4984512-.0636253-.0636253.0106163-.1378651.0212288-.2014904.0318451z" fill="#fc4a32"/></g></g><g><g><path d="m28.9797859 31.7821674c.2651157-.1060848.5090656-.2439499.7423363-.3923664-.2332707.1590309-.487772.296896-.7423363.3923664z" fill="#fc4a32"/></g></g><g><g><path d="m28.9586201 42.8957977c.4666061-.053009.9225979-.1272507 1.3785896-.2121048-.4029808.0848541-.8165779.1484795-1.2407246.2014885-.0424594.0106163-.0954704.0106163-.137865.0106163z" fill="#fc4a32"/></g></g><g><g><path d="m29.4994659 47.3072968c.2545013-.0211678.5090027-.0530128.7635021-.0954056-.2014904.0317802-.4029808.0636253-.6044712.0848541-.053009.0105515-.1060199.0105515-.1590309.0105515z" fill="#fc4a32"/></g></g><g><g><path d="m30.400835 30.8277245c.4029808-.4029808.7423363-.8908157.9649925-1.4210472-.2226562.5408458-.5513973 1.0286827-.9649925 1.4210472z" fill="#fc4a32"/></g></g><g><g><path d="m31.6203918 28.5689335c0 .0318451 0 .0530109-.0106144.084856-.0424595.2014904-.1060848.4029808-.1802597.5938568.0847893-.2227211.1484147-.4453773.1908741-.6787128z" fill="#fc4a32"/></g></g><g><g><path d="m36.0212746 45.3878593c.7423363-.3711357 1.4528275-.7741165 2.1315422-1.2301064-.6787148.4666062-1.389206.8801995-2.1315422 1.2301064z" fill="#fc4a32"/></g></g><g><g><path d="m13.4016485 46.5861893c-.5732098-.4179344-1.1202698-.8684883-1.6523132-1.335743.5306196.469326 1.0813045.9159966 1.6523132 1.335743z" fill="#fc4a32"/></g></g><g><g><path d="m11.7493353 45.2504463c-.0149517-.0132027-.030097-.0259552-.0449839-.0391579.0148869.0131379.030097.0260201.0449839.0391579z" fill="#fc4a32"/></g></g><g><g><path d="m42.4052811 40.3612747c-.6893272.8378067-1.4634438 1.6225395-2.3011856 2.3224182.8271255-.7104911 1.6012458-1.4846115 2.3011856-2.3224182z" fill="#fc4a32"/></g></g><g><g><path d="m42.4582901 29.6081676c-.0212288.1272507-.0317802.2651157-.0636215.3923664.0318413-.2014275.0636215-.4135323.0848541-.6150227 0 .0742398-.0106163.1484796-.0212326.2226563z" fill="#fc4a32"/></g></g><g><g><path d="m42.4052811 40.3612747c.3499718-.4135933.6787109-.8483543.9968376-1.2937317-.2969589.4453774-.6363144.8801384-.9968376 1.2937317z" fill="#fc4a32"/></g></g><g><g><path d="m46.6259041 31.6549168c.1078949-.5035.180584-1.0094585.2427216-1.5193024-.0608445.5093269-.1358605 1.0177441-.2427216 1.5193024z" fill="#fc4a32"/></g></g><g><g><path d="m46.8686256 30.1356144c.0176048-.1476383.0399323-.2948895.0542374-.4425926 0 .0530109 0 .1166363-.0106125.1697102-.0097122.0920409-.0324287.1812972-.0436249.2728824z" fill="#fc4a32"/></g></g><g><g><path d="m22.0019875 33.3410187c-.0742416-.0530128-.1484814-.1272507-.2227211-.2014923.0106144-.0106163.0212288-.0106163.0212288-.0212288.0530109.0742378.1272506.1484794.2014923.2227211z" fill="#fc4a32"/></g></g><g><g><path d="m26.0317326 31.9518127v.0106163c-.0212307 0-.0423946-.0106163-.0636253-.0212307.0212306 0 .0423946.0106144.0636253.0106144z" fill="#fc4a32"/></g></g><g><g><path d="m7.5160275 40.3082657c-.0081553-.0128174-.0102911-.0267296-.0180583-.0396118.1546292.239418.3003263.485054.4634995.7183228-.1484804-.2227212-.2969608-.4454385-.4454412-.678711z" fill="#fc4a32"/></g></g><g><g><path d="m14.5575161 36.2255096s-.0106144.0105515-.0212297.0105515c.1378651.2014885.2757311.4029808.4242115.6044693.0106144 0 .0212297 0 .0318451-.0106125-.1697112-.2014923-.3075762-.4029159-.4348269-.6044083zm15.2282314-12.2377834c.0106144-.10602.0212307-.2121048.0212307-.3181248-.0423965.0848541-.0954704.1590939-.1378651.243885-.0106163-.0106144-.0212307-.0211658-.0423965-.0317802-.0318451.0954056-.0742397.190876-.1166992.2757301.0848541-.0318451.1803246-.0424595.2651157-.0212288.1378651.0106144.2651157.053009.381815.1484795-.1166992-.1060848-.2439499-.2014904-.3712006-.2969608zm6.0128708-4.3054752c0 .0106144-.0106163.0106144-.0106163.0106144.2651176.2863464.519619.5938568.763504.9013672-.2332725-.3181267-.48777-.6150208-.7528877-.9119816zm2.1420899-8.6533489c0 .0106144-.0106125.0106144-.0106125.0106144.0530739.0317802.0954704.05301.1484795.0847902-.0423966-.0423947-.0848542-.0636244-.137867-.0954046zm12.5134506 13.1497001c-.0211639-.1166344-.0423965-.2226563-.053009-.3393555-.0530128-.3181267-.1060219-.6256371-.1802635-.9331474-.0106125-.084856-.0318451-.1590958-.053009-.2333355-.053009-.275732-.1166344-.5514622-.190876-.8271275-.0106125-.0530758-.0212288-.1060848-.0424576-.1590958v-.0106144c-.0106163-.0636253-.0317802-.1378651-.0530128-.2014904h-.0106125l-.0423965.0742397c-.0212288.053009-.0318451.10602-.0423965.1590958l-3.457119.7317219h-.0106125l-4.35849.9119816c0-.0212288-.0106125-.0424595-.0212288-.0636253.0106163.0211658.0106163.0423965.0106163.0636253l-3.5631409.7528877-3.9025612.816576-1.8345795.381752-1.4315987.3075752h-.0106144l-1.092308.2226563-.8695869.1803246-.5090027.1060219-.3075104.0742397-.5196171.10602-.7635651.1590958-.2121067.0423946c-.2332706.0424595-.4135303.2227211-.5090008.4878368 0 0-.0106163.0106144-.0106163.0212288-.1272488.2226563-.1696453.4771576-.1166344.7422733l.0212307.1166992.053009.2332706c.0212307.1272507.0742397.2438869.1378651.3499718.0530109.0848541.1060219.1590309.1802616.2121048.0423946.0423965.0848541.0847912.1272507.10602.2333355.1802616.5408459.2438869.8483562.1802616l.2969608-.0636253 2.0890808-.434761 1.6437702-.3499718 3.2874069-.6892624 3.9024963-.816576 3.5737534-.7423363c.0106163.0423946.0106163.0848541.0212326.1272488 0-.053009 0-.0954056-.0106163-.1378651l4.3584862-.9119816c.0318451.1590958.0530128.3287411.0636253.4983864-.0106125-.1696453-.0317802-.3392906-.053009-.4983864l3.4888992-.7317219c.0212288.0636253.0636253.1166344.1166992.1484795l.0317802.0211658c-.0106123-.0636252-.0212286-.1272505-.0212286-.1908759zm-32.174408 10.8485775c-.0318451.0105515-.053009.0211678-.0848541.0317802.1272507.1590958.2651157.3181267.4029808.4666061-.1378651-.159027-.243885-.3181228-.3181267-.4983863z" fill="#fc4a32"/></g></g><g><g><path d="m15.5437393 37.5510864c.0106153 0 0 .0105515 0 .0105515s0 0-.0106153-.0105515z" fill="#e23e2d"/></g></g><g><g><path d="m26.3817024 32.0366669c.2439518.0563126.5068665.0779305.7693291.084404-.2616215-.0066033-.5182571-.0306168-.7693291-.084404z" fill="#e23e2d"/></g></g><g><g><path d="m27.2512913 32.1320724c-.0342407 0-.0660858-.0101624-.1002598-.0110016.2024612.0051117.4070587.0023308.619875-.0207787-.1697102.0211679-.3393555.0317803-.5196152.0317803z" fill="#e23e2d"/></g></g><g><g><path d="m27.9830132 35.366539c-.2333355.0317802-.4878368.0423927-.7317219.0423927-.2545662 0-.4984512-.0106125-.7423382-.0423927.4772224.0423927.9649925.0423927 1.4740601 0z" fill="#e23e2d"/></g></g><g><g><path d="m27.2512913 47.4451599c.7422714 0 1.4846077-.0423965 2.2481747-.1378632-.7423363.0954667-1.4846726.1378632-2.2481747.1378632z" fill="#e23e2d"/></g></g><g><g><path d="m28.5344086 39.279583c.1590958-.0105515.3287411-.0317802.4984512-.0636253-.0636253.0106163-.1378651.0212288-.2014904.0318451-.0954704.0106162-.2014904.0212287-.2969608.0317802z" fill="#e23e2d"/></g></g><g><g><path d="m29.7221222 31.389801c-.2332706.1590309-.487772.296896-.7423363.3923664.2651158-.1060848.5090656-.2439499.7423363-.3923664z" fill="#e23e2d"/></g></g><g><g><path d="m28.9586201 42.8957977c.4666061-.053009.9225979-.1272507 1.3785896-.2121048-.4029808.0848541-.8165779.1484795-1.2407246.2014885-.0424594.0106163-.0954704.0106163-.137865.0106163z" fill="#e23e2d"/></g></g><g><g><path d="m30.2629681 47.2118912c-.2014904.0317802-.4029808.0636253-.6044712.0848541-.053009.0105515-.10602.0105515-.1590309.0105515.2545013-.0211678.5090026-.0530129.7635021-.0954056z" fill="#e23e2d"/></g></g><g><g><path d="m30.400835 30.8277245c.4029808-.4029808.7423363-.8908157.9649925-1.4210472-.2226562.5408458-.5513973 1.0286827-.9649925 1.4210472z" fill="#e23e2d"/></g></g><g><g><path d="m29.8493729 50.9765205c.3287411-.0318451.6574821-.0742416.9756718-.1272507-.2651157.053009-.5302315.0848541-.7953472.1166344-.0636254.0106163-.1166993.0106163-.1803246.0106163z" fill="#e23e2d"/></g></g><g><g><path d="m31.6203918 28.5689335c0 .0318451 0 .0530109-.0106144.084856-.0424595.2014904-.1060848.4029808-.1802597.5938568.0847893-.2227211.1484147-.4453773.1908741-.6787128z" fill="#e23e2d"/></g></g><g><g><path d="m32.0021439 50.6477776c.7529526-.1590958 1.495224-.349968 2.226944-.5832405-.73172.243885-1.4739915.434761-2.226944.5832405z" fill="#e23e2d"/></g></g><g><g><path d="m36.0212746 45.3878593c.7423363-.3711357 1.4528275-.7741165 2.1315422-1.2301064-.6787148.4666062-1.389206.8801995-2.1315422 1.2301064z" fill="#e23e2d"/></g></g><g><g><path d="m42.4052811 40.3612747c-.6893272.8378067-1.4634438 1.6225395-2.3011856 2.3224182.8271255-.7104911 1.6012458-1.4846115 2.3011856-2.3224182z" fill="#e23e2d"/></g></g><g><g><path d="m42.4582901 29.6081676c-.0212288.1272507-.0317802.2651157-.0636215.3923664.0318413-.2014275.0636215-.4135323.0848541-.6150227 0 .0742398-.0106163.1484796-.0212326.2226563z" fill="#e23e2d"/></g></g><g><g><path d="m42.4052811 40.3612747c.3499718-.4135933.6787109-.8483543.9968376-1.2937317-.2969589.4453774-.6363144.8801384-.9968376 1.2937317z" fill="#e23e2d"/></g></g><g><g><path d="m46.6259041 31.6549168c.1078949-.5035.180584-1.0094585.2427216-1.5193024-.0608445.5093269-.1358605 1.0177441-.2427216 1.5193024z" fill="#e23e2d"/></g></g><g><g><path d="m46.8686256 30.1356144c.0176048-.1476383.0399323-.2948895.0542374-.4425926 0 .0530109 0 .1166363-.0106125.1697102-.0097122.0920409-.0324287.1812972-.0436249.2728824z" fill="#e23e2d"/></g></g><g><g><path d="m36.551506 20.5942326c-.243885-.3075104-.4983864-.6150208-.763504-.9013672 0 0 .0106163 0 .0106163-.0106144.2651177.2969608.5196152.5938549.7528877.9119816z" fill="#e23e2d"/></g></g><g><g><path d="m38.0785751 11.1243067c-.053009-.0317802-.0954056-.05301-.1484795-.0847902 0 0 .0106125 0 .0106125-.0106144.0530129.0317802.0954705.0530099.137867.0954046z" fill="#e23e2d"/></g></g><g><g><path d="m50.4753876 24.3694782-.0317802-.0211658c-.0530739-.0318451-.0954704-.0848541-.1166992-.1484795l-3.4888992.7317219c.0212288.1590958.0423965.3287411.053009.4983864-.0106125-.1696453-.0317802-.3392906-.0636253-.4983864l-4.3584862.9119816c.0106163.0424595.0106163.084856.0106163.1378651-.0106163-.0423946-.0106163-.0848541-.0212326-.1272488l-3.5737534.7423363-3.9024963.816576-3.2874069.6892624-1.6437702.3499718c.5514622-.5620766 1.0710773-1.1559334 1.5482998-1.770956h.0106144c.0423946-.0424595.0742397-.0954685.10602-.1378651.328743-.4029808.6468658-.816576.9332123-1.2407875l1.8345795-.381752 3.9025612-.816576 3.5631409-.7528877c0-.0212288 0-.0424595-.0106163-.0636253.0106163.0211658.0212288.0423965.0212288.0636253l4.35849-.9119816h.0106125l3.457119-.7317219c.0105515-.0530758.0211678-.1060867.0423965-.1590958l.0423965-.0742397c-.0106163-.0742416-.0317802-.137867-.0530128-.2121067.0212326.0636253.0423965.1378651.0636253.2014904v.0106163c.0212326.0636253.0423965.1378651.0530128.2014904v.0106144c.0212288.0530109.0318451.10602.0424576.1590958.0742416.2756653.137867.5513954.190876.8271275.0211639.0742397.0423965.1484795.053009.2333355.0742416.3075104.1272507.6150208.1802635.9331474.0106125.1166992.0318451.2227211.0424576.3393555h.0105515c-.0000002.0636252.0106161.1272505.0212286.1908758z" fill="#e23e2d"/></g></g><g><g><path d="m50.4436073 31.2413216c.0530128-.3712006.0954056-.7529526.137867-1.1240883-.0106163.1484165-.0212288.3075104-.0424614.4559917-.0317802.2226544-.053009.4453755-.0954056.6680966z" fill="#e23e2d"/></g></g><g><g><path d="m26.3817024 32.0366669c.2439518.0563126.5068665.0779305.7693291.084404-.2616215-.0066033-.5182571-.0306168-.7693291-.084404z" fill="#e7e7e7"/></g></g><g><g><path d="m27.2512913 32.1320724c-.0342407 0-.0660858-.0101624-.1002598-.0110016.2024612.0051117.4070587.0023308.619875-.0207787-.1697102.0211679-.3393555.0317803-.5196152.0317803z" fill="#e7e7e7"/></g></g><g><g><path d="m27.2512913 35.4089317c-.2545662 0-.4984512-.0106125-.7423382-.0423927.4772224.0423927.9649925.0423927 1.4740601 0-.2333355.0317802-.4878369.0423927-.7317219.0423927z" fill="#e7e7e7"/></g></g><g><g><path d="m27.2512913 47.4451599c.7422714 0 1.4846077-.0423965 2.2481747-.1378632-.7423363.0954667-1.4846726.1378632-2.2481747.1378632z" fill="#e7e7e7"/></g></g><g><g><path d="m29.0328598 39.2159576c-.0636253.0106163-.1378651.0212288-.2014904.0318451-.0954704.0106163-.2014904.0212288-.2969608.0317802.1590957-.0105514.328741-.0317802.4984512-.0636253z" fill="#e7e7e7"/></g></g><g><g><path d="m28.9797859 31.7821674c.2651157-.1060848.5090656-.2439499.7423363-.3923664-.2332707.1590309-.487772.296896-.7423363.3923664z" fill="#e7e7e7"/></g></g><g><g><path d="m28.9586201 42.8957977c.4666061-.053009.9225979-.1272507 1.3785896-.2121048-.4029808.0848541-.8165779.1484795-1.2407246.2014885-.0424594.0106163-.0954704.0106163-.137865.0106163z" fill="#e7e7e7"/></g></g><g><g><path d="m30.400835 30.8277245c.4029808-.4029808.7423363-.8908157.9649925-1.4210472-.2226562.5408458-.5513973 1.0286827-.9649925 1.4210472z" fill="#e7e7e7"/></g></g><g><g><path d="m31.6203918 28.5689335c0 .0318451 0 .0530109-.0106144.084856-.0424595.2014904-.1060848.4029808-.1802597.5938568.0847893-.2227211.1484147-.4453773.1908741-.6787128z" fill="#e7e7e7"/></g></g><g><g><path d="m36.0212746 45.3878593c.7423363-.3711357 1.4528275-.7741165 2.1315422-1.2301064-.6787148.4666062-1.389206.8801995-2.1315422 1.2301064z" fill="#e7e7e7"/></g></g><g><g><path d="m42.4052811 40.3612747c-.6893272.8378067-1.4634438 1.6225395-2.3011856 2.3224182.8271255-.7104911 1.6012458-1.4846115 2.3011856-2.3224182z" fill="#e7e7e7"/></g></g><g><g><path d="m42.4582901 29.6081676c-.0212288.1272507-.0317802.2651157-.0636215.3923664.0318413-.2014275.0636215-.4135323.0848541-.6150227 0 .0742398-.0106163.1484796-.0212326.2226563z" fill="#e7e7e7"/></g></g><g><g><path d="m42.4052811 40.3612747c.3499718-.4135933.6787109-.8483543.9968376-1.2937317-.2969589.4453774-.6363144.8801384-.9968376 1.2937317z" fill="#e7e7e7"/></g></g><g><g><path d="m22.0019875 33.3410187c-.0742416-.0530128-.1484814-.1272507-.2227211-.2014923.0106144-.0106163.0212288-.0106163.0212288-.0212288.0530109.0742378.1272506.1484794.2014923.2227211z" fill="#e7e7e7"/></g></g><g><g><path d="m26.0317326 31.9518127v.0106163c-.0212307 0-.0423946-.0106163-.0636253-.0212307.0212306 0 .0423946.0106144.0636253.0106144z" fill="#e7e7e7"/></g></g><g><g><path d="m14.5575161 36.2255096s-.0106144.0105515-.0212297.0105515c.1378651.2014885.2757311.4029808.4242115.6044693.0106144 0 .0212297 0 .0318451-.0106125-.1697112-.2014923-.3075762-.4029159-.4348269-.6044083zm15.2282314-12.2377834c.0106144-.10602.0212307-.2121048.0212307-.3181248-.0423965.0848541-.0954704.1590939-.1378651.243885-.0106163-.0106144-.0212307-.0211658-.0423965-.0317802-.0318451.0954056-.0742397.190876-.1166992.2757301.0848541-.0318451.1803246-.0424595.2651157-.0212288.1378651.0106144.2651157.053009.381815.1484795-.1166992-.1060848-.2439499-.2014904-.3712006-.2969608zm6.0128708-4.3054752c0 .0106144-.0106163.0106144-.0106163.0106144.2651176.2863464.519619.5938568.763504.9013672-.2332725-.3181267-.48777-.6150208-.7528877-.9119816zm2.1420899-8.6533489c0 .0106144-.0106125.0106144-.0106125.0106144.0530739.0317802.0954704.05301.1484795.0847902-.0423966-.0423947-.0848542-.0636244-.137867-.0954046zm8.8866844 13.8390274c-.0423927-.3181267-.0954056-.6362514-.1590309-.9438286-.0318451-.1696453-.0636253-.3393555-.1060829-.4983864-.0636253-.3287411-.1484795-.6574802-.2332726-.9862213h-.0106125l-4.35849.9119816c0-.0212288-.0106125-.0424595-.0212288-.0636253.0106163.0211658.0106163.0423965.0106163.0636253l-3.5631409.7528877-3.9025612.816576-1.8345795.381752-1.4315987.3075752h-.0106144l-1.092308.2226563-.8695869.1803246-.5090027.1060219-.3075104.0742397-.5196171.10602-.7635651.1590958-.2121067.0423946c-.2332706.0424595-.4135303.2227211-.5090008.4878368 0 0-.0106163.0106144-.0106163.0212288-.1272488.2226563-.1696453.4771576-.1166344.7422733l.0212307.1166992.053009.2332706c.0212307.1272507.0742397.2438869.1378651.3499718.0530109.0848541.1060219.1590309.1802616.2121048.0423946.0423965.0848541.0847912.1272507.10602.2333355.1802616.5408459.2438869.8483562.1802616l.2969608-.0636253 2.0890808-.434761 1.6437702-.3499718 3.2874069-.6892624 3.9024963-.816576 3.5737534-.7423363c.0106163.0423946.0106163.0848541.0212326.1272488 0-.053009 0-.0954056-.0106163-.1378651l4.3584862-.9119816c.0106166-.0212307.0106166-.0423966.0000003-.0636253zm-28.5476418 10.1592502c-.0318451.0105515-.053009.0211678-.0848541.0317802.1272507.1590958.2651157.3181267.4029808.4666061-.1378651-.159027-.243885-.3181228-.3181267-.4983863z" fill="#e7e7e7"/></g></g><g><g><path d="m14.9923429 36.8299179c-.0106153.0106125-.0212307.0106125-.0318451.0106125-.1484804-.2014885-.2863464-.4029808-.4242115-.6044693.0106153 0 .0212297-.0105515.0212297-.0105515.1272508.2014924.2651158.402916.4348269.6044083z" fill="#d5d3d4"/></g></g><g><g><path d="m18.5978775 35.5255661c-.1378651-.1484795-.2757301-.3075104-.4029808-.4666061.0318451-.0106125.053009-.0212288.0848541-.0317802.0742417.1802634.1802616.3393592.3181267.4983863z" fill="#d5d3d4"/></g></g><g><g><path d="m22.0019875 33.3410187c-.0742416-.0530128-.1484814-.1272507-.2227211-.2014923.0106144-.0106163.0212288-.0106163.0212288-.0212288.0530109.0742378.1272506.1484794.2014923.2227211z" fill="#d5d3d4"/></g></g><g><g><path d="m26.0317326 31.9518127v.0106163c-.0212307 0-.0423946-.0106163-.0636253-.0212307.0212306 0 .0423946.0106144.0636253.0106144z" fill="#d5d3d4"/></g></g><g><g><path d="m27.2512913 32.1320724c-.0342407 0-.0660858-.0101624-.1002598-.0110016.2024612.0051117.4070587.0023308.619875-.0207787-.1697102.0211679-.3393555.0317803-.5196152.0317803z" fill="#d5d3d4"/></g></g><g><g><path d="m26.3817024 32.0366669c.2439518.0563126.5068665.0779305.7693291.084404-.2616215-.0066033-.5182571-.0306168-.7693291-.084404z" fill="#d5d3d4"/></g></g><g><g><path d="m27.9830132 35.366539c-.2333355.0317802-.4878368.0423927-.7317219.0423927-.2545662 0-.4984512-.0106125-.7423382-.0423927.4772224.0423927.9649925.0423927 1.4740601 0z" fill="#d5d3d4"/></g></g><g><g><path d="m28.5344086 39.279583c.1590958-.0105515.3287411-.0317802.4984512-.0636253-.0636253.0106163-.1378651.0212288-.2014904.0318451-.0954704.0106162-.2014904.0212287-.2969608.0317802z" fill="#d5d3d4"/></g></g><g><g><path d="m29.7221222 31.389801c-.2332706.1590309-.487772.296896-.7423363.3923664.2651158-.1060848.5090656-.2439499.7423363-.3923664z" fill="#d5d3d4"/></g></g><g><g><path d="m30.1569481 24.284687c-.1166992-.0954704-.2439499-.1378651-.381815-.1484795-.0847912-.0212307-.1802616-.0106163-.2651157.0212288.0424595-.0848541.0848541-.1803246.1166992-.2757301.0211658.0106144.0317802.0211658.0423965.0317802.0423946-.0847912.0954685-.1590309.1378651-.243885 0 .10602-.0106163.2121048-.0212307.3181248.1272507.0954704.2545014.190876.3712006.2969608z" fill="#d5d3d4"/></g></g><g><g><path d="m35.7986183 19.682251c.2651176.2969608.5196152.5938549.7528877.9119816-.243885-.3075104-.4983864-.6150208-.763504-.9013672 0 0 .0106163 0 .0106163-.0106144z" fill="#d5d3d4"/></g></g><g><g><path d="m46.8273926 24.9315548-4.3584862.9119816c.0106163.0424595.0106163.084856.0106163.1378651-.0106163-.0423946-.0106163-.0848541-.0212326-.1272488l-3.5737534.7423363-3.9024963.816576-3.2874069.6892624-1.6437702.3499718-2.0890808.434761-.2969608.0636253c-.3075104.0636253-.6150208 0-.8483562-.1802616-.0423965-.0212288-.084856-.0636234-.1272507-.10602.1484795-.1697102.2757301-.3393555.4029808-.5090656.190876-.243885.3711357-.4983864.5514603-.7528877.2756672-.3923664.5302315-.7953472.7847328-1.2089424l.3075104-.0742397.5090027-.1060219.8695869-.1803246 1.092308-.2226563h.0106144l1.4315987-.3075752 1.8345795-.381752 3.9025612-.816576 3.5631409-.7528877c0-.0212288 0-.0424595-.0106163-.0636253.0106163.0211658.0212288.0423965.0212288.0636253l4.35849-.9119816h.0106125c.0847931.3287411.1696472.6574802.2332726.9862213.0424576.1590309.0742378.3287411.1060829.4983864.0636253.3075771.1166382.6257019.1590309.9438286.0106161.0212287.0106161.0423946-.0000002.0636253z" fill="#c4c4c4"/></g></g><g><g><path d="m30.3372097 42.6836929c-.4029808.0848541-.8165779.1484795-1.2407246.2014885-.0424595.0106163-.0954704.0106163-.1378651.0106163.4666062-.053009.922598-.1272506 1.3785897-.2121048z" fill="#d5d3d4"/></g></g><g><g><path d="m29.4994659 47.3072968c.2545013-.0211678.5090027-.0530128.7635021-.0954056-.2014904.0317802-.4029808.0636253-.6044712.0848541-.053009.0105515-.1060199.0105515-.1590309.0105515z" fill="#d5d3d4"/></g></g><g><g><path d="m30.400835 30.8277245c.4029808-.4029808.7423363-.8908157.9649925-1.4210472-.2226562.5408458-.5513973 1.0286827-.9649925 1.4210472z" fill="#d5d3d4"/></g></g><g><g><path d="m31.6203918 28.5689335c0 .0318451 0 .0530109-.0106144.084856-.0424595.2014904-.1060848.4029808-.1802597.5938568.0847893-.2227211.1484147-.4453773.1908741-.6787128z" fill="#d5d3d4"/></g></g><g><g><path d="m42.3946686 30.0005341c.0318413-.2014275.0636215-.4135323.0848541-.6150227 0 .0742397-.0106163.1484795-.0212326.2226563-.0212288.1272506-.0317802.2651157-.0636215.3923664z" fill="#d5d3d4"/></g></g><g><g><path d="m46.8910179 25.4299412c-.0106125-.1696453-.0317802-.3392906-.0636253-.4983864h.0106163c.0212288.1590958.0423965.3287411.053009.4983864z" fill="#d5d3d4"/></g></g><g><g><path d="m46.9122505 29.8627319c-.0097122.092041-.0324287.1812973-.0436249.2728825.0176048-.1476383.0399323-.2948895.0542374-.4425926 0 .0530109 0 .1166363-.0106125.1697101z" fill="#d5d3d4"/></g></g><g><g><path d="m46.6259041 31.6549168c.1078949-.5035.180584-1.0094585.2427216-1.5193024-.0608445.5093269-.1358605 1.0177441-.2427216 1.5193024z" fill="#d5d3d4"/></g></g><g><g><path d="m14.9923429 36.8299179c-.0106153.0106125-.0212307.0106125-.0318451.0106125-.1484804-.2014885-.2863464-.4029808-.4242115-.6044693.0106153 0 .0212297-.0105515.0212297-.0105515.1272508.2014924.2651158.402916.4348269.6044083z" fill="#fc4a32"/></g></g><g><g><path d="m18.5978775 35.5255661c-.1378651-.1484795-.2757301-.3075104-.4029808-.4666061.0318451-.0106125.053009-.0212288.0848541-.0317802.0742417.1802634.1802616.3393592.3181267.4983863z" fill="#fc4a32"/></g></g><g><g><path d="m22.0019875 33.3410187c-.0742416-.0530128-.1484814-.1272507-.2227211-.2014923.0106144-.0106163.0212288-.0106163.0212288-.0212288.0530109.0742378.1272506.1484794.2014923.2227211z" fill="#fc4a32"/></g></g><g><g><path d="m26.0317326 31.9518127v.0106163c-.0212307 0-.0423946-.0106163-.0636253-.0212307.0212306 0 .0423946.0106144.0636253.0106144z" fill="#fc4a32"/></g></g><g><g><path d="m26.3817024 32.0366669c.2439518.0563126.5068665.0779305.7693291.084404-.2616215-.0066033-.5182571-.0306168-.7693291-.084404z" fill="#fc4a32"/></g></g><g><g><path d="m27.2512913 32.1320724c-.0342407 0-.0660858-.0101624-.1002598-.0110016.2024612.0051117.4070587.0023308.619875-.0207787-.1697102.0211679-.3393555.0317803-.5196152.0317803z" fill="#fc4a32"/></g></g><g><g><path d="m27.9830132 35.366539c-.2333355.0317802-.4878368.0423927-.7317219.0423927-.2545662 0-.4984512-.0106125-.7423382-.0423927.4772224.0423927.9649925.0423927 1.4740601 0z" fill="#fc4a32"/></g></g><g><g><path d="m28.5344086 39.279583c.1590958-.0105515.3287411-.0317802.4984512-.0636253-.0636253.0106163-.1378651.0212288-.2014904.0318451-.0954704.0106162-.2014904.0212287-.2969608.0317802z" fill="#fc4a32"/></g></g><g><g><path d="m29.7221222 31.389801c-.2332706.1590309-.487772.296896-.7423363.3923664.2651158-.1060848.5090656-.2439499.7423363-.3923664z" fill="#fc4a32"/></g></g><g><g><path d="m31.3658276 29.4066772c-.2226563.5408459-.5513973 1.0286827-.9649925 1.4210472.4029807-.4029807.7423362-.8908157.9649925-1.4210472z" fill="#fc4a32"/></g></g><g><g><path d="m31.6203918 28.5689335c0 .0318451 0 .0530109-.0106144.084856-.0424595.2014904-.1060848.4029808-.1802597.5938568.0847893-.2227211.1484147-.4453773.1908741-.6787128z" fill="#fc4a32"/></g></g><g><g><path d="m29.7857475 23.9877262c.1272507.0954704.2545013.190876.3712006.2969608-.1166992-.0954704-.2439499-.1378651-.381815-.1484795-.0847912-.0212307-.1802616-.0106163-.2651157.0212288.0424595-.0848541.0848541-.1803246.1166992-.2757301.0211658.0106144.0317802.0211658.0423965.0317802.0423946-.0847912.0954685-.1590309.1378651-.243885 0 .10602-.0106163.2121048-.0212307.3181248z" fill="#fc4a32"/></g></g><g><g><path d="m35.7986183 19.682251c.2651176.2969608.5196152.5938549.7528877.9119816-.243885-.3075104-.4983864-.6150208-.763504-.9013672 0 0 .0106163 0 .0106163-.0106144z" fill="#fc4a32"/></g></g><g><g><path d="m42.4795227 25.9814014c-.0106163-.0423946-.0106163-.0848541-.0212326-.1272488l-3.5737534.7423363-3.9024963.816576-3.2874069.6892624-1.6437702.3499718-2.0890808.434761-.2969608.0636253c-.3075104.0636253-.6150208 0-.8483562-.1802616-.0423965-.0212288-.084856-.0636234-.1272507-.10602-.0742397-.0530739-.1272507-.1272507-.1802616-.2121048-.0636253-.1060848-.1166344-.2227211-.1378651-.3499718l-.053009-.2332706-.0212307-.1166992c-.0530109-.2651157-.0106144-.5196171.1166344-.7422733 0-.0106144.0106163-.0212288.0106163-.0212288.0954704-.2651157.2757301-.4453773.5090008-.4878368l.2121067-.0423946.7635651-.1590958.5196171-.10602.3075104-.0742397.5090027-.1060219.8695869-.1803246 1.092308-.2226563h.0106144l1.4315987-.3075752 1.8345795-.381752 3.9025612-.816576 3.5631409-.7528877h.0106125c.0211678.084856.0530128.1802616.0742416.2757301.0211639.0636253.0423965.137867.053009.2014904.0211678.0847912.0423965.1696472.0636253.2545013.0211678.0847912.0423965.1696453.0636253.2545013 0 .0212288.0106163.053009.0106163.0742397.0742416.3075104.1272507.6150875.1696472.9225979.0212288.0742397.0318413.1378651.0318413.2014904.0105515.0954056.0317802.2014904.0423965.3075104.0106162.0424597.0106162.0848562.0106162.1378652z" fill="#fc4a32"/></g></g><g><g><path d="m18.5978775 35.5255661c-.1378651-.1484795-.2757301-.3075104-.4029808-.4666061.0318451-.0106125.053009-.0212288.0848541-.0317802.0742417.1802634.1802616.3393592.3181267.4983863z" fill="#e23e2d"/></g></g><g><g><path d="m22.0019875 33.3410187c-.0742416-.0530128-.1484814-.1272507-.2227211-.2014923.0106144-.0106163.0212288-.0106163.0212288-.0212288.0530109.0742378.1272506.1484794.2014923.2227211z" fill="#e23e2d"/></g></g><g><g><path d="m26.0317326 31.9518127v.0106163c-.0212307 0-.0423946-.0106163-.0636253-.0212307.0212306 0 .0423946.0106144.0636253.0106144z" fill="#e23e2d"/></g></g><g><g><path d="m27.2512913 32.1320724c-.0342407 0-.0660858-.0101624-.1002598-.0110016.2024612.0051117.4070587.0023308.619875-.0207787-.1697102.0211679-.3393555.0317803-.5196152.0317803z" fill="#e23e2d"/></g></g><g><g><path d="m26.3817024 32.0366669c.2439518.0563126.5068665.0779305.7693291.084404-.2616215-.0066033-.5182571-.0306168-.7693291-.084404z" fill="#e23e2d"/></g></g><g><g><path d="m27.9830132 35.366539c-.2333355.0317802-.4878368.0423927-.7317219.0423927-.2545662 0-.4984512-.0106125-.7423382-.0423927.4772224.0423927.9649925.0423927 1.4740601 0z" fill="#e23e2d"/></g></g><g><g><path d="m29.0328598 39.2159576c-.0636253.0106163-.1378651.0212288-.2014904.0318451-.0954704.0106163-.2014904.0212288-.2969608.0317802.1590957-.0105514.328741-.0317802.4984512-.0636253z" fill="#e23e2d"/></g></g><g><g><path d="m28.9797859 31.7821674c.2651157-.1060848.5090656-.2439499.7423363-.3923664-.2332707.1590309-.487772.296896-.7423363.3923664z" fill="#e23e2d"/></g></g><g><g><path d="m28.9586201 42.8957977c.4666061-.053009.9225979-.1272507 1.3785896-.2121048-.4029808.0848541-.8165779.1484795-1.2407246.2014885-.0424594.0106163-.0954704.0106163-.137865.0106163z" fill="#e23e2d"/></g></g><g><g><path d="m30.400835 30.8277245c.4029808-.4029808.7423363-.8908157.9649925-1.4210472-.2226562.5408458-.5513973 1.0286827-.9649925 1.4210472z" fill="#e23e2d"/></g></g><g><g><path d="m31.6203918 28.5689335c0 .0318451 0 .0530109-.0106144.084856-.0424595.2014904-.1060848.4029808-.1802597.5938568.0847893-.2227211.1484147-.4453773.1908741-.6787128z" fill="#e23e2d"/></g></g><g><g><path d="m30.1569481 24.284687c-.1166992-.0954704-.2439499-.1378651-.381815-.1484795-.0847912-.0212307-.1802616-.0106163-.2651157.0212288.0530739-.0742397.1060848-.1590939.1590958-.2439499.0423946-.0847912.0954685-.1590309.1378651-.243885 0 .10602-.0106163.2121048-.0212307.3181248.1272506.0954704.2545013.190876.3712005.2969608z" fill="#e23e2d"/></g></g><g><g><path d="m36.551506 20.5942326c-.243885-.3075104-.4983864-.6150208-.763504-.9013672 0 0 .0106163 0 .0106163-.0106144.2651177.2969608.5196152.5938549.7528877.9119816z" fill="#e23e2d"/></g></g><g><g><path d="m42.4582901 25.8541527-3.5737534.7423363-3.9024963.816576-3.2874069.6892624-1.6437702.3499718-2.0890808.434761-.2969608.0636253c-.3075104.0636253-.6150208 0-.8483562-.1802616-.0423965-.0212288-.084856-.0636234-.1272507-.10602-.0742397-.0530739-.1272507-.1272507-.1802616-.2121048-.0636253-.1060848-.1166344-.2227211-.1378651-.3499718l-.053009-.2332706c.0954037-.0848541.1908741-.1697102.2862797-.2545643.4559917-.4135323.8908176-.8483582 1.3044128-1.3149643l.5196171-.10602.3075104-.0742397.5090027-.1060219.8695869-.1803246 1.092308-.2226563h.0106144l1.4315987-.3075752 1.8345795-.381752 3.9025612-.816576 3.5631409-.7528877c0-.0212288 0-.0424595-.0106163-.0636253.0106163.0211658.0212288.0423965.0212288.0636253.0211678.084856.0530128.1802616.0742416.2757301.0211639.0636253.0423965.137867.053009.2014904.0211678.0847912.0423965.1696472.0636253.2545013.0211678.0847912.0423965.1696453.0530128.2545013.0106125.0317802.0212288.053009.0212288.0742397.0742416.3075104.1272507.6150875.1696472.9225979.0212288.0742397.0318413.1378651.0318413.2014904.0211677.1060202.0317802.212105.0317802.3181269z" fill="#e23e2d"/></g></g><g><g><path d="m42.3946686 30.0005341c.0318413-.2014275.0636215-.4135323.0848541-.6150227 0 .0742397-.0106163.1484795-.0212326.2226563-.0212288.1272506-.0317802.2651157-.0636215.3923664z" fill="#e23e2d"/></g></g><g><g><path d="m18.5978775 35.5255661c-.1378651-.1484795-.2757301-.3075104-.4029808-.4666061.0318451-.0106125.053009-.0212288.0848541-.0317802.0742417.1802634.1802616.3393592.3181267.4983863z" fill="#e7e7e7"/></g></g><g><g><path d="m22.0019875 33.3410187c-.0742416-.0530128-.1484814-.1272507-.2227211-.2014923.0106144-.0106163.0212288-.0106163.0212288-.0212288.0530109.0742378.1272506.1484794.2014923.2227211z" fill="#e7e7e7"/></g></g><g><g><path d="m26.0317326 31.9518127v.0106163c-.0212307 0-.0423946-.0106163-.0636253-.0212307.0212306 0 .0423946.0106144.0636253.0106144z" fill="#e7e7e7"/></g></g><g><g><path d="m26.3817024 32.0366669c.2439518.0563126.5068665.0779305.7693291.084404-.2616215-.0066033-.5182571-.0306168-.7693291-.084404z" fill="#e7e7e7"/></g></g><g><g><path d="m27.2512913 32.1320724c-.0342407 0-.0660858-.0101624-.1002598-.0110016.2024612.0051117.4070587.0023308.619875-.0207787-.1697102.0211679-.3393555.0317803-.5196152.0317803z" fill="#e7e7e7"/></g></g><g><g><path d="m27.9830132 35.366539c-.2333355.0317802-.4878368.0423927-.7317219.0423927-.2545662 0-.4984512-.0106125-.7423382-.0423927.4772224.0423927.9649925.0423927 1.4740601 0z" fill="#e7e7e7"/></g></g><g><g><path d="m29.7221222 31.389801c-.2332706.1590309-.487772.296896-.7423363.3923664.2651158-.1060848.5090656-.2439499.7423363-.3923664z" fill="#e7e7e7"/></g></g><g><g><path d="m30.400835 30.8277245c.4029808-.4029808.7423363-.8908157.9649925-1.4210472-.2226562.5408458-.5513973 1.0286827-.9649925 1.4210472z" fill="#e7e7e7"/></g></g><g><g><path d="m31.4295177 29.2476463c.0847893-.2227211.1484146-.4453773.1908741-.6787128 0 .0318451 0 .0530109-.0106144.084856-.0424594.2014904-.1060848.4029808-.1802597.5938568z" fill="#e7e7e7"/></g></g><g><g><path d="m29.7857475 23.9877262c.1272507.0954704.2545013.190876.3712006.2969608-.1166992-.0954704-.2439499-.1378651-.381815-.1484795-.0847912-.0212307-.1802616-.0106163-.2651157.0212288.0424595-.0848541.0848541-.1803246.1166992-.2757301.0211658.0106144.0317802.0211658.0423965.0317802.0423946-.0847912.0954685-.1590309.1378651-.243885 0 .10602-.0106163.2121048-.0212307.3181248z" fill="#e7e7e7"/></g></g><g><g><path d="m36.551506 20.5942326c-.243885-.3075104-.4983864-.6150208-.763504-.9013672 0 0 .0106163 0 .0106163-.0106144.2651177.2969608.5196152.5938549.7528877.9119816z" fill="#e7e7e7"/></g></g><g><g><path d="m38.8845367 26.596489-3.9024963.816576-3.2874069.6892624-1.6437702.3499718-2.0890808.434761-.2969608.0636253c-.3075104.0636253-.6150208 0-.8483562-.1802616-.0423965-.0212288-.084856-.0636234-.1272507-.10602-.0742397-.0530739-.1272507-.1272507-.1802616-.2121048-.0636253-.1060848-.1166344-.2227211-.1378651-.3499718l-.053009-.2332706-.0212307-.1166992c-.0530109-.2651157-.0106144-.5196171.1166344-.7422733 0-.0106144.0106163-.0212288.0106163-.0212288.0954704-.2651157.2757301-.4453773.5090008-.4878368l.2121067-.0423946.7635651-.1590958.5196171-.10602.3075104-.0742397.5090027-.1060219.8695869-.1803246 1.092308-.2226563h.0106144l1.4315987-.3075752 1.8345795-.381752 3.9025612-.816576c.1060219.3287411.190876.657547.2651176.9862881.1060179.48777.190872.9968376.2332685 1.5058384z" fill="#e7e7e7"/></g></g><g><g><path d="m22.0019875 33.3410187c-.0742416-.0530128-.1484814-.1272507-.2227211-.2014923.0106144-.0106163.0212288-.0106163.0212288-.0212288.0530109.0742378.1272506.1484794.2014923.2227211z" fill="#d5d3d4"/></g></g><g><g><path d="m26.0317326 31.9518127v.0106163c-.0212307 0-.0423946-.0106163-.0636253-.0212307.0212306 0 .0423946.0106144.0636253.0106144z" fill="#d5d3d4"/></g></g><g><g><path d="m27.2512913 32.1320724c-.0342407 0-.0660858-.0101624-.1002598-.0110016.2024612.0051117.4070587.0023308.619875-.0207787-.1697102.0211679-.3393555.0317803-.5196152.0317803z" fill="#d5d3d4"/></g></g><g><g><path d="m26.3817024 32.0366669c.2439518.0563126.5068665.0779305.7693291.084404-.2616215-.0066033-.5182571-.0306168-.7693291-.084404z" fill="#d5d3d4"/></g></g><g><g><path d="m27.9830132 35.366539c-.2333355.0317802-.4878368.0423927-.7317219.0423927-.2545662 0-.4984512-.0106125-.7423382-.0423927.4772224.0423927.9649925.0423927 1.4740601 0z" fill="#d5d3d4"/></g></g><g><g><path d="m28.5344086 39.279583c.1590958-.0105515.3287411-.0317802.4984512-.0636253-.0636253.0106163-.1378651.0212288-.2014904.0318451-.0954704.0106162-.2014904.0212287-.2969608.0317802z" fill="#d5d3d4"/></g></g><g><g><path d="m29.7221222 31.389801c-.2332706.1590309-.487772.296896-.7423363.3923664.2651158-.1060848.5090656-.2439499.7423363-.3923664z" fill="#d5d3d4"/></g></g><g><g><path d="m31.3658276 29.4066772c-.2226563.5408459-.5513973 1.0286827-.9649925 1.4210472.4029807-.4029807.7423362-.8908157.9649925-1.4210472z" fill="#d5d3d4"/></g></g><g><g><path d="m31.6203918 28.5689335c0 .0318451 0 .0530109-.0106144.084856-.0424595.2014904-.1060848.4029808-.1802597.5938568.0847893-.2227211.1484147-.4453773.1908741-.6787128z" fill="#d5d3d4"/></g></g><g><g><path d="m38.8845367 26.596489-3.9024963.816576-3.2874069.6892624-1.6437702.3499718-2.0890808.434761c.5620117-.5620117 1.060463-1.1877136 1.4846096-1.8664246.2545643-.381752.4666061-.7741184.6680965-1.1877136l1.092308-.2226563h.0106144l1.4315987-.3075752 1.8345795-.381752 3.9025612-.816576c.1060219.3287411.190876.657547.2651176.9862881.1060181.48777.1908722.9968376.2332687 1.5058384z" fill="#c4c4c4"/></g></g><g><g><path d="m22.0019875 33.3410187c-.0742416-.0530128-.1484814-.1272507-.2227211-.2014923.0106144-.0106163.0212288-.0106163.0212288-.0212288.0530109.0742378.1272506.1484794.2014923.2227211z" fill="#fc4a32"/></g></g><g><g><path d="m26.0317326 31.9518127v.0106163c-.0212307 0-.0423946-.0106163-.0636253-.0212307.0212306 0 .0423946.0106144.0636253.0106144z" fill="#fc4a32"/></g></g><g><g><path d="m26.3817024 32.0366669c.2439518.0563126.5068665.0779305.7693291.084404-.2616215-.0066033-.5182571-.0306168-.7693291-.084404z" fill="#fc4a32"/></g></g><g><g><path d="m27.2512913 32.1320724c-.0342407 0-.0660858-.0101624-.1002598-.0110016.2024612.0051117.4070587.0023308.619875-.0207787-.1697102.0211679-.3393555.0317803-.5196152.0317803z" fill="#fc4a32"/></g></g><g><g><path d="m27.9830132 35.366539c-.2333355.0317802-.4878368.0423927-.7317219.0423927-.2545662 0-.4984512-.0106125-.7423382-.0423927.4772224.0423927.9649925.0423927 1.4740601 0z" fill="#fc4a32"/></g></g><g><g><path d="m29.7221222 31.389801c-.2332706.1590309-.487772.296896-.7423363.3923664.2651158-.1060848.5090656-.2439499.7423363-.3923664z" fill="#fc4a32"/></g></g><g><g><path d="m30.400835 30.8277245c.4029808-.4029808.7423363-.8908157.9649925-1.4210472-.2226562.5408458-.5513973 1.0286827-.9649925 1.4210472z" fill="#fc4a32"/></g></g><g><g><path d="m31.4295177 29.2476463c.0847893-.2227211.1484146-.4453773.1908741-.6787128 0 .0318451 0 .0530109-.0106144.084856-.0424594.2014904-.1060848.4029808-.1802597.5938568z" fill="#fc4a32"/></g></g><g><g><path d="m29.7857475 23.9877262c.1272507.0954704.2545013.190876.3712006.2969608-.1166992-.0954704-.2439499-.1378651-.381815-.1484795-.0847912-.0212307-.1802616-.0106163-.2651157.0212288.0424595-.0848541.0848541-.1803246.1166992-.2757301.0211658.0106144.0317802.0211658.0423965.0317802.0423946-.0847912.0954685-.1590309.1378651-.243885 0 .10602-.0106163.2121048-.0212307.3181248z" fill="#fc4a32"/></g></g><g><g><path d="m34.9820404 27.413065-3.2874069.6892624-1.6437702.3499718-2.0890808.434761-.2969608.0636253c-.3075104.0636253-.6150208 0-.8483562-.1802616-.0423965-.0212288-.084856-.0636234-.1272507-.10602-.0742397-.0530739-.1272507-.1272507-.1802616-.2121048-.0636253-.1060848-.1166344-.2227211-.1378651-.3499718l-.053009-.2332706-.0212307-.1166992c-.0530109-.2651157-.0106144-.5196171.1166344-.7422733 0-.0106144.0106163-.0212288.0106163-.0212288.0954704-.2651157.2757301-.4453773.5090008-.4878368l.2121067-.0423946.7635651-.1590958.5196171-.10602.3075104-.0742397.5090027-.1060219.8695869-.1803246 1.092308-.2226563h.0106144l1.4315987-.3075752 1.8345795-.381752c.1273155.3181267.2333374.6363182.2969627.9756088.1272505.4878369.1908758.9968376.2014883 1.5165177z" fill="#fc4a32"/></g></g><g><g><path d="m26.0317326 31.9518127v.0106163c-.0212307 0-.0423946-.0106163-.0636253-.0212307.0212306 0 .0423946.0106144.0636253.0106144z" fill="#e23e2d"/></g></g><g><g><path d="m27.1510315 32.1210709c.2024612.0051117.4070587.0023308.619875-.0207787-.1697102.0211678-.3393555.0317802-.5196152.0317802-.0342407 0-.0660858-.0101623-.1002598-.0110015z" fill="#e23e2d"/></g></g><g><g><path d="m26.3817024 32.0366669c.2439518.0563126.5068665.0779305.7693291.084404-.2616215-.0066033-.5182571-.0306168-.7693291-.084404z" fill="#e23e2d"/></g></g><g><g><path d="m28.9797859 31.7821674c.2651157-.1060848.5090656-.2439499.7423363-.3923664-.2332707.1590309-.487772.296896-.7423363.3923664z" fill="#e23e2d"/></g></g><g><g><path d="m30.400835 30.8277245c.4029808-.4029808.7423363-.8908157.9649925-1.4210472-.2226562.5408458-.5513973 1.0286827-.9649925 1.4210472z" fill="#e23e2d"/></g></g><g><g><path d="m31.4295177 29.2476463c.0847893-.2227211.1484146-.4453773.1908741-.6787128 0 .0318451 0 .0530109-.0106144.084856-.0424594.2014904-.1060848.4029808-.1802597.5938568z" fill="#e23e2d"/></g></g><g><g><path d="m30.1569481 24.284687c-.1166992-.0954704-.2439499-.1378651-.381815-.1484795.0106144-.0530109.0106144-.0954704.0106144-.1484814.1272507.0954705.2545014.1908761.3712006.2969609z" fill="#e23e2d"/></g></g><g><g><path d="m34.9820404 27.413065-3.2874069.6892624-1.6437702.3499718-2.0890808.434761-.2969608.0636253c-.3075104.0636253-.6150208 0-.8483562-.1802616.6680965-.4029808 1.2513371-.9332123 1.7179432-1.5588493.2863464-.3605843.5196171-.763567.7104931-1.198328l.8695869-.1803246 1.092308-.2226563h.0106144l1.4315987-.3075752 1.8345795-.381752c.1273155.3181267.2333374.6363182.2969627.9756088.1272506.4878369.1908759.9968376.2014884 1.5165177z" fill="#e23e2d"/></g></g><g><g><path d="m26.0317326 31.9518127v.0106163c-.0212307 0-.0423946-.0106163-.0636253-.0212307.0212306 0 .0423946.0106144.0636253.0106144z" fill="#e7e7e7"/></g></g><g><g><path d="m27.1510315 32.1210709c.2024612.0051117.4070587.0023308.619875-.0207787-.1697102.0211678-.3393555.0317802-.5196152.0317802-.0342407 0-.0660858-.0101623-.1002598-.0110015z" fill="#e7e7e7"/></g></g><g><g><path d="m26.3817024 32.0366669c.2439518.0563126.5068665.0779305.7693291.084404-.2616215-.0066033-.5182571-.0306168-.7693291-.084404z" fill="#e7e7e7"/></g></g><g><g><path d="m30.1569481 24.284687c-.1166992-.0954704-.2439499-.1378651-.381815-.1484795-.0847912-.0212307-.1802616-.0106163-.2651157.0212288.0424595-.0848541.0848541-.1803246.1166992-.2757301.0211658.0106144.0317802.0211658.0423965.0317802.0423946.0212307.0742397.0530758.1166344.0742397.1272507.0954705.2545014.1908761.3712006.2969609z" fill="#e7e7e7"/></g></g><g><g><path d="m31.7157974 27.6675663c0 .1378651-.0106144.2862816-.0211639.434761l-1.6437702.3499718-2.0890808.434761-.2969608.0636253c-.3075104.0636253-.6150208 0-.8483562-.1802616-.0423965-.0212288-.084856-.0636234-.1272507-.10602-.0742397-.0530739-.1272507-.1272507-.1802616-.2121048-.0636253-.1060848-.1166344-.2227211-.1378651-.3499718l-.053009-.2332706-.0212307-.1166992c-.0530109-.2651157-.0106144-.5196171.1166344-.7422733 0-.0106144.0106163-.0212288.0106163-.0212288.0954704-.2651157.2757301-.4453773.5090008-.4878368l.2121067-.0423946.7635651-.1590958.5196171-.10602.3075104-.0742397.5090027-.1060219.8695869-.1803246 1.092308-.2226563h.0106144c.0423946.0847912.0847912.1802616.1272507.2757301.0211658.0317802.0317802.0741768.0530109.1166363.0423946.10602.0848541.2226563.1166344.3393555.0212307.0742397.0424595.1484165.0530109.2332706h.0106144c.0106144.0318451.0212307.0742416.0212307.1060848.0106144.0317802.0212288.0530109.0212288.0847912.0317802.1272507.0530109.2651157.0636253.4029808.0211657.1590959.0317801.3287412.0317801.4984514z" fill="#e7e7e7"/></g></g><g><g><path d="m28.9797859 31.7821674c.2651157-.1060848.5090656-.2439499.7423363-.3923664-.2332707.1590309-.487772.296896-.7423363.3923664z" fill="#d5d3d4"/></g></g><g><g><path d="m30.400835 30.8277245c.4029808-.4029808.7423363-.8908157.9649925-1.4210472-.2226562.5408458-.5513973 1.0286827-.9649925 1.4210472z" fill="#d5d3d4"/></g></g><g><g><path d="m31.4295177 29.2476463c.0847893-.2227211.1484146-.4453773.1908741-.6787128 0 .0318451 0 .0530109-.0106144.084856-.0424594.2014904-.1060848.4029808-.1802597.5938568z" fill="#d5d3d4"/></g></g><g><g><path d="m31.7157974 27.6675663c0 .1378651-.0106144.2862816-.0211639.434761l-1.6437702.3499718-2.0890808.434761-.2969608.0636253c-.3075104.0636253-.6150208 0-.8483562-.1802616-.0423965-.0212288-.084856-.0636234-.1272507-.10602-.0742397-.0530739-.1272507-.1272507-.1802616-.2121048.2014904-.084856.4029808-.1802616.5832424-.2969608.3711357-.2226563.6998768-.5090008.9756069-.8483582.2863464-.3393555.5196171-.7423363.6680965-1.1770973v-.0106144l.5090027-.1060219.8695869-.1803246 1.092308-.2226563h.0106144c.0423946.0847912.0847912.1802616.1272507.2757301.0211658.0317802.0317802.0741768.0530109.1166363.0423946.10602.0848541.2226563.1166344.3393555.0212307.0742397.0424595.1484165.0636253.2332706.0106144.0318451.0212307.0636253.0318451.1060848 0 .0211658.0106144.0530109.0106144.0847912.0317802.1272507.0530109.2651157.0636253.4029808.0211659.159096.0317803.3287413.0317803.4984515z" fill="#c4c4c4"/></g></g></g><g><g><g><g><path d="m47.0581436 9.8365316-18.8200321 18.8200369c-.4283447.4283447-1.1228294.4283447-1.5511742 0l-.2517071-.2517071c-.4283447-.4283447-.4283428-1.1228294.0000019-1.5511742l18.8200322-18.8200358c.4283447-.4283452 1.1228294-.4283452 1.5511742 0l.2517052.2517052c.4283446.4283456.4283446 1.1228303-.0000001 1.551175z" fill="#626681"/></g></g><g><g><path d="m46.7267723 8.0044498c-.4678993-.3488116-1.0200386-.4223104-1.3208275-.1215243l-19.121439 19.1214447c-.300787.3007851-.2272873.8529243.1215229 1.3208237z" fill="#6c8a8c"/></g></g><g><g><g><path d="m50.3194923 7.2025404c.6136398.0137148 1.145153.84519.7702217 1.2201204l-3.9817581 3.9817581-2.3221703-.0575781c-.1065674-.0015774-.2339325-.068984-.3204231-.1554747l-1.5576897-1.5576916c-.0865593-.0865574-.1397705-.184804-.1596794-.2946949-.0033684-.0182877-.0033684-.0182877-.006691-.0366211l-.057579-2.3221717 3.9817581-3.9817576c.3749313-.3749304 1.2172356.1674104 1.2309494.7810502l.0609436 2.3404593-.0075035.0075064.0033226.0183334z" fill="#4d5471"/></g></g><g><g><path d="m47.896431 4.7794795.0609436 2.3404593-4.2817192 4.2817202-.7679825-.7679844c-.0865593-.0865574-.1397705-.184804-.1596794-.2946949l-.06427-2.3587928 3.9817581-3.9817576c.3749313-.3749304 1.2172355.1674104 1.2309494.7810502z" fill="#626681"/></g></g></g></g><g><g><path d="m44.3463707 9.3068571c-.1484375 0-.2958984-.0561523-.4091797-.1694336-.2255859-.2255859-.2255859-.5917969 0-.8173828l1.3271484-1.3276362c.2265625-.2255859.5917969-.2265625.8183594 0 .2255859.2255859.2255859.5917969 0 .8173828l-1.3271484 1.3276362c-.1132813.112793-.2607422.1694336-.4091797.1694336z" fill="#6c8a8c"/></g></g></g></g></svg>