<svg id="Layer_1" enable-background="new 0 0 68 68" height="512" viewBox="0 0 68 68" width="512" xmlns="http://www.w3.org/2000/svg"><g><path d="m53.6 34c0 14.3-11.5 25.8-25.8 25.8s-25.8-11.6-25.8-25.8 11.5-25.8 25.8-25.8c14.2 0 25.8 11.6 25.8 25.8z" fill="#f95353"/><path d="m48.2 34c0 11.3-9.1 20.4-20.4 20.4s-20.4-9.1-20.4-20.4 9.1-20.4 20.4-20.4 20.4 9.1 20.4 20.4z" fill="#dddee0"/><path d="m27.8 48.6c-8.1 0-14.6-6.6-14.6-14.6 0-8.1 6.6-14.6 14.6-14.6s14.6 6.5 14.6 14.6-6.5 14.6-14.6 14.6z" fill="#f95353"/><path d="m27.8 42c-4.4 0-8-3.6-8-8s3.6-8 8-8 8 3.6 8 8-3.6 8-8 8z" fill="#dddee0"/><path d="m66 24.7-3.2-2.4.8-3.9-6.4 2.4-1 2.9-28.7 9.9c-.5.2-.8.8-.6 1.3s.8.8 1.3.6l28.8-9.9 2.7 1.5z" fill="#48495b"/></g></svg>