<svg id="Layer_1" enable-background="new 0 0 53 53" height="512" viewBox="0 0 53 53" width="512" xmlns="http://www.w3.org/2000/svg"><g id="_x34_8"><g><path d="m39.9012833 2.6049805v44.3901367c0 1.8798828-1.5200195 3.3999023-3.3901367 3.3999023h-30.3199478c-1.8800049 0-3.4000242-1.5200195-3.4000242-3.3999023v-40.9799805c0-1.880127 1.5200193-3.4101563 3.4000242-3.4101563h33.7100845z" fill="#e4e3ff"/></g><g><path d="m41.5484734 41.876091h-3.308876c-1.3256569 0-2.4354286-.8630333-2.8156395-2.0552216-.0822906-.2774773-.1335945-.5755234-.1335945-.883606v-5.7135734c0-1.6237049 1.3153687-2.9390755 2.949234-2.9390755h1.3770905v9.6697235c.9144629.2880135 1.6440238 1.0070382 1.9317855 1.921753z" fill="#d0d0f7"/></g><g><path d="m41.5484734 41.876091h-1.9317856v5.0251541c0 1.9317856-1.5619888 3.4937744-3.4837418 3.4937744h-5.3332367c-.4418011-.5138054-.7089901-1.1921883-.7089901-1.9217529v-5.7030373c0-1.623703 1.3153706-2.9493599 2.9388256-2.9493599h5.7135735c.3083344 0 .5960922.0514297.8735695.1334686.914463.2880135 1.6440239 1.0070382 1.9317856 1.921753z" fill="#d0d0f7"/></g><g><path d="m39.9057655 2.6049805v44.3901367c0 1.8798828-1.5200195 3.3999023-3.3901367 3.3999023h-30.3199458c-1.5299072 0-2.8199463-1.0100098-3.25-2.3999023.4400635.2099609.9400635.329834 1.460083.329834h30.3199463c1.8699951 0 3.3900146-1.5200195 3.3900146-3.3999023v-42.3200684z" fill="#d0d0f7"/></g><g><path d="m10.2803144 6.0152302c-.3624306 0-.6763582-.2557559-.7411184-.6123538-.1264162-.6961022-.463994-1.3177133-.9395265-1.8012159-.6215392-.6112959-1.4710813-.9944625-2.403327-.9944625h37.1175804c.9428711 0 1.7922859.3831666 2.4034538.9944625.3817101.388025.674469.8649991.8405304 1.3980405.156086.5010114-.2010994 1.0155292-.7258606 1.0155292z" fill="#c2c2ef"/></g><g><path d="m34.2119026 12.4104662v5.3990374c0 .7320576-.5934486 1.3255062-1.3255043 1.3255062h-23.0789718c-.7320557 0-1.3255053-.5934486-1.3255053-1.3255062v-5.3990374c0-.7320566.5934496-1.3255053 1.3255053-1.3255053h23.0789719c.7320556 0 1.3255042.5934487 1.3255042 1.3255053z" fill="#a2a2f9"/></g><g><path d="m34.2112198 12.4150391v5.3898926c0 .7399902-.5899658 1.3300781-1.3199463 1.3300781h-23.0800791c-.6899414 0-1.2399902-.5100098-1.3100586-1.170166.0600586.0200195.130127.0200195.1900635.0200195h23.0799561c.7299824 0 1.3200703-.5898438 1.3200703-1.3198242v-5.3999023c0-.050293 0-.1101074-.0200195-.1601563.6400136.0800781 1.1400136.6298828 1.1400136 1.3100586z" fill="#7979f7"/></g><g><g><path d="m35.6119156 24.3095551v.0000019c0 .4177055-.3386192.7563248-.7563248.7563248h-27.0151415c-.4177065 0-.7563248-.3386192-.7563248-.7563248v-.0000019c0-.4177074.3386183-.7563248.7563248-.7563248h27.0151405c.4177066 0 .7563258.3386173.7563258.7563248z" fill="#d0d0f7"/></g><g><path d="m35.6096992 24.3093071c0 .422205-.3342628.7565746-.7564659.7565746h-27.0148058c-.4134521 0-.7565198-.3343697-.7565198-.7565746 0-.088047.0176101-.1670761.0440245-.2375164.096746.3079567.378233.5190582.7124953.5190582h27.0148048c.3342628 0 .6245537-.2111015.7124939-.5190582.0263644.0704403.043973.1494694.043973.2375164z" fill="#c2c2ef"/></g></g><g><g><path d="m35.6119156 28.1182289c0 .4177074-.3386192.7563248-.7563248.7563248h-27.0151415c-.4177065 0-.7563248-.3386173-.7563248-.7563248 0-.4177074.3386183-.7563248.7563248-.7563248h27.0151405c.4177066 0 .7563258.3386174.7563258.7563248z" fill="#d0d0f7"/></g><g><path d="m35.6096992 28.1138992c0 .4222031-.3342628.7565727-.7564659.7565727h-27.0148058c-.4134521 0-.7565198-.3343697-.7565198-.7565727 0-.0792446.0088053-.1582737.0440245-.2287121.096746.2991505.3870378.5190563.7124953.5190563h27.0148048c.3342628 0 .6157494-.2199059.7124939-.5190563.0351687.0704384.043973.1494675.043973.2287121z" fill="#c2c2ef"/></g></g><g><g><path d="m33.6119156 35.7355728v.0000038c0 .4177055-.3386192.7563248-.7563248.7563248h-25.0151415c-.4177065 0-.7563248-.3386192-.7563248-.7563248v-.0000038c0-.4177055.3386183-.756321.7563248-.756321h25.0151405c.4177066.0000001.7563258.3386155.7563258.756321z" fill="#d0d0f7"/></g><g><path d="m33.6096992 35.7336082c0 .4222031-.3342628.7565727-.7564659.7565727h-25.0148058c-.4134521 0-.7565198-.3343697-.7565198-.7565727 0-.0792465.0088053-.1582756.0440245-.228714.096746.2991524.3870378.5190582.7124953.5190582h25.0148048c.3342628 0 .6157494-.2199059.7124939-.5190582.0351687.0704384.043973.1494675.043973.228714z" fill="#c2c2ef"/></g></g><g><g><path d="m33.6119156 31.9269009v.0000019c0 .4177055-.3386192.7563248-.7563248.7563248h-25.0151415c-.4177065 0-.7563248-.3386192-.7563248-.7563248v-.0000019c0-.4177055.3386183-.7563248.7563248-.7563248h25.0151405c.4177066 0 .7563258.3386192.7563258.7563248z" fill="#d0d0f7"/></g><g><path d="m33.6096992 31.9249325c0 .422205-.3342628.7565746-.7564659.7565746h-25.0148058c-.4134521 0-.7565198-.3343697-.7565198-.7565746 0-.0792427.0088053-.1582718.0440245-.2287102.096746.2991505.3870378.5190563.7124953.5190563h25.0148048c.3342628 0 .6157494-.2199059.7124939-.5190563.0351687.0704384.043973.1494675.043973.2287102z" fill="#c2c2ef"/></g></g><g><g><path d="m27.9874821 39.5439262v.0000038c0 .4177055-.3386173.7563248-.7563229.7563248h-19.3907099c-.4177065 0-.7563248-.3386192-.7563248-.7563248v-.0000038c0-.4177055.3386183-.7563248.7563248-.7563248h19.3907089c.4177065.0000001.7563239.3386193.7563239.7563248z" fill="#d0d0f7"/></g><g><path d="m27.9833527 39.5443192c0 .4133987-.3342628.7565765-.7564659.7565765h-19.3884593c-.4134521 0-.7565198-.3431778-.7565198-.7565765 0-.0878334.0176101-.1670761.0440245-.2375145.096746.3079567.378233.5190582.7124953.5190582h19.3884583c.3342609 0 .6245003-.2111015.7124939-.5190582.0351667.0704383.043973.149681.043973.2375145z" fill="#c2c2ef"/></g></g><g><g><g><path d="m50.2088242 42.7708092v5.7054558c0 1.0596962-.8590546 1.9187546-1.9187546 1.9187546h-5.7089844c-1.0597 0-1.9187584-.8590584-1.9187584-1.9187546v-5.7054558c0-1.0597.8590584-1.9187584 1.9187584-1.9187584h5.7089844c1.0597 0 1.9187546.8590584 1.9187546 1.9187584z" fill="#7979f7"/></g></g><g opacity=".4"><g><path d="m42.2528191 46.4435043c-.1646423 0-.2982178-.1335754-.2982178-.2982178v-1.8166809c0-.1646423.1335754-.2982178.2982178-.2982178.1646347 0 .2982178.1335754.2982178.2982178v1.8166809c-.0000001.1646424-.1335831.2982178-.2982178.2982178z" fill="#fff"/></g></g><g opacity=".4"><g><path d="m42.2528191 43.4945259c-.1646423 0-.2982178-.1335754-.2982178-.2982178v-.1190147c0-.1646423.1335754-.2982178.2982178-.2982178.1646347 0 .2982178.1335754.2982178.2982178v.1190147c-.0000001.1646424-.1335831.2982178-.2982178.2982178z" fill="#fff"/></g></g><g><g><path d="m50.2081146 42.7724495v5.7019119c0 1.0616722-.8588562 1.9205284-1.916523 1.9205284h-5.7098961c-.7435532 0-1.3916817-.4214783-1.7097778-1.0417709.2624474.1351776.5606651.2107277.8787575.2107277h5.7098694c1.0576706 0 1.9165497-.8588562 1.9165497-1.9165268v-5.7059135c0-.3180923-.0755501-.6163101-.2147064-.8787346.6202926.3141174 1.0457267.9622459 1.0457267 1.7097778z" fill="#5e5eef"/></g></g></g><g><path d="m40.6623268 42.7708092v5.7054558c0 1.0596962-.8590546 1.9187546-1.9187546 1.9187546h-5.7089844c-1.0597 0-1.9187565-.8590584-1.9187565-1.9187546v-5.7054558c0-1.0597.8590565-1.9187584 1.9187565-1.9187584h5.7089844c1.0597 0 1.9187546.8590584 1.9187546 1.9187584z" fill="#5bc658"/></g><g opacity=".4"><g><path d="m33.1765862 46.549675c-.1602173 0-.2902031-.1299858-.2902031-.2902031v-1.7678719c0-.1602173.1299858-.2902069.2902031-.2902069.1602135 0 .2902069.1299896.2902069.2902069v1.7678719c0 .1602173-.1299935.2902031-.2902069.2902031z" fill="#fff"/></g></g><g opacity=".4"><g><path d="m33.1765862 43.6799316c-.1602173 0-.2902031-.1299858-.2902031-.2902031v-.115818c0-.1602173.1299858-.2902069.2902031-.2902069.1602135 0 .2902069.1299896.2902069.2902069v.115818c0 .1602173-.1299935.2902031-.2902069.2902031z" fill="#fff"/></g></g><g><g><path d="m40.6616173 42.7724495v5.7019119c0 1.0616722-.8588562 1.9205284-1.916523 1.9205284h-5.7098961c-.7435532 0-1.3916836-.4214783-1.7097778-1.0417709.2624454.1351776.5606632.2107277.8787575.2107277h5.7098694c1.0576706 0 1.9165497-.8588562 1.9165497-1.9165268v-5.7059135c0-.3180923-.0755501-.6163101-.2147064-.8787346.6202926.3141174 1.0457267.9622459 1.0457267 1.7097778z" fill="#49a247"/></g></g><g><path d="m45.8626366 33.2278404v5.7054558c0 1.0597-.8590584 1.9187546-1.9187584 1.9187546h-5.7089844c-1.0597 0-1.9187546-.8590546-1.9187546-1.9187546v-5.7054558c0-1.0597.8590546-1.9187584 1.9187546-1.9187584h5.7089844c1.0597 0 1.9187584.8590584 1.9187584 1.9187584z" fill="#f9b938"/></g><g opacity=".4"><g><path d="m37.9066277 36.9005356c-.1646385 0-.2982178-.1335754-.2982178-.2982178v-1.8166809c0-.1646423.1335793-.2982178.2982178-.2982178s.2982178.1335754.2982178.2982178v1.8166809c-.0000001.1646423-.1335793.2982178-.2982178.2982178z" fill="#fff"/></g></g><g opacity=".4"><g><path d="m37.9066277 33.9515572c-.1646385 0-.2982178-.1335754-.2982178-.2982178v-.1190147c0-.1646423.1335793-.2982178.2982178-.2982178s.2982178.1335754.2982178.2982178v.1190147c-.0000001.1646423-.1335793.2982178-.2982178.2982178z" fill="#fff"/></g></g><g><g><path d="m45.861927 33.2294807v5.7019119c0 1.0616722-.85886 1.9205284-1.9165268 1.9205284h-5.7098961c-.7435532 0-1.3916817-.4214783-1.709774-1.0417709.2624435.1351776.5606613.2107277.8787575.2107277h5.7098694c1.0576668 0 1.9165497-.8588562 1.9165497-1.9165268v-5.7059135c0-.3180923-.0755501-.616312-.2147102-.8787327.6202926.3141136 1.0457305.9622441 1.0457305 1.7097759z" fill="#ecb021"/></g></g><g><g opacity=".4"><g><path d="m21.3469124 13.1463404c0 .3395033-.2754459.6149502-.6149502.6149502h-6.5466413c-.3395033 0-.6149492-.2754469-.6149492-.6149502s.2754459-.6149492.6149492-.6149492h6.5466413c.3395042-.0000001.6149502.2754459.6149502.6149492z" fill="#fff"/></g></g><g opacity=".4"><g><path d="m12.5334454 13.1463404c0 .3395033-.2754459.6149502-.6149502.6149502h-.812726c-.3395033 0-.6149492-.2754469-.6149492-.6149502s.2754459-.6149492.6149492-.6149492h.812726c.3395042-.0000001.6149502.2754459.6149502.6149492z" fill="#fff"/></g></g></g><g><g opacity=".4"><g><path d="m4.9188657 30.8444252c-.2485304 0-.4501686-.2016392-.4501686-.4501705v-7.9714298c0-.2485294.2016382-.4501686.4501686-.4501686.2485309 0 .4501691.2016392.4501691.4501686v7.9714298c0 .2485313-.2016383.4501705-.4501691.4501705z" fill="#fff"/></g></g><g opacity=".4"><g><path d="m4.9188657 21.213583c-.2485304 0-.4501686-.2016392-.4501686-.4501705v-.5949497c0-.2485294.2016382-.4501686.4501686-.4501686.2485309 0 .4501691.2016392.4501691.4501686v.5949497c0 .2485313-.2016383.4501705-.4501691.4501705z" fill="#fff"/></g></g></g><g fill="#fff"><g><path d="m43.0559654 38.1654129c0 .0853271-.0279999.1574745-.0843353.2157822-.0560036.0583115-.1291389.0876312-.2190742.0876312-.0991631 0-.1798744-.0424957-.2427979-.1281509l-1.4439278-1.8148727-1.4235001 1.8217926c-.0675354.0810394-.1462708.1212311-.2362061.1212311-.0767593 0-.1429749-.0279999-.1989822-.0843353-.0563316-.0560036-.0843353-.1222229-.0843353-.1989822 0-.0718155.0200958-.1347389.0606155-.1887665l1.5585709-1.9163399-1.545063-1.902504c-.0405197-.0540276-.0606155-.116951-.0606155-.1887703 0-.0856514.0279999-.1564827.0843353-.2124863.0560036-.0563354.1268349-.0843353.2124863-.0843353.0494156 0 .0965271.0112.1416588.0336037.0448036.0223999.0810432.0517197.1077271.0876274l1.4238319 1.8082848 1.4235001-1.8217888c.0494156-.0718193.123539-.1077271.222702-.1077271.0810394 0 .1505508.0279999.2091904.0843353.0583115.0560036.0876312.124527.0876312.2055702 0 .0632515-.0181198.1192551-.0540276.1686707l-1.5585709 1.9229317 1.5585709 1.9160118c.0405197.0451316.0606155.1037711.0606155.1755866z"/><path d="m42.7522774 38.5186996c-.1152344 0-.2099609-.0498047-.2822266-.1484375l-1.4042969-1.7636719-1.3847656 1.7724609c-.0771484.0927734-.1699219.1396484-.2744141.1396484-.0898438 0-.1689453-.0332031-.234375-.0986328-.0664063-.0654297-.0996094-.1445313-.0996094-.234375 0-.0820313.0234375-.1552734.0703125-.21875l1.5341797-1.8867188-1.5195313-1.8710938c-.0478516-.0644531-.0712891-.1376953-.0712891-.2197266 0-.0996094.0332031-.1835938.0996094-.2490234.0644531-.0644531.1474609-.0976563.2470703-.0976563.0576172 0 .1132813.0126953.1640625.0380859.0517578.0263672.09375.0605469.1259766.1025391l1.3837891 1.7578125 1.3837891-1.7724609c.0576172-.0830078.1464844-.1259766.2617188-.1259766.0947266 0 .1767578.0332031.2441406.0976563.0683594.0654297.1025391.1464844.1025391.2421875 0 .0742188-.0214844.140625-.0634766.1972656l-1.5341797 1.8935547 1.5332031 1.8847656c.046875.0537109.0712891.1240234.0712891.2070313 0 .0976563-.0322266.1816406-.0976563.25-.0664062.0693362-.1523437.1035158-.2558593.1035158zm-1.6865235-2.0742187.0390625.0498047 1.4443359 1.8154297c.0546875.0742188.1201172.109375.203125.109375.0761719 0 .1367188-.0244141.1835938-.0732422s.0703125-.1083984.0703125-.1806641c0-.0585938-.015625-.1054688-.0488281-.1425781l-1.5849609-1.9492188 1.5839844-1.9541016c.0283203-.0380859.0429688-.0839844.0429688-.1367188 0-.0683594-.0234375-.1240234-.0722656-.1699219-.0488281-.046875-.1064453-.0703125-.1748047-.0703125-.0820313 0-.1416016.0283203-.1816406.0859375l-1.4638672 1.875-1.4628906-1.8583984c-.0234375-.03125-.0537109-.0556641-.0917969-.0742188-.0371094-.0185547-.0761719-.0283203-.1191406-.0283203-.0732422 0-.1308594.0224609-.1757813.0693359-.0478516.046875-.0712891.1044922-.0712891.1777344 0 .0605469.0175781.1132813.0507813.1582031l1.5693359 1.9326172-1.5839844 1.9482422c-.0332031.0439453-.0498047.0966797-.0498047.1572266 0 .0625.0234375.1162109.0703125.1640625.046875.046875.1005859.0693359.1640625.0693359.0751953 0 .1396484-.0341797.1972656-.1035156z"/></g><g><path d="m37.6384888 43.1368027c.0888443 0 .16362.0315552.224678.0946732.0607147.0631142.0888443.139267.0843849.2284508 0 .0655174-.0188675.1286354-.0562553.1896935l-1.6859512 2.3531265v1.7915993c0 .0888443-.030529.1639633-.0915871.224678-.0607147.0607147-.1358376.0912437-.224678.0912437-.0888443 0-.1649933-.030529-.2284546-.0912437-.0631142-.0607147-.0946732-.1358337-.0946732-.224678v-1.7915993l-1.6790886-2.3531265c-.0373917-.061058-.0562553-.124176-.0562553-.1896935-.0044594-.0891838.0236664-.1653366.0843811-.2284508.0607147-.063118.1358376-.0946732.2250252-.0946732.1169701 0 .2106133.0538521.2809334.1615601l1.468132 2.1356544 1.468132-2.1356544c.0703201-.107708.1639633-.1615601.2812767-.1615601z"/><path d="m35.8889961 48.1603012c-.1025391 0-.1904297-.0351563-.2636719-.1054688-.0722656-.0712891-.109375-.1582031-.109375-.2607422v-1.7753906l-1.6699219-2.3398438c-.0439453-.0722656-.0654297-.1445313-.0654297-.21875-.0048828-.1015625.0283203-.1904297.0986328-.2636719.0693359-.0722656.1572266-.109375.2607422-.109375.1347656 0 .2431641.0615234.3232422.1835938l1.4257813 2.0751953 1.4267578-2.0761719c.0791016-.1210938.1875-.1826172.3222656-.1826172.1025391 0 .1904297.0371094.2617188.109375.0703125.0742188.1035156.1640625.0976563.2666016 0 .0722656-.0214844.1455078-.0644531.2128906l-1.6777344 2.3427734v1.7753906c0 .1025391-.0361328.1904297-.1064453.2597656-.069336.0703127-.1572266.1064455-.2597657.1064455zm-1.7490234-4.9736328c-.0761719 0-.1376953.0263672-.1884766.0791016-.0517578.0537109-.0742188.1152344-.0712891.1923828 0 .0566406.0166016.1123047.0498047.1650391l1.6855469 2.3642578v1.8066406c0 .0751953.0263672.1367188.0800781.1884766.0537109.0527344.1171875.078125.1933594.078125s.1376953-.0253906.1894531-.0771484.0771484-.1132813.0771484-.1894531v-1.8066406l.0087891-.0136719 1.6855469-2.3535156c.03125-.0488281.0478516-.1035156.0478516-.1601563.0039063-.0771484-.0185547-.140625-.0703125-.1943359-.0517578-.0527344-.1132813-.0791016-.1894531-.0791016-.0996094 0-.1787109.0458984-.2392578.1386719l-1.5097656 2.1962891-1.5087891-2.1953125c-.0615235-.0937502-.140625-.1396486-.2402344-.1396486z"/></g><g><path d="m47.1461487 47.4391136c.0545082.0548286.0820808.121521.0820808.2003937 0 .0788765-.0275726.1442871-.0820808.1968689-.0548286.0525818-.121521.0788765-.2003975.0788765h-2.9222374c-.104847 0-.194622-.0371933-.2690086-.1115799-.074707-.0743866-.1115799-.1641655-.1115799-.2693329 0-.0961876.0259705-.1773071.0785522-.2430382l2.7449303-3.3881187h-2.528183c-.0788727 0-.145565-.0272522-.2000732-.0820808-.0548286-.0548286-.0820808-.1215172-.0820808-.2003937s.0272522-.1465302.0820808-.2036018c.0545082-.0567513.1212006-.085289.2000732-.085289h2.8497772c.1228027 0 .2202759.0394402.2924156.1183128.0721436.0785561.1083755.1750679.1083755.2888908 0 .0436058-.0099411.0897751-.0294991.1378708-.0198784.0480957-.045208.0897789-.0756683.1247253l-2.7119064 3.3554153h2.5740318c.0788766.0000001.1455689.0275727.2003976.0820809z"/><path d="m46.9456367 47.9649887h-2.921875c-.1191406 0-.2216797-.0419922-.3046875-.1259766-.0839844-.0830078-.1259766-.1855469-.1259766-.3046875 0-.1074219.0292969-.1992188.0888672-.2744141l2.6796875-3.3066406h-2.4238281c-.0927734 0-.171875-.0322266-.2353516-.0966797-.0634766-.0634766-.0966797-.1425781-.0966797-.2363281 0-.0927734.0322266-.1728516.0966797-.2382813.0625-.0654297.1435547-.0996094.2353516-.0996094h2.8505859c.1367188 0 .2470703.0449219.3291016.1337891.0800781.0878906.1210938.1962891.1210938.3232422 0 .0498047-.0107422.1025391-.0332031.15625s-.0507813.1005859-.0839844.1386719l-2.6455078 3.2724609h2.4697266c.0917969 0 .1708984.0322266.2353516.0976563.0644531.0634766.0966797.1435547.0966797.2353516s-.0322266.1699219-.0966797.2324219c-.0644532.0615234-.1435548.0927734-.2353517.0927734zm-3.0078125-4.5830078c-.0644531 0-.1191406.0234375-.1630859.0693359-.046875.0478516-.0693359.1025391-.0693359.1689453s.0224609.1201172.0683594.1650391c.0439453.0458984.0996094.0683594.1640625.0683594h2.6328125l-.0654297.0810547-2.7451172 3.3876953c-.0449219.0566406-.0673828.1279297-.0673828.2119141 0 .0927734.0322266.1689453.0966797.234375.0654297.0644531.1416016.0966797.234375.0966797h2.921875c.0664063 0 .1201172-.0214844.1650391-.0654297.0449219-.0429688.0673828-.0957031.0673828-.1601563 0-.0654297-.0224609-.1191406-.0673828-.1650391-.0458984-.0458984-.1005859-.0683594-.1650391-.0683594h-2.6787109l2.7773438-3.4355469c.0273438-.0322266.0507813-.0703125.0693359-.1132813.0166016-.0400391.0253906-.0810547.0253906-.1181641 0-.1025391-.03125-.1855469-.0957031-.2548828-.0625-.0693359-.1455078-.1025391-.2548828-.1025391h-2.8505861z"/></g></g></g></svg>