<svg id="Layer_1" enable-background="new 0 0 50 50" height="512" viewBox="0 0 50 50" width="512" xmlns="http://www.w3.org/2000/svg"><g><g><g><path d="m25 46.1c-11.6 0-21.1-9.5-21.1-21.1s9.5-21.1 21.1-21.1 21.1 9.5 21.1 21.1-9.5 21.1-21.1 21.1zm0-38.9c-9.8 0-17.8 8-17.8 17.8s8 17.8 17.8 17.8 17.8-8 17.8-17.8-8-17.8-17.8-17.8z" fill="#fc4a32"/></g></g><g><g><path d="m4.3 25.5c0-11.6 9.5-21.1 21.1-21.1 5.8 0 11 2.3 14.8 6.1-3.8-4.1-9.2-6.6-15.2-6.6-11.6 0-21.1 9.5-21.1 21.1 0 5.9 2.4 11.2 6.3 15-3.6-3.8-5.9-8.9-5.9-14.5z" fill="#ff6252"/></g><g><path d="m25.4 43.3c9.8 0 17.8-8 17.8-17.8 0-5-2.1-9.5-5.3-12.7 3 3.2 4.9 7.5 4.9 12.3 0 9.8-8 17.8-17.8 17.8-4.9 0-9.3-2-12.5-5.1 3.3 3.3 7.9 5.5 12.9 5.5z" fill="#ff6252"/></g></g><g><g><path d="m42.9 13.8c1.6 3 2.5 6.4 2.5 10 0 11.6-9.5 21.1-21.1 21.1-7.5 0-14.1-4-17.9-9.9 3.6 6.6 10.6 11.1 18.6 11.1 11.6 0 21.1-9.5 21.1-21.1 0-4.1-1.2-7.9-3.2-11.2z" fill="#e23e2d"/></g><g><path d="m7.2 25c0-9.8 8-17.8 17.8-17.8 6.3 0 11.8 3.3 15 8.2-3-5.6-8.9-9.4-15.7-9.4-9.8 0-17.8 8-17.8 17.9 0 3.5 1 6.8 2.8 9.6-1.3-2.6-2.1-5.4-2.1-8.5z" fill="#e23e2d"/></g></g><g><g><path d="m25 37.5c-6.9 0-12.5-5.6-12.5-12.5s5.6-12.5 12.5-12.5 12.5 5.6 12.5 12.5-5.6 12.5-12.5 12.5zm0-23c-5.8 0-10.5 4.7-10.5 10.5s4.7 10.5 10.5 10.5 10.5-4.7 10.5-10.5-4.7-10.5-10.5-10.5z" fill="#fc4a32"/></g></g><g><g><path d="m14.5 25c0-5.8 4.7-10.5 10.5-10.5 4.6 0 8.5 3 10 7.1-1.2-4.5-5.3-7.8-10.2-7.8-5.8 0-10.5 4.7-10.5 10.5 0 1.2.2 2.4.6 3.4-.3-.8-.4-1.8-.4-2.7z" fill="#e23e2d"/></g><g><path d="m36.8 21c.3 1.1.5 2.2.5 3.3 0 6.9-5.6 12.5-12.5 12.5-5.5 0-10.1-3.5-11.8-8.5 1.5 5.3 6.3 9.2 12 9.2 6.9 0 12.5-5.6 12.5-12.5 0-1.4-.3-2.8-.7-4z" fill="#e23e2d"/></g></g><g><g><path d="m47.3 26.5h-13.5c-.8 0-1.5-.7-1.5-1.5 0-.8.7-1.5 1.5-1.5h13.4c.8 0 1.5.7 1.5 1.5.1.8-.6 1.5-1.4 1.5z" fill="#6c728c"/></g><g><path d="m48.8 25c0 .8-.7 1.5-1.5 1.5h-13.5c-.9 0-1.5-.7-1.5-1.5 0-.9.7-1.5 1.5-1.5h13.4c.9 0 1.6.6 1.6 1.5z" fill="#6c728c"/></g><g><path d="m47.2 23.5h-5v.3c0 .8-.7 1.5-1.5 1.5h-8.4c.1.7.7 1.3 1.5 1.3h13.4c1 0 1.7-.9 1.5-1.9-.1-.8-.8-1.2-1.5-1.2z" fill="#626681"/></g><g><path d="m17.7 25c0 .8-.7 1.5-1.5 1.5h-13.5c-.8 0-1.5-.7-1.5-1.5 0-.9.7-1.5 1.5-1.5h13.4c.9 0 1.6.6 1.6 1.5z" fill="#6c728c"/></g><g><path d="m16.1 23.5h-4.7c0 1-.8 1.8-1.8 1.8h-8.4c.2.7.8 1.2 1.5 1.2h13.4c1 0 1.7-.9 1.5-1.9-.1-.7-.8-1.1-1.5-1.1z" fill="#626681"/></g></g><g><g><path d="m26.5 33.8v13.5c0 .8-.7 1.5-1.5 1.5s-1.5-.7-1.5-1.5v-13.5c0-.8.7-1.5 1.5-1.5s1.5.7 1.5 1.5z" fill="#6c728c"/></g><g><path d="m25.2 32.3v16.5c.7-.1 1.3-.7 1.3-1.5v-13.5c0-.7-.5-1.4-1.3-1.5z" fill="#626681"/></g><g><path d="m26.5 2.7v13.4c0 .8-.7 1.5-1.5 1.5s-1.5-.7-1.5-1.5v-13.4c0-.8.7-1.5 1.5-1.5s1.5.7 1.5 1.5z" fill="#6c728c"/></g><g><path d="m25 1.2v16.5c.8 0 1.5-.7 1.5-1.5v-13.5c0-.8-.7-1.5-1.5-1.5z" fill="#626681"/></g></g></g></svg>