<svg id="Layer_1" enable-background="new 0 0 53 53" height="512" viewBox="0 0 53 53" width="512" xmlns="http://www.w3.org/2000/svg"><g id="_x35_3"><path d="m45.4699707 10.4127893v37.0899658c0 1.6501465-1.3496094 3-3 3h-31.9399414c-1.659668 0-3-1.3498535-3-3v-37.0899658c0-1.6600342 1.340332-3.0000005 3-3.0000005h31.9399414c1.6503906.0000001 3 1.3399664 3 3.0000005z" fill="#b75f25"/><path d="m45.4699707 10.4127893v37.0899658c0 1.6501465-1.3496094 3-3 3h-31.9399414c-1.2099609 0-2.25-.7199707-2.7197266-1.75.3798828.1700439.7998047.2700195 1.2397461.2700195h31.9399414c1.6499023 0 3-1.3499756 3-3v-37.0899657c0-.4500732-.1000977-.8699951-.2797852-1.2500005 1.0400391.4700932 1.7597657 1.52002 1.7597657 2.7299809z" fill="#aa5821"/><path d="m35.6203613 7.4127889v2.8699956c0 1.1999512-.9702148 2.1700439-2.1699219 2.1700439h-13.9003906c-1.1899414 0-2.1699219-.9700928-2.1699219-2.1700439v-2.8699956z" fill="#aa5821"/><path d="m42.4851418 40.0303993h-5.5154381c-1.1507454 0-2.0836067.9328613-2.0836067 2.0836067v5.5101738z" fill="#d0d0f7"/><path d="m42.4851418 12.3688297v27.6615696h-5.5154381c-1.1507454 0-2.0836067.9328613-2.0836067 2.0836067v5.5101738h-22.2904692c-1.1507454 0-2.0836086-.9328651-2.0836086-2.0836105v-33.1717396c0-1.1507454.9328632-2.0836096 2.0836086-2.0836096h27.8059072c1.1507454 0 2.0836068.9328642 2.0836068 2.0836096z" fill="#e4e3ff"/><path d="m35.6203613 10.2827845c0 1.1999512-.9702148 2.1700439-2.1699219 2.1700439h-13.9003906c-1.1899414 0-2.1699219-.9700928-2.1699219-2.1700439z" fill="#d0d0f7"/><path d="m33.4517975 5.4872355h-3.9699707c0-1.6499636-1.3400269-2.9899905-2.9800415-2.9899905-1.6499634 0-2.9899902 1.3400269-2.9899902 2.9899905h-3.9599609c-.6500244 0-1.1700439.5200195-1.1700439 1.1699829v3.6300044c0 .6500244.5200195 1.1700439 1.1700439 1.1700439h13.8999634c.6400146 0 1.1699829-.5200195 1.1699829-1.1700439v-3.6300043c-.0000001-.6499634-.5299684-1.169983-1.169983-1.169983z" fill="#f9b938"/><path d="m26.5017853 6.9772258c-.8399658 0-1.5199585-.6799927-1.5199585-1.5199585 0-.8500366.6799927-1.5300295 1.5199585-1.5300295.8300171 0 1.5100098.6799929 1.5100098 1.5300295-.0000001.8399658-.6799927 1.5199585-1.5100098 1.5199585z" fill="#fff"/><g opacity=".3"><path d="m25.8445606 10.3104687h-4.9477348c-.2467327 0-.4463863-.1996527-.4463863-.4463854s.1996536-.4463863.4463863-.4463863h4.9477348c.2467327 0 .4463863.1996536.4463863.4463863s-.1996536.4463854-.4463863.4463854z" fill="#fff"/></g><g opacity=".3"><path d="m28.4112797 10.3104687h-.9302616c-.2467327 0-.4463863-.1996527-.4463863-.4463854s.1996536-.4463863.4463863-.4463863h.9302616c.2467327 0 .4463863.1996536.4463863.4463863s-.1996536.4463854-.4463863.4463854z" fill="#fff"/></g><g><g opacity=".3"><path d="m9.4025297 27.7653713v9.9477367c0 .2467308-.1996527.4463844-.4463854.4463844-.2467337 0-.4463863-.1996536-.4463863-.4463844l-.000001-9.9477367c0-.2467327.1996536-.4463863.4463863-.4463863s.4463864.1996536.4463864.4463863z" fill="#fff"/></g><g opacity=".3"><path d="m9.4064178 39.5728683.000001 1.2506752c0 .2467308-.1996536.4463844-.4463863.4463844s-.4463863-.1996536-.4463863-.4463844v-1.2506752c0-.2467346.1996527-.4463882.4463854-.4463882.2467336 0 .4463862.1996536.4463862.4463882z" fill="#fff"/></g></g><g opacity=".3"><path d="m9.0266113 13.0994349c-.2763672 0-.5-.2236328-.5-.5v-2.0898438c0-1.1582031.9414063-2.0996094 2.0996094-2.0996094h1.9404297c.2763672 0 .5.2236328.5.5s-.2236328.5-.5.5h-1.9404297c-.6064453 0-1.0996094.4931641-1.0996094 1.0996094v2.0898438c0 .2763671-.2236328.5-.5.5z" fill="#fff"/></g><g><g><path d="m14.7695456 33.625843h23.4580078c.4140625 0 .75-.3359375.75-.75s-.3359375-.75-.75-.75h-23.4580078c-.4140625 0-.75.3359375-.75.75s.3359375.75.75.75z" fill="#d0d0f7"/></g><g><path d="m14.7695456 38.4276009h23.4580078c.4140625 0 .75-.3359375.75-.75s-.3359375-.75-.75-.75h-23.4580078c-.4140625 0-.75.3359375-.75.75s.3359375.75.75.75z" fill="#d0d0f7"/></g><g><path d="m14.7695456 43.2283821h8.4580088c.4140625 0 .75-.3359375.75-.75s-.3359375-.75-.75-.75h-8.4580088c-.4140625 0-.75.3359375-.75.75s.3359375.75.75.75z" fill="#d0d0f7"/></g></g><path d="m33.9738083 21.9174423c0 4.3593216-3.5239964 7.8952923-7.8831711 7.8952923-4.3594685 0-7.8952923-3.5359707-7.8952923-7.8952923s3.5358238-7.8830233 7.8952923-7.8830233c4.3591747.0000001 7.8831711 3.5237017 7.8831711 7.8830233z" fill="#00d67f"/><g opacity=".3"><path d="m25.1415844 16.114584c-.2529297 0-.4697266-.1914072-.4960938-.4492197-.0283203-.2744141.171875-.5205078.4462891-.5478516.2177734-.0224609.4394531-.0341797.6621094-.0341797.2763672 0 .5.2236328.5.5s-.2236328.500001-.5.500001c-.1884766 0-.3759766.0097656-.5605469.0283203-.0175781.0019531-.0341797.0029297-.0517578.0029297z" fill="#fff"/></g><g opacity=".3"><path d="m20.9560375 17.935873c-.2050781-.1855469-.2207031-.5019531-.0361328-.7060547.7255859-.8027344 1.6455078-1.4169931 2.6601563-1.7753916.2597656-.09375.546875.0439453.6386719.3046875.0917969.2607431-.0449219.546876-.3046875.6386728-.859375.3027344-1.6376953.8222656-2.2519531 1.5019531-.1840077.2040464-.498869.2221776-.7060548.0361329z" fill="#fff"/></g><path d="m33.9694633 21.9158535c0 4.3599854-3.5200176 7.9000244-7.8798809 7.9000244-2.4499512 0-4.6401367-1.1199951-6.0900879-2.8800049 1.3701172 1.0999756 3.1000977 1.7600098 4.9799805 1.7600098 4.3601074 0 7.880125-3.5300293 7.880125-7.8900146 0-1.9100342-.670166-3.6500244-1.8000469-5.0200205 1.7800274 1.4500742 2.9099102 3.6500253 2.9099102 6.1300058z" fill="#00c179"/><g><path d="m25.1159401 25.1539135-3.7006741-3.7006721c-.3854866-.3854885-.3854866-1.0099754 0-1.395462.3854866-.3854885 1.0099754-.3854885 1.395462 0l3.002943 3.0029411 7.3512306-7.3512325c.3854866-.3854866 1.0099754-.3854866 1.395462 0s.3854866 1.0099754 0 1.395462l-8.0489616 8.0489635c-.3854769.3854771-1.0099639.385498-1.3954619 0z" fill="#474646"/></g></g></svg>