<svg id="Layer_1" enable-background="new 0 0 53 53" height="512" viewBox="0 0 53 53" width="512" xmlns="http://www.w3.org/2000/svg"><g id="_x32_12"><g><path d="m42.6344719 6.9985113v39.0029755c0 2.4844589-2.0140533 4.4985123-4.4985123 4.4985123h-28.7036657c-2.4844589 0-4.4985113-2.0140533-4.4985113-4.4985123v-39.0029755c0-2.4844589 2.0140524-4.4985113 4.4985113-4.4985113h28.7036667c2.4844579 0 4.4985113 2.0140524 4.4985113 4.4985113z" fill="#f9b938"/></g><g><path d="m42.6351471 7v39c0 2.4897461-2.0100098 4.5-4.5 4.5h-28.7000113c-1.8500371 0-3.4299932-1.1000977-4.1199956-2.6901855.7199707.4802246 1.5799561.7600098 2.5.7600098h28.6999512c2.4900513 0 4.5-2.0100098 4.5-4.5v-39c0-.6398926-.1299438-1.2600098-.3799438-1.8100586 1.2099604.8000488 1.9999995 2.1801757 1.9999995 3.7402343z" fill="#e5a320"/></g><g><path d="m39.8813972 10.2461967v9.687294c0 .9147778-.7415733 1.656353-1.656353 1.656353h-20.897314c-.9147797 0-1.656353-.7415752-1.656353-1.656353v-9.687294c0-.9147787.7415733-1.656353 1.656353-1.656353h20.8973141c.9147796.0000001 1.6563529.7415743 1.6563529 1.656353z" fill="#fff"/></g><g><path d="m39.8851471 10.25v9.6799316c0 .9199219-.75 1.6599121-1.6600342 1.6599121h-20.8999634c-.6800537 0-1.2700195-.4199219-1.5200186-1.0100098.1300049.0400391.2799673.0600586.4299917.0600586h20.9000244c.9199829 0 1.6599731-.7399902 1.6599731-1.6599121v-9.6801757c0-.2299805-.039978-.4399414-.1300049-.6398926.7000124.1799317 1.2200319.8200684 1.2200319 1.5900879z" fill="#e4e3ff"/></g><g><path d="m13.4921427 2.5h-4.0598755c-2.4844365 0-4.4984746 2.0141602-4.4984746 4.4985352v39.0029297c0 2.484375 2.0140381 4.4985352 4.4984746 4.4985352h4.0598755z" fill="#474646"/></g><g><path d="m13.4951334 2.5v48h-4.0599976c-1.6799932 0-3.1500249-.920166-3.9100347-2.2800293.6700439.4199219 1.4700317.6599121 2.3200073.6599121h1.9408031c1.1703987 0 2.119195-.9487953 2.119195-2.119194v-44.2606888z" fill="#2d2c2c"/></g><g><g><path d="m11.1626091 14.1408997c0 1.2132168-.9755068 2.1886749-2.1887741 2.1886749-1.2050114 0-2.188724-.9754581-2.188724-2.1886749 0-1.2134171.9837127-2.1888742 2.188724-2.1888742 1.2132673-.0000001 2.1887741.9754571 2.1887741 2.1888742z" fill="#e4e3ff"/></g><g><path d="m11.1626091 22.3803673c0 1.2132168-.9755068 2.188673-2.1887741 2.188673-1.2050114 0-2.188724-.9754562-2.188724-2.188673 0-1.213419.9837127-2.1888752 2.188724-2.1888752 1.2132673 0 2.1887741.9754562 2.1887741 2.1888752z" fill="#e4e3ff"/></g><g><path d="m11.1626091 30.619833c0 1.2132187-.9755068 2.188673-2.1887741 2.188673-1.2050114 0-2.188724-.9754543-2.188724-2.188673 0-1.2134171.9837127-2.1888733 2.188724-2.1888733 1.2132673 0 2.1887741.9754562 2.1887741 2.1888733z" fill="#e4e3ff"/></g><g><path d="m11.1626091 38.8593025c0 1.2132149-.9755068 2.1886711-2.1887741 2.1886711-1.2050114 0-2.188724-.9754562-2.188724-2.1886711 0-1.2134209.9837127-2.1888771 2.188724-2.1888771 1.2132673 0 2.1887741.9754563 2.1887741 2.1888771z" fill="#e4e3ff"/></g></g><g><g><path d="m11.0751505 13.5400391c-.4000244-.5-1.0100098-.8200684-1.7000122-.8200684-1.210022 0-2.1900029.9799805-2.1900029 2.1899414 0 .2099609.0299683.4099121.0899658.5998535-.3099976-.369873-.4899902-.8498535-.4899902-1.369873 0-1.2099609.9799805-2.1899414 2.1900029-2.1899414 1 0 1.8400268.6699218 2.1000366 1.5900879z" fill="#c2c2ef"/></g><g><path d="m11.0651407 21.75c-.4000244-.4799805-1.0100098-.7900391-1.6900024-.7900391-1.210022 0-2.1900029.9699707-2.1900029 2.1899414 0 .2099609.0299683.4099121.0899658.6000977-.3099976-.3701172-.4899902-.8500977-.4899902-1.3701172 0-1.2099609.9799805-2.1899414 2.1900029-2.1899414.9899902 0 1.8300171.6599121 2.0900268 1.5600586z" fill="#c2c2ef"/></g><g><path d="m11.0651407 29.9897461c-.4000244-.4799805-1.0100098-.7897949-1.6900024-.7897949-1.210022 0-2.1900029.9699707-2.1900029 2.1899414 0 .2099609.0299683.4099121.0899658.5998535-.3099976-.369873-.4899902-.8498535-.4899902-1.369873 0-1.2099609.9799805-2.1899414 2.1900029-2.1899414.9899902-.0000001 1.8300171.6599121 2.0900268 1.5598144z" fill="#c2c2ef"/></g><g><path d="m11.0651407 38.2299805c-.4000244-.4799805-1.0100097-.7900391-1.6900024-.7900391-1.210022 0-2.1900029.9699707-2.1900029 2.1899414 0 .2099609.0299683.4101563.0899658.6000977-.3099976-.3701172-.4899902-.8500977-.4899902-1.3701172 0-1.2099609.9799805-2.1899414 2.1900029-2.1899414.9899902 0 1.8300171.6599121 2.0900268 1.5600586z" fill="#c2c2ef"/></g></g><g><g><path d="m9.895669 14.1407986v.0000019c0 .6544895-.5305681 1.1850576-1.1850567 1.1850576h-5.1499052c-.654489 0-1.1850574-.5305681-1.1850574-1.1850576v-.0000019c0-.6544895.5305684-1.1850576 1.1850574-1.1850576h5.1499052c.6544886-.0000001 1.1850567.5305681 1.1850567 1.1850576z" fill="#2d2c2c"/></g><g><path d="m9.895669 22.3802662v.0000019c0 .6544895-.5305681 1.1850567-1.1850567 1.1850567h-5.1499052c-.654489 0-1.1850574-.5305672-1.1850574-1.1850567v-.0000019c0-.6544895.5305684-1.1850586 1.1850574-1.1850586h5.1499052c.6544886 0 1.1850567.5305691 1.1850567 1.1850586z" fill="#2d2c2c"/></g><g><path d="m9.895669 30.6197319v.0000019c0 .6544895-.5305681 1.1850586-1.1850567 1.1850586h-5.1499052c-.654489 0-1.1850574-.5305691-1.1850574-1.1850586v-.0000019c0-.6544895.5305684-1.1850567 1.1850574-1.1850567h5.1499052c.6544886 0 1.1850567.5305672 1.1850567 1.1850567z" fill="#2d2c2c"/></g><g><path d="m9.895669 38.8591995v.0000038c0 .6544876-.5305681 1.1850548-1.1850567 1.1850548h-5.1499052c-.654489 0-1.1850574-.5305672-1.1850574-1.1850548v-.0000038c0-.6544876.5305684-1.1850586 1.1850574-1.1850586h5.1499052c.6544886 0 1.1850567.530571 1.1850567 1.1850586z" fill="#2d2c2c"/></g></g><g><g><path d="m9.8950968 14.1398926c0 .6599121-.5299683 1.1899414-1.1799927 1.1899414h-5.1499639c-.6100464 0-1.1100464-.4499512-1.1799927-1.0397949.2199707.2697754.5499878.4399414.9199829.4399414h5.1499639c.6500244 0 1.1800537-.5400391 1.1800537-1.1899414 0-.050293 0-.0900879-.0100098-.1401367.169983.1999511.2699586.4599609.2699586.7399902z" fill="#1b1b1b"/></g><g><path d="m9.8950968 22.3798828c0 .6499023-.5299683 1.1899414-1.1799927 1.1899414h-5.1499639c-.6100464 0-1.1100464-.4599609-1.1799927-1.0498047.2099609.2700195.5499878.4399414.9199829.4399414h5.1499639c.6500244 0 1.1800537-.5300293 1.1800537-1.1801758 0-.0498047 0-.0898438-.0100098-.1398926.169983.1999513.2699586.459961.2699586.7399903z" fill="#1b1b1b"/></g><g><path d="m9.8950968 30.619873c0 .6501465-.5299683 1.1799316-1.1799927 1.1799316h-5.1499639c-.6100464 0-1.1100464-.4599609-1.1799927-1.0400391.2099609.2700195.5499878.4401855.9199829.4401855h5.1499639c.6500244 0 1.1800537-.5300293 1.1800537-1.1799316 0-.0500488 0-.1000977-.0100098-.1501465.169983.1999513.2699586.4699709.2699586.7500001z" fill="#1b1b1b"/></g><g><path d="m9.8950968 38.8598633c0 .6499023-.5299683 1.1801758-1.1799927 1.1801758h-5.1499639c-.6100464 0-1.1100464-.4602051-1.1799927-1.0400391-.0100098-.0500488-.0100098-.0900879-.0100098-.1401367 0-.6599121.5299683-1.1899414 1.1900024-1.1899414h5.1499639c.3699951 0 .7000122.1699219.9100342.4399414.169983.1999512.2699586.4599609.2699586.75z" fill="#1b1b1b"/></g></g><g><g><path d="m9.635148 38.2597656c0 .6501465-.5300293 1.1801758-1.1800537 1.1801758h-5.1499638c-.3699951 0-.710022-.1699219-.9199829-.4399414-.0100098-.0500488-.0100098-.0900879-.0100098-.1401367 0-.6599121.5299683-1.1899414 1.1900024-1.1899414h5.1499639c.3699951 0 .7000122.1699219.9100342.4399414.0100097.0500488.0100097.1000976.0100097.1499023z" fill="#1b1b1b"/></g></g><g><g fill="#5e5eef"><path d="m23.4322319 17.8837452c0 .1143436-.0379658.2110271-.113018.2891693-.0754929.0781403-.173502.1174335-.2940254.1174335-.084322 0-.1611404-.0225163-.2304516-.0675468-.069313-.0454731-.1222897-.1068382-.1584911-.185421l-.5876083-1.4105263h-3.0740205l-.5876083 1.4105263c-.0362015.0785828-.08918.1399479-.1584911.185421-.069313.0450306-.1461296.0675468-.2304535.0675468-.1205235 0-.2185307-.0392933-.2940235-.1174335-.0750523-.0781422-.1130199-.1748257-.1130199-.2891693 0-.0481224.0150108-.1086044.0454731-.1810074l2.3054047-5.442997c.0481205-.1086035.1161079-.197341.2035217-.2666531.0874119-.0693121.1942501-.1037474.3209553-.1037474h.0905037c.1267033 0 .2335415.0344353.3209553.1037474.0874119.0693121.1549587.1580496.2035217.2666531l2.3054047 5.442997c.0300196.072403.045471.132885.045471.1810074zm-2.9203835-4.9458914-1.2206917 2.9384851h2.4409389z"/><path d="m23.0250645 18.4400864c-.1132813 0-.21875-.0307617-.3125-.0913086-.09375-.0615234-.1650391-.1450195-.2128906-.2490234l-.5507813-1.3227539h-2.875l-.5478516 1.3178711c-.0498047.1083984-.1210938.1918945-.2158203.253418-.2275391.1474609-.5341797.1132813-.7138672-.0708008-.1025391-.1069336-.1552734-.2392578-.1552734-.3935547 0-.0698242.0185547-.1484375.0566406-.2392578l2.3066406-5.4433603c.0576172-.1308594.140625-.2397461.2470703-.3251953.1152344-.0908203.2548828-.1367188.4150391-.1367188h.0908203c.1611328 0 .2998047.0458984.4140625.1367188.1054688.0830078.1884766.1918945.2470703.3222656l2.3056641 5.4458017c.0390625.0932617.0585938.1713867.0585938.2397461 0 .1538086-.0527344.2861328-.1552734.3930664-.1044923.1083984-.2402345.1630859-.4023438.1630859zm-4.1503907-1.9628907h3.2734375l.6269531 1.5024414c.0214844.0473633.0556641.0874023.1015625.1176758.1083984.0693359.2539063.0532227.3339844-.0283203.0488281-.0507813.0712891-.109375.0712891-.1850586 0-.0126953-.0029297-.0493164-.0341797-.1230469l-2.3037109-5.4423838c-.0380859-.0844727-.0908203-.1533203-.1591797-.2075195-.0605469-.0483398-.1347656-.0717773-.2275391-.0717773h-.0908203c-.0927734 0-.1669922.0234375-.2285156.0717773-.0693359.0551758-.1210938.1235352-.1582031.2094727l-2.3056641 5.4409189c-.0283203.0683594-.0322266.1064453-.0322266.1225586 0 .0761719.0214844.1352539.0703125.1850586.0791016.0825195.2255859.1005859.3339844.027832.046875-.0302734.0810547-.0703125.1044922-.1220703zm3.0820313-.4511718h-2.890625l1.4453125-3.4794931zm-2.4414063-.2998057h1.9921875l-.9960938-2.3974609z"/></g><g fill="#fc6559"><path d="m29.4535675 16.4732189c0 1.3198719-1.0095596 1.7720966-2.323946 1.7720966h-2.1879711c-.1143436 0-.2110271-.0392914-.2891693-.1174335-.0785828-.0785828-.1174335-.1748257-.1174335-.2896099v-5.4880276c0-.1143427.0388508-.2123518.1174335-.2940254.0781422-.0812321.1748257-.1218481.2891693-.1218481h2.1336689c1.4122868 0 2.025507.7362986 2.025507 1.6365633 0 .6789179-.3488865 1.1554155-.8860493 1.3924255.7231712.2286949 1.2387905.7388096 1.2387905 1.5098591zm-2.4413795-3.7702322h-1.654665v1.9619331h1.50103c.8239231 0 1.4555569-.2098665 1.4555569-1.0308542-.0000001-.6610193-.6356908-.9310789-1.3019219-.9310789zm1.6453933 3.7340307c0-.6869411-.533308-1.0308542-1.6003628-1.0308542h-1.6996955v2.0705385h1.6908665c.8559017 0 1.6091918-.1871376 1.6091918-1.0396843z"/><path d="m27.1295567 18.3951645h-2.1875c-.15625 0-.2890625-.0541992-.3964844-.1611328-.1064453-.1074219-.1611328-.2407227-.1611328-.3959961v-5.4877939c0-.1538086.0537109-.2875977.1591797-.3979492.1074219-.1113281.2412109-.1679688.3984375-.1679688h2.1328125c1.4879093 0 2.1767578.7960196 2.1767578 1.7866211 0 .5838642-.2253532 1.0460625-.6884766 1.3676758.6348763.2978277 1.0410156.8033266 1.0410156 1.5346689 0 1.0935669-.6683635 1.921875-2.4746093 1.921875zm-2.1875-6.3110361c-.0742188 0-.1318359.0244141-.1816406.0761719-.0517578.0537109-.0751953.1137695-.0751953.1899414v5.4877939c0 .0751953.0234375.1337891.0732422.184082.0498047.0498047.1083984.0732422.1835938.0732422h2.1875c1.2300205 0 2.1738281-.3916359 2.1738281-1.6220703 0-.6987076-.4673405-1.1566029-1.1337891-1.3667002l-.3798828-.1196289.3642578-.1606445c.4929123-.2169218.796875-.6472149.796875-1.2553711 0-1.0370569-.8237228-1.4868164-1.8759766-1.4868164zm2.1064453 5.5424814h-1.8417969v-2.3701181h1.8505859c1.4472656 0 1.7509766.6420898 1.7509766 1.180665 0 .9443016-.8090973 1.1894531-1.7597656 1.1894531zm-1.5410157-.2998047h1.5410156c.7542171 0 1.4589844-.1325359 1.4589844-.8896484 0-.2177734 0-.8808603-1.4501953-.8808603h-1.5498047zm1.350586-2.512208h-1.6513672v-2.2617188h1.8056641c.7548428 0 1.4521484.3297968 1.4521484 1.0810547 0 .9085789-.6915474 1.1806641-1.6064453 1.1806641zm-1.350586-.2998047h1.3505859c.7330551 0 1.3056641-.1511345 1.3056641-.8808594 0-.5693197-.5709324-.78125-1.1513672-.78125h-1.5048828z"/></g><g fill="#5bc658"><path d="m35.7556839 17.1875324c.1506348.1506367.143158.4548054-.0997734.5876083-.7466774.422842-1.3577652.5606785-2.0612679.5606785-1.8367195 0-3.1645241-1.2607803-3.1645241-3.2461958 0-1.9920692 1.3344326-3.2457552 3.1645241-3.2457552.698513 0 1.3097343.1350861 2.0612679.5606785.2326775.1271973.2578239.4177675.0997734.5831938-.1148834.1194496-.3059006.1277151-.4251442.0675459-.6203117-.3230553-1.0788193-.4247026-1.6546669-.4247026-1.5574265 0-2.4228363 1.027173-2.4228363 2.4590397 0 1.4602938.8893394 2.4594793 2.4228363 2.4594793.5668678 0 1.031826-.0986958 1.6546669-.4251442.1210098-.0599499.3106842-.050127.4251442.0635738z"/><path d="m33.5944023 18.4854965c-1.9059601 0-3.314455-1.3136692-3.314455-3.395997 0-2.090147 1.417017-3.3955078 3.314455-3.3955078.7294159 0 1.3673096.1455479 2.1357422.5800781.3175011.1726313.3603783.5824432.1337891.8173828-.1474609.1538086-.4150391.1918945-.6015625.0976563-.5973396-.3111143-1.0312386-.4086914-1.5869141-.4086914-1.476017 0-2.2724628.9666357-2.2724628 2.309082 0 1.3857355.8287945 2.3095713 2.2724628 2.3095713.5495453 0 .9838715-.0940456 1.5859375-.4077148.1953125-.0976563.4521484-.0576172.5996094.0898438.2181702.2147961.2047157.6418705-.1337891.8256836-.7510567.4264277-1.3893509.5786131-2.1328125.5786131zm0-6.4917002c-1.7221203 0-3.0136738 1.1621904-3.0136738 3.0957031 0 1.9379244 1.2954521 3.0961924 3.0136738 3.0961924.6899681 0 1.2721596-.135767 1.9873047-.5410156.1517754-.0827122.1516418-.2662086.0683594-.3505859l-.0009766-.0004883c-.0576172-.0571289-.1757813-.0732422-.2509766-.0351563-.639698.3336525-1.125267.4404297-1.7226563.4404297-1.6294441 0-2.5732441-1.0801754-2.5732441-2.609376 0-1.4930506.9165401-2.6088867 2.5732441-2.6088867.5934372 0 1.0783691.1056376 1.7246094.4414063.0629349.0327272.1820145.0301676.2470703-.0375977.0915527-.0949039.0810127-.2697115-.0625-.3481445-.7173766-.4060602-1.3024596-.5424805-1.9902343-.5424805z"/></g></g><g><g opacity=".4"><g><path d="m16.4767323 43.8954201c-.4745274 0-.8595219-.3849945-.8595219-.85952v-8.6825676c0-.4745293.3849945-.8595238.8595219-.8595238.4745293 0 .8595238.3849945.8595238.8595238v8.6825676c-.0000001.4745255-.3849946.85952-.8595238.85952z" fill="#fff"/></g></g><g opacity=".4"><g><path d="m16.4767323 32.0444832c-.4745274 0-.8595219-.3849926-.8595219-.8595219v-1.1359577c0-.4745274.3849945-.8595219.8595219-.8595219.4745293 0 .8595238.3849945.8595238.8595219v1.1359577c-.0000001.4745293-.3849946.8595219-.8595238.8595219z" fill="#fff"/></g></g></g><g><g opacity=".4"><g><path d="m28.5266018 5.1710057c0 .4745283-.3849945.8595228-.8595219.8595228h-6.1825657c-.4745293 0-.8595238-.3849945-.8595238-.8595228s.3849945-.8595228.8595238-.8595228h6.1825657c.4745274 0 .8595219.3849945.8595219.8595228z" fill="#fff"/></g></g><g opacity=".4"><g><path d="m19.1756649 5.1710057c0 .4745283-.3849945.8595228-.8595219.8595228h-1.1359577c-.4745293 0-.8595238-.3849945-.8595238-.8595228s.3849945-.8595228.8595238-.8595228h1.1359577c.4745274 0 .8595219.3849945.8595219.8595228z" fill="#fff"/></g></g></g><g><g><path d="m32.915 28.789h17.243v5.148h-17.243z" fill="#5e5eef" transform="matrix(.595 -.804 .804 .595 -8.385 46.087)"/></g><g><path d="m48.7349625 25.9649487-10.2594414 13.8592739-4.1379242-3.0631332.5814857-.7855186 1.6324005 1.2084007c.8439255.6247215 2.0330658.4472847 2.6578293-.3966942l8.54739-11.5464935z" fill="#4242e5"/></g><g><path d="m48.7345695 25.9654827 1.6667442-2.2515717c.3738136-.5049744.2674789-1.2174969-.2375679-1.591362l-2.308979-1.7092419c-.5050468-.3738651-1.2175636-.2675037-1.5913773.2374725l-1.6667442 2.2515697z" fill="#fc6559"/></g><g opacity=".4"><g><path d="m46.4806747 22.4389648c-.0722656 0-.1455078-.0214844-.2080078-.0683594-.1552734-.1152344-.1884766-.3339844-.0732422-.4892578l.4199219-.5673828c.1152344-.15625.3339844-.1894531.4892578-.0732422.1552734.1152344.1884766.3339844.0732422.4892578l-.4199219.5673828c-.0683593.0927735-.1748046.1416016-.28125.1416016z" fill="#fff"/></g></g><g><path d="m50.4016037 23.7135201-1.6666412 2.2514286-4.1379204-3.0631332.3264198-.4409523 2.3539429 1.742527c.490139.3628292 1.1816063.2596245 1.5444336-.2305126l1.0097084-1.3639927c.1296692-.175169.1989861-.372612.2158508-.5724659l.1167946.0864601c.5048027.3736839.6110954 1.0858382.2374115 1.590641z" fill="#f05543"/></g><g><path d="m45.808 22.292h1.076v5.148h-1.076z" fill="#e4e3ff" transform="matrix(.595 -.804 .804 .595 -1.215 47.321)"/></g><g><path d="m38.4755211 39.8242226-3.5483475 2.0881882-1.477211.8689919c-.2445145.143837-.5418968-.0764809-.4755096-.3522911l.3999825-1.6617126.9631615-4.0063095z" fill="#f7c9a9"/></g><g><path d="m34.9271736 41.9124107-1.477211.8689919c-.2445145.143837-.5418968-.0764809-.4755096-.3522911l.3999825-1.6617126c.3178978.0590744.628273.1893997.9056969.3947639.2803267.2075157.4956015.4663086.6470412.7502479z" fill="#2d2c2c"/></g><g opacity=".4"><g><path d="m38.1671982 33.4672852c-.2216797-.1640625-.2685547-.4765625-.1035156-.6992188l2.7275391-3.6835938c.1650391-.2207031.4775391-.2675781.6992188-.1035156s.2685547.4765625.1035156.6992188l-2.7275391 3.6835938c-.1625443.2194366-.4742242.2698173-.6992188.1035156z" fill="#fff"/></g></g><g opacity=".4"><g><path d="m42.0910263 28.0737305c-.2216797-.1640625-.2685547-.4775391-.1035156-.6992188l.2460938-.3320313c.1640625-.2207031.4775391-.2675781.6992188-.1035156s.2685547.4775391.1035156.6992188l-.2460938.3320313c-.1625443.2194347-.4742241.2698154-.6992188.1035156z" fill="#fff"/></g></g></g></g></svg>