<svg id="Capa_1" enable-background="new 0 0 512 512" height="512" viewBox="0 0 512 512" width="512" xmlns="http://www.w3.org/2000/svg"><g><path d="m256 323.218 37.633-119.96-37.633-203.258c-1.029 0-2.058.047-3.077.131-8.462.673-16.725 4.184-22.97 10.544l-220.333 223.07c-6.234 6.304-9.392 14.382-9.382 22.498z" fill="#97a1ea"/><path d="m511.762 256.243c.01-8.191-3.237-16.278-9.392-22.508l-220.343-223.079c-6.234-6.332-14.477-9.844-22.949-10.525-1.02-.084-2.049-.131-3.078-.131v323.218z" fill="#7d89e5"/><path d="m256 256.243 42.962-88.044-42.962-168.199c-1.029 0-2.058.047-3.077.131l-94.646 234.109-8.892 22.003z" fill="#7d89e5"/><path d="m362.615 256.243-8.393-20.771-95.145-235.341c-1.019-.084-2.048-.131-3.077-.131v256.243z" fill="#6260d0"/><path d="m256 255.757 37.633 52.985-37.633 203.258c-1.029 0-2.058-.047-3.077-.131-8.462-.673-16.725-4.184-22.97-10.544l-220.333-223.07c-6.234-6.304-9.392-14.382-9.382-22.498z" fill="#7d89e5"/><path d="m511.762 255.757c.01 8.191-3.237 16.279-9.392 22.508l-220.343 223.079c-6.234 6.332-14.477 9.844-22.949 10.525-1.02.084-2.049.131-3.078.131v-256.243z" fill="#6260d0"/><path d="m256 255.757 42.962 88.044-42.962 168.199c-1.029 0-2.058-.047-3.077-.131l-94.646-234.109-8.892-22.003z" fill="#6260d0"/><path d="m362.615 255.757-8.393 20.771-95.145 235.342c-1.019.083-2.048.13-3.077.13v-256.243z" fill="#4f54a0"/></g></svg>