<svg id="Layer_1" enable-background="new 0 0 52 52" height="512" viewBox="0 0 52 52" width="512" xmlns="http://www.w3.org/2000/svg"><g id="_x35_5"><g><g><path d="m38.8 8.7h2v34.7h-2z" fill="#ab604b"/></g><g><path d="m38.8 10.3h2v31.6h-2z" fill="#c7754f"/></g><g><path d="m11.2 8.7h2v34.5h-2z" fill="#ab604b"/></g></g><g><path d="m43.5 44.9.7 3.6c.1.8-.4 1.5-1.2 1.5h-34c-.8 0-1.4-.7-1.2-1.5l.7-3.6c.2-1 1-1.7 2-1.7h31c1 .1 1.8.8 2 1.7z" fill="#c7754f"/></g><g><path d="m13.4 50h-4.4c-.8 0-1.4-.7-1.2-1.5l.7-3.6c.2-1 1-1.7 2-1.7h4.4c-1 0-1.8.7-2 1.7l-.7 3.6c-.2.8.4 1.5 1.2 1.5z" fill="#ab604b"/></g><g><path d="m8.5 7.1-.7-3.6c-.1-.8.5-1.5 1.2-1.5h34c.8 0 1.4.7 1.2 1.5l-.7 3.6c-.2 1-1 1.7-2 1.7h-31c-1-.1-1.8-.8-2-1.7z" fill="#c7754f"/></g><g><path d="m14.9 8.7h-4.4c-1 0-1.8-.7-2-1.7l-.7-3.5c-.1-.8.5-1.5 1.2-1.5h4.4c-.8 0-1.4.7-1.2 1.5l.7 3.6c.1.9 1 1.6 2 1.6z" fill="#ab604b"/></g><g><path d="m36.7 8.7v6.1c0 1-.3 1.9-1 2.7l-5.2 6.2c-.6.8-.6 1.9 0 2.7l5.2 6.2c.6.8 1 1.7 1 2.7v7.9h-21.4v-7.9c0-1 .3-1.9 1-2.7l5.2-6.2c.7-.8.7-1.9 0-2.7l-5.2-6.2c-.6-.8-1-1.7-1-2.7v-6.1z" fill="#deddff"/></g><g><path d="m15.3 8.7h21.4v1.3h-21.4z" fill="#c6c6f7"/></g><g><path d="m15.3 41.9h21.4v1.3h-21.4z" fill="#c6c6f7"/></g><g><path d="m20.3 43.3c0-1.4 1-2.7 2.4-3 1.1-.2 1.8-1.2 1.8-2.3v-13.2c0-.8-.3-1.5-.8-2.1l-6.4-7.7c-.2-.3-.4-.7-.4-1v-1.9c0-.6.5-1.1 1.1-1.1h15.2c.6 0 1.1.5 1.1 1.1v1.9c0 .4-.1.7-.4 1l-6.4 7.7c-.5.6-.8 1.3-.8 2.1v13.2c0 1.1.8 2 1.8 2.3 1.4.3 2.4 1.5 2.4 3z" fill="#fcb73e"/></g><g><path d="m17 12.1v1.9c0 .4.1.7.4 1l6.4 7.7c.5.6.8 1.3.8 2.1v13.2c0 1.1-.8 2-1.8 2.3-.7.2-1.3.5-1.8 1.1-.4.5-.7 1.2-.7 1.9h1.2c0-.7.3-1.4.7-1.9s1-.9 1.8-1.1c1.1-.2 1.8-1.2 1.8-2.3v-13.2c0-.8-.3-1.5-.8-2.1l-6.4-7.7c-.2-.3-.4-.6-.4-1v-1.9c0-.6.5-1.1 1.1-1.1h-1.2c-.6.1-1.1.6-1.1 1.1z" fill="#fd982e"/></g><g><path d="m30.5 35.6c0 .4-.4.8-.8.8s-.8-.4-.8-.8.3-.8.8-.8.8.4.8.8z" fill="#fcb73e"/></g><g><path d="m23 35.6c0 .3-.3.6-.6.6s-.6-.3-.6-.6.3-.6.6-.6.6.3.6.6z" fill="#fcb73e"/></g><g><path d="m33.3 39.8c0 .3-.3.6-.6.6s-.6-.3-.6-.6.3-.6.6-.6.6.2.6.6z" fill="#fcb73e"/></g><g><path d="m21 38.5c0 .5-.4.8-.8.8s-.8-.4-.8-.8c0-.5.4-.8.8-.8s.8.3.8.8z" fill="#fcb73e"/></g><g><path d="m22.6 14.7c0 .4-.4.8-.8.8s-.8-.4-.8-.8.3-.8.8-.8.8.4.8.8z" fill="#fd982e"/></g><g><path d="m27.1 17.3c0 .3-.2.5-.5.5s-.5-.2-.5-.5.2-.5.5-.5.5.2.5.5z" fill="#fd982e"/></g><g><path d="m29.9 14.5c0 .2-.2.4-.4.4s-.4-.2-.4-.4.2-.4.4-.4c.2.1.4.2.4.4z" fill="#fd982e"/></g><g><path d="m26.5 13.5c0 .3-.3.6-.6.6s-.6-.3-.6-.6.3-.6.6-.6.6.3.6.6z" fill="#fd982e"/></g></g></svg>