<svg id="Layer_1" enable-background="new 0 0 53 53" height="512" viewBox="0 0 53 53" width="512" xmlns="http://www.w3.org/2000/svg"><g id="_x31_59"><g><g><path d="m26.5020275 2.5c-7.078043 0-12.8294191 5.7585096-12.8294191 12.8294182v9.6883526h25.6587944v-9.6883526c-.000001-7.0709086-5.7585116-12.8294182-12.8293753-12.8294182zm6.9130726 19.1211166h-13.826191v-6.5857449c0-3.8151226 3.0979958-6.9131184 6.9131184-6.9131184 3.8079433 0 6.9130726 3.0979958 6.9130726 6.9131184z" fill="#e4e3ff"/></g></g><g opacity=".4"><g><path d="m16.4558983 15.0632715c-.3956814-.0182085-.7017212-.3536615-.6835127-.749342.1316605-2.8702602 1.4713717-5.5822477 3.6752768-7.4408965.3025398-.2556167.7549458-.2170992 1.0105629.0861392.2549152.3025384.2163982.7549448-.0861397 1.0105615-1.8992672 1.6012807-3.0533943 3.9378972-3.1668453 6.4100261-.0171376.3763332-.3275776.6966915-.749342.6835117z" fill="#fff"/></g></g><g opacity=".4"><g><path d="m22.4184189 5.8621216c-.1246567-.3760715.0798359-.7815566.4559078-.9058633.973444-.3210964 1.9910088-.4944258 3.0246811-.5157857.3802738.0140066.7234306.3070903.7318344.7024207.0077038.3960309-.3067398.7237806-.7024212.7318339-.8908062.0178585-1.7676067.1673765-2.6044884.4436526-.3829326.125258-.7831249-.085216-.9055137-.4562582z" fill="#fff"/></g></g><g><path d="m39.3314018 18.5851612v6.4326096h-25.6587934v-6.4326096h5.9163007v3.0359554h2.5457936v-.9061088h10.5274219v.9061088h.7529755v-3.0359554z" fill="#d0d0f7"/></g><g><path d="m46.1958618 35.3066559c0 5.3880043-2.1688461 10.2729797-5.6773529 13.8315086-.880825.8933869-2.1065788 1.3618355-3.3611641 1.3618355h-21.3146887c-1.2545872 0-2.48034-.4684486-3.361166-1.3618355-3.5085077-3.5585289-5.677352-8.4435043-5.677352-13.8315086 0-5.3955193 2.1689606-10.2814865 5.6776323-13.8343811.8805399-.8916378 2.1050358-1.3589115 3.3581791-1.3589115h21.3200989c1.2531433 0 2.4776421.4672737 3.358181 1.3589115 3.5086718 3.5528946 5.6776324 8.4388618 5.6776324 13.8343811z" fill="#f9b938"/></g><g opacity=".4"><g><path d="m11.119462 35.9478531c-.0049019 0-.0098047 0-.0147066 0-.4951258-.0080528-.8894062-.4159889-.8817024-.9107666.0686312-4.2152214 1.7311897-8.1825333 4.6823368-11.1714973.2086954-.2146473.560256-.3459587.934227-.3459587h5.0906239c.4951248 0 .8964081.4012833.8964081.89641s-.4012833.89641-.8964081.89641h-4.9302511c-2.5141478 2.6402035-3.9245911 6.0917301-3.9841185 9.7533493-.0084038.4902267-.4075861.8820533-.8964091.8820533zm5.0668135-10.8272915c-.0028019.0028019-.0063038.0056038-.0091171.0087547.0028133-.0031509.0063152-.0059528.0091171-.0087547z" fill="#fff"/></g></g><g opacity=".4"><g><path d="m28.5987396 25.3124504h-3.5639267c-.4951248 0-.8964081-.4012833-.8964081-.89641s.4012833-.89641.8964081-.89641h3.5639267c.4951267 0 .89641.4012833.89641.89641s-.4012833.89641-.89641.89641z" fill="#fff"/></g></g><g><path d="m46.1943169 35.3031654c0 5.3927689-2.1656952 10.2764473-5.6724586 13.8333702-.8820534.8964081-2.1083565 1.3625603-3.3633308 1.3625603h-21.3130456c-1.2549734 0-2.4812326-.4661522-3.3633289-1.3625603-.4948196-.5019989-.9609261-1.0326653-1.3983631-1.5848236.7099485.394413 1.5203056.5951843 2.3449764.5951843h21.3130474c1.2549706 0 2.4812317-.4661064 3.363327-1.355381 3.5067635-3.5641022 5.6724586-8.4477348 5.6724586-13.8333702 0-4.632658-1.5920029-8.8852177-4.2597389-12.23419.3657417.1936378.702816.4446163.9968185.7457962 3.5139428 3.5569668 5.679638 8.4406033 5.679638 13.8334141z" fill="#ecb021"/></g><g><path d="m28.8757172 37.1138077.8289433 4.4719086c.1171207.6318245-.3678455 1.2149506-1.0104332 1.2149506h-4.3844337c-.6425915 0-1.1275597-.5831299-1.0104332-1.2149582l.8289776-4.4719009c-1.7585983-.9614563-2.8768597-2.9681625-2.5130653-5.1785374.3304348-2.0076771 1.9190025-3.6508427 3.917963-4.0304604 3.1553288-.5992203 5.9241219 1.8060246 5.9241219 4.8632069-.0000002 1.8717383-1.0470221 3.5067634-2.5816404 4.3457908z" fill="#2d2c2c"/></g><g><path d="m24.5221863 41.3967934c-.1018543 0-.1646862-.0562172-.1924648-.0899467-.0277767-.0343933-.0720901-.1058235-.0535717-.2063522l.8379765-4.5212402-.430563-.2354507c-1.4153652-.7731628-2.189188-2.3690872-1.9259567-3.9716263.2519894-1.5284634 1.48349-2.7970028 2.9960804-3.0840454.2493439-.0469589.5006695-.0714302.7486897-.0714302 2.0932884 0 3.79702 1.7037315 3.79702 3.7976799 0 1.3869286-.7579498 2.6627426-1.9788685 3.329422l-.430563.2354507.8379765 4.5212402c.0185204.1005287-.0257931.1719589-.0535717.2063522-.0277786.0337296-.0906105.0899467-.1924629.0899467z" fill="#474646"/></g><g><path d="m29.4435616 30.6257439c-.6501427-.5417995-1.4899368-.8601322-2.3907452-.8601322-.2505016 0-.5011654.0270748-.751667.0744896-1.5102749.2844772-2.7429352 1.550951-2.9935989 3.0815639-.1828747 1.1106758.1288052 2.2146111.8128433 3.0408897-1.0497856-.8465767-1.5848465-2.214653-1.3612995-3.5894699.2505016-1.5306129 1.48316-2.7970848 2.9934349-3.0883427.2505016-.0406342.5011673-.067709.7518311-.067709 1.1852054.0000001 2.2483844.5485783 2.9392013 1.4087106z" fill="#1b1b1b"/></g><g><path d="m23.1960373 36.4505539c.0358906.0287094.0789165.0502014.1219425.0717354l-.0071793.0286713c-.0358467-.0286713-.0788726-.06456-.1147632-.1004067z" fill="#070707"/></g></g></svg>