<svg id="Layer_1" enable-background="new 0 0 50 50" height="512" viewBox="0 0 50 50" width="512" xmlns="http://www.w3.org/2000/svg"><g id="_x31_03"><g><g><g><path d="m39.2 15.6v1.4.2c-.1.5-.2.9-.5 1.2 0 .1-.1.1-.1.1-.1.1-.3.3-.5.4-.3.2-.7.3-1.2.3-.6 0-1.1-.2-1.5-.5-.1-.1-.2-.2-.3-.3-.3-.4-.5-.9-.5-1.5v-1.9c0-1.4-.3-2.8-.9-4 0 0 0 0 0-.1-1.6-3.4-5.2-5.7-9.3-5.5-5.1.3-8.9 4.8-8.9 9.9v13.2h4.1v4.6h-8.7v-18c0-8 6.7-14.5 14.9-14.1h.4c.2 0 .5 0 .7.1 6.8.9 12 6.7 12.4 13.7v.3.1c-.1.1-.1.2-.1.4z" fill="#626681"/></g></g><g><g><path d="m25.6 5.6c-.2 0-.4 0-.6 0-5.3 0-9.6 4.3-9.6 9.6v13.4h-1.1v-13.6c0-5.3 4.3-9.6 9.6-9.6.6 0 1.2.1 1.7.2z" fill="#4d5471"/></g><g><path d="m39.1 15.1v2.1c-.1.5-.2.9-.5 1.2 0 .1-.1.1-.1.1-.1.1-.3.3-.5.4v-4c0-7-5.2-12.9-11.9-14 .2 0 .5 0 .7.1 6.9 1.1 12.2 6.8 12.3 13.8z" fill="#4d5471"/></g><g><path d="m10.8 33.1h8.7v.1h-8.7z" fill="#4d5471"/></g></g><g><g><path d="m16.2 28.7h3.3v1.4h-3.3z" fill="#6c8a8c"/></g><g><path d="m35.4 16.5v2.3c-.1-.1-.2-.2-.3-.3-.3-.4-.5-.9-.5-1.5v-1.9c0-1.4-.3-2.7-.9-4.1v.1c1.1 1.6 1.7 3.4 1.7 5.4z" fill="#6c8a8c"/></g><g><path d="m37.6 8.7c-2.5-3.8-6.9-6.4-11.8-6.4-7.8 0-14.2 6.4-14.2 14.2v16.7h-.8v-18c0-7.9 6.4-14.2 14.2-14.2 5.5 0 10.3 3.2 12.6 7.7z" fill="#6c8a8c"/></g></g><g><g><path d="m38.6 18.5c0 .1-.1.1-.1.1-.1.1-.3.3-.5.4-.3.2-.7.3-1.2.3-.6 0-1.1-.2-1.5-.5-.1-.1-.2-.2-.3-.3z" fill="#4d5471"/></g><g><path d="m19.5 28.7h-4.1v-10.2h-4.6v14.8h8.7z" fill="#4d5471"/></g></g><g><g><path d="m14.3 18.5h1.1v10h-1.1z" fill="#434a60"/></g></g><g><g><path d="m10.8 18.5h.8v14.8h-.8z" fill="#626681"/></g></g><g><g><path d="m10.8 33.1h8.7v.1h-8.7z" fill="#434a60"/></g></g><g><g><path d="m16.2 28.7h3.3v1.4h-3.3z" fill="#626681"/></g></g><g><g><path d="m43.2 49h-36.4c-.7 0-1.2-.6-1.2-1.2v-23.5c0-.7.6-1.2 1.2-1.2h36.4c.7 0 1.2.6 1.2 1.2v23.4c0 .7-.5 1.3-1.2 1.3z" fill="#b2b2b2"/></g><g><path d="m22 23.1h-15.2c-.7 0-1.2.6-1.2 1.3v23.4c0 .7.5 1.3 1.2 1.3h15.2z" fill="#f4f4f4"/></g><g><path d="m41.2 49h-32.4c-.7 0-1.2-.5-1.2-1.2v-23.6c0-.7.5-1.2 1.2-1.2h32.4c.7 0 1.2.5 1.2 1.2v23.6c0 .7-.5 1.2-1.2 1.2z" fill="#d5d3d4"/></g><g><path d="m41.2 23.1c-1.3 0-2.4 1.1-2.4 2.4v12c0 3.1-2.5 5.6-5.6 5.6h-7.7v-20h-16.7c-.7 0-1.2.5-1.2 1.2v23.6c0 .7.5 1.2 1.2 1.2h32.4c.7 0 1.2-.5 1.2-1.2v-23.7c0-.6-.5-1.1-1.2-1.1z" fill="#e7e7e7"/></g><g><path d="m41.3 23.1c-1.4-.1-2.5 1-2.5 2.4v12c0 3.1-2.5 5.6-5.6 5.6h-7.7v-20h-10.4c-2.2 0-4.1 1.8-4.1 4.1v13.5c0 1.8-1.5 3.3-3.3 3.3h-.1v3.9c0 .7.5 1.2 1.2 1.2h32.4c.7 0 1.2-.5 1.2-1.2v-23.7c0-.6-.5-1.1-1.1-1.1z" fill="#d5d3d4"/></g><g><path d="m41.2 23.1c-1.3 0-2.4 1.1-2.4 2.4v12c0 3.1-2.5 5.6-5.6 5.6h-7.7v-20h-2.9v25.9h18.7c.7 0 1.2-.5 1.2-1.2v-23.6c-.1-.6-.6-1.1-1.3-1.1z" fill="#c4c4c4"/></g><g><path d="m35.2 49h-20.4c-.5 0-.9-.4-.9-.9v-24.1c0-.5.4-.9.9-.9h20.4c.5 0 .9.4.9.9v24.1c0 .5-.4.9-.9.9z" fill="#c4c4c4"/></g><g><path d="m35.2 23.1h-7.8v25.9h7.8c.5 0 .9-.4.9-1v-24c0-.5-.4-.9-.9-.9z" fill="#e7e7e7"/></g><g><path d="m32.8 49h-15.6c-.5 0-.8-.4-.8-.8v-24.3c0-.5.4-.8.8-.8h15.6c.5 0 .8.4.8.8v24.3c0 .4-.3.8-.8.8z" fill="#d5d3d4"/></g><g><path d="m32.8 23.1c-1.7 0-3 1.3-3 3v3.6c0 7.4-6 13.4-13.4 13.4v5.1c0 .5.4.8.8.8h15.6c.5 0 .8-.4.8-.8v-24.3c0-.5-.3-.8-.8-.8z" fill="#c4c4c4"/></g></g><g><path d="m27.6 35.1c.9-.6 1.5-1.7 1.5-2.9 0-1.9-1.6-3.5-3.5-3.5s-3.5 1.6-3.5 3.5c0 1.2.6 2.3 1.5 2.9l-.8 5.5c-.1.6.4 1.2 1 1.2h3.5c.6 0 1.1-.6 1-1.2z" fill="#434a60"/></g><g><path d="m28.4 40.6c.1.6-.4 1.2-1 1.2h-.5c.3-.2.4-.6.3-.9l-.8-5.5c.9-.6 1.5-1.7 1.5-2.9 0-1.9-1.6-3.5-3.5-3.5-.1 0-.1 0-.2 0 .4-.2.9-.3 1.4-.3 1.9 0 3.5 1.6 3.5 3.5 0 1.2-.6 2.3-1.5 2.9z" fill="#4d5471"/></g></g><g><path d="m40.7 43.9c-.5 0-1-.4-1-1v-10.1c0-.5.4-1 1-1s1 .4 1 1v10.1c0 .6-.4 1-1 1z" fill="#d5d3d4"/></g></g></svg>