<svg id="Layer_1" enable-background="new 0 0 52 52" height="512" viewBox="0 0 52 52" width="512" xmlns="http://www.w3.org/2000/svg"><g id="_x38_3"><g><g><path d="m29.032 30.121h5.785v3.602h-5.785z" fill="#d0d0f7" transform="matrix(.707 -.707 .707 .707 -13.222 31.924)"/></g></g><g><g><path d="m31.5289974 7.0668898c6.7503071 6.7503061 6.759367 17.7092247.0091724 24.4594193-6.7594242 6.7594261-17.7183437 6.7503624-24.4686508.0000553-6.7593683-6.759368-6.7593683-17.7092238.0000568-24.468649 6.750195-6.750195 17.7000508-6.750195 24.4594216.0091744z" fill="#8666c6"/></g></g><g><g opacity=".3"><g><g><path d="m4.6054945 18.3359222c-.4788494-.060358-.818068-.4977608-.7573063-.9770126.4772398-3.7728529 2.150799-7.1879749 4.8395996-9.8767757.3412304-.3412309.8949251-.3412309 1.2361555 0 .3412313.3412304.3412313.8949251 0 1.2361555-2.411953 2.4119539-3.9128847 5.4757862-4.341435 8.8603258-.0605933.4780178-.4971726.8181515-.9770138.757307z" fill="#fff"/></g></g></g><g opacity=".3"><g><g><path d="m4.8159471 22.3667088c-.4792519.0591526-.9154477-.2812729-.9745996-.7605247-.0760527-.6152611-.1187065-1.2454109-.1271567-1.8727455-.0064383-.4836769.3806651-.8796349.8619292-.8860722.4828734-.0064392.8792319.3794575.8860726.8619289.0076456.5645599.0462756 1.1303272.1142802 1.6828136.0587987.4780007-.2801443.9150334-.7605257.9745999z" fill="#fff"/></g></g></g></g><g><g><path d="m31.5327873 7.0624542c6.7494164 6.7494144 6.7576141 17.7182388.0082493 24.4676018-3.6754723 3.6754723-8.5953484 5.3484268-13.3916912 5.0188675 4.0380802-.2637177 8.0020695-1.936676 11.0842094-5.018816 6.7494659-6.7494659 6.7411156-17.7182388-.0082989-24.4676533-3.0903911-3.0903902-7.0543289-4.7632954-11.1088561-5.027065 4.8126888-.3295109 9.7408657 1.3515427 13.4163875 5.027065z" fill="#7553aa"/></g></g><g><g><path d="m28.3854332 28.3742828c-5.0081635 5.0081635-13.1563988 5.0081635-18.1641769.0003853-5.0081635-5.0081635-5.0081635-13.1563988 0-18.1645622 5.0031538-5.0031543 13.1475372-4.999301 18.1557007.0088625 5.0077781 5.0077782 5.011631 13.1521616.0084762 18.1553144z" fill="#e4e3ff"/></g></g><g opacity=".3"><g><g><path d="m28.8366261 24.1002827c-.4183865-.1705914-.6183529-.6484795-.4473839-1.0664883 1.1071606-2.7084007.9365673-5.8577824-.4571743-8.424964-.2157841-.3972969-.0651493-.895896.3283825-1.1094198.3972969-.2157831.8940125-.0685387 1.1094189.3283825 1.650198 3.0390415 1.8441391 6.6199913.5332451 9.8251076-.1676579.4131584-.6446515.620367-1.0664883.447382z" fill="#fff"/></g></g></g><g><g><path d="m20.3283424 6.497468c-2.9307747.2314119-5.8074617 1.4730601-8.044095 3.7096939-5.0131021 5.0131016-5.0131021 13.1575098 0 18.1706123 2.2288666 2.2288666 5.0825357 3.4628429 7.9978228 3.7096481-3.6094284.2776833-7.3114023-.9563389-10.0647573-3.7096958-5.0053821-5.0053806-5.0053821-13.1652288 0-18.1706123 2.7610282-2.7610278 6.4785356-3.9950504 10.1110295-3.7096462z" fill="#d0d0f7"/></g></g><g><g><path d="m44.6236839 37.0292435c.9653778.9998932 1.8876724 2.0427666 2.7755089 3.1202049.4137192.4827423.8016586.9740105 1.1895485 1.4824791.3705788.4741135.7239571.9482803 1.0773849 1.4395485.5171509.7240067.422348 1.715271-.2068596 2.3444786l-4.0512314 4.0512314c-.6205788.6205788-1.6203651.7239037-2.3444824.2068596-.4912643-.3534279-.9653282-.7069092-1.4394417-1.0774879-.5085754-.3877831-.9998398-.7757263-1.4911041-1.1809235-1.0775452-.8877296-2.1117897-1.8186493-3.103054-2.7926598-.4568596-.4396019-.8964653-.8792038-1.3360138-1.3360138-.9653816-.9998894-1.8877258-2.0428162-2.7754555-3.1203613-.3965721-.4826355-.8017159-.9738503-1.1895504-1.4824753-.3619518-.4654884-.7240086-.9481277-1.0688629-1.4308167-.5170441-.7241135-.430975-1.7238998.1982327-2.3531075l4.0426025-4.0426044c.6292076-.6292076 1.620472-.7240086 2.3444824-.2068596.4913177.3534813.9654312.7068062 1.4395485 1.0773849.5171471.3793125.9997864.7758808 1.4824753 1.1895504 1.5375481 1.2669755 3.0215912 2.6194535 4.4562721 4.1115724z" fill="#f9b938"/></g></g><g opacity=".3"><g><g><path d="m40.3557739 45.1427345c-.3085403.3085403-.8079681.323719-1.1351013.0284653-.4812126-.4349136-.9525566-.878933-1.4121361-1.330925-.4565468-.4390869-.8933563-.8758965-1.3305435-1.3305435-.5119553-.5309296-1.0284615-1.0914574-1.5438271-1.6751366-.3013268-.3415527-.2751427-.8504715.0728645-1.1635628.3411751-.3009453.862236-.2686882 1.1635628.0728645.4979095.5647049.9977188 1.1070175 1.4952469 1.6220055.4227715.4402275.8451576.8626137 1.2922173 1.2922134.4493332.4417458.9039803.8705864 1.367733 1.2895584.3381386.3055038.3643265.826561.0592041 1.1643219-.0098686.0106278-.0193558.0208741-.0292206.0307389z" fill="#fff"/></g></g></g><g><g><path d="m44.6150551 37.0378723c.9748497.9904213 1.9001961 2.0302467 2.7824516 3.1132622l.0016861-.0016861c.086174.1034317.1723976.206913.2585716.3103447.2757797.3275452.5344582.6550369.7929802.9998398.0517159.051712.0949097.1119499.1379967.1722946.3705788.4741135.7239571.9482803 1.0773849 1.4395485.5171509.7240067.422348 1.715271-.2068596 2.3444786l-4.0512314 4.0512314c-.6205788.6205788-1.6203651.7239037-2.3444824.2068596-.0775986-.0603409-.1724014-.1206322-.25-.1809731l4.0771179-4.0771179c.6205788-.6205788.7153816-1.5945854.2240639-2.3100204 0-.0172577-.0085754-.0258331-.0172043-.0344582-.3620567-.5171509-.7326393-1.008522-1.1205788-1.4997864-.844696-1.1205788-1.749733-2.1807098-2.680603-3.2151108-1.1004181-1.2347183-2.6230392-2.7662964-4.309803-4.2580414-.465435-.4309235-.9394455-.8361206-1.4480743-1.2239532-.8361702-.7153816-1.7152176-1.3877811-2.6117859-2.0427685.6293106-.6120548 1.6033211-.6896019 2.3187027-.1810799.4913177.3534813.9654312.7068062 1.4395485 1.0773849.1895485.1379948.3705788.2845097.5516052.4310284.2843552.2155418.5602379.4396553.8274422.672348.0344582.0344582.0689697.051712.1034279.086174 1.5759049 1.2985803 3.7908783 3.3382264 4.4476433 4.1202012z" fill="#ecb021"/></g></g><g><g><path d="m40.1674118 32.9176712-7.2489281 7.2489281c-.3965721-.4826355-.8017159-.9738503-1.1895504-1.4824753l6.9560032-6.9560032c.5171471.3793125.9997864.7758808 1.4824753 1.1895504z" fill="#f9b938"/></g></g><g><g><path d="m40.1674118 32.9176712-7.2489281 7.2489281c-.3965721-.4826355-.8017159-.9738503-1.1895504-1.4824753l6.9560032-6.9560032c.5171471.3793125.9997864.7758808 1.4824753 1.1895504z" fill="#e4e3ff"/></g></g><g><g><path d="m47.3991928 40.1494484c.4137192.4827423.8016586.9740105 1.1895485 1.4824791l-6.9646301 6.9646301c-.5085754-.3877831-.9998398-.7757263-1.4911041-1.1809235z" fill="#f9b938"/></g></g><g><g><path d="m47.3991928 40.1494484c.4137192.4827423.8016586.9740105 1.1895485 1.4824791l-6.9646301 6.9646301c-.5085754-.3877831-.9998398-.7757263-1.4911041-1.1809235z" fill="#e4e3ff"/></g></g><g><g><path d="m47.3991928 40.1494484c.086174.1034317.1723976.206913.2585716.3103447.2757797.3275452.5344582.6550369.7929802.9998398.0517159.051712.0949097.1119499.1379967.1722946l-1.4740067 1.4740067c0-.0172577-.0085754-.0258331-.0172043-.0344582-.3620567-.5171509-.7326393-1.008522-1.1205788-1.4997864z" fill="#ecb021"/></g></g><g><g><path d="m47.3991928 40.1494484c.086174.1034317.1723976.206913.2585716.3103447.2757797.3275452.5344582.6550369.7929802.9998398.0517159.051712.0949097.1119499.1379967.1722946l-1.4740067 1.4740067c0-.0172577-.0085754-.0258331-.0172043-.0344582-.3620567-.5171509-.7326393-1.008522-1.1205788-1.4997864z" fill="#d0d0f7"/></g></g><g><g><path d="m40.1674118 32.9176712-1.1808662 1.1808662c-.465435-.4309235-.9394455-.8361206-1.4480743-1.2239532l1.1464653-1.1464634c.1895485.1379948.3705788.2845097.5516052.4310284.2843552.2155418.5602379.4396553.8274422.672348.0344581.0344582.0689696.051712.1034278.086174z" fill="#ecb021"/></g></g><g><g><path d="m40.1674118 32.9176712-1.1808662 1.1808662c-.465435-.4309235-.9394455-.8361206-1.4480743-1.2239532l1.1464653-1.1464634c.1895485.1379948.3705788.2845097.5516052.4310284.2843552.2155418.5602379.4396553.8274422.672348.0344581.0344582.0689696.051712.1034278.086174z" fill="#d0d0f7"/></g></g></g></svg>