<svg id="Layer_1" enable-background="new 0 0 53 53" height="512" viewBox="0 0 53 53" width="512" xmlns="http://www.w3.org/2000/svg"><g id="_x33_65"><g><path d="m26.5 6.9580855v15.0913849c0 2.4582291-1.9927883 4.4510155-4.4510155 4.4510155h-15.097969c-2.4582281.0000005-4.4510155-1.9927859-4.4510155-4.451015v-15.0913854c0-2.4582276 1.9927874-4.4510155 4.4510155-4.4510155h15.0979691c2.4582271.0000003 4.4510154 1.9927879 4.4510154 4.4510155z" fill="#a2a2f9"/></g><g opacity=".3"><path d="m5.0070868 14.6822529c-.4145508 0-.75-.3354492-.75-.75v-4.8991699c0-.4145508.3354492-.75.75-.75s.75.3354492.75.75v4.8991699c0 .4145508-.3354493.75-.75.75z" fill="#fff"/></g><g opacity=".3"><path d="m7.976325 5.7642837h-.1135254c-.4145508 0-.75-.3354492-.75-.75s.3354492-.75.75-.75h.1135254c.4145508 0 .75.3354492.75.75s-.3354492.75-.75.75z" fill="#fff"/></g><g opacity=".3"><path d="m14.5000067 5.7642837h-3.8701172c-.4145508 0-.75-.3354492-.75-.75s.3354492-.75.75-.75h3.8701172c.4145508 0 .75.3354492.75.75s-.3354492.75-.75.75z" fill="#fff"/></g><g><path d="m26.4995499 6.9544692v15.0975037c0 2.4524231-1.9950256 4.4475403-4.4474945 4.4475403h-15.0975047c-2.0325165 0-3.7499998-1.3650513-4.2825165-3.2250366.3900146.1124268.8025055.1724854 1.230011.1724854h15.0975046c2.4524689 0 4.4474945-1.9950256 4.4474945-4.4474487v-15.0900878c0-.4274597-.0600128-.8399048-.1724854-1.2299194 1.8599855.5324707 3.224991 2.2499997 3.224991 4.2749631z" fill="#7979f7"/></g><g><path d="m50.5 6.9580855v15.0913849c0 2.4582291-1.9927864 4.4510155-4.4510155 4.4510155h-15.097969c-2.4582272.0000005-4.4510155-1.9927859-4.4510155-4.451015v-15.0913854c0-2.4582276 1.9927883-4.4510155 4.4510155-4.4510155h15.0979691c2.458229.0000003 4.4510154 1.9927879 4.4510154 4.4510155z" fill="#fc6559"/></g><g opacity=".3"><path d="m29.0070877 14.6822529c-.4145508 0-.75-.3354492-.75-.75v-4.8991699c0-.4145508.3354492-.75.75-.75s.75.3354492.75.75v4.8991699c0 .4145508-.3354492.75-.75.75z" fill="#fff"/></g><g opacity=".3"><path d="m31.976326 5.7642837h-.1135254c-.4145508 0-.75-.3354492-.75-.75s.3354492-.75.75-.75h.1135254c.4145508 0 .75.3354492.75.75s-.3354492.75-.75.75z" fill="#fff"/></g><g opacity=".3"><path d="m38.5000076 5.7642837h-3.8701172c-.4145508 0-.75-.3354492-.75-.75s.3354492-.75.75-.75h3.8701172c.4145508 0 .75.3354492.75.75s-.3354492.75-.75.75z" fill="#fff"/></g><g><path d="m50.4995499 6.9544692v15.0975037c0 2.4524231-1.9950256 4.4475403-4.4474945 4.4475403h-15.0975037c-2.0325165 0-3.75-1.3650513-4.2825165-3.2250366.3900146.1124268.8025055.1724854 1.230011.1724854h15.0975037c2.4524689 0 4.4474945-1.9950256 4.4474945-4.4474487v-15.0900878c0-.4274597-.0600128-.8399048-.1724854-1.2299194 1.8599854.5324707 3.2249909 2.2499997 3.2249909 4.2749631z" fill="#f05543"/></g><g><path d="m26.5 30.9505291v15.0913868c0 2.4582253-1.9927883 4.4510155-4.4510155 4.4510155h-15.097969c-2.4582281 0-4.4510155-1.9927903-4.4510155-4.4510155v-15.0913868c0-2.4582291 1.9927874-4.4510155 4.4510155-4.4510155h15.0979691c2.4582271 0 4.4510154 1.9927864 4.4510154 4.4510155z" fill="#f9b938"/></g><g opacity=".3"><path d="m7.976325 29.7567272h-.1135254c-.4145508 0-.75-.3354492-.75-.75s.3354492-.75.75-.75h.1135254c.4145508 0 .75.3354492.75.75s-.3354492.75-.75.75z" fill="#fff"/></g><g opacity=".3"><path d="m14.5000067 29.7567272h-3.8701172c-.4145508 0-.75-.3354492-.75-.75s.3354492-.75.75-.75h3.8701172c.4145508 0 .75.3354492.75.75s-.3354492.75-.75.75z" fill="#fff"/></g><g><path d="m26.4995499 30.9469128v15.0975018c0 2.4524231-1.9950256 4.4475403-4.4474945 4.4475403h-15.0975047c-2.0325165 0-3.7499998-1.3650513-4.2825165-3.2250366.3900146.1124268.8025055.1724854 1.230011.1724854h15.0975046c2.4524689 0 4.4474945-1.9950256 4.4474945-4.4474487v-15.090086c0-.4274597-.0600128-.8399048-.1724854-1.2299194 1.8599855.5324705 3.224991 2.2499998 3.224991 4.2749632z" fill="#ecb021"/></g><g><path d="m50.5 30.9505291v15.0913868c0 2.4582253-1.9927864 4.4510155-4.4510155 4.4510155h-15.097969c-2.4582272 0-4.4510155-1.9927902-4.4510155-4.4510155v-15.0913868c0-2.4582291 1.9927883-4.4510155 4.4510155-4.4510155h15.0979691c2.458229 0 4.4510154 1.9927864 4.4510154 4.4510155z" fill="#5bc658"/></g><g opacity=".3"><path d="m29.0070877 38.6746941c-.4145508 0-.75-.3354492-.75-.75v-4.8991699c0-.4145508.3354492-.75.75-.75s.75.3354492.75.75v4.8991699c0 .4145507-.3354492.75-.75.75z" fill="#fff"/></g><g opacity=".3"><path d="m31.976326 29.7567272h-.1135254c-.4145508 0-.75-.3354492-.75-.75s.3354492-.75.75-.75h.1135254c.4145508 0 .75.3354492.75.75s-.3354492.75-.75.75z" fill="#fff"/></g><g opacity=".3"><path d="m38.5000076 29.7567272h-3.8701172c-.4145508 0-.75-.3354492-.75-.75s.3354492-.75.75-.75h3.8701172c.4145508 0 .75.3354492.75.75s-.3354492.75-.75.75z" fill="#fff"/></g><g><path d="m50.4995499 30.9469128v15.0975018c0 2.4524231-1.9950256 4.4475403-4.4474945 4.4475403h-15.0975037c-2.0325165 0-3.75-1.3650513-4.2825165-3.2250366.3900146.1124268.8025055.1724854 1.230011.1724854h15.0975037c2.4524689 0 4.4474945-1.9950256 4.4474945-4.4474487v-15.090086c0-.4274597-.0600128-.8399048-.1724854-1.2299194 1.8599854.5324705 3.2249909 2.2499998 3.2249909 4.2749632z" fill="#49a247"/></g><g><path d="m12.8847713 9.5008497c.0061827-.0061827.0123653 0 .0185099.0061827-.0061445 0-.0061445.0061827-.0061445.0061827-.0061827-.0061827-.0061827-.0061827-.0123654-.0123654z" fill="#e24b40"/></g><g><g><path d="m14.2919922 19.8369865c-.828125 0-1.5-.6713867-1.5-1.5v-8.8237304c0-.8286133.671875-1.5 1.5-1.5s1.5.6713867 1.5 1.5v8.8237305c0 .8286132-.671875 1.4999999-1.5 1.4999999z" fill="#fff"/></g><g><path d="m18.7041016 15.4253654h-8.8242188c-.828125 0-1.5-.6713867-1.5-1.5s.671875-1.5 1.5-1.5h8.8242188c.828125 0 1.5.6713867 1.5 1.5s-.671875 1.5-1.5 1.5z" fill="#fff"/></g></g><g><g><path d="m11.3798828 43.1157951c-.3837891 0-.7675781-.1464844-1.0605469-.4394531-.5859375-.5859375-.5859375-1.5356445 0-2.1210938l6.2402344-6.2392578c.5859375-.5859375 1.5351563-.5859375 2.1210938 0s.5859375 1.5356445 0 2.1210938l-6.2402344 6.2392578c-.2929688.2929688-.6767578.4394531-1.0605469.4394531z" fill="#fff"/></g><g><path d="m17.6201172 43.1157951c-.3837891 0-.7675781-.1464844-1.0605469-.4394531l-6.2402344-6.2392578c-.5859375-.5854492-.5859375-1.5351563 0-2.1210938s1.5351563-.5859375 2.1210938 0l6.2402344 6.2392578c.5859375.5854492.5859375 1.5351563 0 2.1210938-.2929688.2929688-.6767578.4394531-1.0605469.4394531z" fill="#fff"/></g></g><g><path d="m42.9121094 16.0039787h-8.8242188c-.828125 0-1.5-.6713867-1.5-1.5s.671875-1.5 1.5-1.5h8.8242188c.828125 0 1.5.6713867 1.5 1.5s-.671875 1.5-1.5 1.5z" fill="#fff"/></g><g><g><path d="m42.9121094 36.7866936h-8.8242188c-.828125 0-1.5-.6713867-1.5-1.5s.671875-1.5 1.5-1.5h8.8242188c.828125 0 1.5.6713867 1.5 1.5s-.671875 1.5-1.5 1.5z" fill="#fff"/></g><g><path d="m42.9121094 43.2056389h-8.8242188c-.828125 0-1.5-.6713867-1.5-1.5s.671875-1.5 1.5-1.5h8.8242188c.828125 0 1.5.6713867 1.5 1.5s-.671875 1.5-1.5 1.5z" fill="#fff"/></g></g></g></svg>