<svg height="512.05175pt" viewBox="0 0 512.05175 512.05175" width="512.05175pt" xmlns="http://www.w3.org/2000/svg"><path d="m509.441406 496.957031-29.132812-29.042969v-.089843l-12.359375-12.359375h-.085938l-22.863281-22.863282v-.085937l-12.359375-12.359375h-.089844l-22.863281-22.863281v-.089844l-12.359375-12.355469h-.085937l-22.863282-22.863281v-.089844l-12.359375-12.359375h-.089843l-22.863282-22.863281v-.085937l-12.355468-12.359376h-.089844l-22.863282-22.863281v-.089843l-12.359374-12.359376h-.089844l-22.863282-22.863281v-.085937l-12.355468-12.359375h-.089844l-22.863281-22.863281v-.089844l-12.359375-12.359375h-.085938l-22.863281-22.863281v-.085938l-12.359375-12.359375h-.089844l-22.863281-22.863281v-.089844l-12.359375-12.359375h-.085938l-22.863281-22.863281v-.085938l-12.359375-12.359375h-.089844l-22.863281-22.863281v-.089844l-12.359375-12.355468h-.085937l-22.863281-22.863282v-.089844l-12.359376-12.359374h-.089843l-29.042969-29.128907c-2.523438-2.5468748-6.339844-3.3125-9.652344-1.9375s-5.4609372 4.617188-5.441406 8.203125v494.34375c0 4.875 3.953125 8.828125 8.828125 8.828125h494.34375c3.585937.023438 6.828125-2.128906 8.203125-5.441406s.613281-7.128906-1.933594-9.652344zm-204.183594-73.179687h-208.332031c-2.339843-.046875-4.566406-1.023438-6.191406-2.710938-1.621094-1.6875-2.503906-3.953125-2.457031-6.292968v-207.804688c-.0625-1.53125.828125-2.941406 2.238281-3.546875 1.40625-.609375 3.042969-.285156 4.117187.8125l213.273438 212.921875c1.050781 1.113281 1.359375 2.734375.792969 4.15625-.570313 1.421875-1.914063 2.382812-3.441407 2.464844zm0 0" fill="#cc66a1"/><g fill="#804169"><path d="m56.585938 44.101562v.089844l-15.007813 15.09375c-3.480469 3.414063-9.054687 3.414063-12.535156 0-3.441407-3.46875-3.441407-9.066406 0-12.535156l15.09375-15.007812h.089843zm0 0"/><path d="m91.894531 79.410156v.089844l-15.007812 15.09375c-3.480469 3.414062-9.050781 3.414062-12.535157 0-3.441406-3.46875-3.441406-9.066406 0-12.535156l15.097657-15.003906h.085937zm0 0"/><path d="m127.207031 114.722656v.085938l-15.007812 15.097656c-3.480469 3.414062-9.054688 3.414062-12.535157 0-3.441406-3.46875-3.441406-9.066406 0-12.535156l15.09375-15.007813h.089844zm0 0"/><path d="m162.515625 150.03125v.089844l-15.007813 15.09375c-3.480468 3.414062-9.054687 3.414062-12.535156 0-3.441406-3.46875-3.441406-9.066406 0-12.535156l15.097656-15.007813h.085938zm0 0"/><path d="m197.828125 185.34375v.085938l-15.007813 15.097656c-3.480468 3.414062-9.054687 3.414062-12.535156 0-3.445312-3.46875-3.445312-9.066406 0-12.535156l15.09375-15.007813h.089844zm0 0"/><path d="m233.136719 220.652344v.089844l-15.007813 15.09375c-3.480468 3.414062-9.054687 3.414062-12.535156 0-3.441406-3.46875-3.441406-9.066407 0-12.535157l15.097656-15.007812h.085938zm0 0"/><path d="m268.445312 255.964844v.085937l-15.003906 15.097657c-3.480468 3.414062-9.054687 3.414062-12.535156 0-3.445312-3.472657-3.445312-9.066407 0-12.535157l15.09375-15.007812h.089844zm0 0"/><path d="m303.757812 291.273438v.089843l-15.007812 15.09375c-3.480469 3.414063-9.054688 3.414063-12.535156 0-3.441406-3.46875-3.441406-9.066406 0-12.535156l15.09375-15.007813h.089844zm0 0"/><path d="m339.066406 326.585938v.085937l-15.003906 15.09375c-3.484375 3.414063-9.054688 3.414063-12.535156 0-3.445313-3.46875-3.445313-9.0625 0-12.535156l15.09375-15.003907h.089844zm0 0"/><path d="m374.378906 361.894531v.089844l-15.007812 15.09375c-3.480469 3.414063-9.054688 3.414063-12.535156 0-3.441407-3.46875-3.441407-9.066406 0-12.535156l15.09375-15.007813h.089843zm0 0"/><path d="m409.6875 397.203125v.089844l-15.007812 15.09375c-3.480469 3.414062-9.050782 3.414062-12.535157 0-3.441406-3.46875-3.441406-9.0625 0-12.535157l15.097657-15.003906h.085937zm0 0"/><path d="m445 432.515625v.085937l-15.007812 15.097657c-3.480469 3.414062-9.054688 3.414062-12.535157 0-3.441406-3.46875-3.441406-9.066407 0-12.535157l15.09375-15.007812h.089844zm0 0"/><path d="m480.308594 467.824219v.089843l-15.007813 15.09375c-3.480469 3.414063-9.050781 3.414063-12.535156 0-3.441406-3.46875-3.441406-9.066406 0-12.535156l15.097656-15.007812h.085938zm0 0"/></g><path d="m308.964844 70.671875c0 39.003906-31.617188 70.621094-70.621094 70.621094-39 0-70.621094-31.617188-70.621094-70.621094s31.621094-70.6210938 70.621094-70.6210938c39.003906 0 70.621094 31.6171878 70.621094 70.6210938zm0 0" fill="#7ed09e"/><path d="m512 70.671875c0 39.003906-31.617188 70.621094-70.621094 70.621094s-70.621094-31.617188-70.621094-70.621094 31.617188-70.6210938 70.621094-70.6210938 70.621094 31.6171878 70.621094 70.6210938zm0 0" fill="#7ed09e"/><path d="m512 273.707031c0 39.003907-31.617188 70.621094-70.621094 70.621094s-70.621094-31.617187-70.621094-70.621094c0-39.003906 31.617188-70.621093 70.621094-70.621093s70.621094 31.617187 70.621094 70.621093zm0 0" fill="#7ed09e"/><path d="m238.34375 114.808594c-4.875 0-8.828125-3.949219-8.828125-8.824219v-70.621094c0-4.875 3.953125-8.828125 8.828125-8.828125s8.828125 3.953125 8.828125 8.828125v70.621094c0 4.875-3.953125 8.824219-8.828125 8.824219zm0 0" fill="#527f72"/><path d="m273.65625 79.5h-70.621094c-4.875 0-8.828125-3.953125-8.828125-8.828125s3.953125-8.828125 8.828125-8.828125h70.621094c4.875 0 8.828125 3.953125 8.828125 8.828125s-3.953125 8.828125-8.828125 8.828125zm0 0" fill="#527f72"/><path d="m414.898438 105.984375c-3.570313-.003906-6.789063-2.152344-8.15625-5.453125-1.367188-3.296875-.609376-7.09375 1.914062-9.617188l52.964844-52.964843c2.214844-2.296875 5.5-3.214844 8.585937-2.40625 3.085938.804687 5.496094 3.214843 6.304688 6.304687.808593 3.085938-.113281 6.367188-2.410157 8.582032l-52.964843 52.964843c-1.652344 1.65625-3.898438 2.585938-6.238281 2.589844zm0 0" fill="#527f72"/><path d="m467.863281 105.984375c-2.34375-.003906-4.585937-.933594-6.242187-2.589844l-52.964844-52.964843c-3.347656-3.460938-3.296875-8.96875.105469-12.375 3.40625-3.402344 8.914062-3.453126 12.375-.105469l52.964843 52.964843c2.527344 2.523438 3.28125 6.320313 1.914063 9.617188-1.367187 3.300781-4.582031 5.449219-8.152344 5.453125zm0 0" fill="#527f72"/><path d="m476.691406 282.535156h-70.621094c-4.875 0-8.828124-3.953125-8.828124-8.828125s3.953124-8.828125 8.828124-8.828125h70.621094c4.875 0 8.824219 3.953125 8.824219 8.828125s-3.949219 8.828125-8.824219 8.828125zm0 0" fill="#527f72"/></svg>