<svg id="Layer_1" enable-background="new 0 0 53 53" height="512" viewBox="0 0 53 53" width="512" xmlns="http://www.w3.org/2000/svg"><g id="_x31_43"><g><g><path d="m-1.694 20.379h22.913v1.001h-22.913z" fill="#d0d0f7" transform="matrix(.355 -.935 .935 .355 -13.223 22.589)"/></g><g><g><path d="m7.3647575 31.9684715c-.3317251.8723869-1.313622 1.3185425-2.1923656.9843979-.8723869-.3317223-1.3162043-1.3200073-.984479-2.1923943.3342037-.8789024 1.3225369-1.3226109 2.1949234-.9908848.8787442.3341428 1.316125 1.3199788.9819212 2.1988812z" fill="#fc6559"/></g></g><g><g><path d="m7.3647575 31.9684715c-.3317251.8723869-1.313622 1.3185425-2.1923656.9843979-.6184902-.2351799-1.0161099-.7962265-1.0874724-1.412035.1886163.2878342.4654732.5199032.8105183.6511059.8787441.3341446 1.8607011-.1121712 2.1924267-.9845562.0989919-.260334.1279445-.532383.1014328-.7958698.2947086.4398727.380938 1.0165825.1754602 1.5569572z" fill="#f05543"/></g></g></g><g><g><path d="m39.295 9.143h1v22.912h-1z" fill="#d0d0f7"/></g><g><g><path d="m41.4944839 31.8167953c0 .9333267-.7592087 1.6993408-1.699337 1.6993408-.9333305 0-1.6994247-.7660141-1.6994247-1.6993408 0-.9402981.7660942-1.7063103 1.6994247-1.7063103.9401284.0000001 1.699337.7660123 1.699337 1.7063103z" fill="#fc6559"/></g></g><g><g><path d="m41.4944839 31.8167953c0 .9333267-.7592087 1.6993408-1.699337 1.6993408-.6616974 0-1.2327614-.383091-1.5183372-.9333305.2786026.2020035.6198654.3205185.9890137.3205185.9401283 0 1.6993408-.7661819 1.6993408-1.6995087 0-.2785187-.0696297-.5430946-.1880608-.7799549.4318047.3064042.7173805.8148118.7173805 1.3929348z" fill="#f05543"/></g></g></g><g><g><path d="m33.647 9.143h1v22.912h-1z" fill="#d0d0f7"/></g><g><g><path d="m35.8474274 31.8167953c0 .9333267-.7592125 1.6993408-1.6993408 1.6993408-.9333267 0-1.6994247-.7660141-1.6994247-1.6993408 0-.9402981.766098-1.7063103 1.6994247-1.7063103.9401283.0000001 1.6993408.7660123 1.6993408 1.7063103z" fill="#fc6559"/></g></g><g><g><path d="m35.8474274 31.8167953c0 .9333267-.7592125 1.6993408-1.6993408 1.6993408-.6616936 0-1.2327614-.383091-1.5183372-.9333305.2786064.2020035.6198692.3205185.9890175.3205185.9401283 0 1.699337-.7661819 1.699337-1.6995087 0-.2785187-.0696297-.5430946-.1880569-.7799549.4318045.3064042.7173804.8148118.7173804 1.3929348z" fill="#f05543"/></g></g></g><g><g><path d="m28 9.143h1v22.912h-1z" fill="#d0d0f7"/></g><g><g><path d="m30.2003689 31.8167953c0 .9333267-.7592106 1.6993408-1.6993389 1.6993408-.9333286 0-1.6994247-.7660141-1.6994247-1.6993408 0-.9402981.7660961-1.7063103 1.6994247-1.7063103.9401283.0000001 1.6993389.7660123 1.6993389 1.7063103z" fill="#fc6559"/></g></g><g><g><path d="m30.2003689 31.8167953c0 .9333267-.7592106 1.6993408-1.6993389 1.6993408-.6616955 0-1.2327614-.383091-1.5183372-.9333305.2786045.2020035.6198673.3205185.9890156.3205185.9401283 0 1.6993389-.7661819 1.6993389-1.6995087 0-.2785187-.0696297-.5430946-.1880589-.7799549.4318065.3064042.7173805.8148118.7173805 1.3929348z" fill="#f05543"/></g></g></g><g><g><path d="m22.354 9.143h1v22.912h-1z" fill="#d0d0f7"/></g><g><g><path d="m24.5533123 31.8167953c0 .9333267-.7592106 1.6993408-1.6993408 1.6993408-.9333267 0-1.6994247-.7660141-1.6994247-1.6993408 0-.9402981.766098-1.7063103 1.6994247-1.7063103.9401302.0000001 1.6993408.7660123 1.6993408 1.7063103z" fill="#fc6559"/></g></g><g><g><path d="m24.5533123 31.8167953c0 .9333267-.7592106 1.6993408-1.6993408 1.6993408-.6616955 0-1.2327614-.383091-1.5183353-.9333305.2786026.2020035.6198654.3205185.9890137.3205185.9401283 0 1.6993389-.7661819 1.6993389-1.6995087 0-.2785187-.0696297-.5430946-.1880589-.7799549.4318065.3064042.7173824.8148118.7173824 1.3929348z" fill="#f05543"/></g></g></g><g><g><path d="m16.706 9.143h1v22.912h-1z" fill="#d0d0f7"/></g><g><g><path d="m18.9062538 31.8167953c0 .9333267-.7592106 1.6993408-1.6993389 1.6993408-.9333286 0-1.6994257-.7660141-1.6994257-1.6993408 0-.9402981.7660971-1.7063103 1.6994257-1.7063103.9401283.0000001 1.6993389.7660123 1.6993389 1.7063103z" fill="#fc6559"/></g></g><g><g><path d="m18.9062538 31.8167953c0 .9333267-.7592106 1.6993408-1.6993389 1.6993408-.6616955 0-1.2327614-.383091-1.5183372-.9333305.2786045.2020035.6198654.3205185.9890137.3205185.9401302 0 1.6993408-.7661819 1.6993408-1.6995087 0-.2785187-.0696297-.5430946-.1880608-.7799549.4318065.3064042.7173824.8148118.7173824 1.3929348z" fill="#f05543"/></g></g></g><g><path d="m46.3151817 9.9816198v28.634613h-2.7700195v-27.5900878h-32.6601543v27.5900879h-2.7698975v-28.6346131c0-.9529648.7725296-1.7254944 1.7254944-1.7254944h34.7490845c.9529628.0000001 1.7254924.7725297 1.7254924 1.7254944z" fill="#474646"/></g><g><path d="m8.115 36.517h2.77v2.099h-2.77z" fill="#1b1b1b"/></g><g><path d="m43.545 36.517h2.77v2.099h-2.77z" fill="#1b1b1b"/></g><g><path d="m48.9221687 39.6250839v3.58992c0 .8443718-.6844978 1.5288696-1.5288696 1.5288696h-40.3564267c-.8443713 0-1.5288692-.6844978-1.5288692-1.5288696v-3.58992c0-.8443718.6844978-1.5288696 1.5288692-1.5288696h40.3564262c.8443723 0 1.5288701.6844978 1.5288701 1.5288696z" fill="#7979f7"/></g><g><path d="m48.9221687 39.6247025v3.590683c0 .8413086-.6874008 1.5284882-1.5284882 1.5284882h-40.3571901c-.7235031 0-1.3295321-.5063286-1.4922733-1.1846771.1265273.0359955.2623291.0541.3979101.0541h40.3571892c.8410873 0 1.5284882-.6871796 1.5284882-1.5284882v-3.5906868c0-.1176949-.0181084-.2351685-.0362129-.3438072.651184.1720161 1.130577.7688789 1.130577 1.4743881z" fill="#5e5eef"/></g><g><g opacity=".4"><g><path d="m20.5833874 40.3882446c0 .3745041-.3038425.6783485-.6783466.6783485h-7.0828896c-.3745041 0-.6783466-.3038445-.6783466-.6783485s.3038425-.6783447.6783466-.6783447h7.0828896c.374504 0 .6783466.3038406.6783466.6783447z" fill="#fff"/></g></g><g opacity=".4"><g><path d="m10.9999781 40.3882446c0 .3745041-.3038425.6783485-.6783457.6783485h-.896513c-.3745031 0-.6783457-.3038445-.6783457-.6783485s.3038425-.6783447.6783457-.6783447h.896513c.3745031 0 .6783457.3038406.6783457.6783447z" fill="#fff"/></g></g></g></g></svg>