<?xml version="1.0" encoding="UTF-8"?><svg id="b" xmlns="http://www.w3.org/2000/svg" viewBox="0 0 200 200"><g id="c"><rect width="200" height="200" fill="#dcdcdc"/><path d="M63.1,47.48c-4.91-2.08-10.69-3.04-15.94-1.7-4.17,1.07-7.72,3.52-10.33,6.49s-4.33,6.44-5.64,9.97c-3.57,9.62-4.23,19.88-3.36,29.94.87,10.06,3.22,19.98,5.57,29.86.45,1.88.94,3.85,2.39,5.33,2.95,2.99,8.57,2.68,12.7.98,6.4-2.64,10.93-7.71,14.58-12.91,6.38-9.08,10.81-19.14,13.15-29.52,1.17-5.2,1.82-10.48,1.93-15.77.08-4.01.95-10.46-1.52-14.05-1.03-1.5-3.05-2.43-4.61-3.48-2.84-1.91-5.66-3.77-8.92-5.15Z" fill="#7c8b96"/><path d="M42.43,60.07c-1.69,1.42-3.26,3.62-2.5,5.69.66,1.82,2.87,2.75,3.49,4.59.44,1.33-.08,2.82-.91,3.96-.82,1.14-1.93,2.05-2.84,3.12-2.36,2.77-3.33,6.66-2.56,10.21.66,3.05,2.51,5.79,2.78,8.9.38,4.34-2.38,8.57-1.67,12.87.66,3.96,4.36,7,8.33,7.57,3.97.57,8.05-1.01,11.15-3.55,3.1-2.55,5.36-5.98,7.24-9.53,2.67-5.04,4.69-10.43,6-15.98,1.13-4.79,1.73-9.76,1.19-14.66-.51-4.67-2.4-11.69-6.19-14.83-3.91-3.24-10.8-3.45-15.47-2.34-2.94.7-5.73,2.03-8.04,3.98Z" fill="#525d65"/><path d="M136.9,47.48c4.91-2.08,10.69-3.04,15.94-1.7,4.17,1.07,7.72,3.52,10.33,6.49,2.61,2.97,4.33,6.44,5.64,9.97,3.57,9.62,4.23,19.88,3.36,29.94-.87,10.06-3.22,19.98-5.57,29.86-.45,1.88-.94,3.85-2.39,5.33-2.95,2.99-8.57,2.68-12.7.98-6.4-2.64-10.93-7.71-14.58-12.91-6.38-9.08-10.81-19.14-13.15-29.52-1.17-5.2-1.82-10.48-1.93-15.77-.08-4.01-.95-10.46,1.52-14.05,1.03-1.5,3.05-2.43,4.61-3.48,2.84-1.91,5.66-3.77,8.92-5.15Z" fill="#7c8b96"/><path d="M157.57,60.07c1.69,1.42,3.26,3.62,2.5,5.69-.66,1.82-2.87,2.75-3.49,4.59-.44,1.33.08,2.82.91,3.96.82,1.14,1.93,2.05,2.84,3.12,2.36,2.77,3.33,6.66,2.56,10.21-.66,3.05-2.51,5.79-2.78,8.9-.38,4.34,2.38,8.57,1.67,12.87-.66,3.96-4.36,7-8.33,7.57-3.97.57-8.05-1.01-11.15-3.55-3.1-2.55-5.36-5.98-7.24-9.53-2.67-5.04-4.69-10.43-6-15.98-1.13-4.79-1.73-9.76-1.19-14.66.51-4.67,2.4-11.69,6.19-14.83,3.91-3.24,10.8-3.45,15.47-2.34,2.94.7,5.73,2.03,8.04,3.98Z" fill="#525d65"/><path d="M133.49,58.75c-7.11-7.2-15.93-11.09-25.36-12.36-9.44-1.27-19.3-1.07-28.34,2.56-3.14,1.26-6.14,2.94-8.89,5.06-6.48,5-11.53,12.16-14.85,20.15-6.88,16.58-5.68,37.76,5.01,51.58,6.26,8.1,15.19,13.2,24.45,15.86,15.98,4.6,34.15,1.9,46.84-9.93,9.46-8.83,15.28-22.4,15.51-36.21.24-14.19-5.31-27.54-14.37-36.73Z" fill="#929fa9"/><path d="M113.73,91.61c1.72.64,3.7.54,5.32-.32,1.62-.86,2.82-2.48,3.1-4.29,1.33-8.52-13.67-9.68-12.48-.29.28,2.23,1.99,4.13,4.06,4.9Z" fill="#32302d"/><path d="M84.03,90.34c1.72.64,3.7.54,5.32-.32s2.82-2.48,3.1-4.29c1.33-8.52-13.67-9.68-12.48-.29.28,2.23,1.99,4.13,4.06,4.9Z" fill="#32302d"/><path d="M75.88,113.7c-3.59,1.86-7.45,3.17-11.28,4.46,1.05,1.59,2.9,2.52,4.78,2.85,1.88.33,3.81.11,5.7-.16,2.49-.36,5-.85,7.25-1.96,2.26-1.11,4.26-2.92,5.14-5.28.79-2.14.5-7.42-3.03-6.08-1.44.55-2.67,2.32-3.89,3.25-1.46,1.11-3.04,2.07-4.67,2.92Z" fill="#efc9a5"/><path d="M118.12,114.65c3.59,1.86,7.45,3.17,11.28,4.46-1.05,1.59-2.9,2.52-4.78,2.85-1.88.33-3.81.11-5.7-.16-2.49-.36-5-.85-7.25-1.96-2.26-1.11-4.26-2.92-5.14-5.28-.79-2.14-.5-7.42,3.03-6.08,1.44.55,2.67,2.32,3.89,3.25,1.46,1.11,3.04,2.07,4.67,2.92Z" fill="#efc9a5"/><path d="M90.03,96.03c-2.14,1.29-4.02,3.04-5.55,5.02-2.3,2.99-3.84,6.51-4.86,10.15-2.24,8.01-1.86,16.78,1.22,24.52.74,1.87,1.61,3.85,2.78,5.5.96,1.36,2.27,2.37,3.26,3.73,2.43,3.34,5.58,6.13,9.39,7.78,3.51,1.52,7.38,2.05,11.2,2.1,7.52.1,15.09-2.28,17.52-10.14.97-3.15,1.29-6.52,2.77-9.46.48-.96,1.08-1.87,1.45-2.88s.49-2.17,0-3.13c-.49-.96-1.71-1.58-2.69-1.13-.78.36-1.17,1.22-1.61,1.96-.44.74-1.19,1.48-2.03,1.31-1.28-.26-1.31-2.13-2.24-3.05-.84-.83-2.4-.63-3.14.29-.75.92-.73,2.32-.12,3.34.67,1.13,1.95,1.89,2.35,3.14.43,1.34-.32,2.78-1.26,3.84-1.12,1.25-2.64,2.26-4.32,2.29-2.72.05-4.9-2.51-5.49-5.17-.72-3.25.33-6.67,1.97-9.57,1.65-2.9,3.87-5.42,5.77-8.15,1.91-2.73,3.54-5.81,3.74-9.13.25-4.14-1.83-8.22-5-10.9-3.17-2.67-7.3-4.03-11.44-4.33-4.11-.3-10.05-.11-13.67,2.07Z" fill="#a6b3bd"/><path d="M88.91,105.65c.39.7,1.34.81,2.14.74,1.87-.17,3.67-.83,5.52-1.18,1.85-.35,3.9-.33,5.45.73,2.08,1.43,3.7,4.87,6.68,2.91,1.48-.97,2.51-3.06,1.46-4.67-2.2-3.38-9.11-3.21-12.52-2.89-1.58.15-10.37,1.39-8.73,4.36Z" fill="#929fa9"/><path d="M88.12,112.5c-.52.22-1.03.47-1.4.89-.37.42-.56,1.04-.33,1.55.37.83,1.5.91,2.39.8,2.03-.26,4.01-.85,6.03-1.17,2.02-.32,4.17-.34,6.03.52.49.22.96.51,1.49.57.53.07,1.15-.15,1.32-.66.15-.42-.06-.88-.3-1.25-1.41-2.15-3.91-2.54-6.28-2.45-3.14.11-5.97-.04-8.94,1.21Z" fill="#929fa9"/><path d="M88.49,122.13c-.52.35-1.02.76-1.31,1.31-.29.55-.32,1.29.08,1.77.38.46,1.05.58,1.64.47s1.12-.41,1.65-.67c2.85-1.41,6.12-1.95,9.27-1.52.92.13,2.12.2,2.52-.64.4-.84-.42-1.76-1.26-2.17-1.69-.83-3.99-.84-5.86-.74-2.39.12-4.75.84-6.74,2.19Z" fill="#929fa9"/><path d="M90.2,135.1c.07.32.39.53.71.58.32.05.64-.04.96-.12,1.56-.42,3.11-.83,4.67-1.25,1.19-.32,3.82-.5,4.67-1.42.96-1.03-.45-2.68-1.33-3.28-2.11-1.46-4.78.34-6.53,1.58-.9.64-3.44,2.58-3.15,3.91Z" fill="#929fa9"/><path d="M101.96,138.14c-3.36-.19-7.02,2.61-8.93,5.09-.16.21-.32.45-.27.71.1.48.78.5,1.26.37,3.23-.85,6.16-2.79,8.2-5.43.13-.17.27-.42.14-.59-.09-.12-.25-.14-.39-.15Z" fill="#929fa9"/><path d="M100.76,147.45c-.11.37-.17.82.12,1.07.2.18.52.17.76.06.25-.11.44-.31.63-.5.86-.89,1.72-1.78,2.58-2.67.52-.53,1.53-1.6,1.17-2.45-.37-.9-1.4-.18-2.05.18-1.58.87-2.71,2.61-3.22,4.31Z" fill="#929fa9"/><path d="M107.69,149.26c-.13.57-.17,1.28.3,1.62.31.22.75.18,1.09,0,.33-.19.58-.5.79-.82.52-.79,2.61-4.74.98-4.9-1.93-.2-2.85,2.8-3.15,4.1Z" fill="#929fa9"/><path d="M114.6,149.27c.02.3.06.62.22.88.15.26.44.47.74.45.4-.03.66-.43.83-.79.74-1.61.93-3.92.02-5.51-1.5,1.29-1.95,3.01-1.81,4.97Z" fill="#929fa9"/></g></svg>