<?xml version="1.0" encoding="UTF-8"?><svg id="b" xmlns="http://www.w3.org/2000/svg" viewBox="0 0 178.5 134.99"><g id="c"><path d="M43.84,2.85C37.79.3,30.68-.89,24.21.76c-5.13,1.31-9.51,4.34-12.72,7.99-3.21,3.65-5.33,7.92-6.94,12.28C.17,32.87-.64,45.5.42,57.88c1.07,12.38,3.96,24.59,6.85,36.76.55,2.32,1.16,4.74,2.94,6.56,3.63,3.68,10.55,3.3,15.63,1.21,7.88-3.24,13.45-9.49,17.94-15.89,7.85-11.18,13.31-23.55,16.19-36.34,1.44-6.39,2.24-12.89,2.37-19.4.1-4.93,1.16-12.88-1.87-17.3-1.27-1.85-3.75-2.99-5.67-4.28-3.49-2.35-6.97-4.64-10.98-6.34Z" fill="#7c8b96"/><path d="M18.39,18.35c-2.08,1.75-4.01,4.45-3.07,7.01.82,2.25,3.54,3.39,4.29,5.66.55,1.64-.1,3.47-1.12,4.87-1.01,1.4-2.37,2.52-3.49,3.84-2.9,3.41-4.1,8.2-3.16,12.57.81,3.75,3.08,7.13,3.42,10.95.47,5.34-2.93,10.55-2.05,15.84.81,4.88,5.37,8.62,10.26,9.32,4.89.7,9.9-1.24,13.72-4.37,3.82-3.13,6.59-7.36,8.91-11.73,3.29-6.21,5.78-12.83,7.39-19.67,1.39-5.9,2.13-12.01,1.46-18.04-.63-5.74-2.95-14.38-7.62-18.25-4.81-3.99-13.29-4.25-19.04-2.89-3.61.86-7.05,2.5-9.9,4.9Z" fill="#525d65"/><path d="M134.66,2.85c6.05-2.56,13.16-3.75,19.62-2.09,5.13,1.31,9.51,4.34,12.72,7.99,3.21,3.65,5.33,7.92,6.94,12.28,4.39,11.84,5.2,24.47,4.13,36.85-1.07,12.38-3.96,24.59-6.85,36.76-.55,2.32-1.16,4.74-2.94,6.56-3.63,3.68-10.55,3.3-15.63,1.21-7.88-3.24-13.45-9.49-17.94-15.89-7.85-11.18-13.31-23.55-16.19-36.34-1.44-6.39-2.24-12.89-2.37-19.4-.1-4.93-1.16-12.88,1.87-17.3,1.26-1.85,3.75-2.99,5.67-4.28,3.49-2.35,6.97-4.64,10.98-6.34Z" fill="#7c8b96"/><path d="M160.11,18.35c2.08,1.75,4.01,4.45,3.07,7.01-.82,2.25-3.54,3.39-4.29,5.66-.55,1.64.1,3.47,1.12,4.87,1.01,1.4,2.37,2.52,3.49,3.84,2.9,3.41,4.1,8.2,3.16,12.57-.81,3.75-3.08,7.13-3.42,10.95-.47,5.34,2.93,10.55,2.05,15.84-.81,4.88-5.37,8.62-10.26,9.32-4.89.7-9.9-1.24-13.72-4.37-3.82-3.13-6.59-7.36-8.91-11.73-3.29-6.21-5.78-12.83-7.39-19.67-1.39-5.9-2.13-12.01-1.46-18.04.63-5.74,2.95-14.38,7.62-18.25,4.81-3.99,13.29-4.25,19.04-2.89,3.61.86,7.05,2.5,9.9,4.9Z" fill="#525d65"/><path d="M130.47,16.73c-8.75-8.87-19.6-13.65-31.21-15.21C87.65-.04,75.51.2,64.39,4.67c-3.86,1.55-7.56,3.62-10.94,6.23-7.97,6.15-14.2,14.96-18.28,24.8-8.47,20.41-6.99,46.48,6.16,63.49,7.71,9.97,18.7,16.24,30.1,19.52,19.67,5.66,42.04,2.34,57.65-12.22,11.65-10.87,18.8-27.57,19.09-44.56.29-17.47-6.53-33.9-17.68-45.2Z" fill="#929fa9"/><path d="M106.15,57.17c2.11.78,4.56.67,6.54-.39,1.99-1.06,3.47-3.06,3.82-5.28,1.64-10.49-16.83-11.92-15.36-.36.35,2.74,2.45,5.09,5,6.03Z" fill="#32302d"/><path d="M69.59,55.61c2.11.78,4.56.67,6.54-.39s3.47-3.06,3.82-5.28c1.64-10.49-16.83-11.92-15.36-.36.35,2.74,2.45,5.09,5,6.03Z" fill="#32302d"/><path d="M59.56,84.36c-4.42,2.3-9.16,3.9-13.88,5.49,1.3,1.96,3.57,3.1,5.89,3.5,2.31.4,4.69.14,7.01-.2,3.06-.45,6.15-1.05,8.93-2.41,2.78-1.37,5.25-3.59,6.32-6.5.97-2.63.61-9.13-3.73-7.49-1.77.67-3.28,2.86-4.79,4-1.8,1.37-3.74,2.55-5.74,3.59Z" fill="#efc9a5"/><path d="M111.55,85.52c4.42,2.3,9.16,3.9,13.88,5.49-1.3,1.96-3.57,3.1-5.89,3.5-2.31.4-4.69.14-7.01-.2-3.06-.45-6.15-1.05-8.93-2.41-2.78-1.37-5.25-3.59-6.32-6.5-.97-2.63-.61-9.13,3.73-7.49,1.77.67,3.28,2.86,4.79,4,1.8,1.37,3.74,2.55,5.74,3.59Z" fill="#efc9a5"/><path d="M76.97,62.62c-2.63,1.59-4.94,3.74-6.83,6.18-2.83,3.68-4.73,8.02-5.98,12.49-2.76,9.86-2.29,20.66,1.5,30.18.92,2.3,1.98,4.74,3.42,6.77,1.18,1.67,2.8,2.92,4.02,4.6,2.99,4.11,6.86,7.54,11.56,9.57,4.32,1.87,9.08,2.52,13.79,2.58,9.25.12,18.57-2.81,21.56-12.48,1.2-3.87,1.59-8.02,3.4-11.65.59-1.18,1.33-2.3,1.79-3.54s.6-2.68,0-3.86c-.6-1.18-2.11-1.94-3.31-1.39-.96.44-1.44,1.5-1.99,2.41-.55.91-1.47,1.82-2.5,1.61-1.57-.32-1.62-2.62-2.76-3.75-1.04-1.03-2.95-.77-3.87.36-.92,1.13-.89,2.85-.15,4.11.82,1.4,2.4,2.32,2.89,3.87.52,1.65-.4,3.43-1.55,4.72-1.37,1.54-3.25,2.78-5.32,2.82-3.35.07-6.03-3.09-6.76-6.36-.88-4,.41-8.21,2.43-11.78,2.03-3.57,4.76-6.67,7.11-10.03,2.35-3.36,4.35-7.15,4.6-11.24.31-5.09-2.26-10.12-6.15-13.41-3.9-3.29-8.99-4.96-14.07-5.33-5.06-.37-12.37-.14-16.82,2.55Z" fill="#a6b3bd"/><path d="M75.6,74.45c.48.86,1.66.99,2.64.91,2.31-.2,4.51-1.02,6.79-1.45,2.28-.43,4.8-.41,6.71.9,2.57,1.76,4.55,5.99,8.23,3.58,1.83-1.2,3.08-3.77,1.8-5.74-2.71-4.16-11.21-3.96-15.41-3.55-1.94.19-12.76,1.72-10.75,5.37Z" fill="#929fa9"/><path d="M74.63,82.88c-.63.27-1.27.58-1.73,1.09-.46.52-.69,1.28-.41,1.91.45,1.02,1.84,1.12,2.95.98,2.5-.31,4.93-1.05,7.42-1.44,2.49-.39,5.13-.42,7.43.63.6.27,1.18.62,1.83.71.65.08,1.41-.19,1.63-.81.18-.52-.07-1.08-.37-1.54-1.74-2.65-4.81-3.12-7.73-3.02-3.86.14-7.34-.05-11.01,1.49Z" fill="#929fa9"/><path d="M75.08,94.74c-.64.43-1.26.93-1.62,1.62-.36.68-.39,1.58.1,2.18.47.56,1.3.72,2.02.58s1.38-.5,2.03-.83c3.5-1.74,7.53-2.4,11.41-1.87,1.14.15,2.6.25,3.1-.79.5-1.03-.52-2.16-1.55-2.67-2.07-1.02-4.92-1.03-7.21-.92-2.94.14-5.85,1.03-8.29,2.69Z" fill="#929fa9"/><path d="M77.19,110.7c.08.39.48.65.87.71.4.06.79-.05,1.18-.15,1.92-.51,3.83-1.02,5.75-1.54,1.46-.39,4.7-.62,5.75-1.75,1.18-1.26-.56-3.29-1.63-4.04-2.6-1.79-5.88.41-8.04,1.94-1.11.79-4.23,3.17-3.88,4.82Z" fill="#929fa9"/><path d="M91.67,114.44c-4.13-.24-8.65,3.22-10.99,6.26-.2.25-.4.56-.33.87.12.59.96.61,1.55.46,3.97-1.05,7.58-3.43,10.1-6.69.16-.21.33-.51.17-.73-.11-.14-.31-.17-.48-.18Z" fill="#929fa9"/><path d="M90.18,125.89c-.14.45-.21,1.01.14,1.32.25.22.64.22.94.08.3-.14.54-.38.77-.62,1.06-1.1,2.12-2.19,3.18-3.29.63-.66,1.88-1.97,1.44-3.01-.46-1.1-1.73-.22-2.52.22-1.94,1.08-3.33,3.21-3.96,5.3Z" fill="#929fa9"/><path d="M98.71,128.12c-.16.7-.21,1.58.37,1.99.38.27.93.23,1.34,0,.41-.23.71-.61.97-1.01.64-.97,3.22-5.83,1.21-6.04-2.37-.24-3.51,3.45-3.88,5.05Z" fill="#929fa9"/><path d="M107.22,128.14c.03.37.08.76.26,1.08.19.33.54.58.91.55.49-.04.82-.52,1.02-.97.91-1.99,1.14-4.82.03-6.78-1.84,1.59-2.4,3.71-2.23,6.12Z" fill="#929fa9"/></g></svg>