<?xml version="1.0" encoding="UTF-8"?>
<svg id="Objects" xmlns="http://www.w3.org/2000/svg" viewBox="0 0 60 60">
  <defs>
    <style>
      .cls-1 {
        fill: #ffbd17;
      }

      .cls-2 {
        fill: #ed9c1b;
      }

      .cls-3 {
        fill: #fff;
      }
    </style>
  </defs>
  <path class="cls-2" d="M36.68,44.1v3.99c0,3.69-2.99,6.68-6.68,6.68s-6.68-2.99-6.68-6.68v-3.99h13.36Z"/>
  <path class="cls-1" d="M51.16,45.1c0,1.65-1.34,2.99-2.99,2.99H11.83c-1.65,0-2.99-1.34-2.99-2.99,0-.57.16-1.11.45-1.57.29-.46.7-.85,1.21-1.1,1.08-.54,1.96-1.36,2.57-2.35.61-.99.95-2.14.95-3.35v-11.72c0-7.53,5.21-13.84,12.21-15.53-.02-.15-.03-.3-.03-.45,0-2.09,1.7-3.79,3.79-3.79s3.79,1.7,3.79,3.79c0,.15,0,.3-.03.45,2.9.7,5.49,2.19,7.53,4.23,2.89,2.89,4.68,6.89,4.68,11.3v11.72c0,2.41,1.37,4.62,3.53,5.7.51.25.92.64,1.21,1.1.29.46.45,1.01.45,1.57Z"/>
  <path class="cls-3" d="M24.38,15.35c-1.6,1.19-3.43,3.64-4.06,7.54-.11.67-.74,1.13-1.41,1.03,0,0-.02,0-.03,0-.71-.1-1.18-.78-1.04-1.48.32-1.54.83-3.33,1.8-4.86.95-1.5,2.29-2.75,3.84-3.62.42-.23.94-.06,1.14.38h0c.16.37.05.78-.26,1.02Z"/>
  <circle class="cls-3" cx="18.84" cy="27.35" r="1.38"/>
</svg>