<svg id="Layer_1" enable-background="new 0 0 52 52" height="512" viewBox="0 0 52 52" width="512" xmlns="http://www.w3.org/2000/svg"><g id="_x38_8"><g><g><g><path d="m16.5553761 4.525806v42.9534035c0 1.1638145-.9434586 2.1072731-2.1072741 2.1072731h-9.8378792c-1.1638153 0-2.1072736-.9434586-2.1072736-2.1072731v-42.9534035c0-1.163815.9434583-2.1072733 2.1072736-2.1072733h9.8378792c1.1638155-.0000001 2.1072741.9434582 2.1072741 2.1072733z" fill="#fc6559"/></g></g><g><g><path d="m16.5556526 4.5244613v42.9535599c0 1.1630287-.9461613 2.1092529-2.1091309 2.1092529h-9.8365197c-1.1334927 0-2.0600429-.8969536-2.1093721-2.0107155h9.9351768c1.1629705 0 2.1092529-.9461594 2.1092529-2.1092529v-43.0520966c1.1137615.0493292 2.010593.9757592 2.010593 2.1092522z" fill="#f05543"/></g></g><g><g><path d="m13.5993176 25.874073v-17.6855497c0-.6139154-.4976768-1.1115928-1.1115932-1.1115928h-5.9154397c-.6139159 0-1.1115932.4976773-1.1115932 1.1115928v17.6855497c0 .6139164.4976773 1.1115932 1.1115932 1.1115932h5.9154396c.6139164.0000001 1.1115933-.4976768 1.1115933-1.1115932z" fill="#e4e3ff"/></g></g><g><g><path d="m13.5997992 8.1873226v.0985985h-5.8249579c-.611083 0-1.1038957.4928131-1.1038957 1.1137619v17.5835171h-.0985384c-.6112027 0-1.1138811-.4928112-1.1138811-1.11376v-17.6821175c0-.6110826.5026784-1.1137609 1.1138811-1.1137609h5.9137511c.610962 0 1.1136409.5026784 1.1136409 1.1137609z" fill="#d0d0f7"/></g></g><g><g><g><path d="m13.1718969 41.2846298c0 2.0106544-1.6360512 3.6468239-3.6467648 3.6468239s-3.6370196-1.6361694-3.6370196-3.6468239 1.6263056-3.6369591 3.6370196-3.6369591 3.6467648 1.6263047 3.6467648 3.6369591z" fill="#e4e3ff"/></g></g><g><g><path d="m12.6692181 39.4513817c-.5421419-.3252716-1.1728363-.5026779-1.8431139-.5026779-2.0105934 0-3.6370192 1.6262436-3.6370192 3.6369591 0 .6702156.1774654 1.3108978.5026784 1.8431129-1.0840435-.6308136-1.8036509-1.8037109-1.8036509-3.144146 0-2.0106544 1.6263056-3.6369591 3.6370196-3.6369591 1.3404351 0 2.5132714.7194863 3.144086 1.803711z" fill="#d0d0f7"/></g></g></g><g><g><g><g><path d="m12.740221 11.6331139c0 .2425966-.1975212.4401388-.4401388.4401388h-5.5415082c-.2425761 0-.4401398-.1975422-.4401398-.4401388 0-.2425976.1975636-.4401398.4401398-.4401398h5.5415082c.2426176 0 .4401388.1975422.4401388.4401398z" fill="#474646"/></g></g><g><g><path d="m12.7415743 11.6331139c0 .2464056-.197197.4435425-.4436035.4435425h-5.539208c-.2266741 0-.4040194-.157733-.4237514-.3745422.019732.0197325.0492091.0197325.0689411.0197325h5.5392084c.2464056 0 .4434824-.1971378.4434824-.4435434 0-.0197325 0-.0492697-.0197315-.0690012.2169295.0197314.3746625.1971367.3746625.4238118z" fill="#2d2c2c"/></g></g></g><g><g><g><path d="m12.740221 14.3313551c0 .2425966-.1975212.4401398-.4401388.4401398h-5.5415082c-.2425761 0-.4401398-.1975431-.4401398-.4401398s.1975636-.4401398.4401398-.4401398h5.5415082c.2426176 0 .4401388.1975432.4401388.4401398z" fill="#474646"/></g></g><g><g><path d="m12.7415743 14.3313551c0 .2464066-.197197.4435434-.4436035.4435434h-5.539208c-.2266741 0-.4040194-.1577339-.4237514-.3745422.019732.0197315.0492091.0197315.0689411.0197315h5.5392084c.2464056 0 .4434824-.1971369.4434824-.4435434 0-.0197315 0-.0492687-.0197315-.0690012.2169295.0197325.3746625.1971378.3746625.4238119z" fill="#2d2c2c"/></g></g></g><g><g><g><path d="m12.740221 17.0295963c0 .2425976-.1975212.4401398-.4401388.4401398h-5.5415082c-.2425761 0-.4401398-.1975422-.4401398-.4401398 0-.2425957.1975636-.4401398.4401398-.4401398h5.5415082c.2426176.0000001.4401388.1975442.4401388.4401398z" fill="#474646"/></g></g><g><g><path d="m12.7415743 17.0295963c0 .2464066-.197197.4435444-.4436035.4435444h-5.539208c-.2266741 0-.4040194-.1577339-.4237514-.3745422.0197321.0197315.0492092.0197315.0689412.0197315h5.5392084c.2464056 0 .4434824-.1971378.4434824-.4435444 0-.0197315 0-.0492687-.0197315-.0690002.2169294.0197315.3746624.1971378.3746624.4238109z" fill="#2d2c2c"/></g></g></g><g><g><g><path d="m12.740221 19.7278385c0 .2425976-.1975212.4401398-.4401388.4401398h-5.5415082c-.2425761 0-.4401398-.1975422-.4401398-.4401398s.1975636-.4401398.4401398-.4401398h5.5415082c.2426176 0 .4401388.1975422.4401388.4401398z" fill="#474646"/></g></g><g><g><path d="m12.7415743 19.7278385c0 .2464066-.197197.4435425-.4436035.4435425h-5.539208c-.2266741 0-.4040194-.157732-.4237514-.3745422.019732.0197315.0492091.0197315.0689411.0197315h5.5392084c.2464056 0 .4434824-.1971359.4434824-.4435425 0-.0197315 0-.0492687-.0197315-.0690002.2169295.0197315.3746625.1971359.3746625.4238109z" fill="#2d2c2c"/></g></g></g><g><g><g><path d="m12.740221 22.4260807c0 .2425957-.1975212.4401379-.4401388.4401379h-5.5415082c-.2425761 0-.4401398-.1975422-.4401398-.4401379 0-.2425976.1975636-.4401398.4401398-.4401398h5.5415082c.2426176 0 .4401388.1975422.4401388.4401398z" fill="#474646"/></g></g><g><g><path d="m12.7415743 22.4260807c0 .2464066-.197197.4435425-.4436035.4435425h-5.539208c-.2266741 0-.4040194-.1577339-.4237514-.3745422.019732.0197315.0492091.0197315.0689411.0197315h5.5392084c.2464056 0 .4434824-.1971359.4434824-.4435425 0-.0197315 0-.0492687-.0197315-.0690022.2169295.0197335.3746625.1971379.3746625.4238129z" fill="#2d2c2c"/></g></g></g></g><g><g opacity=".3"><g><g><path d="m3.3361452 26.6990776v-.9385738c0-.3396988.2756038-.6153011.6153014-.6153011s.6153011.2756023.6153011.6153011v.9385738c0 .3396988-.2756033.6153011-.6153011.6153011s-.6153014-.2756023-.6153014-.6153011z" fill="#fff"/></g></g></g><g opacity=".3"><g><g><path d="m3.3361452 24.1152935v-8.2617559c0-.3396978.2756038-.6153011.6153014-.6153011s.6153011.2756033.6153011.6153011v8.2617559c0 .3396969-.2756033.6153011-.6153011.6153011s-.6153014-.2756042-.6153014-.6153011z" fill="#fff"/></g></g></g></g><g><g opacity=".3"><g><g><path d="m4.8047242 4.0059247h.9385748c.3396974 0 .6153011.2756038.6153011.6153011 0 .3396978-.2756038.6153016-.6153011.6153016h-.9385748c-.3396978 0-.6153016-.2756038-.6153016-.6153016 0-.3396973.2756038-.6153011.6153016-.6153011z" fill="#fff"/></g></g></g><g opacity=".3"><g><g><path d="m7.3885088 4.0059247h5.7976933c.3396978 0 .6153011.2756038.6153011.6153011 0 .3396978-.2756033.6153016-.6153011.6153016h-5.7976933c-.3396974 0-.6153011-.2756038-.6153011-.6153016 0-.3396973.2756037-.6153011.6153011-.6153011z" fill="#fff"/></g></g></g></g></g><g><g><g><path d="m30.8134174 4.525806v42.9534035c0 1.1638145-.9434586 2.1072731-2.1072731 2.1072731h-9.8378792c-1.1638145 0-2.1072731-.9434586-2.1072731-2.1072731v-42.9534035c0-1.163815.9434586-2.1072733 2.1072731-2.1072733h9.8378792c1.1638146-.0000001 2.1072731.9434582 2.1072731 2.1072733z" fill="#a2a2f9"/></g></g><g><g><path d="m30.8136959 4.5244613v42.9535599c0 1.1630287-.9461632 2.1092529-2.1091328 2.1092529h-9.8365192c-1.1334915 0-2.0600433-.8969536-2.1093712-2.0107155h9.9351768c1.1629696 0 2.1092529-.9461594 2.1092529-2.1092529v-43.0520966c1.1137601.0493292 2.0105935.9757592 2.0105935 2.1092522z" fill="#7979f7"/></g></g><g><g><path d="m27.8573589 25.874073v-17.6855497c0-.6139154-.4976768-1.1115928-1.1115932-1.1115928h-5.9154396c-.6139145 0-1.1115932.4976773-1.1115932 1.1115928v17.6855497c0 .6139164.4976788 1.1115932 1.1115932 1.1115932h5.9154396c.6139164.0000001 1.1115932-.4976768 1.1115932-1.1115932z" fill="#e4e3ff"/></g></g><g><g><path d="m27.8578415 8.1873226v.0985985h-5.8249588c-.6110821 0-1.1038952.4928131-1.1038952 1.1137619v17.5835171h-.0985374c-.6112041 0-1.1138821-.4928112-1.1138821-1.11376v-17.6821175c0-.6110826.5026779-1.1137609 1.1138821-1.1137609h5.9137497c.6109619 0 1.1136417.5026784 1.1136417 1.1137609z" fill="#d0d0f7"/></g></g><g><g><g><path d="m27.4299393 41.2846298c0 2.0106544-1.6360512 3.6468239-3.6467648 3.6468239s-3.6370201-1.6361694-3.6370201-3.6468239 1.6263065-3.6369591 3.6370201-3.6369591 3.6467648 1.6263047 3.6467648 3.6369591z" fill="#e4e3ff"/></g></g><g><g><path d="m26.9272594 39.4513817c-.542141-.3252716-1.1728344-.5026779-1.8431129-.5026779-2.0105934 0-3.6370201 1.6262436-3.6370201 3.6369591 0 .6702156.1774654 1.3108978.5026798 1.8431129-1.0840435-.6308136-1.8036518-1.8037109-1.8036518-3.144146 0-2.0106544 1.6263065-3.6369591 3.6370201-3.6369591 1.340435 0 2.5132713.7194863 3.1440849 1.803711z" fill="#d0d0f7"/></g></g></g><g><g><g><g><path d="m26.9982643 11.6331139c0 .2425966-.1975212.4401388-.4401398.4401388h-5.5415077c-.2425766 0-.4401398-.1975422-.4401398-.4401388 0-.2425976.1975632-.4401398.4401398-.4401398h5.5415077c.2426186 0 .4401398.1975422.4401398.4401398z" fill="#474646"/></g></g><g><g><path d="m26.9996166 11.6331139c0 .2464056-.197197.4435425-.4436035.4435425h-5.5392075c-.226675 0-.4040203-.157733-.4237518-.3745422.0197315.0197325.0492096.0197325.0689411.0197325h5.5392075c.2464066 0 .4434834-.1971378.4434834-.4435434 0-.0197325 0-.0492697-.0197315-.0690012.2169284.0197314.3746623.1971367.3746623.4238118z" fill="#2d2c2c"/></g></g></g><g><g><g><path d="m26.9982643 14.3313551c0 .2425966-.1975212.4401398-.4401398.4401398h-5.5415077c-.2425766 0-.4401398-.1975431-.4401398-.4401398s.1975632-.4401398.4401398-.4401398h5.5415077c.2426186 0 .4401398.1975432.4401398.4401398z" fill="#474646"/></g></g><g><g><path d="m26.9996166 14.3313551c0 .2464066-.197197.4435434-.4436035.4435434h-5.5392075c-.226675 0-.4040203-.1577339-.4237518-.3745422.0197315.0197315.0492096.0197315.0689411.0197315h5.5392075c.2464066 0 .4434834-.1971369.4434834-.4435434 0-.0197315 0-.0492687-.0197315-.0690012.2169284.0197325.3746623.1971378.3746623.4238119z" fill="#2d2c2c"/></g></g></g><g><g><g><path d="m26.9982643 17.0295963c0 .2425976-.1975212.4401398-.4401398.4401398h-5.5415077c-.2425766 0-.4401398-.1975422-.4401398-.4401398 0-.2425957.1975632-.4401398.4401398-.4401398h5.5415077c.2426186.0000001.4401398.1975442.4401398.4401398z" fill="#474646"/></g></g><g><g><path d="m26.9996166 17.0295963c0 .2464066-.197197.4435444-.4436035.4435444h-5.5392075c-.226675 0-.4040203-.1577339-.4237518-.3745422.0197315.0197315.0492096.0197315.0689411.0197315h5.5392075c.2464066 0 .4434834-.1971378.4434834-.4435444 0-.0197315 0-.0492687-.0197315-.0690002.2169284.0197315.3746623.1971378.3746623.4238109z" fill="#2d2c2c"/></g></g></g><g><g><g><path d="m26.9982643 19.7278385c0 .2425976-.1975212.4401398-.4401398.4401398h-5.5415077c-.2425766 0-.4401398-.1975422-.4401398-.4401398s.1975632-.4401398.4401398-.4401398h5.5415077c.2426186 0 .4401398.1975422.4401398.4401398z" fill="#474646"/></g></g><g><g><path d="m26.9996166 19.7278385c0 .2464066-.197197.4435425-.4436035.4435425h-5.5392075c-.226675 0-.4040203-.157732-.4237518-.3745422.0197315.0197315.0492096.0197315.0689411.0197315h5.5392075c.2464066 0 .4434834-.1971359.4434834-.4435425 0-.0197315 0-.0492687-.0197315-.0690002.2169284.0197315.3746623.1971359.3746623.4238109z" fill="#2d2c2c"/></g></g></g><g><g><g><path d="m26.9982643 22.4260807c0 .2425957-.1975212.4401379-.4401398.4401379h-5.5415077c-.2425766 0-.4401398-.1975422-.4401398-.4401379 0-.2425976.1975632-.4401398.4401398-.4401398h5.5415077c.2426186 0 .4401398.1975422.4401398.4401398z" fill="#474646"/></g></g><g><g><path d="m26.9996166 22.4260807c0 .2464066-.197197.4435425-.4436035.4435425h-5.5392075c-.226675 0-.4040203-.1577339-.4237518-.3745422.0197315.0197315.0492096.0197315.0689411.0197315h5.5392075c.2464066 0 .4434834-.1971359.4434834-.4435425 0-.0197315 0-.0492687-.0197315-.0690022.2169284.0197335.3746623.1971379.3746623.4238129z" fill="#2d2c2c"/></g></g></g></g><g><g opacity=".3"><g><g><path d="m17.5941868 26.6990776v-.9385738c0-.3396988.2756042-.6153011.6153011-.6153011.3396988 0 .615303.2756023.615303.6153011v.9385738c0 .3396988-.2756042.6153011-.615303.6153011-.3396969 0-.6153011-.2756023-.6153011-.6153011z" fill="#fff"/></g></g></g><g opacity=".3"><g><g><path d="m17.5941868 24.1152935v-8.2617559c0-.3396978.2756042-.6153011.6153011-.6153011.3396988 0 .615303.2756033.615303.6153011v8.2617559c0 .3396969-.2756042.6153011-.615303.6153011-.3396969 0-.6153011-.2756042-.6153011-.6153011z" fill="#fff"/></g></g></g></g><g><g opacity=".3"><g><g><path d="m19.062767 4.0059247h.9385738c.3396988 0 .6153011.2756038.6153011.6153011 0 .3396978-.2756023.6153016-.6153011.6153016h-.9385738c-.3396988 0-.615303-.2756038-.615303-.6153016 0-.3396973.2756042-.6153011.615303-.6153011z" fill="#fff"/></g></g></g><g opacity=".3"><g><g><path d="m21.6465511 4.0059247h5.7976933c.3396969 0 .6153011.2756038.6153011.6153011 0 .3396978-.2756042.6153016-.6153011.6153016h-5.7976933c-.3396969 0-.6153011-.2756038-.6153011-.6153016 0-.3396973.2756042-.6153011.6153011-.6153011z" fill="#fff"/></g></g></g></g></g><g><g><g><path d="m44.7288437 3.8796296 4.7572784 42.6891441c.1288986 1.1566544-.7042618 2.1988029-1.8609161 2.3277016l-9.7773552 1.0895882c-1.1566544.1288986-2.1988029-.7042656-2.3277016-1.86092l-4.7572803-42.6891451c-.1288967-1.1566548.7042637-2.198801 1.860918-2.3276987l9.7773552-1.0895891c1.1566544-.1288978 2.198803.7042639 2.3277016 1.860919z" fill="#f9b938"/></g></g><g><g><path d="m44.7289696 3.8782623 4.7572975 42.6893005c.1288109 1.1558762-.7067299 2.2010651-1.862545 2.3298721l-9.7760048 1.0894356c-1.1265182.1255417-2.1467094-.6632729-2.3190918-1.7647209l9.8740578-1.1003647c1.1558151-.1288033 1.9914818-1.1739502 1.8626633-2.3298836l-4.7682114-42.7872323c1.1123733-.0743282 2.1062927.7470738 2.2318344 1.8735933z" fill="#ecb021"/></g></g><g><g><path d="m44.1553879 25.4239559-1.9587555-17.576746c-.0679932-.6101394-.6177292-1.0496345-1.2278671-.9816408l-5.8790474.6551619c-.6101379.0679941-1.049633.6177292-.9816399 1.2278681l1.9587517 17.5767441c.067997.6101398.6177292 1.0496349 1.2278709.9816418l5.8790436-.6551628c.6101418-.0679923 1.0496368-.6177283.9816437-1.2278663z" fill="#e4e3ff"/></g></g><g><g><path d="m42.1969795 7.8459635.0109177.0979919-5.7891197.6451397c-.6073227.0676804-1.0425224.6120424-.9737511 1.2291708l1.9474525 17.4753399-.0979309.0109138c-.6074448.0676937-1.1616096-.3664131-1.230381-.9835415l-1.958374-17.5733327c-.0676804-.6073227.3762321-1.1625824.9836731-1.2302761l5.8773689-.654974c.6072045-.067667 1.1624642.376245 1.2301445.9835682z" fill="#d0d0f7"/></g></g><g><g><g><path d="m45.4373817 40.7870407c.2226906 1.9982834-1.222084 3.8055878-3.2204247 4.028286-1.9983444.2226944-3.7958565-1.2232895-4.0185471-3.2215729-.2226868-1.9982834 1.2134895-3.7947044 3.211834-4.0173988 1.9983445-.2226982 3.8044511 1.2124023 4.0271378 3.2106857z" fill="#e4e3ff"/></g></g><g><g><path d="m44.7347565 39.0207443c-.5748329-.2632256-1.2212944-.3696861-1.8874474-.2954521-1.9982262.222683-3.4345322 2.0190582-3.211834 4.0173988.0742302.6660957.3215599 1.2831802.7037163 1.776104-1.1472397-.5068741-1.992321-1.5928535-2.1407814-2.9250412-.2226868-1.9982834 1.2134895-3.7947044 3.211834-4.0173988 1.3321876-.1484604 2.5774956.4367027 3.3245125 1.4443893z" fill="#d0d0f7"/></g></g></g><g><g><g><g><path d="m41.7243271 11.365757c.0268669.2411041-.1475601.4593077-.3886871.4861784l-5.5074158.6137476c-.2410812.026866-.4593086-.1475801-.4861794-.3886843-.0268669-.2411051.1476021-.4593124.3886871-.4861794l5.5074158-.6137466c.2411232-.0268707.4593087.1475792.4861794.3886843z" fill="#474646"/></g></g><g><g><path d="m41.7256699 11.3656073c.0272903.2448902-.1468582.4626551-.3917503.4899454l-5.505127.613492c-.2252808.0251055-.4190063-.1120167-.4626274-.3253059.0217934.0174255.0510902.0141602.0707016.0119753l5.5051308-.613492c.2448883-.0272913.4189186-.2450418.3916283-.489933-.0021858-.0196104-.005455-.0489655-.0272522-.066391.217781-.0044156.3941916.1544284.4192962.3797092z" fill="#2d2c2c"/></g></g></g><g><g><g><path d="m42.0231667 14.0473986c.0268707.2411041-.1475563.4593077-.3886833.4861784l-5.5074158.6137476c-.2410812.026866-.4593086-.1475801-.4861794-.3886843-.0268669-.2411051.1476021-.4593124.3886833-.4861794l5.5074158-.6137466c.241127-.0268707.4593124.1475792.4861794.3886843z" fill="#474646"/></g></g><g><g><path d="m42.0245132 14.0472488c.0272903.2448902-.1468582.4626551-.3917503.4899454l-5.5051308.613492c-.2252808.0251055-.4190025-.1120167-.4626274-.3253059.0217972.0174255.0510941.0141602.0707054.0119753l5.505127-.613492c.2448921-.0272913.4189224-.2450418.3916321-.489933-.0021858-.0196104-.0054588-.0489655-.0272522-.066391.2177772-.0044155.3941917.1544285.4192962.3797092z" fill="#2d2c2c"/></g></g></g><g><g><g><path d="m42.32201 16.7290401c.0268669.2411041-.1475601.4593067-.3886833.4861794l-5.5074158.6137466c-.2410851.026865-.4593124-.1475792-.4861794-.3886852-.0268707-.2411041.1476021-.4593124.3886833-.4861774l5.5074158-.6137486c.2411271-.0268707.4593125.1475811.4861794.3886852z" fill="#474646"/></g></g><g><g><path d="m42.3233566 16.7288895c.0272903.2448902-.146862.462656-.3917503.4899464l-5.5051308.6134911c-.2252808.0251064-.4190025-.1120148-.4626274-.325304.0217972.0174236.0510941.0141602.0707016.0119743l5.5051308-.613493c.2448921-.0272903.4189224-.2450409.3916321-.4899311-.0021858-.0196114-.0054588-.0489674-.027256-.066391.217781-.0044156.3941917.1544284.4193.3797073z" fill="#2d2c2c"/></g></g></g><g><g><g><path d="m42.6208534 19.4106808c.0268669.241106-.1475601.4593086-.3886833.4861794l-5.5074158.6137466c-.2410851.0268669-.4593124-.1475792-.4861794-.3886833-.0268707-.2411041.1475983-.4593124.3886833-.4861794l5.5074158-.6137466c.2411233-.0268708.4593087.1475791.4861794.3886833z" fill="#474646"/></g></g><g><g><path d="m42.6221962 19.410532c.0272903.2448902-.1468582.4626541-.3917503.4899445l-5.505127.613493c-.2252808.0251045-.4190063-.1120167-.4626274-.3253059.0217972.0174255.0510902.0141602.0707016.0119743l5.5051308-.6134911c.2448883-.0272903.4189186-.2450428.3916283-.489933-.0021858-.0196095-.005455-.0489655-.0272522-.066391.217781-.0044156.3941917.1544284.4192962.3797092z" fill="#2d2c2c"/></g></g></g><g><g><g><path d="m42.919693 22.0923233c.0268707.2411041-.1475563.4593067-.3886833.4861794l-5.5074158.6137466c-.2410812.026865-.4593086-.1475811-.4861794-.3886852-.0268669-.2411041.1476021-.4593124.3886871-.4861774l5.5074158-.6137486c.2411233-.0268708.4593087.1475811.4861756.3886852z" fill="#474646"/></g></g><g><g><path d="m42.9210396 22.0921726c.0272903.2448902-.1468582.462656-.3917503.4899464l-5.5051308.613491c-.2252769.0251064-.4190025-.1120148-.4626236-.325304.0217934.0174236.0510902.0141602.0707016.0119743l5.505127-.613493c.2448921-.0272903.4189224-.2450409.3916321-.4899311-.0021858-.0196114-.005455-.0489674-.0272522-.066391.217781-.0044154.3941917.1544286.4192962.3797074z" fill="#2d2c2c"/></g></g></g></g><g><g opacity=".3"><g><g><path d="m34.0467262 27.3805771-.1039505-.9328022c-.0376205-.3376064.205761-.6420403.5433693-.6796627s.6420403.205761.6796646.5433693l.1039505.9328003c.0376244.3376083-.205761.6420403-.5433693.6796627s-.6420402-.205761-.6796646-.5433674z" fill="#fff"/></g></g></g><g opacity=".3"><g><g><path d="m33.7605629 24.8126869-.9150276-8.210928c-.0376205-.3376064.205761-.6420393.5433693-.6796627s.6420403.205761.6796646.5433693l.9150238 8.2109261c.0376244.3376083-.205761.6420403-.5433693.6796646-.3376045.0376225-.6420403-.2057609-.6796608-.5433693z" fill="#fff"/></g></g></g></g><g><g opacity=".3"><g><g><path d="m32.9929047 4.6643839.9328003-.1039515c.3376083-.0376229.6420403.205761.6796608.5433683.0376244.3376079-.2057571.6420403-.5433655.6796632l-.9328003.1039515c-.3376083.0376234-.6420403-.2057605-.6796646-.5433683s.2057609-.6420403.5433693-.6796632z" fill="#fff"/></g></g></g><g opacity=".3"><g><g><path d="m35.560791 4.3782182 5.7620277-.6421206c.3376045-.0376229.6420403.2057607.6796608.5433686.0376244.3376079-.205761.6420403-.5433693.6796632l-5.7620239.6421204c-.3376083.0376229-.6420403-.2057605-.6796608-.5433683-.0376243-.337608.205761-.6420404.5433655-.6796633z" fill="#fff"/></g></g></g></g></g></g></svg>