<svg id="Layer_1" enable-background="new 0 0 53 53" height="512" viewBox="0 0 53 53" width="512" xmlns="http://www.w3.org/2000/svg"><g id="_x36_4"><g><g><g><g><g><g><path d="m18.524786 8.2503719v36.5005722c0 1.3947411-1.1276741 2.5224113-2.5224113 2.5224113h-10.9056068c-1.3947389 0-2.5224116-1.1276703-2.5224116-2.5224113v-36.5005722c0-1.3946486 1.1276727-2.5223212 2.5224116-2.5223212h10.9056072c1.3947368 0 2.5224109 1.1276727 2.5224109 2.5223212z" fill="#46cc6b"/></g></g><g><g><path d="m7.2076807 47.272892h-2.1101956c-1.3953598 0-2.5219586-1.126564-2.5219586-2.5219231v-36.5023641c0-1.3953605 1.1265988-2.5219593 2.5219586-2.5219593h2.1101956c-1.39536 0-2.5219588 1.1265988-2.5219588 2.5219593v36.5023651c0 1.3953581 1.1265988 2.5219221 2.5219588 2.5219221z" fill="#179c5f"/></g></g><g><g><path d="m15.2502975 24.2805653v-14.1860648c0-.6028996-.4887466-1.0916462-1.0916462-1.0916462h-7.2172284c-.6028991 0-1.0916457.4887466-1.0916457 1.0916462v14.1860647c0 .6028996.4887466 1.0916462 1.0916457 1.0916462h7.2172284c.6028996.0000001 1.0916462-.4887466 1.0916462-1.0916461z" fill="#deddff"/></g></g><g><g><path d="m15.2502975 36.6325417c0 2.5916328-2.1023941 4.7073441-4.694109 4.7073441-2.6049504 0-4.7073441-2.1157112-4.7073441-4.7073441 0-2.6049538 2.1023936-4.707346 4.7073441-4.707346 2.5917149 0 4.694109 2.1023922 4.694109 4.707346z" fill="#deddff"/></g></g><g><g><path d="m10.5495701 33.6092987c1.6667929 0 3.0274992 1.3521423 3.0274992 3.0189896-.000001 1.6753578-1.3607073 3.0275002-3.0275011 3.0274963-1.6753578 0-3.0274997-1.3521423-3.0274992-3.0275002.0000005-1.6668434 1.3521423-3.0189857 3.0275011-3.0189857z" fill="#5b5e8b"/></g></g><g><g><path d="m8.8466053 34.1381607c-1.8630447 2.7320328 1.4944382 6.038414 4.2028074 4.1918831-.5458231.7968788-1.4627676 1.3209152-2.4998446 1.3209152-3.0022024 0-4.1312203-3.8829994-1.7029628-5.5127983z" fill="#312e4b"/></g></g><g><g><g><path d="m14.0094032 12.2374382v.0061789c0 .4073868-.3333168.7407408-.7407417.7407408h-5.4382191c-.4073873 0-.7407036-.333354-.7407036-.7407408v-.0061789c0-.4073877.3333163-.7407417.7407036-.7407417h5.4382191c.4074249 0 .7407417.333354.7407417.7407417z" fill="#c6c6f7"/></g></g><g><g><path d="m14.0094032 15.5354414v.0061789c0 .4073868-.3333168.7407417-.7407417.7407417h-5.4382191c-.4073873 0-.7407036-.3333549-.7407036-.7407417v-.0061789c0-.4073868.3333163-.7407408.7407036-.7407408h5.4382191c.4074249 0 .7407417.333354.7407417.7407408z" fill="#c6c6f7"/></g></g><g><g><path d="m14.0094032 18.8334446v.0061798c0 .4073868-.3333168.7407417-.7407417.7407417h-5.4382191c-.4073873 0-.7407036-.3333549-.7407036-.7407417v-.0061798c0-.4073868.3333163-.7407398.7407036-.7407398h5.4382191c.4074249 0 .7407417.333353.7407417.7407398z" fill="#c6c6f7"/></g></g><g><g><path d="m11.8261118 22.1314487v.0061798c0 .4073868-.3333168.7407398-.7407417.7407398h-3.2549277c-.4073873 0-.7407036-.333353-.7407036-.7407398v-.0061798c0-.4073868.3333163-.7407417.7407036-.7407417h3.2549276c.407425 0 .7407418.333355.7407418.7407417z" fill="#c6c6f7"/></g></g></g></g><g><g><g><path d="m34.4752159 8.2503719v36.5005722c0 1.3947411-1.1276741 2.5224113-2.5224133 2.5224113h-10.9056053c-1.3947392 0-2.5224113-1.1276703-2.5224113-2.5224113v-36.5005722c0-1.3946486 1.1276722-2.5223212 2.5224113-2.5223212h10.9056053c1.3947392 0 2.5224133 1.1276727 2.5224133 2.5223212z" fill="#65b9ff"/></g></g><g><g><path d="m23.1570606 47.272892h-2.1101952c-1.3953247 0-2.5219231-1.126564-2.5219231-2.5219231v-36.5023641c0-1.3953605 1.1265984-2.5219593 2.5219231-2.5219593h2.1101952c-1.395359 0-2.5219231 1.1265988-2.5219231 2.5219593v36.5023651c.0000001 1.3953581 1.1265641 2.5219221 2.5219231 2.5219221z" fill="#3e7fff"/></g></g><g><g><path d="m31.2007256 24.2805653v-14.1860648c0-.6028996-.4887447-1.0916462-1.0916443-1.0916462h-7.2172298c-.6028976 0-1.0916443.4887466-1.0916443 1.0916462v14.1860647c0 .6028996.4887466 1.0916462 1.0916443 1.0916462h7.2172298c.6028995.0000001 1.0916443-.4887466 1.0916443-1.0916461z" fill="#deddff"/></g></g><g><g><path d="m31.2007256 36.6325417c0 2.5916328-2.1023922 4.7073441-4.6941071 4.7073441-2.6049519 0-4.7073441-2.1157112-4.7073441-4.7073441 0-2.6049538 2.1023922-4.707346 4.7073441-4.707346 2.5917149 0 4.6941071 2.1023922 4.6941071 4.707346z" fill="#deddff"/></g></g><g><g><path d="m26.4999523 33.6093216c1.6667881.0000038 3.0274982 1.3521423 3.0275078 3.0189781.0000095 1.6753502-1.3606815 3.0274849-3.0274696 3.0274811-1.6753521 0-3.0274963-1.3521385-3.0275078-3.0274887-.0000096-1.6668396 1.3521194-3.0189743 3.0274696-3.0189705z" fill="#5b5e8b"/></g></g><g><g><path d="m24.796999 34.1381798c-1.8630161 2.7320099 1.4944401 6.0384064 4.2028179 4.1918716-.5458164.796875-1.4627533 1.3209038-2.4998264 1.3209038-1.6702442-.0000038-3.0238762-1.3427696-3.0238876-3.0238724-.0000058-1.0370712.5239543-1.95401 1.3208961-2.488903z" fill="#312e4b"/></g></g><g><g><g><path d="m29.9598312 12.2374382v.0061789c0 .4073868-.3333149.7407408-.7407398.7407408h-5.4382191c-.4073887 0-.7407036-.333354-.7407036-.7407408v-.0061789c0-.4073877.3333149-.7407417.7407036-.7407417h5.4382191c.4074249 0 .7407398.333354.7407398.7407417z" fill="#c6c6f7"/></g></g><g><g><path d="m29.9598312 15.5354414v.0061789c0 .4073868-.3333149.7407417-.7407398.7407417h-5.4382191c-.4073887 0-.7407036-.3333549-.7407036-.7407417v-.0061789c0-.4073868.3333149-.7407408.7407036-.7407408h5.4382191c.4074249 0 .7407398.333354.7407398.7407408z" fill="#c6c6f7"/></g></g><g><g><path d="m29.9598312 18.8334446v.0061798c0 .4073868-.3333149.7407417-.7407398.7407417h-5.4382191c-.4073887 0-.7407036-.3333549-.7407036-.7407417v-.0061798c0-.4073868.3333149-.7407398.7407036-.7407398h5.4382191c.4074249 0 .7407398.333353.7407398.7407398z" fill="#c6c6f7"/></g></g><g><g><path d="m27.7765408 22.1314487v.0061798c0 .4073868-.3333168.7407398-.7407417.7407398h-3.2549267c-.4073887 0-.7407036-.333353-.7407036-.7407398v-.0061798c0-.4073868.3333149-.7407417.7407036-.7407417h3.2549267c.4074249 0 .7407417.333355.7407417.7407417z" fill="#c6c6f7"/></g></g></g></g><g><g><g><path d="m50.4256439 8.2503719v36.5005722c0 1.3947411-1.1276741 2.5224113-2.5224113 2.5224113h-10.9056053c-1.3947411 0-2.5224113-1.1276703-2.5224113-2.5224113v-36.5005722c0-1.3946486 1.1276703-2.5223212 2.5224113-2.5223212h10.9056053c1.3947372 0 2.5224113 1.1276727 2.5224113 2.5223212z" fill="#e83d62"/></g></g><g><g><path d="m47.1511574 24.2805653v-14.1860648c0-.6028996-.4887466-1.0916462-1.0916481-1.0916462h-7.2172279c-.6028976 0-1.0916443.4887466-1.0916443 1.0916462v14.1860647c0 .6028996.4887466 1.0916462 1.0916443 1.0916462h7.2172279c.6029014.0000001 1.0916481-.4887466 1.0916481-1.0916461z" fill="#deddff"/></g></g><g><g><path d="m47.1511574 36.6325417c0 2.5916328-2.1023941 4.7073441-4.6941109 4.7073441-2.60495 0-4.7073441-2.1157112-4.7073441-4.7073441 0-2.6049538 2.1023941-4.707346 4.7073441-4.707346 2.5917168 0 4.6941109 2.1023922 4.6941109 4.707346z" fill="#deddff"/></g></g><g><g><path d="m42.450428 33.6092911c1.6667938 0 3.0275002 1.3521461 3.0275002 3.0189896 0 1.6753578-1.3607063 3.0275002-3.0275002 3.0275002-3.9994316-.0000039-4.0135231-6.0464898 0-6.0464898z" fill="#5b5e8b"/></g></g><g><g><path d="m40.7474632 34.1381531c-1.8630447 2.7320366 1.4944382 6.038414 4.2028084 4.1918869-.5458221.7968788-1.4627686 1.3209152-2.4998436 1.3209114-3.0022049 0-4.1312218-3.8829994-1.7029648-5.5127983z" fill="#312e4b"/></g></g><g><g><g><path d="m45.9102631 12.2374382v.0061789c0 .4073868-.3333168.7407408-.7407417.7407408h-5.438221c-.4073868 0-.7407036-.333354-.7407036-.7407408v-.0061789c0-.4073877.3333168-.7407417.7407036-.7407417h5.438221c.4074249 0 .7407417.333354.7407417.7407417z" fill="#c6c6f7"/></g></g><g><g><path d="m45.9102631 15.5354414v.0061789c0 .4073868-.3333168.7407417-.7407417.7407417h-5.438221c-.4073868 0-.7407036-.3333549-.7407036-.7407417v-.0061789c0-.4073868.3333168-.7407408.7407036-.7407408h5.438221c.4074249 0 .7407417.333354.7407417.7407408z" fill="#c6c6f7"/></g></g><g><g><path d="m45.9102631 18.8334446v.0061798c0 .4073868-.3333168.7407417-.7407417.7407417h-5.438221c-.4073868 0-.7407036-.3333549-.7407036-.7407417v-.0061798c0-.4073868.3333168-.7407398.7407036-.7407398h5.438221c.4074249 0 .7407417.333353.7407417.7407398z" fill="#c6c6f7"/></g></g><g><g><path d="m43.7269707 22.1314487v.0061798c0 .4073868-.3333168.7407398-.7407417.7407398h-3.2549286c-.4073868 0-.7407036-.333353-.7407036-.7407398v-.0061798c0-.4073868.3333168-.7407417.7407036-.7407417h3.2549286c.4074249 0 .7407417.333355.7407417.7407417z" fill="#c6c6f7"/></g></g></g></g></g></g></g><g><g><path d="m39.1064758 47.272892h-2.1101952c-1.395359 0-2.5219231-1.126564-2.5219231-2.5219231v-36.5023641c0-1.3953605 1.126564-2.5219593 2.5219231-2.5219593h2.1101952c-1.395359 0-2.5219231 1.1265988-2.5219231 2.5219593v36.5023651c.0000001 1.3953581 1.1265641 2.5219221 2.5219231 2.5219221z" fill="#ce2955"/></g></g></g></svg>