<svg id="Layer_1" enable-background="new 0 0 53 53" height="512" viewBox="0 0 53 53" width="512" xmlns="http://www.w3.org/2000/svg"><g id="_x33_59"><g><g><path d="m17.7054043 9.8290939v33.3418121c0 1.635479-1.3278522 2.9633293-2.9633799 2.9633293h-9.2786436c-1.6355278.0000001-2.9633808-1.3278503-2.9633808-2.9633292v-33.3418122c0-1.635478 1.327853-2.9633312 2.9633808-2.9633312h9.2786436c1.6355276 0 2.9633799 1.3278532 2.9633799 2.9633312z" fill="#f9b938"/></g><g opacity=".4"><g><path d="m4.5322328 28.4674664v4.3883381c0 .2267303-.1781011.4048309-.4048295.4048309-.2185249 0-.4048297-.1781006-.4048297-.4048309v-4.3883381c0-.2266788.1863048-.404829.4048297-.404829.2267284-.0000001.4048295.1781501.4048295.404829z" fill="#fff"/></g><g><path d="m4.5322328 25.4636116v.7206097c0 .2267284-.1781011.404829-.4048295.404829-.2185249 0-.4048297-.1781006-.4048297-.404829v-.7206097c0-.2185745.1863048-.404829.4048297-.404829.2267284 0 .4048295.1862545.4048295.404829z" fill="#fff"/></g></g><g><path d="m17.6325626 9.8290939v33.3418121c0 1.635479-1.3278522 2.9633293-2.9633799 2.9633293h-9.2787227c-1.0120745 0-1.9107842-.5100861-2.4451869-1.2873764.4210386.2429352.9150176.3724594 1.4331124.3724594h9.2787228c1.6355276 0 2.9633808-1.3278542 2.9633808-2.9633331v-33.3418102c0-.6315088-.1943111-1.214489-.5344028-1.6921601.9230232.5100894 1.5464763 1.4816899 1.5464763 2.607079z" fill="#e5a320"/></g><g><g><g><path d="m14.7096558 14.3551111v1.3683262c0 .2347832-.1862059.4210386-.4210386.4210386h-8.3799535c-.2267284 0-.4129343-.1862555-.4129343-.4210386v-1.3683262c0-.2267284.1862059-.4129343.4129343-.4129343h8.3799534c.2348328 0 .4210387.1862059.4210387.4129343z" fill="#fff"/></g><g><path d="m14.7096558 18.1928883v1.3683262c0 .2267284-.1862059.4129333-.4210386.4129333h-8.3799535c-.2267284 0-.4129343-.1862049-.4129343-.4129333v-1.3683262c0-.2266788.1862059-.4129353.4129343-.4129353h8.3799534c.2348328 0 .4210387.1862564.4210387.4129353z" fill="#fff"/></g><g><path d="m14.7096558 10.517334v1.3683262c0 .2347832-.1862059.420989-.4210386.420989h-8.3799535c-.2267284 0-.4129343-.1862059-.4129343-.420989v-1.3683262c0-.2267284.1862059-.4129343.4129343-.4129343h8.3799534c.2348328 0 .4210387.1862058.4210387.4129343z" fill="#fff"/></g><g><path d="m14.7096558 22.0306644v1.3683262c0 .2267284-.1862059.4129353-.4210386.4129353h-8.3799535c-.2267284 0-.4129343-.1862068-.4129343-.4129353v-1.3683262c0-.2347832.1862059-.4209881.4129343-.4209881h8.3799534c.2348328.0000001.4210387.186205.4210387.4209881z" fill="#fff"/></g></g><g><g><path d="m14.7096758 14.3551111v1.3683262c0 .2347832-.1862059.4210386-.4210386.4210386h-8.3799735c-.2105193 0-.3886209-.1619415-.4129343-.3805656.0243134.0081043.0567312.0081043.0810452.0081043h8.3799734c.2347336 0 .4209394-.1862059.4209394-.4210386v-1.4006948c.1863051.0404729.3319884.2024154.3319884.4048299z" fill="#e4e3ff"/></g><g><path d="m14.7096758 18.1928883v1.3683262c0 .2267284-.1862059.4129333-.4210386.4129333h-8.3799735c-.2186241 0-.3967252-.1700459-.4129343-.3805656.0243134.0081043.0567312.0081043.0810452.0081043h8.3799734c.2347336 0 .4209394-.1862049.4209394-.4129333v-1.4006939c.1863051.040472.3319884.2024135.3319884.404829z" fill="#e4e3ff"/></g><g><path d="m14.7096758 10.517334v1.3683262c0 .2347832-.1862059.420989-.4210386.420989h-8.3799735c-.2105193 0-.3886209-.1618919-.4129343-.3805161.0243134.0081043.0567312.0081043.0810452.0081043h8.3799734c.2347336 0 .4209394-.1862555.4209394-.4210386v-1.4006948c.1863051.040473.3319884.2024155.3319884.40483z" fill="#e4e3ff"/></g><g><path d="m14.7096758 22.0306644v1.3683262c0 .2267284-.1862059.4129353-.4210386.4129353h-8.3799735c-.2186241 0-.3967252-.1700478-.4129343-.3805161.0243134.0080547.0567312.0080547.0810452.0080547h8.3799734c.2347336 0 .4209394-.1862068.4209394-.4128857v-1.4088478c.1863051.0405217.3319884.2105199.3319884.4129334z" fill="#e4e3ff"/></g></g></g><g><path d="m13.4782295 37.38451c0 1.8631363-1.5124369 3.3697472-3.3755722 3.3697472s-3.3755016-1.5066109-3.3755016-3.3697472c0-1.8631325 1.5123672-3.3754997 3.3755016-3.3754997s3.3755722 1.5123673 3.3755722 3.3754997z" fill="#fff"/></g><g><path d="m13.4790173 37.3818207c0 1.8622093-1.5141573 3.3762665-3.3763151 3.3762665-1.2468081 0-2.3399267-.6800842-2.9228578-1.6841049.582931.4777222 1.3277545.7691879 2.1455178.7691879 1.8622561 0 3.3764133-1.5059547 3.3764133-3.3681602 0-.623455-.1700954-1.1982803-.4534559-1.7003174.7529278.623455 1.2306977 1.5626869 1.2306977 2.6071281z" fill="#e4e3ff"/></g></g><g><g><path d="m34.1027031 9.8290939v33.3418121c0 1.635479-1.3278542 2.9633293-2.9633808 2.9633293h-9.2786446c-1.6355267 0-2.9633808-1.3278503-2.9633808-2.9633293v-33.3418121c0-1.635478 1.3278542-2.9633312 2.9633808-2.9633312h9.2786446c1.6355266 0 2.9633808 1.3278532 2.9633808 2.9633312z" fill="#fc6559"/></g><g opacity=".4"><g><path d="m20.9295311 28.4674664v4.3883381c0 .2267303-.1781025.4048309-.4048309.4048309-.2185249 0-.404829-.1781006-.404829-.4048309v-4.3883381c0-.2266788.1863041-.404829.404829-.404829.2267284-.0000001.4048309.1781501.4048309.404829z" fill="#fff"/></g><g><path d="m20.9295311 25.4636116v.7206097c0 .2267284-.1781025.404829-.4048309.404829-.2185249 0-.404829-.1781006-.404829-.404829v-.7206097c0-.2185745.1863041-.404829.404829-.404829.2267284 0 .4048309.1862545.4048309.404829z" fill="#fff"/></g></g><g><path d="m34.0298615 9.8290939v33.3418121c0 1.635479-1.3278542 2.9633293-2.9633808 2.9633293h-9.2787228c-1.0120754 0-1.9107838-.5100861-2.4451866-1.2873764.4210377.2429352.9150162.3724594 1.4331112.3724594h9.2787228c1.6355286 0 2.9633827-1.3278542 2.9633827-2.9633331v-33.3418102c0-.6315088-.194313-1.214489-.5344048-1.6921601.9230232.5100894 1.5464783 1.4816899 1.5464783 2.607079z" fill="#f05543"/></g><g><g><g><path d="m31.1069527 14.3551111v1.3683262c0 .2347832-.1862049.4210386-.4210377.4210386h-8.3799534c-.2267284 0-.4129353-.1862555-.4129353-.4210386v-1.3683262c0-.2267284.1862068-.4129343.4129353-.4129343h8.3799534c.2348328 0 .4210377.1862059.4210377.4129343z" fill="#fff"/></g><g><path d="m31.1069527 18.1928883v1.3683262c0 .2267284-.1862049.4129333-.4210377.4129333h-8.3799534c-.2267284 0-.4129353-.1862049-.4129353-.4129333v-1.3683262c0-.2266788.1862068-.4129353.4129353-.4129353h8.3799534c.2348328 0 .4210377.1862564.4210377.4129353z" fill="#fff"/></g><g><path d="m31.1069527 10.517334v1.3683262c0 .2347832-.1862049.420989-.4210377.420989h-8.3799534c-.2267284 0-.4129353-.1862059-.4129353-.420989v-1.3683262c0-.2267284.1862068-.4129343.4129353-.4129343h8.3799534c.2348328 0 .4210377.1862058.4210377.4129343z" fill="#fff"/></g><g><path d="m31.1069527 22.0306644v1.3683262c0 .2267284-.1862049.4129353-.4210377.4129353h-8.3799534c-.2267284 0-.4129353-.1862068-.4129353-.4129353v-1.3683262c0-.2347832.1862068-.4209881.4129353-.4209881h8.3799534c.2348328.0000001.4210377.186205.4210377.4209881z" fill="#fff"/></g></g><g><g><path d="m31.1069736 14.3551111v1.3683262c0 .2347832-.1862068.4210386-.4210396.4210386h-8.3799725c-.2105198 0-.3886204-.1619415-.4129353-.3805656.0243149.0081043.0567322.0081043.0810452.0081043h8.3799744c.2347336 0 .4209385-.1862059.4209385-.4210386v-1.4006948c.1863061.0404729.3319893.2024154.3319893.4048299z" fill="#e4e3ff"/></g><g><path d="m31.1069736 18.1928883v1.3683262c0 .2267284-.1862068.4129333-.4210396.4129333h-8.3799725c-.2186241 0-.3967266-.1700459-.4129353-.3805656.0243149.0081043.0567322.0081043.0810452.0081043h8.3799744c.2347336 0 .4209385-.1862049.4209385-.4129333v-1.4006939c.1863061.040472.3319893.2024135.3319893.404829z" fill="#e4e3ff"/></g><g><path d="m31.1069736 10.517334v1.3683262c0 .2347832-.1862068.420989-.4210396.420989h-8.3799725c-.2105198 0-.3886204-.1618919-.4129353-.3805161.0243149.0081043.0567322.0081043.0810452.0081043h8.3799744c.2347336 0 .4209385-.1862555.4209385-.4210386v-1.4006948c.1863061.040473.3319893.2024155.3319893.40483z" fill="#e4e3ff"/></g><g><path d="m31.1069736 22.0306644v1.3683262c0 .2267284-.1862068.4129353-.4210396.4129353h-8.3799725c-.2186241 0-.3967266-.1700478-.4129353-.3805161.0243149.0080547.0567322.0080547.0810452.0080547h8.3799744c.2347336 0 .4209385-.1862068.4209385-.4128857v-1.4088478c.1863061.0405217.3319893.2105199.3319893.4129334z" fill="#e4e3ff"/></g></g></g><g><path d="m29.8755264 37.38451c0 1.8631363-1.5124359 3.3697472-3.3755722 3.3697472-1.8631344 0-3.3755016-1.5066109-3.3755016-3.3697472 0-1.8631325 1.5123672-3.3754997 3.3755016-3.3754997 1.8631363 0 3.3755722 1.5123673 3.3755722 3.3754997z" fill="#fff"/></g><g><path d="m29.8763142 37.3818207c0 1.8622093-1.5141563 3.3762665-3.3763142 3.3762665-1.246809 0-2.3399277-.6800842-2.9228573-1.6841049.5829296.4777222 1.3277531.7691879 2.1455173.7691879 1.8622551 0 3.3764133-1.5059547 3.3764133-3.3681602 0-.623455-.1700954-1.1982803-.4534569-1.7003174.7529279.623455 1.2306978 1.5626869 1.2306978 2.6071281z" fill="#e4e3ff"/></g></g><g><g><path d="m50.5 9.8290939v33.3418121c0 1.635479-1.3278542 2.9633293-2.9633789 2.9633293h-9.2786446c-1.6355286 0-2.9633827-1.3278503-2.9633827-2.9633293v-33.3418121c0-1.635478 1.3278542-2.9633312 2.9633827-2.9633312h9.2786446c1.6355247 0 2.9633789 1.3278532 2.9633789 2.9633312z" fill="#7979f7"/></g><g opacity=".4"><g><path d="m37.326828 28.4674664v4.3883381c0 .2267303-.1781006.4048309-.4048309.4048309-.2185249 0-.4048271-.1781006-.4048271-.4048309v-4.3883381c0-.2266788.1863022-.404829.4048271-.404829.2267303-.0000001.4048309.1781501.4048309.404829z" fill="#fff"/></g><g><path d="m37.326828 25.4636116v.7206097c0 .2267284-.1781006.404829-.4048309.404829-.2185249 0-.4048271-.1781006-.4048271-.404829v-.7206097c0-.2185745.1863022-.404829.4048271-.404829.2267303 0 .4048309.1862545.4048309.404829z" fill="#fff"/></g></g><g><path d="m50.4271584 9.8290939v33.3418121c0 1.635479-1.3278542 2.9633293-2.9633789 2.9633293h-9.2787247c-1.0120735 0-1.9107857-.5100861-2.4451866-1.2873764.4210396.2429352.9150162.3724594 1.4331131.3724594h9.2787209c1.6355286 0 2.9633827-1.3278542 2.9633827-2.9633331v-33.3418102c0-.6315088-.1943092-1.214489-.5344048-1.6921601.9230232.5100894 1.5464783 1.4816899 1.5464783 2.607079z" fill="#5e5eef"/></g><g><g><g><path d="m47.5042496 14.3551111v1.3683262c0 .2347832-.186203.4210386-.4210358.4210386h-8.3799553c-.2267265 0-.4129333-.1862555-.4129333-.4210386v-1.3683262c0-.2267284.1862068-.4129343.4129333-.4129343h8.3799553c.2348328 0 .4210358.1862059.4210358.4129343z" fill="#fff"/></g><g><path d="m47.5042496 18.1928883v1.3683262c0 .2267284-.186203.4129333-.4210358.4129333h-8.3799553c-.2267265 0-.4129333-.1862049-.4129333-.4129333v-1.3683262c0-.2266788.1862068-.4129353.4129333-.4129353h8.3799553c.2348328 0 .4210358.1862564.4210358.4129353z" fill="#fff"/></g><g><path d="m47.5042496 10.517334v1.3683262c0 .2347832-.186203.420989-.4210358.420989h-8.3799553c-.2267265 0-.4129333-.1862059-.4129333-.420989v-1.3683262c0-.2267284.1862068-.4129343.4129333-.4129343h8.3799553c.2348328 0 .4210358.1862058.4210358.4129343z" fill="#fff"/></g><g><path d="m47.5042496 22.0306644v1.3683262c0 .2267284-.186203.4129353-.4210358.4129353h-8.3799553c-.2267265 0-.4129333-.1862068-.4129333-.4129353v-1.3683262c0-.2347832.1862068-.4209881.4129333-.4209881h8.3799553c.2348328.0000001.4210358.186205.4210358.4209881z" fill="#fff"/></g></g><g><g><path d="m47.5042725 14.3551111v1.3683262c0 .2347832-.1862068.4210386-.4210396.4210386h-8.3799744c-.2105179 0-.3886223-.1619415-.4129333-.3805656.0243111.0081043.0567322.0081043.0810432.0081043h8.3799744c.2347336 0 .4209404-.1862059.4209404-.4210386v-1.4006948c.186306.0404729.3319893.2024154.3319893.4048299z" fill="#e4e3ff"/></g><g><path d="m47.5042725 18.1928883v1.3683262c0 .2267284-.1862068.4129333-.4210396.4129333h-8.3799744c-.2186241 0-.3967247-.1700459-.4129333-.3805656.0243111.0081043.0567322.0081043.0810432.0081043h8.3799744c.2347336 0 .4209404-.1862049.4209404-.4129333v-1.4006939c.186306.040472.3319893.2024135.3319893.404829z" fill="#e4e3ff"/></g><g><path d="m47.5042725 10.517334v1.3683262c0 .2347832-.1862068.420989-.4210396.420989h-8.3799744c-.2105179 0-.3886223-.1618919-.4129333-.3805161.0243111.0081043.0567322.0081043.0810432.0081043h8.3799744c.2347336 0 .4209404-.1862555.4209404-.4210386v-1.4006948c.186306.040473.3319893.2024155.3319893.40483z" fill="#e4e3ff"/></g><g><path d="m47.5042725 22.0306644v1.3683262c0 .2267284-.1862068.4129353-.4210396.4129353h-8.3799744c-.2186241 0-.3967247-.1700478-.4129333-.3805161.0243111.0080547.0567322.0080547.0810432.0080547h8.3799744c.2347336 0 .4209404-.1862068.4209404-.4128857v-1.4088478c.186306.0405217.3319893.2105199.3319893.4129334z" fill="#e4e3ff"/></g></g></g><g><path d="m46.2728233 37.38451c0 1.8631363-1.5124359 3.3697472-3.3755722 3.3697472-1.8631325 0-3.3754997-1.5066109-3.3754997-3.3697472 0-1.8631325 1.5123672-3.3754997 3.3754997-3.3754997 1.8631363 0 3.3755722 1.5123673 3.3755722 3.3754997z" fill="#fff"/></g><g><path d="m46.273613 37.3818207c0 1.8622093-1.5141602 3.3762665-3.3763161 3.3762665-1.2468071 0-2.3399277-.6800842-2.9228592-1.6841049.5829315.4777222 1.327755.7691879 2.1455193.7691879 1.8622551 0 3.3764153-1.5059547 3.3764153-3.3681602 0-.623455-.1700974-1.1982803-.4534569-1.7003174.7529258.623455 1.2306976 1.5626869 1.2306976 2.6071281z" fill="#e4e3ff"/></g></g></g></svg>