<svg id="Layer_1" enable-background="new 0 0 53 53" height="512" viewBox="0 0 53 53" width="512" xmlns="http://www.w3.org/2000/svg"><g id="_x33_26"><g><g><g><path d="m25.483 37.646h2.034v4.091h-2.034z" fill="#2d2c2c"/></g></g><g><g><path d="m25.483 37.646h2.034v1.627h-2.034z" fill="#1b1b1b"/></g></g><g><path d="m50.5 8.3663731v.0000057c0 1.6111374-1.3060837 2.917222-2.9172211 2.917222h-42.1655574c-1.6111369 0-2.9172215-1.3060846-2.9172215-2.917222v-.0000057c0-1.6111374 1.3060846-2.917222 2.9172215-2.917222h42.1655579c1.6111369-.0000001 2.9172206 1.3060846 2.9172206 2.917222z" fill="#f9b938"/></g><g><path d="m50.5 8.3693933c0 1.6099854-1.3099976 2.9099731-2.9199829 2.9099731h-42.1600342c-1.0899658 0-2.0499878-.5999756-2.5499878-1.4899902.4400024.2799683.9700317.4400024 1.5300293.4400024h42.1699829c1.6099854 0 2.9100342-1.2999878 2.9100342-2.9100342 0-.5199585-.1300049-1-.3700562-1.4299927.8300171.5100099 1.3900147 1.4299928 1.3900147 2.4800416z" fill="#e5a320"/></g><g><path d="m47.1988068 11.2850943v20.5151357c0 3.4233036-2.775135 6.1984348-6.1984367 6.1984348h-29.0007401c-3.4233017 0-6.1984363-2.7751312-6.1984363-6.1984348v-20.5151357z" fill="#b75f25"/></g><g><path d="m5.801 11.285h41.398v1.695h-41.398z" fill="#994f1d"/></g><g><path d="m47.2000122 11.2893763v20.5099983c0 3.4199829-2.7800293 6.2000122-6.2000122 6.2000122h-29c-2.1300049 0-4.0100098-1.0800171-5.1300049-2.7200317.9700317.6199951 2.1199951.9800415 3.3500366.9800415h29c3.4299927 0 6.1999512-2.7700195 6.1999512-6.1900024v-18.7800179z" fill="#994f1d"/></g><g><path d="m11.9988909 33.9314804c-1.1747856 0-2.130106-.9563141-2.130106-2.1311016v-16.4474144h33.2624283v16.4474144c0 1.1747875-.9563103 2.1311016-2.1310997 2.1311016z" fill="#e4e3ff"/></g><g><path d="m43.1300049 26.4593468v5.3400269c0 1.1799927-.960022 2.1300049-2.1300049 2.1300049h-29c-1.1799927 0-2.1300049-.9500122-2.1300049-2.1300049v-.6199951c4.9500122 1.0299683 11.2399902 1.1199951 17.9400024.039978 5.8699952-.9500123 11.1600342-2.6499634 15.3200074-4.7600098z" fill="#d0d0f7"/></g><g><g><path d="m26.4964447 47.5508499c-1.8792801 0-3.4083061-1.5325813-3.4083061-3.4154167s1.529026-3.4154205 3.4083061-3.4154205c1.8828354 0 3.4154167 1.5325851 3.4154167 3.4154205s-1.5325813 3.4154167-3.4154167 3.4154167zm0-5.0102272c-.8756351 0-1.587698.7156181-1.587698 1.5948105 0 .8791885.7120628 1.5948067 1.587698 1.5948067.8791885 0 1.5948086-.7156181 1.5948086-1.5948067 0-.8791924-.7156201-1.5948105-1.5948086-1.5948105z" fill="#f05543"/></g></g><g opacity=".3"><g><path d="m15.7068481 8.1856775h-3.8632813c-.4140625 0-.75-.3359375-.75-.75s.3359375-.75.75-.75h3.8632813c.4140625 0 .75.3359375.75.75s-.3359375.75-.75.75z" fill="#fff"/></g></g><g opacity=".3"><g><path d="m8.289856 8.1856775h-.6894532c-.4140625 0-.75-.3359375-.75-.75s.3359375-.75.75-.75h.6894532c.4140625 0 .75.3359375.75.75s-.3359375.75-.75.75z" fill="#fff"/></g></g><g><g opacity=".3"><g><path d="m7.0594597 26.5308895v-6.013155c0-.4140625.3359375-.75.75-.75s.75.3359375.75.75v6.013155c0 .4140625-.3359375.75-.75.75s-.75-.3359375-.75-.75z" fill="#fff"/></g></g><g opacity=".3"><g><path d="m7.0594597 16.9640236v-.6894531c0-.4140625.3359375-.75.75-.75s.75.3359375.75.75v.6894531c0 .4140625-.3359375.75-.75.75s-.75-.3359375-.75-.75z" fill="#fff"/></g></g></g></g><g><g><path d="m21.6375599 26.4061832c0 .1405258-.0466614.2593479-.1388969.3553829-.0927792.0960331-.2132301.1443233-.361351.1443233-.1036301 0-.1980381-.0276718-.2832203-.0830135-.0851841-.0558853-.1502914-.1313019-.1947823-.2278786l-.7221584-1.7335052h-3.7779026l-.7221575 1.7335052c-.0444908.0965767-.1095991.1719933-.1947823.2278786-.0851831.0553417-.1795893.0830135-.2832203.0830135-.1481209 0-.2685709-.0482903-.3613501-.1443233-.0922365-.096035-.1388979-.2148571-.1388979-.3553829 0-.0591393.0184479-.1334724.0558844-.2224522l2.833292-6.6893234c.0591393-.1334705.1426945-.242527.250124-.3277111.1074276-.0851822.2387295-.1275024.3944454-.1275024h.111227c.1557178 0 .2870178.0423203.3944473.1275024.1074276.0851841.1904411.1942406.250124.3277111l2.8332901 6.6893234c.0368958.0889798.0558854.163313.0558854.2224522zm-3.5890884-6.0783901-1.5002003 3.6113338h2.9998588z" fill="#474646"/></g><g><path d="m28.60956 23.4947624c.2853909.3108921.4280872.7037106.4280872 1.1779156 0 .6814651-.2300491 1.2148094-.6890621 1.6000328-.4595547.3852234-1.1817131.5778351-2.167017.5778351h-2.6889687c-.1405239 0-.2593479-.0482883-.355381-.1443214-.0965786-.0965786-.1443233-.2148571-.1443233-.3559246v-6.7446651c0-.1405258.0477448-.2609749.1443233-.361351.0960331-.0998325.2148571-.1497478.355381-.1497478h2.6222324c.7926922 0 1.4057941.1817589 1.8393059.5441952.4335117.3635216.6499958.852375.6499958 1.467104 0 .4297142-.1020012.7872677-.3054657 1.0721149-.2040043.2853909-.4649811.498621-.7834682.6391449.4443646.1405256.8089696.3667772 1.0943604.6776674zm-1.399826-3.1447239c-.2853909-.207262-.6760387-.3108921-1.1724892-.3108921h-2.0335464v2.4111729h1.8447323c.6592197 0 1.1220303-.111227 1.3889751-.3331375.2664013-.2224522.3998718-.533886.3998718-.9337597 0-.347786-.1426945-.6255798-.4275436-.8333836zm.3998737 5.2227612c.3000393-.2224541.449789-.5371437.449789-.9446125 0-.8442364-.6554222-1.2668953-1.9668102-1.2668953h-2.0888882v2.5446434h2.0780373c.718359 0 1.2278309-.111227 1.5278721-.3331356z" fill="#474646"/></g><g><path d="m36.7828064 25.5505543c.0813866.0813847.1220779.1817589.1220779.3000393 0 .1926117-.0819283.3331375-.2446976.4221172-.3928185.2224541-.7872658.3928204-1.183342.5111008-.3960762.1182785-.846405.1779613-1.3499107.1779613-.7411461 0-1.4057922-.1611423-1.9944801-.483427-.5892277-.3222866-1.0520382-.7850971-1.3889732-1.3889751-.3374767-.603878-.5056744-1.3092175-.5056744-2.1171017 0-.8073406.1681976-1.5126801.5056744-2.1165581.336935-.603878.7997456-1.0666885 1.3889732-1.3889732.5886879-.3222866 1.253334-.483429 1.9944801-.483429.5035057 0 .9538345.0596828 1.3499107.1779633.3960762.1182785.7905235.2886448 1.183342.5110989.1627693.0889797.2446976.2295055.2446976.4221172 0 .111227-.0406914.2094307-.1220779.2946148-.0819283.0851822-.1893578.1275043-.3222847.1275043-.0743332 0-.1410675-.0146503-.2002068-.0444908-.3260841-.1698246-.6445732-.2994976-.9554634-.3884792-.3114357-.0889816-.6706161-.1334724-1.078083-.1334724-.6369743 0-1.1795425.1313019-1.6277046.3944473s-.7850971.6223259-1.0113468 1.078083c-.225708.4552155-.3385639.9722824-.3385639 1.5495739 0 .5778351.1128559 1.0949039.3385639 1.5501175.2262497.4557571.5631847.8154812 1.0113468 1.078083.4481621.2631454.9907303.3944473 1.6277046.3944473.4074669 0 .7666473-.0444908 1.078083-.1334724.3108902-.0889797.6293793-.218111.9554634-.3890209.0591393-.0292988.1258736-.0439472.2002068-.0439472.1329269-.0000001.2403564.0406913.3222847.1220779z" fill="#474646"/></g></g></g></svg>