<?xml version="1.0" encoding="UTF-8"?><svg id="Icons" xmlns="http://www.w3.org/2000/svg" viewBox="0 0 512 512"><defs><style>.cls-1{fill:#e5e5e5;}.cls-2{fill:#dcdcdc;}</style></defs><path class="cls-2" d="M356.55,8.53h-171.96c-7.25,0-13.72,4.56-16.15,11.39l-90.65,256c-3.13,8.89,1.53,18.64,10.42,21.77,1.84.65,3.78.98,5.73.97h138.4l-54.66,190.95c-1.63,5.76,1.71,11.76,7.48,13.39,4.09,1.16,8.48-.18,11.23-3.42l234.69-275.17c6.13-7.16,5.29-17.94-1.88-24.06-3.11-2.66-7.08-4.12-11.17-4.1h-142.81l96.06-161.98c4.8-8.11,2.11-18.58-6-23.38-2.65-1.57-5.67-2.39-8.74-2.38h0Z"/><path class="cls-1" d="M145.07,187.73c-4.71,0-8.53-3.82-8.53-8.54,0-.92.15-1.83.44-2.7L185.33,31.43c1.49-4.48,6.33-6.9,10.81-5.41,4.48,1.49,6.9,6.33,5.41,10.81l-48.36,145.07c-1.16,3.49-4.43,5.85-8.12,5.84Z"/></svg>