<?xml version="1.0" encoding="UTF-8"?>
<svg id="Layer_2" data-name="Layer 2" xmlns="http://www.w3.org/2000/svg" width="510" height="510" viewBox="0 0 510 510">
  <defs>
    <style>
      .cls-1 {
        fill: #fff;
      }

      .cls-2 {
        opacity: .3;
      }

      .cls-3 {
        fill: #b8860b;
      }

      .cls-4 {
        fill: #ffbf00;
      }
    </style>
  </defs>
  <path class="cls-4" d="M324.27,226.63h52.08c12.64,0,20.18,14.09,13.16,24.61l-156.63,234.67c-9.27,13.88-30.93,5.81-28.86-10.75l22.93-182.57c1.25-9.95-6.51-18.73-16.52-18.73h-76.83c-11.17,0-18.83-11.27-14.71-21.65L208.95,26.99c2.39-6.03,8.22-9.99,14.71-9.99h136.67c11.17,0,18.83,11.27,14.71,21.65l-66.26,165.22c-4.34,10.93,3.73,22.79,15.48,22.79h0v-.03Z"/>
  <g class="cls-2">
    <path class="cls-1" d="M241.1,387.2c-.32,0-.64,0-.96-.05-4.12-.53-7.04-4.29-6.53-8.42l10.49-83.57c.52-4.12,4.4-7.05,8.42-6.53,4.12.53,7.04,4.29,6.53,8.42l-10.49,83.57c-.48,3.79-3.73,6.58-7.47,6.58h.01Z"/>
  </g>
  <path class="cls-3" d="M276.76,203.76l66.36-165.1c4.1-10.34-3.52-21.66-14.83-21.66h32.01c11.13,0,18.93,11.32,14.83,21.66l-66.36,165.1c-4.3,10.93,3.71,22.83,15.42,22.83h-32c-11.71,0-19.71-11.91-15.42-22.83h-.01Z"/>
  <path class="cls-3" d="M389.56,251.19l-156.71,234.77c-8,12.1-25.77,7.42-28.69-5.08l153.39-229.69c7.03-10.53-.58-24.58-13.27-24.58h32.01c12.69,0,20.3,14.05,13.27,24.58h0Z"/>
  <g class="cls-2">
    <path class="cls-1" d="M221.91,95.91c-5.79-2.31-8.61-8.9-6.3-14.67l4.62-11.55c2.34-5.81,8.9-8.6,14.67-6.3,5.79,2.31,8.61,8.9,6.3,14.67l-4.62,11.55c-2.35,5.84-8.95,8.6-14.67,6.3Z"/>
    <path class="cls-1" d="M169.32,227.41c-5.79-2.31-8.61-8.9-6.3-14.67l40.99-102.48c2.31-5.81,8.91-8.61,14.67-6.3,5.79,2.31,8.61,8.9,6.3,14.67l-40.99,102.48c-2.32,5.84-8.96,8.6-14.67,6.3Z"/>
  </g>
</svg>