<?xml version="1.0" encoding="UTF-8"?><svg id="b" xmlns="http://www.w3.org/2000/svg" viewBox="0 0 200 200"><g id="c"><rect width="200" height="200" fill="#dcdcdc"/><path d="M56.34,37.85c-5.81-2.46-12.65-3.6-18.86-2.01-4.93,1.26-9.14,4.17-12.22,7.68-3.08,3.51-5.12,7.62-6.67,11.8-4.22,11.38-5,23.52-3.97,35.43,1.02,11.9,3.81,23.64,6.59,35.34.53,2.23,1.11,4.56,2.83,6.3,3.49,3.54,10.14,3.17,15.03,1.16,7.58-3.12,12.93-9.12,17.25-15.28,7.55-10.75,12.79-22.64,15.56-34.94,1.38-6.15,2.15-12.4,2.28-18.66.1-4.74,1.12-12.38-1.79-16.63-1.22-1.77-3.61-2.87-5.45-4.11-3.36-2.26-6.7-4.46-10.55-6.09Z" fill="#7c8b96"/><path d="M31.88,52.75c-2,1.68-3.85,4.28-2.96,6.74.79,2.16,3.4,3.26,4.13,5.44.53,1.58-.1,3.33-1.08,4.68-.98,1.35-2.28,2.42-3.36,3.69-2.79,3.28-3.95,7.88-3.03,12.09.78,3.6,2.97,6.85,3.29,10.53.45,5.13-2.81,10.14-1.97,15.23.78,4.69,5.16,8.28,9.86,8.96,4.7.68,9.52-1.19,13.19-4.2,3.67-3.01,6.34-7.08,8.56-11.28,3.16-5.97,5.55-12.34,7.1-18.91,1.34-5.67,2.04-11.55,1.41-17.34-.61-5.52-2.84-13.83-7.33-17.55-4.63-3.83-12.78-4.08-18.3-2.77-3.47.82-6.78,2.41-9.52,4.71Z" fill="#525d65"/><path d="M143.66,37.85c5.81-2.46,12.65-3.6,18.86-2.01,4.93,1.26,9.14,4.17,12.22,7.68,3.08,3.51,5.12,7.62,6.67,11.8,4.22,11.38,5,23.52,3.97,35.43-1.02,11.9-3.81,23.64-6.59,35.34-.53,2.23-1.11,4.56-2.83,6.3-3.49,3.54-10.14,3.17-15.03,1.16-7.58-3.12-12.93-9.12-17.25-15.28-7.55-10.75-12.79-22.64-15.56-34.94-1.38-6.15-2.15-12.4-2.28-18.66-.1-4.74-1.12-12.38,1.79-16.63,1.22-1.77,3.61-2.87,5.45-4.11,3.36-2.26,6.7-4.46,10.55-6.09Z" fill="#7c8b96"/><path d="M168.12,52.75c2,1.68,3.85,4.28,2.96,6.74-.79,2.16-3.4,3.26-4.13,5.44-.53,1.58.1,3.33,1.08,4.68.98,1.35,2.28,2.42,3.36,3.69,2.79,3.28,3.95,7.88,3.03,12.09-.78,3.6-2.97,6.85-3.29,10.53-.45,5.13,2.81,10.14,1.97,15.23-.78,4.69-5.16,8.28-9.86,8.96-4.7.68-9.52-1.19-13.19-4.2-3.67-3.01-6.34-7.08-8.56-11.28-3.16-5.97-5.55-12.34-7.1-18.91-1.34-5.67-2.04-11.55-1.41-17.34.61-5.52,2.84-13.83,7.33-17.55,4.63-3.83,12.78-4.08,18.3-2.77,3.47.82,6.78,2.41,9.52,4.71Z" fill="#525d65"/><path d="M139.63,51.19c-8.41-8.53-18.85-13.12-30.01-14.62-11.17-1.5-22.84-1.27-33.53,3.03-3.71,1.49-7.27,3.48-10.52,5.99-7.66,5.92-13.65,14.38-17.57,23.84-8.14,19.62-6.72,44.69,5.93,61.04,7.41,9.59,17.97,15.61,28.93,18.77,18.91,5.44,40.41,2.25,55.42-11.75,11.2-10.45,18.08-26.51,18.35-42.84.28-16.79-6.28-32.59-17-43.46Z" fill="#929fa9"/><path d="M116.24,90.07c2.03.75,4.38.64,6.29-.38,1.91-1.02,3.34-2.94,3.67-5.08,1.58-10.08-16.18-11.46-14.77-.35.33,2.64,2.36,4.89,4.81,5.8Z" fill="#32302d"/><path d="M81.1,88.57c2.03.75,4.38.64,6.29-.38s3.34-2.94,3.67-5.08c1.58-10.08-16.18-11.46-14.77-.35.33,2.64,2.36,4.89,4.81,5.8Z" fill="#32302d"/><path d="M71.46,116.21c-4.25,2.21-8.81,3.75-13.35,5.28,1.25,1.88,3.44,2.98,5.66,3.37,2.22.38,4.51.13,6.74-.19,2.94-.43,5.91-1,8.58-2.32,2.67-1.31,5.04-3.45,6.08-6.24.94-2.53.59-8.78-3.58-7.2-1.7.65-3.16,2.75-4.61,3.85-1.73,1.32-3.59,2.45-5.52,3.46Z" fill="#efc9a5"/><path d="M121.44,117.33c4.25,2.21,8.81,3.75,13.35,5.28-1.25,1.88-3.44,2.98-5.66,3.37-2.22.38-4.51.13-6.74-.19-2.94-.43-5.91-1-8.58-2.32-2.67-1.31-5.04-3.45-6.08-6.24-.94-2.53-.59-8.78,3.58-7.2,1.7.65,3.16,2.75,4.61,3.85,1.73,1.32,3.59,2.45,5.52,3.46Z" fill="#efc9a5"/><path d="M88.2,95.31c-2.53,1.53-4.75,3.59-6.56,5.94-2.72,3.54-4.55,7.71-5.75,12.01-2.65,9.48-2.2,19.86,1.44,29.02.88,2.21,1.9,4.56,3.29,6.51,1.14,1.61,2.69,2.81,3.86,4.42,2.88,3.95,6.6,7.25,11.11,9.2,4.15,1.8,8.73,2.42,13.25,2.48,8.9.12,17.86-2.7,20.73-12,1.15-3.72,1.53-7.71,3.27-11.2.57-1.14,1.28-2.21,1.72-3.4s.58-2.57,0-3.71c-.57-1.13-2.03-1.87-3.18-1.34-.93.42-1.38,1.45-1.91,2.32-.53.87-1.41,1.75-2.41,1.54-1.51-.31-1.56-2.52-2.65-3.61-1-.99-2.83-.74-3.72.35-.89,1.09-.86,2.74-.15,3.95.79,1.34,2.31,2.23,2.78,3.72.5,1.59-.38,3.29-1.49,4.54-1.32,1.48-3.13,2.67-5.11,2.71-3.22.06-5.8-2.97-6.5-6.11-.85-3.85.39-7.89,2.34-11.32,1.95-3.43,4.58-6.41,6.83-9.65,2.26-3.23,4.18-6.87,4.42-10.81.3-4.89-2.17-9.73-5.92-12.89-3.75-3.16-8.64-4.76-13.53-5.13-4.87-.36-11.9-.13-16.17,2.45Z" fill="#a6b3bd"/><path d="M86.88,106.69c.46.83,1.59.95,2.53.87,2.22-.2,4.34-.98,6.53-1.4,2.19-.41,4.61-.39,6.45.87,2.47,1.69,4.38,5.76,7.91,3.44,1.76-1.15,2.97-3.62,1.73-5.52-2.6-4-10.78-3.8-14.82-3.42-1.87.18-12.27,1.65-10.33,5.16Z" fill="#929fa9"/><path d="M85.95,114.79c-.61.26-1.22.56-1.66,1.05-.44.5-.66,1.23-.4,1.83.43.98,1.77,1.07,2.83.94,2.4-.3,4.74-1.01,7.13-1.39,2.39-.38,4.94-.4,7.14.61.57.26,1.13.6,1.76.68.63.08,1.36-.18,1.57-.78.17-.5-.07-1.04-.36-1.48-1.67-2.54-4.63-3-7.43-2.9-3.71.13-7.06-.05-10.58,1.43Z" fill="#929fa9"/><path d="M86.38,126.19c-.61.42-1.21.9-1.55,1.55-.34.66-.37,1.52.1,2.09.45.54,1.25.69,1.94.56s1.32-.48,1.96-.79c3.37-1.67,7.24-2.3,10.97-1.8,1.09.15,2.5.24,2.98-.76.48-.99-.5-2.08-1.49-2.56-1.99-.98-4.73-.99-6.93-.88-2.83.14-5.62.99-7.97,2.59Z" fill="#929fa9"/><path d="M88.4,141.54c.08.38.46.63.84.68.38.06.76-.04,1.13-.14,1.84-.49,3.68-.98,5.53-1.48,1.41-.38,4.51-.59,5.53-1.68,1.13-1.22-.53-3.17-1.57-3.88-2.5-1.72-5.65.4-7.73,1.87-1.07.76-4.06,3.05-3.73,4.63Z" fill="#929fa9"/><path d="M102.32,145.13c-3.97-.23-8.31,3.09-10.57,6.02-.19.25-.38.54-.32.84.12.57.92.59,1.49.44,3.82-1,7.29-3.3,9.71-6.43.16-.2.31-.49.16-.7-.1-.14-.29-.16-.46-.17Z" fill="#929fa9"/><path d="M100.9,156.14c-.13.43-.2.97.14,1.27.24.21.61.21.9.08.29-.13.52-.37.74-.6,1.02-1.05,2.04-2.11,3.06-3.16.61-.63,1.81-1.89,1.39-2.9-.44-1.06-1.66-.21-2.43.21-1.86,1.04-3.2,3.09-3.81,5.1Z" fill="#929fa9"/><path d="M109.1,158.29c-.16.67-.2,1.52.36,1.92.37.26.89.22,1.28,0,.39-.22.68-.59.93-.97.61-.93,3.09-5.61,1.16-5.8-2.28-.23-3.37,3.32-3.73,4.86Z" fill="#929fa9"/><path d="M117.27,158.3c.03.36.08.73.25,1.04.18.31.52.56.88.53.47-.04.78-.5.98-.94.87-1.91,1.09-4.63.03-6.52-1.77,1.53-2.31,3.56-2.14,5.88Z" fill="#929fa9"/></g></svg>