<svg id="Capa_1" enable-background="new 0 0 512 512" height="512" viewBox="0 0 512 512" width="512" xmlns="http://www.w3.org/2000/svg"><g><path d="m210.81 0-4.477 67.75-50.713 67.75-71.953 22.167-83.667-22.167c0-3.88 1.49-7.71 4.39-10.61l120.5-120.5c2.82-2.81 6.63-4.39 10.61-4.39z" fill="#d58df4"/><path d="m356.38 135.5-100.38 22.167-100.38-22.167 55.19-135.5h90.38l55.19 59z" fill="#c974f4"/><path d="m256 0v157.667l100.38-22.167v-76.5l-55.19-59z" fill="#9e5ae6"/><path d="m512 135.5-75.25 26.167-80.37-26.167-55.19-135.5h75.31c3.98 0 7.79 1.58 10.61 4.39l120.5 120.5c2.9 2.9 4.39 6.73 4.39 10.61z" fill="#c974f4"/><path d="m256 512c-5.02 0-9.7-2.51-12.48-6.68l-241-361.5c-1.7-2.54-2.52-5.44-2.52-8.32h155.62l77.38 104.833z" fill="#c974f4"/><path d="m356.38 135.5v127.745l-100.38 248.755-100.38-376.5z" fill="#d58df4"/><path d="m256 512 100.38-248.755v-127.745h-100.38z" fill="#c974f4"/><path d="m512 135.5c0 2.88-.82 5.78-2.52 8.32l-241 361.5c-2.78 4.17-7.46 6.68-12.48 6.68l100.38-376.5z" fill="#9e5ae6"/></g></svg>