<svg height="512pt" viewBox="0 -28 512.00021 512" width="512pt" xmlns="http://www.w3.org/2000/svg"><path d="m510.1875 155.234375-79.890625-147.382813c-2.621094-4.835937-7.683594-7.851562-13.1875-7.851562h-322.21875c-5.503906 0-10.566406 3.015625-13.1875 7.851562l-79.890625 147.382813c-3.011719 5.554687-2.21875 12.402344 1.984375 17.121094l241.105469 277.707031c2.847656 3.203125 6.925781 5.027344 11.203125 5.027344h.191406c4.347656-.054688 8.457031-1.992188 11.261719-5.3125l240.894531-277.707032c3.992187-4.722656 4.679687-11.402343 1.734375-16.835937zm0 0" fill="#b5efff"/><path d="m256.101562 455.089844c-4.273437 0-8.351562-1.828125-11.203124-5.03125l-241.097657-277.699219c-2.511719-2.808594-3.800781-6.378906-3.800781-9.980469l79.066406-51.289062 91.433594 51.289062zm0 0" fill="#4ab8f7"/><path d="m512 162.378906c0 3.480469-1.210938 6.921875-3.550781 9.691406l-240.890625 277.710938c-2.808594 3.308594-6.917969 5.25-11.257813 5.308594h-.199219l85.859376-292.710938 85.019531-51.289062zm0 0" fill="#4ab8f7"/><g fill="#80dbff"><path d="m170.5 162.378906h-170.5c0-2.4375.589844-4.898437 1.808594-7.148437l79.890625-147.378907c1.472656-2.710937 3.699219-4.839843 6.339843-6.191406zm0 0"/><path d="m512 162.378906h-170.039062l82.359374-160.519531c2.488282 1.351563 4.578126 3.410156 5.980469 5.992187l79.890625 147.378907c1.207032 2.25 1.808594 4.710937 1.808594 7.148437zm0 0"/><path d="m256 0v162.378906h85.960938zm0 0"/><path d="m170.5 162.378906h124.144531l-38.644531-162.378906zm0 0"/><path d="m510.1875 155.234375-79.890625-147.382813c-2.621094-4.835937-7.683594-7.851562-13.1875-7.851562h-161.109375v455.085938c.035156 0 .070312.003906.105469.003906h.191406c4.34375-.054688 8.457031-1.996094 11.261719-5.3125l240.894531-277.710938c3.992187-4.71875 4.679687-11.398437 1.734375-16.832031zm0 0"/></g><path d="m512 162.378906c0 3.480469-1.210938 6.921875-3.550781 9.691406l-240.890625 277.710938c-2.808594 3.308594-6.917969 5.25-11.257813 5.308594h-.199219l85.859376-292.710938 85.019531-51.289062zm0 0" fill="#368dcf"/><path d="m512 162.378906h-170.039062l82.359374-160.519531c2.488282 1.351563 4.578126 3.410156 5.980469 5.992187l79.890625 147.378907c1.207032 2.25 1.808594 4.710937 1.808594 7.148437zm0 0" fill="#4ab8f7"/><path d="m256 0v162.378906h85.960938zm0 0" fill="#4ab8f7"/></svg>