<svg id="Layer_1" enable-background="new 0 0 53 53" height="512" viewBox="0 0 53 53" width="512" xmlns="http://www.w3.org/2000/svg"><g id="_x36_6"><g><g><g><path d="m10.139 5.472h2.501v42.022h-2.501z" fill="#a55822"/></g><g><path d="m40.36 5.472h2.501v42.022h-2.501z" fill="#a55822"/></g></g><g><g><path d="m27.7768078 25.4789734c-.1000366.3599854-.1099854.7300415-.0599976 1.1000366.1099854.8299561.5499878 1.6399536 1.1300049 2.2699585.8399658.9000244 1.9199829 1.5300293 2.9199829 2.2399902 2.3499737 1.6800537 4.2999859 3.9200439 5.6500225 6.4700317 1.1499634 2.1900024 1.8299561 4.9000244.6999512 7.0999756-.3800049.7400513-.9899902 1.4100342-1.789978 1.6400146-.4099731.1199951-.8400269.1199951-1.2600098.1199951-2.6599731-.0100098-5.3200054-.0100098-7.9799786-.0100098h-1.1699829c-2.6600342 0-5.3200073 0-7.9800415.0100098-.4299927 0-.8599854 0-1.2600098-.1199951-.7999878-.2299805-1.4099731-.8999634-1.789978-1.6400146-1.1400146-2.1999512-.4500122-4.9099731.7000122-7.0999756 1.3399658-2.5499878 3.289978-4.789978 5.6400146-6.4700317 1-.7099609 2.0899658-1.3399658 2.9199829-2.2399902.5999756-.6599731 1.0700073-1.5100098 1.1499634-2.3699951.0300293-.3299561.0100098-.6699829-.0799561-1-.3800049-1.3900146-1.7800293-2.1900024-2.9800415-2.9799805-2.4599609-1.6099854-4.539978-3.789978-6.0699463-6.2999878-.210022-.3400269-.4000244-.6900024-.5900269-1.0400391-.6300049-1.1999512-1.1500244-2.4899902-1.2700195-3.8499756-.1300049-1.3499756.1700439-2.7800293 1.0200195-3.8400269.3300171-.4199829.75-.7799683 1.2600098-.9499512.3999634-.1300049.8399658-.1300049 1.2700195-.1300049h17.2899763c.4299927 0 .8599854 0 1.2700195.1300049.5099487.1699829.9299927.5299683 1.2599487.9499512.8500366 1.0599976 1.1400146 2.4900513 1.0200195 3.8400269-.1300049 1.3599854-.6400146 2.6500244-1.2799683 3.8499756-.1800537.3500366-.3800049.7000122-.5900269 1.0400391-1.5200195 2.5100098-3.6099854 4.6900024-6.0700054 6.2999878-1.2000121.789978-2.5899657 1.5899658-2.9799803 2.9799805z" fill="#e7e7e7"/></g><g><path d="m31.7706699 31.0929661c-1.0021496-.7157021-2.0873013-1.3416119-2.922287-2.2466774-.8351536-.9050674-1.3949585-2.1842194-1.0675907-3.3714256.3822041-1.3851833 1.7781563-2.1827278 2.9784508-2.9729843 2.7897491-1.8364735 5.1043549-4.388485 6.6608429-7.3437424.6331978-1.2024479 1.1482735-2.4918728 1.2743492-3.8450813s-.1698151-2.782793-1.0165634-3.8459101c-.3316765-.4163337-.7544708-.7773333-1.2602654-.9435019-.4072227-.133863-.8444328-.135354-1.2730255-.135354l-1.6677742-.0002909c-2.2290802-.0003881-4.0363121 1.8065286-4.0363121 4.0356078v.0000114c0 3.6853304-2.9875507 6.6728811-6.6728821 6.6728811h-6.0033454c1.4580784 2.1308727 3.3195686 3.9855709 5.4764538 5.4053802 1.2002926.7902565 2.5962448 1.587801 2.9784508 2.9729843.3273678 1.1872063-.232439 2.4663582-1.0675907 3.3714256-.8349876.9050655-1.9201393 1.5309753-2.9222889 2.2466774-2.3503876 1.6784229-4.3000164 3.9138355-5.6432848 6.4704876-1.1504269 2.189518-1.8361425 4.8987541-.7041063 7.0978851.3805485.7392273.9928722 1.4037361 1.7914124 1.6358452.4067249.1182899.8371391.1187859 1.2607632.118454 2.6595325-.0023193 5.319231-.0044746 7.9787636-.006794.1956577-.000164.3914833-.0003281.587141-.0004959.1956596.0001678.3914833.0003319.5871429.0004959 2.6595325.0023193 5.3192291.0044746 7.9787636.006794.4236221.0003319.8540382-.000164 1.2607613-.118454.798542-.2321091 1.4108658-.8966179 1.7914124-1.6358452 1.1320381-2.199131.4463196-4.9083672-.7041054-7.0978851-1.3432696-2.556652-3.2928965-4.7920646-5.643286-6.4704875z" fill="#d5d3d4"/></g><g><path d="m36.8267937 47.0023079c-1.5200195-2.5100098-3.6099854-4.6900024-6.0700054-6.2999878-1.2000122-.789978-2.5899658-1.5899658-2.9799805-2.9799805-.1000366-.3599854-.1099854-14.0666904-.0599976-14.4366856l-2.4200439.1000366c.0300293.3299561.0100098 14.0066319-.0799561 14.3366489-.3800049 1.3900146-1.7800293 2.1900024-2.9800415 2.9799805-2.4599609 1.6099854-4.539978 3.789978-6.0699463 6.2999878h20.6599713z" fill="#82c8fb"/></g><g><path d="m30.7567883 40.702301c-1.2000122-.789978-2.5899658-1.5899658-2.9799805-2.9799805-.1000366-.3599854-.1099854-14.0666504-.0599976-14.4366455l-2.4200439.1000366c.0300293.3299561.0100098 14.0065918-.0799561 14.3366089-.2216797.8108521-.7938843 1.4182739-1.4675293 1.942688v1.1414909c0 1.7258797-1.3991108 3.125-3.125 3.125h-2.1300049c-.8660278.9519539-1.6578979 1.9722786-2.3274536 3.0707893h20.6599712c-1.5200195-2.5100096-3.6099853-4.6900023-6.0700053-6.2999877z" fill="#63affa"/></g></g><g><path d="m10.751092 6.9012327h31.4977798c1.5276871 0 2.7661209-1.2384338 2.7661209-2.7661195v-.0000057c0-1.5276856-1.2384338-2.7661195-2.7661209-2.7661195h-31.4977798c-1.5276861 0-2.7661195 1.2384338-2.7661195 2.7661195v.0000057c0 1.5276857 1.2384333 2.7661195 2.7661195 2.7661195z" fill="#bf803d"/></g><g><path d="m7.9992194 3.993988c-.0024414.0477295-.0142212.0927735-.0142212.1411133 0 1.52771 1.2384038 2.7661133 2.7661138 2.7661133h31.4978008c1.5276489 0 2.7661133-1.2384033 2.7661133-2.7661133 0-.0483398-.0117798-.0933838-.0142212-.1411133z" fill="#b36523"/></g></g><g><path d="m10.751092 51.6309891h31.4977798c1.5276871 0 2.7661209-1.2384338 2.7661209-2.7661209v-.0000038c0-1.5276871-1.2384338-2.7661209-2.7661209-2.7661209h-31.4977798c-1.5276861 0-2.7661195 1.2384338-2.7661195 2.7661209v.0000038c0 1.527687 1.2384333 2.7661209 2.7661195 2.7661209z" fill="#bf803d"/></g><g><path d="m7.9854255 48.868988c.0023193 1.5257568 1.2393804 2.7620239 2.7656865 2.7620239h31.4978008c1.5262451 0 2.7633667-1.2362671 2.765686-2.7620239z" fill="#b36523"/></g><g><path d="m36.8267937 16.1990051c-1.5200195 2.5100098-3.6099854 4.6900024-6.0700054 6.2999878-1.2000122.789978-2.5899658 1.5899658-2.9799805 2.9799805-.1000366.3599854-.1099854.7300415-.0599976 1.1000366l-2.4200439-.1000366c.0300293-.3299561.0100098-.6699829-.0799561-1-.3800049-1.3900146-1.7800293-2.1900024-2.9800415-2.9799805-2.4599609-1.6099854-4.539978-3.789978-6.0699463-6.2999878z" fill="#82c8fb"/></g><g><path d="m28.9367809 16.1990051v.1699829c0 2.0365505-1.6509495 3.6875114-3.6875 3.6875114h-5.9989624c.9180908.9047127 1.907959 1.7366829 2.9864502 2.4424934 1.2000122.789978 2.6000366 1.5899658 2.9800415 2.9799805.0899658.3300171.1099854.6700439.0799561 1l2.4200439.1000366c-.0499878-.3699951-.0400391-.7400513.0599976-1.1000366.3900146-1.3900146 1.7799683-2.1900024 2.9799805-2.9799805 2.4600201-1.6099854 4.5499859-3.789978 6.0700054-6.2999878h-7.8900128z" fill="#63affa"/></g></g></svg>