<svg id="Layer_1" enable-background="new 0 0 55 55" height="512" viewBox="0 0 55 55" width="512" xmlns="http://www.w3.org/2000/svg"><g id="_x32_1"><g><g><g><g><path d="m44.2720261 49.1810532h-33.5440522c.3112593-7.022892 4.9166422-16.2065048 11.2714615-19.8061714.9440365-.5347462.9440517-1.8720894.0000286-2.4068565-6.3548336-3.5998631-10.9602299-12.7847795-11.2714901-19.8181305h33.5440521c-.3113976 7.0260639-4.9207191 16.2147026-11.2719994 19.8189163-.9421768.5346622-.9419823 1.8705349.0003281 2.4049644 6.3511124 3.6020202 10.9602814 12.7813988 11.2716714 19.8072777z" fill="#d5d3d4"/></g></g><g><g><path d="m24.9008999 29.3748569c.9440517-.5347271.9440517-1.8720512 0-2.4068508-6.3548164-3.599884-10.9602194-12.7847538-11.2714653-19.8181496h-2.9014721c.3112459 7.0333948 4.9166489 16.2182655 11.2714653 19.8181496.9440536.5347996.9440536 1.8721237 0 2.4068508-6.3548164 3.5996685-10.9602194 12.7833004-11.2714653 19.8061619h2.9014721c.3112459-7.0228615 4.9166489-16.2064933 11.2714653-19.8061619z" fill="#e7e7e7"/></g></g><g><g><path d="m33.0003319 29.3737659c-.9423103-.5344353-.9424553-1.870306-.0002899-2.4049606 6.3512535-3.6042442 10.9605827-12.7928905 11.2719727-19.8189468h-3.0750389c-.3113937 7.0260572-4.9207191 16.2147026-11.272047 19.8189468-.9421635.5346546-.941946 1.8705254.0003643 2.4049606 6.3511086 3.6019917 10.960289 12.7814121 11.2716827 19.8072529h3.0750389c-.31139-7.0258407-4.9205743-16.2052612-11.2716828-19.8072529z" fill="#c4c4c4"/></g></g><g><g><path d="m37.300518 17.454237c-1.5950966 2.7021122-3.6900444 5.0589771-6.0588989 6.4040737-.7617664.440424-1.3807697 1.0475121-1.8092785 1.7736073-.4047489.6785069-1.1427593 1.0713406-1.9283562 1.0713406-.7856693 0-1.5355949-.3928337-1.9402714-1.0713406-.4285812-.7260952-1.0475121-1.3450985-1.809351-1.7736073-2.3687801-1.3450966-4.4518871-3.7019615-6.0589008-6.4040737z" fill="#b36523"/></g></g><g><g><path d="m28.9621315 18.4174175v.0000057c0 1.9311295-1.5654907 3.4966202-3.4966221 3.4966202h-4.2869167c.8109531.7707043 1.6741447 1.4328632 2.5809994 1.9463749.7613316.4311962 1.3777199 1.0492554 1.8097878 1.7762222.4005356.6739292 1.147337 1.0636406 1.9313354 1.0636406.7843628 0 1.5309448-.3902931 1.9318447-1.0644398.4311943-.7251511 1.0456944-1.3419743 1.8044834-1.773098 2.3787327-1.3498936 4.4626408-3.7089367 6.0670376-6.4125023h-7.374773c-.5341569.0000001-.9671765.4330197-.9671765.9671765z" fill="#a55822"/></g></g><g><g><path d="m14.904892 45.5280495-.0211754.0817833h25.2321091c-.0071907-.0279655-.0144463-.0559464-.021759-.0839424-1.0127678-3.8766174-4.4695625-7.6953468-8.3752842-9.6538086-1.4373703-.7207489-3.0477276-1.0253601-4.6556778-1.0253601h-.0000057c-2.2671909 0-4.5153465.6460686-6.3406181 1.9908905-2.8553354 2.1037559-4.9527522 5.3758926-5.8175889 8.6904373z" fill="#b36523"/></g></g><g><g><path d="m40.094101 45.5258446c-.9724274-3.7221489-4.1980019-7.3909149-7.9106712-9.4108925-.2878952.1756477-.2551174.1556473-.5430126.331295v.0000038c-.0000019 2.8761711-2.3316002 5.2077675-5.2077713 5.2077675h-7.0619564c-1.9614868 0-3.6694851 1.2950211-4.2611799 3.1651382-.0745764.2357063-.1428804.4721184-.2046509.7088661l-.021142.08181h25.2321091c-.0071947-.0279731-.0144578-.0559463-.0217248-.0839881z" fill="#a55822"/></g></g><g><g><g><path d="m45.1979408 8.0703888h-35.3958807c-.7026253 0-1.2722158-.5695906-1.2722158-1.2722163v-1.9584542c0-.7026258.5695906-1.2722163 1.2722158-1.2722163h35.3958817c.7026253 0 1.2722168.5695906 1.2722168 1.2722163v1.9584541c-.000001.7026258-.5695925 1.2722164-1.2722178 1.2722164z" fill="#626681"/></g></g><g><g><path d="m8.5298452 5.7948055v1.0033383c0 .7026277.5696001 1.2722278 1.2722273 1.2722278h35.3958282c.7026291 0 1.2722282-.5696001 1.2722282-1.2722278v-1.0033383z" fill="#4d5471"/></g></g></g><g><g><g><path d="m45.1979408 51.4324989h-35.3958807c-.7026253 0-1.2722158-.5695915-1.2722158-1.2722168v-1.9584541c0-.7026253.5695906-1.2722168 1.2722158-1.2722168h35.3958817c.7026253 0 1.2722168.5695915 1.2722168 1.2722168v1.9584541c-.000001.7026253-.5695925 1.2722168-1.2722178 1.2722168z" fill="#626681"/></g></g><g><g><path d="m8.5298452 49.1569138v1.0033379c0 .7026291.5696001 1.2722282 1.2722273 1.2722282h35.3958282c.7026291 0 1.2722282-.5695992 1.2722282-1.2722282v-1.0033379z" fill="#4d5471"/></g></g></g><g><g><circle cx="28.644" cy="29.713" fill="#b36523" r="1.079"/></g></g><g><g><circle cx="26.03" cy="32.615" fill="#b36523" r=".657"/></g></g></g><g><g><path d="m27.1111393 12.1360044c.6007614 2.7618055-1.5335789 7.7407961-3.72789 7.7407961s-4.460165-2.2388859-5.0609283-5.0006914c-.6007614-2.7618055.6910648-5.0006914 2.885376-5.0006914s5.302679-.5012188 5.9034423 2.2605867z" fill="#e7e7e7"/></g></g><g><g><path d="m26.8616314 38.7888107c-.8459721.9378357-3.5859585 1.8288689-4.4145126 1.2834625s-.8144341-1.7478142.031538-2.6856499 2.2034435-1.2559624 3.0319996-.7105522c.8285541.5454064 2.1969471 1.1749039 1.350975 2.1127396z" fill="#bf803d"/></g></g><g><g><path d="m26.0874691 17.454237c-.7142525 1.3926868-1.7021885 2.4282818-2.7021122 2.4282818-1.452261 0-2.9163666-.9760208-3.9281311-2.4282818z" fill="#bf803d"/></g></g></g><g><g><path d="m28.9621315 18.4174175v.0000057c0 1.9311295-1.5654907 3.4966202-3.4966221 3.4966202h-4.2869167c.8109531.7707043 1.6741447 1.4328632 2.5809994 1.9463749.7613316.4311962 1.3777199 1.0492554 1.8097878 1.7762222.4005356.6739292 1.147337 1.0636406 1.9313354 1.0636406.7843628 0 1.5309448-.3902931 1.9318447-1.0644398.4311943-.7251511 1.0456944-1.3419743 1.8044834-1.773098 2.3787327-1.3498936 4.4626408-3.7089367 6.0670376-6.4125023h-7.374773c-.5341569.0000001-.9671765.4330197-.9671765.9671765z" fill="#a55822"/></g></g><g><g><path d="m28.0127182 23.582428c-.2724609-.4804688-.1035156-1.0908203.3769531-1.3632813 1.2314453-.6992188 2.4287109-1.7226563 3.5595703-3.0424805.3613281-.4199219.9921875-.4672852 1.4101563-.1088867.4199219.359375.46875.9902344.109375 1.409668-1.2822266 1.4960938-2.6591797 2.6674805-4.0927734 3.480957-.473898.2697335-1.0870057.1093312-1.3632813-.3759765z" fill="#bf803d"/></g></g></g></svg>