<svg id="Layer_1" enable-background="new 0 0 53 53" height="512" viewBox="0 0 53 53" width="512" xmlns="http://www.w3.org/2000/svg"><g id="_x38_"><g><g><g><path d="m18.0864487 21.5551472v-6.1715364c0-4.5969763 3.7389927-8.3370771 8.3358765-8.3370771 2.2296314 0 4.3116589.8645515 5.8735466 2.4427185 1.5748405 1.5750227 2.4416122 3.667963 2.4416122 5.8943586v6.1715364h4.4768372v-6.1715364c0-3.4220448-1.3323441-6.6396971-3.7443542-9.0507851-2.400177-2.4263487-5.6134834-3.7630372-9.0476418-3.7630372-7.0647583 0-12.8127136 5.7478619-12.8127136 12.8138227v6.1715364h4.4768371z" fill="#e4e3ff"/></g></g></g><g><g><g><path d="m30.1790733 7.3686595c.348484.3485765.6668167.7273955.9396496 1.1364579-1.4199791-.9939651-3.1355324-1.4950352-4.9075985-1.4520574-4.5838413.1111717-8.1239357 4.1207108-8.1239357 8.7058983v5.7927666h-4.4699936v-2.1062579h.0000029c1.2971792 0 2.3487501-1.0515709 2.3487492-2.3487511l-.0000038-3.4840698c-.0000038-4.6239948 3.7800531-8.7203121 8.4038992-8.6832771 2.2158069.0177464 4.2648544.8798136 5.8092307 2.4392905z" fill="#d0d0f7"/></g></g><g><g><path d="m39.2102509 15.3845358v6.1671896h-4.4701805v-2.1062584h.0000038c1.3055573 0 2.3639183-1.058363 2.3639183-2.3639183v-3.8184385c0-2.9244738-.969799-5.6822896-2.7579079-7.9248705.3939857.3030739.7728081.6363907 1.1212921 1.0000424 2.4094238 2.4093318 3.7428742 5.6217122 3.7428742 9.0462537z" fill="#d0d0f7"/></g></g></g><g><g><path d="m44.0652962 25.5008965v20.9987564c0 2.1707878-1.7597694 3.9305573-3.9305573 3.9305573h-27.2694759c-2.1707878 0-3.9305592-1.7597694-3.9305592-3.9305573v-20.9987564c0-2.1707878 1.7597713-3.9305592 3.9305592-3.9305592h27.2694759c2.1707878 0 3.9305573 1.7597713 3.9305573 3.9305592z" fill="#f9b938"/></g></g><g><g><path d="m43.9770699 25.4988937v21.0026093c0 2.1697655-1.7589417 3.9287071-3.9287109 3.9287071h-27.2731725c-1.7626934 0-3.2487173-1.158474-3.7522564-2.7702293.352293.125885.7556162.1763 1.1583242.1763h6.2707434c13.7690887 0 24.931139-11.1620522 24.931139-24.9311409v-.0000248c0-.4030151-.050415-.8058777-.1761475-1.1584778 1.6114503.5036927 2.7700807 1.9894085 2.7700807 3.7522564z" fill="#ecb021"/></g></g><g opacity=".3"><g><g><g><path d="m12.7262506 31.9454403.0140533 12.158762c0 .4913292-.4070988.8844604-.8844604.8844604-.4913292 0-.8844604-.4071846-.8844604-.8844604l-.0140524-12.158762c0-.491415.3931313-.8844604.8844604-.8844604.4914446-.0000001.8844595.3949279.8844595.8844604z" fill="#fff"/></g></g><g><g><path d="m10.9573307 29.4405117v-1.0950794c0-.4772758.3931313-.8844604.8844604-.8844604.5216999 0 .8844595.4434185.8844595.8844604v1.0950794c0 .4913292-.3930454.8844604-.8844595.8844604-.4913291.0000001-.8844604-.3931312-.8844604-.8844604z" fill="#fff"/></g></g></g></g><g><g><g><g><ellipse cx="26.5" cy="36" fill="#f7f363" rx="9.541" ry="9.541" transform="matrix(.707 -.707 .707 .707 -17.694 29.283)"/></g></g><g opacity=".4"><g><g><path d="m18.5912781 34.3883667c-.2641602-.0805664-.4125977-.3603516-.331543-.6245117.7851563-2.5649414 2.6552734-4.6376953 5.1303711-5.6865234.2529297-.105957.5473633.0107422.6557617.2651367.1074219.2543945-.0112305.5478516-.2651367.6557617-2.2026367.9331055-3.8662109 2.7768555-4.5649414 5.0585938-.0824928.2694778-.3673592.4112586-.6245117.3315429z" fill="#fff"/></g></g></g><g><g><path d="m36.0410118 36.0003014c0 5.262394-4.2693577 9.5409851-9.5410404 9.5409851-3.0163708 0-5.7078686-1.4014587-7.4620171-3.5917969 1.6334896 1.2993813 3.6938763 2.078968 5.9491863 2.078968 5.2716827 0 9.5410423-4.278595 9.5410423-9.5409851 0-2.2553101-.7796402-4.3157539-2.078968-5.9492435 2.1903344 1.7541485 3.5917969 4.4457035 3.5917969 7.4620724z" fill="#f7e839"/></g></g></g><g><g><g><path d="m28.6552372 36.88657.6476498 3.6590157c.0856342.3691368-.1946468.7218819-.5735874.7218819h-4.458601c-.3789406 0-.6592236-.3527451-.5735893-.7218857l.6469841-3.6561546c.0486717-.2098045-.0281105-.4210968-.1799736-.573822-1.7884712-1.7985954-.9234505-4.9656811 1.5931969-5.5058575 2.14645-.4607182 4.0252361 1.1454811 4.0252361 3.207449 0 .8988571-.3612499 1.7106972-.9486732 2.3003998-.1509038.1514891-.2269651.3606833-.1786424.5689734z" fill="#474646"/></g></g><g><g><path d="m29.1722088 32.1047592c-.7191582-.5125771-1.6601677-.7497444-2.6547356-.5355053-2.5076237.5338154-3.392704 3.7070332-1.5913391 5.5083981.1530209.153019.2295094.3596001.1759491.5737953l-.6349659 3.6187668h-.1989231c-.3748722 0-.6579418-.351944-.5737953-.7268181l.6502819-3.6570091c.0459023-.2065353-.0305862-.4207764-.1836071-.5737953-1.7995491-1.8177452-.8919926-4.9704857 1.5989971-5.5007381 1.4000263-.2983857 2.6853218.2754096 3.412138 1.2929057z" fill="#2d2c2c"/></g></g></g></g></g></svg>