<svg id="Layer_1" enable-background="new 0 0 53 53" height="512" viewBox="0 0 53 53" width="512" xmlns="http://www.w3.org/2000/svg"><g id="_x37_6"><g><g><g><g><path d="m24.2764893 49.9243622c-20.4340914-11.5353432-18.2827282-35.115243-17.3241516-41.2953129.1375251-.886642.8727322-1.522223 1.7680106-1.5815735 8.5153847-.5645075 15.7813492-3.7037413 17.4332066-4.4641256.241581-.1112044.4618416-.1111236.703373.0001845 1.6506863.7607043 8.908144 3.8994501 17.4219189 4.463933.8952751.0593591 1.6305275.6949363 1.7680511 1.581574.9585762 6.1800594 3.109951 29.7599697-17.3241501 41.2953186-1.3596058.767519-3.0866528.767519-4.4462585.0000019z" fill="#00d67f"/></g></g><g><g><path d="m25.7346554 45.1501732c-14.0907097-8.5903168-14.9883223-24.2162037-14.3777752-32.3114929.0513668-.6810751.5730658-1.2215042 1.2494221-1.3166075 5.6723671-.7976017 10.5048714-2.4432802 13.3735561-3.586524.344593-.1373296.7052002-.1372638 1.0497551.0001631 2.8661575 1.143177 7.6955643 2.7886248 13.3627167 3.586235.6763268.0951891 1.1979446.6356401 1.2492523 1.3167028.6098557 8.09548-.2868576 23.7236271-14.3758011 32.3115845-.4615879.2813606-1.0695572.2813339-1.531126-.000061z" fill="#00c179"/></g></g><g><g><path d="m41.6665573 13.1359882c-5.4909019-.8217716-10.1787281-2.4092302-12.9615116-3.5298901-.3548584-.1306353-.7097168-.1306353-1.0458813 0-2.8762569 1.1393547-7.7134132 2.7828979-13.3911505 3.5859747-.672328.0933599-1.1952114.6349382-1.2326012 1.3259602-.504303 6.6302576 0 18.3590584 8.0121889 27.099659-9.6183424-8.8339615-10.2347002-21.6834202-9.6931219-28.7804756.0560846-.6724415.578968-1.2140198 1.2514095-1.3073797 5.6776228-.8030767 10.4961977-2.44662 13.3723421-3.5858607.3548584-.1494441.7097168-.1494441 1.0458813 0 2.8761444 1.1392407 7.6947174 2.782784 13.3724556 3.5858607.6723289.0933599 1.1952133.6349382 1.251297 1.3073797.0000001.093358.0186921.186718.0186921.2987718z" fill="#00af68"/></g></g><g opacity=".3"><g><g><path d="m16.660347 7.6294188c-.0931759-.3761272.1363373-.7563648.5131493-.848855 4.4059639-1.0879598 7.7917938-2.518476 9.0428104-3.0830095.3514614-.1610017.7680111-.0020554.9276428.3507779s.0027409.7686973-.3507786.9276433c-1.597683.7214241-4.9280186 2.0909657-9.283968 3.1665931-.3813629.0930157-.7571487-.1407404-.8488559-.5131498z" fill="#fff"/></g></g></g><g opacity=".3"><g><g><path d="m9.7461843 29.5496159c-.3048754 0-.5857716-.2000542-.6734657-.5083542-1.0242443-3.5714951-1.5860372-7.4417-1.6716762-11.5016804-.0082216-.3870888.2993941-.7077217.6871686-.7159424.3980503-.0102768.7077217.2993927.7159433.6871681.0822134 3.938715.6268778 7.6883392 1.6168671 11.1440506.1068773.3727016-.1082478.7611618-.4809494.8673534-.0644006.0184975-.129487.0274049-.1938877.0274049z" fill="#fff"/></g></g></g><g><g><path d="m28.7224503 49.9175186c-1.3609772.7716942-3.0867786.7716942-4.4477558 0-3.2412701-1.824028-5.9212608-3.9708328-8.1100273-6.2859154 1.96422 1.8801231 4.2514706 3.6059227 6.9453354 5.1213074 1.3609772.7716942 3.0867767.7716942 4.4479256 0 20.4292201-11.5335388 18.2824191-35.1057997 17.3283976-41.293571-.0140457-.098228-.0421333-.196456-.0842705-.2946844.6455498.2105012 1.1366043.7577353 1.2489624 1.459291.9540215 6.187686 3.1008225 29.7599459-17.3285674 41.2935724z" fill="#00c179"/></g></g></g></g><g><g><g><ellipse cx="26.742" cy="25.909" fill="#f7f363" rx="9.541" ry="9.541" transform="matrix(.707 -.707 .707 .707 -10.488 26.498)"/></g></g><g opacity=".4"><g><g><path d="m18.833252 24.2966042c-.2641602-.0805664-.4125977-.3603516-.331543-.6245117.7851563-2.5649414 2.6552734-4.6376953 5.1303711-5.6865234.2529297-.105957.5473633.0107422.6557617.2651367.1074219.2543945-.0112305.5478516-.2651367.6557617-2.2026367.9331055-3.8662109 2.7768555-4.5649414 5.0585938-.0824929.2694777-.3673592.4112605-.6245117.3315429z" fill="#fff"/></g></g></g><g><g><path d="m36.2829857 25.9085407c0 5.262392-4.2693596 9.5409832-9.5410404 9.5409832-3.0163708 0-5.7078686-1.4014587-7.4620171-3.5917969 1.6334896 1.2993851 3.6938763 2.078968 5.9491863 2.078968 5.2716827 0 9.5410423-4.2785931 9.5410423-9.5409851 0-2.2553101-.7796402-4.3157539-2.078968-5.9492435 2.1903343 1.7541504 3.5917969 4.4457036 3.5917969 7.4620743z" fill="#f7e839"/></g></g></g><g><g><g><path d="m28.8972111 26.7948093.6476498 3.6590137c.0856342.3691368-.1946468.7218838-.5735874.7218838h-4.458601c-.3789425 0-.6592236-.352747-.5735893-.7218857l.6469841-3.6561565c.0486717-.2098026-.0281105-.4210968-.1799736-.5738201-.7618389-.7661533-1.1423473-1.9063206-.8460293-3.1250057.286335-1.1776314 1.2542725-2.1265144 2.4392262-2.3808537 2.14645-.4607182 4.0252361 1.1454811 4.0252361 3.2074509 0 .8988552-.3612499 1.7106972-.9486732 2.3003998-.1509039.1514893-.2269651.3606796-.1786424.5689735z" fill="#474646"/></g></g><g><g><path d="m29.4141827 22.0129967c-.7191582-.5125771-1.6601677-.7497425-2.6547356-.5355034-1.1858349.2524357-2.1498184 1.201149-2.4405441 2.3793259-.2983856 1.2164192.0841446 2.3640099.849205 3.1290703.1530209.1530209.2295094.359602.1759491.5737953l-.6349659 3.6187668h-.1989231c-.3748722 0-.6579418-.3519459-.5737953-.7268181l.6502819-3.6570091c.0459023-.2065353-.0305862-.4207745-.1836071-.5737953-.7574024-.7650604-1.1399326-1.9049931-.841547-3.1214123.2830677-1.1782227 1.2546635-2.1268902 2.4405441-2.3793259 1.4000263-.2983857 2.6853218.2754097 3.412138 1.2929058z" fill="#2d2c2c"/></g></g></g></g></svg>