<svg height="512" viewBox="0 0 59 59" width="512" xmlns="http://www.w3.org/2000/svg"><g id="Page-1" fill="none" fill-rule="evenodd"><g id="004---Measuring-Calculations" fill-rule="nonzero"><path id="Shape" d="m37.47 11.37v-5.87c0-1.38071187 1.1192881-2.5 2.5-2.5s2.5 1.11928813 2.5 2.5v5.87z" fill="#464f5d"/><path id="Shape" d="m22.7 58.268c-.3341761-.0001113-.6462108-.1671406-.8316247-.445161-.1854139-.2780205-.2196989-.6302831-.0913753-.938839l2.3-5.53c.1292561-.3411383.434024-.5848217.7952418-.6358521.3612179-.0510303.7215632.0986907.940262.3906723s.2610453.6798886.1104962 1.0121798l-2.3 5.53c-.1547569.3732546-.5189349.6166976-.923.617z" fill="#7f8c8d"/><path id="Shape" d="m57.3 58.268c-.4044291.0001018-.7691037-.2434093-.924-.617l-2.3-5.53c-.1505491-.3322912-.1082026-.7201982.1104962-1.0121798s.5790441-.4417026.940262-.3906723c.3612178.0510304.6659857.2947138.7952418.6358521l2.3 5.53c.1283236.3085559.0940386.6608185-.0913753.938839-.1854139.2780204-.4974486.4450497-.8316247.445161z" fill="#7f8c8d"/><path id="Shape" d="m38 40.89h-9c-.5522847 0-1-.4477153-1-1s.4477153-1 1-1h9c.5522847 0 1 .4477153 1 1s-.4477153 1-1 1z" fill="#7f8c8d"/><path id="Shape" d="m51 40.89h-9c-.5522847 0-1-.4477153-1-1s.4477153-1 1-1h9c.5522847 0 1 .4477153 1 1s-.4477153 1-1 1z" fill="#7f8c8d"/><path id="Shape" d="m34.02 23.58-7.76 18.42h-23.26c-1.65685425 0-3-1.3431458-3-3v-36c0-1.65685425 1.34314575-3 3-3h26c1.6568542 0 3 1.34314575 3 3v13.55z" fill="#3b97d3"/><rect id="Rectangle-path" fill="#9fc9d3" height="7" rx="1" width="22" x="5" y="5"/><g fill="#f0c419"><rect id="Rectangle-path" height="4" rx="2" width="6" x="4" y="17"/><rect id="Rectangle-path" height="4" rx="2" width="6" x="13" y="17"/><rect id="Rectangle-path" height="4" rx="2" width="6" x="22" y="17"/><rect id="Rectangle-path" height="4" rx="2" width="6" x="4" y="25"/><rect id="Rectangle-path" height="4" rx="2" width="6" x="13" y="25"/><rect id="Rectangle-path" height="4" rx="2" width="6" x="22" y="25"/><rect id="Rectangle-path" height="4" rx="2" width="6" x="4" y="33"/><rect id="Rectangle-path" height="4" rx="2" width="6" x="13" y="33"/></g><path id="Shape" d="m14.23 5-5 7h-2.46l5-7z" fill="#fff"/><path id="Shape" d="m19.23 5-5 7h-2.46l5-7z" fill="#fff"/><path id="Shape" d="m48.47 19.5c-.0030629 4.366639-3.3142663 8.020602-7.6595065 8.4523812-4.3452402.4317793-8.310769-2.499107-9.1730982-6.7797535-.8623292-4.2806464 1.6591048-8.5183207 5.8326047-9.8026277 2.5791809-.7936888 5.3820092-.3155209 7.5521514 1.2884114 2.1701422 1.6039324 3.4497415 4.1430497 3.4478486 6.8415886z" fill="#a5a5a4"/><path id="Shape" d="m39.966 24c-2.4852814 0-4.5-2.0147186-4.5-4.5s2.0147186-4.5 4.5-4.5 4.5 2.0147186 4.5 4.5c-.0027556 2.4841391-2.0158609 4.4972444-4.5 4.5zm0-7c-1.3807119 0-2.5 1.1192881-2.5 2.5s1.1192881 2.5 2.5 2.5 2.5-1.1192881 2.5-2.5-1.1192881-2.5-2.5-2.5z" fill="#7f8284"/><path id="Shape" d="m36.41 27.22-10.64 25.25-1.84-.77c-1.5251193-.6453348-2.2406745-2.4029171-1.6-3.93l2.43-5.77 7.76-18.42c.8687591 1.6021962 2.233709 2.8794244 3.89 3.64z" fill="#bdc3c7"/><path id="Shape" d="m56.07 51.7-1.84.77-10.64-25.26-.01-.02c1.641415-.7665726 2.9941588-2.0387126 3.86-3.63l.04.02 10.19 24.19c.6406745 1.5270829-.0748807 3.2846652-1.6 3.93z" fill="#bdc3c7"/><rect id="Rectangle-path" fill="#464f5d" height="14" rx="2" width="4" x="38" y="33"/></g></g></svg>