<svg id="Layer_1" enable-background="new 0 0 53 53" height="512" viewBox="0 0 53 53" width="512" xmlns="http://www.w3.org/2000/svg"><g id="_x33_43"><g><path d="m50.5 26.2539997v17.6817417c0 2.4886589-2.0174561 4.5061188-4.5061188 4.5061188h-38.9877639c-2.4886598 0-4.5061173-2.0174599-4.5061173-4.5061188v-17.6817417c0-2.4886608 2.0174575-4.5061188 4.5061173-4.5061188h38.9877625c2.4886641 0 4.5061202 2.017458 4.5061202 4.5061188z" fill="#7979f7"/></g><g><path d="m50.5 26.2562752v5.9499512h-48v-5.9499512c0-2.4900513 2.0198975-4.5100098 4.5098877-4.5100098h38.9801025c.5599365 0 1.0999756.1099854 1.5999756.2999878 1.8333397.6545353 2.9100342 2.4836292 2.9100342 4.210022z" fill="#f9b938"/></g><g><path d="m47.9899902 32.2062263h2.5100098v11.7300415c0 2.4899902-2.0200195 4.5099487-4.5100098 4.5099487h-38.9801025c-1.8198242 0-3.3898926-1.0799561-4.0898438-2.6399536.4899903.1900025 1.0200196.2899781 1.5799561.2899781h38.9899902c2.4899902 0 4.5-2.0200195 4.5-4.5100098z" fill="#5e5eef"/></g><g><path d="m50.5 26.2562752v5.9499512h-2.5100098v-8.2999878c0-.6699829-.1400146-1.2999878-.4000244-1.8599854 1.8387108.6564541 2.9100342 2.5030918 2.9100342 4.210022z" fill="#ecb021"/></g><g><path d="m19.8144569 26.9785252c0 1.053875-.8503017 1.9042225-1.9041328 1.9042225-1.0539188 0-1.9115858-.8503475-1.9115858-1.9042225 0-1.0538731.857667-1.9114971 1.9115858-1.9114971 1.0538311-.0000001 1.9041328.857624 1.9041328 1.9114971z" fill="#fc6559"/></g><g><path d="m14.4782047 26.9785252c0 1.053875-.8503036 1.9042225-1.9041338 1.9042225-1.0539188 0-1.9115858-.8503475-1.9115858-1.9042225 0-1.0538731.857667-1.9114971 1.9115858-1.9114971 1.0538302-.0000001 1.9041338.857624 1.9041338 1.9114971z" fill="#7979f7"/></g><g><path d="m9.1419516 26.9785252c0 1.053875-.8503036 1.9042225-1.9041338 1.9042225-1.0539188 0-1.9115858-.8503475-1.9115858-1.9042225 0-1.0538731.857667-1.9114971 1.9115858-1.9114971 1.0538301-.0000001 1.9041338.857624 1.9041338 1.9114971z" fill="#5bc658"/></g><g><path d="m19.812952 26.9732552c0 1.0599442-.8521976 1.9122086-1.9012718 1.9122086-.7212124 0-1.3439884-.3933525-1.660778-.9833813.251297.1311169.5463467.207613.8521976.207613 1.0490742 0 1.9012718-.8523312 1.9012718-1.9122086 0-.3278618-.0873661-.6447182-.2403603-.9178905.6227761.3059863 1.0489407.9506358 1.0489407 1.6936588z" fill="#f05543"/></g><g><path d="m14.4806147 26.9732552c0 1.0599442-.8523312 1.9122086-1.9012718 1.9122086-.7210798 0-1.3439884-.3933525-1.6609116-.9833813.251298.1311169.5463457.207613.8523312.207613 1.0489407 0 1.9012718-.8523312 1.9012718-1.9122086 0-.3278618-.0873671-.6447182-.2403603-.9178905.6229086.3059863 1.0489407.9506358 1.0489407 1.6936588z" fill="#5e5eef"/></g><g><path d="m9.1374731 26.9732552c0 1.0599442-.8413935 1.9122086-1.9012718 1.9122086-.7104092 0-1.3441219-.3933525-1.660912-.9833813.251298.1311169.5463457.207613.8521976.207613 1.0600119 0 1.9014058-.8523312 1.9014058-1.9122086 0-.3278618-.0875015-.6447182-.2404938-.9178905.6227751.3059863 1.0490742.9506358 1.0490742 1.6936588z" fill="#49a247"/></g><g><g><path d="m41.3049927 43.3216438v5.1202164h-29.6099854v-5.1202164c0-1.3786507 1.1176167-2.4962654 2.4962664-2.4962654h24.6174545c1.3786497 0 2.4962645 1.1176148 2.4962645 2.4962654z" fill="#e4e3ff"/></g><g><path d="m41.3099365 43.3264084v1.3200073c0-1.3800049-1.119873-2.5-2.5-2.5h-24.619873c-1.380127 0-2.4901123 1.1199951-2.4901123 2.5v-1.3200073c0-1.3800049 1.1099854-2.5 2.4901123-2.5h24.619873c1.380127 0 2.5 1.1199951 2.5 2.5z" fill="#d0d0f7"/></g></g><g><path d="m41.3049927 17.8286762v3.9537468h-29.6099854v-3.9537468c0-1.3786488 1.1176167-2.4962664 2.4962664-2.4962664h24.6174545c1.3786497.0000001 2.4962645 1.1176177 2.4962645 2.4962664z" fill="#2d2c2c"/></g><g><path d="m11.695 20.046h29.61v1.736h-29.61z" fill="#1b1b1b"/></g><g><path d="m37.938343 21.7825069v-13.8304987c0-1.8759246-1.5223389-3.3982248-3.398262-3.3982248h-11.2974701c-.3955822 0-.7850933.0719171-1.150753.2037535-.4674988.1618328-.8930035.431541-1.2525902.7911282l-4.78269 4.7767267c-.3595877.3595877-.6292591.7851295-.7910919 1.2525921-.1319094.3655863-.2038269.7551689-.2038269 1.1507149v9.0538082h22.8766841z" fill="#e4e3ff"/></g><g><path d="m37.9400635 7.9564128v13.8299561h-22.880127v-1.7399902h16.8378601c2.1550865 0 3.9021301-1.7470436 3.9021301-3.9021301v-9.927887c0-.5599976-.1298828-1.0799561-.369873-1.539978 1.4499512.3900145 2.5100098 1.7100219 2.5100098 3.2800292z" fill="#d0d0f7"/></g><g><path d="m22.0918961 4.7575369v5.142314c0 .9289627-.7491703 1.678133-1.6781712 1.678133h-5.1482754c.1618319-.4674625.4315042-.8930044.7911282-1.2525921l4.78269-4.7767267c.3595867-.3595872.7851277-.6292954 1.2526284-.7911282z" fill="#d0d0f7"/></g><g><g opacity=".5"><g><path d="m32.0124512 6.3334274c0 .2481627-.2013397.449502-.4495029.449502h-3.6454144c-.2481632 0-.4495029-.2013392-.4495029-.449502 0-.2481623.2013397-.449502.4495029-.449502h3.6454144c.2481632 0 .4495029.2013398.4495029.449502z" fill="#fff"/></g></g><g opacity=".5"><g><path d="m26.3609581 6.3334274c0 .2481627-.2013397.449502-.4495029.449502h-.5194435c-.2481632 0-.4495029-.2013392-.4495029-.449502 0-.2481623.2013397-.449502.4495029-.449502h.5194435c.2481632 0 .4495029.2013398.4495029.449502z" fill="#fff"/></g></g></g><g><path d="m37.8424377 45.3012581c0 .4390564-.3559265.7949829-.7949829.7949829h-21.0899667c-.4390564 0-.794982-.3559265-.794982-.7949829 0-.4390564.3559256-.7949829.794982-.7949829h21.0899658c.4390573 0 .7949838.3559265.7949838.7949829z" fill="#d0d0f7"/></g><g opacity=".3"><g><path d="m5.7337646 42.7070808c-.4140625 0-.75-.3359375-.75-.75v-3.7685547c0-.4140625.3359375-.75.75-.75s.75.3359375.75.75v3.7685547c0 .4140625-.3359375.75-.75.75z" fill="#fff"/></g></g><g opacity=".3"><g><path d="m5.7337646 36.1875496c-.4140625 0-.75-.3359375-.75-.75v-.4716797c0-.4140625.3359375-.75.75-.75s.75.3359375.75.75v.4716797c0 .4140625-.3359375.75-.75.75z" fill="#fff"/></g></g><g><g opacity=".3"><g><path d="m44.9663124 25.067028c0 .4140625-.3359375.75-.75.75h-5.7685547c-.4140625 0-.75-.3359375-.75-.75s.3359375-.75.75-.75h5.7685547c.4140625 0 .75.3359375.75.75z" fill="#fff"/></g></g><g opacity=".3"><g><path d="m36.4467812 25.067028c0 .4140625-.3359375.75-.75.75h-.4716797c-.4140625 0-.75-.3359375-.75-.75s.3359375-.75.75-.75h.4716797c.4140625 0 .75.3359375.75.75z" fill="#fff"/></g></g></g></g></svg>