<svg id="Layer_1" enable-background="new 0 0 53 53" height="512" viewBox="0 0 53 53" width="512" xmlns="http://www.w3.org/2000/svg"><g id="_x33_95"><g><path d="m40.3600235 51.0506248h-27.7200937c-5.5499263 0-8.789917-6.25-5.599853-10.789978l12.8498535-18.2399883v-13.2200317h13.2200928v13.2200317l12.8499756 18.2399883c3.1899418 4.539978-.0500484 10.789978-5.5999752 10.789978z" fill="#e4e3ff"/></g><g opacity=".4"><g><path d="m18.5002823 29.2032146c-.3388672-.2387695-.4199219-.706543-.1816406-1.0454102l2.9599609-4.2011719c.2382813-.3383789.7060547-.4194336 1.0449219-.1811523.3388672.2387695.4199219.706543.1816406 1.0454102l-2.9599609 4.2011719c-.2397061.3387833-.7074814.4191227-1.0449219.1811523z" fill="#fff"/></g></g><g opacity=".4"><g><path d="m22.8899307 19.4429607c-.4140625 0-.75-.3359375-.75-.75v-4.3232422c0-.4140625.3359375-.75.75-.75s.75.3359375.75.75v4.3232422c0 .4140625-.3359375.75-.75.75z" fill="#fff"/></g></g><g><path d="m40.3600235 51.0506248h-1.9801025c5.5500488 0 8.7900391-6.25 5.6000977-10.789978l-12.5100098-17.7499981c-.2199707-.3200073-.3400879-.7000122-.3400879-1.0900269v-8.7868071c0-1.4542627-1.1789131-2.6331758-2.6331768-2.6331758h-8.6068134v-1.2000121h13.2200928v13.2200317l12.8499756 18.2399883c3.1899413 4.539978-.0500489 10.789978-5.5999757 10.789978z" fill="#d0d0f7"/></g><g><path d="m33.3411026 32.267849h-13.6824741c-.5463371 0-1.0585423.2657127-1.3731842.7123489l-7.1543036 10.155632c-.5644531.8027344-.3232422 1.5483398-.1298828 1.9208984.1933594.371582.6621094.9941406 1.6386719.9941406h27.7197266c.9765625 0 1.4462891-.6230469 1.6386719-.9941406.1943359-.3730469.4345703-1.1186523-.1259766-1.9160156l-7.1580849-10.1605415c-.3146429-.4466248-.8268385-.7123222-1.3731642-.7123222z" fill="#5bc658"/></g><g><path d="m42.0000381 45.0606346c-.1899414.3699951-.6600342.9899902-1.6400146.9899902h-27.7200937c-.9799805 0-1.4499512-.6199951-1.6398926-.9899902-.1300049-.2600098-.2800293-.6799927-.1899414-1.1699829 4.6499023 1.0299683 11.2199717.7799683 18.1999512-.960022 3.75-.9299927 7.1999512-2.1900024 10.1398926-3.6400146l2.7200928 3.8500366c.5599374.7999878.3199472 1.539978.1300057 1.9199829z" fill="#49a247"/></g><g><path d="m35.2056503 7.7247744v-4.6995485c0-.594177-.4816742-1.0758525-1.0758514-1.0758525h-15.2595997c-.5941772 0-1.0758514.4816755-1.0758514 1.0758525v4.6995487c0 .5941763.4816742 1.0758524 1.0758514 1.0758524h15.2595997c.5941772-.0000002 1.0758514-.4816763 1.0758514-1.0758526z" fill="#c2c2ef"/></g><g><path d="m35.2099991 3.0206585v4.6999512c0 .6000366-.4899902 1.0800171-1.0800781 1.0800171h-15.2598877c-.5899658 0-1.0799561-.4799805-1.0799561-1.0800171v-.0999756h15.0100098c.5998535 0 1.079834-.4799805 1.079834-1.0800171v-4.589966h.25c.5900879 0 1.0800781.4799806 1.0800781 1.0700075z" fill="#a2a2f9"/></g><g opacity=".4"><g><path d="m19.2943478 3.990051c0-.4140625.3359375-.75.75-.75h2.095583c.4140625 0 .75.3359375.75.75s-.3359375.7499998-.75.7499998h-2.095583c-.4140625 0-.75-.3359375-.75-.7499998z" fill="#fff"/></g></g><g opacity=".4"><g><path d="m24.0532055 3.990051c0-.4140625.3359375-.75.75-.75h.48876c.4140625 0 .75.3359375.75.75s-.3359375.7499998-.75.7499998h-.48876c-.4140625 0-.75-.3359375-.75-.7499998z" fill="#fff"/></g></g><g><path d="m22.9199543 35.5372658c0 .56147-.4562016 1.0176353-1.0117817 1.0176353-.5614319 0-1.0176334-.4561653-1.0176334-1.0176353 0-.5614319.4562016-1.0117798 1.0176334-1.0117798.5555801 0 1.0117817.4503479 1.0117817 1.0117798z" fill="#49a247"/></g><g><path d="m24.1553402 40.522438c0 .6835785-.5554161 1.2389526-1.231823 1.2389526-.6835346 0-1.2389507-.5553741-1.2389507-1.2389526 0-.6835327.5554161-1.231823 1.2389507-1.231823.6764069.0000001 1.231823.5482903 1.231823 1.231823z" fill="#49a247"/></g><g><path d="m31.3970509 35.2939491c0 .7874756-.6398335 1.4272614-1.4190502 1.4272614-.7874241 0-1.4272594-.6397858-1.4272594-1.4272614 0-.787426.6398354-1.4190483 1.4272594-1.4190483.7792167 0 1.4190502.6316223 1.4190502 1.4190483z" fill="#49a247"/></g><g><path d="m26.7214222 27.2976971c0 .6488914-.5272331 1.1760845-1.1693192 1.1760845-.6488514 0-1.1760826-.5271931-1.1760826-1.1760845 0-.6488514.5272312-1.1693192 1.1760826-1.1693192.6420861 0 1.1693192.5204678 1.1693192 1.1693192z" fill="#d0d0f7"/></g><g><path d="m29.5489464 19.7761631c0 1.0380402-.84342 1.8813934-1.8705711 1.8813934-1.0379734 0-1.8813934-.8433533-1.8813934-1.8813934 0-1.0379734.84342-1.8705692 1.8813934-1.8705692 1.0271511 0 1.8705711.8325958 1.8705711 1.8705692z" fill="#d0d0f7"/></g></g></svg>