<svg id="svg8" height="512" viewBox="0 0 135.46666 135.46667" width="512" xmlns="http://www.w3.org/2000/svg" xmlns:svg="http://www.w3.org/2000/svg"><g id="layer1" transform="translate(0 -161.533)"><path id="rect27239" d="m115.8875 219.37736h-96.308334v66.77471c0 5.13027 4.130146 9.26041 9.260417 9.26041h77.787497c5.13027 0 9.26042-4.13014 9.26042-9.26041z" fill="#d9defb" paint-order="markers fill stroke"/><path id="path13392" d="m74 218.62305v80.29492c16.522345 23.71845 67.66627 23.4988 90.63672 11.56445 22.97045-11.93442 37.1211-33.99056 37.12109-57.85937-.00001 23.86881 14.15064 45.92495 37.1211 57.85937 22.97045 11.93435 51.27173 11.93435 74.24218 0 22.97046-11.93442 37.1211-33.99056 37.1211-57.85937-.00001 23.86881 23.4116 54.60795 59.75781 65.50976v126.86719c0 19.39-15.61003 35-35 35h-299.835938c3.952991 15.00007 17.560412 26 33.835938 26h294c19.39 0 35-15.61 35-35v-152.69141-99.68554z" fill="#bbcdfb" transform="matrix(.265 0 0 .265 0 161.533)" paint-order="markers fill stroke"/><path id="path27448" d="m28.839584 163.12082c-5.130271 0-9.260417 4.13015-9.260417 9.26042v14.0472h96.308333v-14.0472c0-5.13027-4.13015-9.26042-9.26042-9.26042z" fill="#ffa14e" paint-order="markers fill stroke"/><path id="path10803" d="m108.32259 163.2774c.10099.54974.15658 1.11569.15658 1.6955v7.71558c0 1.88386-.84858 3.68579-3.00793 3.68579h-85.892073v10.05417h96.308333v-14.0472c0-4.55046-3.25043-8.31125-7.56491-9.10384z" fill="#ff8663" paint-order="markers fill stroke"/><path id="path28259" d="m19.579166 182.19511-10.7750522 40.88639h117.8584362l-10.77505-40.88639z" fill="#d9defb" paint-order="markers fill stroke"/><path id="path27455" d="m87.37644 223.08153c.000001 6.31529-3.743953 12.15084-9.821552 15.30849-6.077599 3.15763-13.56551 3.15763-19.643108 0-6.077601-3.15765-9.821555-8.9932-9.821553-15.30849z" fill="#f45558" paint-order="markers fill stroke"/><path id="rect27727" d="m19.579167 182.19513h28.511054v40.8864h-39.2862186z" fill="#f45558" paint-order="markers fill stroke"/><path id="rect27729" d="m87.376447 182.19513h28.511053l10.77516 40.8864h-39.286213z" fill="#f45558" paint-order="markers fill stroke"/><path id="path27734" d="m48.090215 223.08153c.000001 6.31529-3.743953 12.15084-9.821552 15.30849-6.077599 3.15763-13.56551 3.15763-19.643108 0-6.077601-3.15765-9.8215548-8.9932-9.8215526-15.30849z" fill="#d9defb" paint-order="markers fill stroke"/><path id="path27736" d="m126.66266 223.08153c0 6.31529-3.74395 12.15084-9.82155 15.30849-6.0776 3.15763-13.56551 3.15763-19.643109 0-6.0776-3.15765-9.821554-8.9932-9.821552-15.30849z" fill="#d9defb" paint-order="markers fill stroke"/><path id="rect27778" d="m80.866192 249.90416h16.66875c2.931578 0 5.291668 2.36008 5.291668 5.29167v15.61041c0 2.93159-2.36009 5.29167-5.291668 5.29167h-16.66875c-2.931583 0-5.291666-2.36008-5.291666-5.29167v-15.61041c0-2.93159 2.360083-5.29167 5.291666-5.29167z" fill="#2196f3" paint-order="markers fill stroke"/><path id="rect27780" d="m41.804166 249.90415c-2.931583 0-5.291666 2.36008-5.291666 5.29167v40.21666h28.045833v-40.21666c0-2.93159-2.360084-5.29167-5.291667-5.29167z" fill="#2196f3" paint-order="markers fill stroke"/><g fill-rule="evenodd"><path id="path27607" d="m68.638337 284.73369v1.05834h2.1172v-1.05834zm5.2932 0v1.05834h2.1172v-1.05834zm5.2912 0v1.05834h2.1172v-1.05834zm5.2906 0v1.05834h2.1172v-1.05834zm5.2932 0v1.05834h2.1172v-1.05834zm5.2912 0v1.05834h2.1166v-1.05834zm5.290603 0v1.05834h2.1172v-1.05834zm5.2932 0v1.05834h2.1172v-1.05834zm5.2906 0v1.05834h2.1172v-1.05834z" fill="#8da2e9" stroke-width=".265"/><path id="path27786" d="m26.070612 284.73369v1.05834h2.1172v-1.05834zm5.2906 0v1.05834h2.1172v-1.05834z" fill="#8da2e9" stroke-width=".265"/><path id="path5117" d="m79.28125 104.62109v4h8.001953v-4zm20.005859 0v4h8.000001v-4zm19.996091 0v4h8.00196v-4zm19.99805 0v4h8.00195v-4zm20.00586 0v4h8v-4zm183.53516 0v4h8.00195v-4zm19.99804 0v4h8v-4zm19.9961 0v4h8.00195v-4zm20.00586 0v4h8.00195v-4zm19.99804 0v4h8v-4z" fill="#bf1d43" transform="matrix(.265 0 0 .265 0 161.533)"/><path id="path6522" d="m191.85742 104.62109v4h8v-4zm20.00391 0v4h8.00195v-4zm19.99805 0v4h8.00195v-4zm19.99804 0v4h8v-4zm20.00391 0v4h8.00195v-4zm19.99805 0v4h8.00195v-4zm19.99804 0v4h8v-4z" fill="#8da2e9" transform="matrix(.265 0 0 .265 0 161.533)"/></g><path id="path27835" d="m105.80026 169.24241a3.4157449 3.4157449 0 0 0 -3.40651 3.41581 3.4157449 3.4157449 0 0 0 3.41581 3.4153 3.4157449 3.4157449 0 0 0 3.41581-3.4153 3.4157449 3.4157449 0 0 0 -3.41581-3.41581 3.4157449 3.4157449 0 0 0 -.009 0z" fill="#d9defb" paint-order="markers fill stroke"/><path id="circle27837" d="m92.526135 169.24241a3.4157449 3.4157449 0 0 0 -3.406511 3.41581 3.4157449 3.4157449 0 0 0 3.415811 3.4153 3.4157449 3.4157449 0 0 0 3.415813-3.4153 3.4157449 3.4157449 0 0 0 -3.415813-3.41581 3.4157449 3.4157449 0 0 0 -.0093 0z" fill="#d9defb" paint-order="markers fill stroke"/><path id="circle27839" d="m78.926448 169.24241a3.4157449 3.4157449 0 0 0 -3.40651 3.41581 3.4157449 3.4157449 0 0 0 3.41581 3.4153 3.4157449 3.4157449 0 0 0 3.415813-3.4153 3.4157449 3.4157449 0 0 0 -3.415813-3.41581 3.4157449 3.4157449 0 0 0 -.0093 0z" fill="#d9defb" paint-order="markers fill stroke"/><path id="path10829" d="m96.476617 249.90415v14.55209c0 2.93159-2.360086 5.29166-5.291666 5.29166h-15.610417v1.05834c0 2.93159 2.360084 5.29166 5.291667 5.29166h16.66875c2.931579 0 5.291669-2.36007 5.291669-5.29166v-15.61042c0-2.93159-2.36009-5.29167-5.291669-5.29167z" fill="#2979ff" paint-order="markers fill stroke"/><path id="path10834" d="m52.916666 249.90415c2.931583 0 5.291667 2.36008 5.291667 5.29167v28.17812c0 3.19982-2.466998 5.14284-5.721616 5.14284h-15.974217v6.8957h28.045833v-40.21666c0-2.93159-2.360084-5.29167-5.291667-5.29167z" fill="#2979ff" paint-order="markers fill stroke"/><path id="path27975" d="m50.80181 270.28345v4.04095c0 2.08001-1.67453 3.75453-3.75454 3.75453s-3.75453-1.67452-3.75453-3.75453v-4.04095c0-2.08002 1.67452-3.75454 3.75453-3.75454s3.75454 1.67452 3.75454 3.75454z" fill="#d9defb" paint-order="markers fill stroke"/><path id="path27955" d="m39.000834 284.73369v1.05834h2.1172v-1.05834zm5.2932 0v1.05834h2.1172v-1.05834zm5.2912 0v1.05834h2.1172v-1.05834zm5.2906 0v1.05834h2.1172v-1.05834zm5.2932 0v1.05834h2.1172v-1.05834z" fill="#2455e0" fill-rule="evenodd" stroke-width=".265"/></g></svg>