<svg id="Layer_1" enable-background="new 0 0 55 55" height="512" viewBox="0 0 55 55" width="512" xmlns="http://www.w3.org/2000/svg"><g><g><path d="m47.026638 11.4598503v37.3766747c0 .3575859-.3484879.6536026-.7840958.6536026h-37.4930124c-.4210749 0-.7696509-.2960167-.7696509-.6536026v-37.3766747c0-.357585.3485761-.6535282.7696509-.6535282h37.4930115c.4356089 0 .7840967.2959433.7840967.6535282z" fill="#f7cc6d"/></g><g><path d="m47.026638 27.1533222v-15.693471c0-.3576164-.3484879-.6535473-.7840958-.6535473h-37.4930124c-.4210749 0-.7696509.2959309-.7696509.6535473v15.693471z" fill="#f4bc5f"/></g><g><g><g><path d="m3.7375281 16.2188759v2.9420204c0 1.4581928 1.1821563 2.6402931 2.6403482 2.6402931s2.6401272-1.1821003 2.6401272-2.6402931v-2.9420204z" fill="#fc4a32"/></g><g><path d="m9.0180035 16.2188759v2.9420204c0 1.4581928 1.1821566 2.6402931 2.6403484 2.6402931s2.6403484-1.1821003 2.6403484-2.6402931v-2.9420204z" fill="#d5d3d4"/></g><g><path d="m14.2987003 16.2188759v2.9420204c0 1.4581928 1.1819353 2.6402931 2.6401272 2.6402931s2.6403484-1.1821003 2.6403484-2.6402931v-2.9420204z" fill="#fc4a32"/></g><g><path d="m19.5791759 16.2188759v2.9420204c0 1.4581928 1.1821556 2.6402931 2.6403484 2.6402931 1.4581909 0 2.6401272-1.1821003 2.6401272-2.6402931v-2.9420204z" fill="#d5d3d4"/></g><g><path d="m24.8596516 16.2188759v2.9420204c0 1.4581928 1.1821575 2.6402931 2.6403484 2.6402931s2.6403484-1.1821003 2.6403484-2.6402931v-2.9420204z" fill="#fc4a32"/></g><g><path d="m30.1403484 16.2188759v2.9420204c0 1.4581928 1.1819363 2.6402931 2.6401272 2.6402931s2.6403465-1.1821003 2.6403465-2.6402931v-2.9420204z" fill="#d5d3d4"/></g><g><path d="m35.4208221 16.2188759v2.9420204c0 1.4581928 1.1821594 2.6402931 2.6403503 2.6402931s2.6401253-1.1821003 2.6401253-2.6402931v-2.9420204z" fill="#fc4a32"/></g><g><path d="m40.7012978 16.2188759v2.9420204c0 1.4581928 1.1821594 2.6402931 2.6403503 2.6402931s2.6403465-1.1821003 2.6403465-2.6402931v-2.9420204z" fill="#d5d3d4"/></g><g><path d="m45.9819946 16.2188759v2.9420204c0 1.4581928 1.1819382 2.6402931 2.6401291 2.6402931s2.6403465-1.1821003 2.6403465-2.6402931v-2.9420204z" fill="#fc4a32"/></g></g><g><g><path d="m9.0180035 16.2188759 5.280571-10.8251076h-1.6293736c-1.3330631 0-2.5724134.6856399-3.2807045 1.8149681l-5.6509686 9.0101395z" fill="#ff6252"/></g><g><path d="m14.2987003 16.2188759 3.7717991-10.8251076h-3.771925l-5.2805709 10.8251076z" fill="#e7e7e7"/></g><g><path d="m19.5791759 16.2188759 2.2630921-10.8251076h-3.7717686l-3.7717991 10.8251076z" fill="#ff6252"/></g><g><path d="m24.8596516 16.2188759.754385-10.8251076h-3.7717686l-2.2630921 10.8251076z" fill="#e7e7e7"/></g><g><path d="m30.1403484 16.2188759-.754385-10.8251076h-3.7719268l-.754385 10.8251076z" fill="#ff6252"/></g><g><path d="m35.4208221 16.2188759-2.263092-10.8251076h-3.7717667l.754385 10.8251076z" fill="#e7e7e7"/></g><g><path d="m40.7012978 16.2188759-3.7717972-10.8251076h-3.7717705l2.263092 10.8251076z" fill="#ff6252"/></g><g><path d="m45.9819946 16.2188759-5.2805671-10.8251076h-3.7719269l3.7717972 10.8251076z" fill="#e7e7e7"/></g><g><path d="m51.2624702 16.2188759-5.6509666-9.0101395c-.7082901-1.1293283-1.9476395-1.8149681-3.2807045-1.8149681h-1.6293716l5.2805672 10.8251076z" fill="#ff6252"/></g></g></g><g><g><path d="m27.318 25.956h11.21v23.65h-11.21z" fill="#63affa"/></g><g><path d="m16.458 25.956h11.3v23.65h-11.3z" fill="#63affa"/></g><g><path d="m27.75774 25.9562683v5.7099609l-11.2999878 12.6000367v-18.3099976z" fill="#82c8fb"/></g></g><g><g><path d="m27.318 25.956h11.21v23.65h-11.21z" fill="#63affa"/></g></g><g><path d="m38.5277596 25.9562683v6.8699951l-5.5599976 5.7899781-5.6500244 5.8800048v-18.539978z" fill="#82c8fb"/></g><g><g opacity=".2"><path d="m16.4577522 35.5462341v5.2600098l-.0800171.0599976v-5.2600098z" fill="#93d2f9"/></g><g opacity=".2"><path d="m16.4577522 42.5062561v2.289978l-.0800171.0599976v-2.289978z" fill="#93d2f9"/></g></g><g><g><path d="m39.0277596 25.9562683v23.5299683h-.5v.1199951h-.4899902v-23.1599732h-21.0700074v23.1599731h-.5100098v-.1199951h-.4899912v-23.5299682c0-.2800293.2299814-.5.4899912-.5h22.0700073c.2800293 0 .5000001.2199707.5000001.5z" fill="#e7e7e7"/></g></g><g><path d="m39.0277596 32.676239v5.7999878c-.0300293-.039978-.0800171-.0599976-.1199951-.0799561-.2600098-.1199951-.5499878-.1799927-.8699951-.210022v-5.710022c.330017.0500489.6599731.1100465.9899902.2000123z" fill="#e7e7e7"/></g><g><g><path d="m27.002 25.937h.987v23.669h-.987z" fill="#e7e7e7"/></g></g><g><g><path d="m25.6205559 39.9338799h-1.2341022c-.1837425 0-.332695-.1489525-.332695-.332695v-2.5472221c0-.1837387.1489525-.3326912.332695-.3326912h1.2341022c.1837425 0 .332695.1489525.332695.3326912v2.5472221c0 .1837425-.1489525.332695-.332695.332695z" fill="#e7e7e7"/></g><g><path d="m30.6135464 39.9338799h-1.2341022c-.1837425 0-.332695-.1489525-.332695-.332695v-2.5472221c0-.1837387.1489525-.3326912.332695-.3326912h1.2341022c.1837425 0 .332695.1489525.332695.3326912v2.5472221c0 .1837425-.1489525.332695-.332695.332695z" fill="#e7e7e7"/></g></g><g><path d="m11.6582661 47.5402336c-.828125 0-1.5-.671875-1.5-1.5v-15.4257812c0-.828125.671875-1.5 1.5-1.5s1.5.671875 1.5 1.5v15.4257813c0 .8281249-.671875 1.4999999-1.5 1.4999999z" fill="#f9d78d"/></g><g><path d="m6.8867817 15.2453117c-.1464844 0-.2939453-.0400391-.4277344-.1230469-.3769531-.2373047-.4912109-.734375-.2548828-1.1123047l4.5556641-7.2646484c.2373047-.3769531.734375-.4892578 1.1123047-.2548828.3769531.2373047.4912109.734375.2548828 1.1123047l-4.5556641 7.2646484c-.1533203.2441407-.4160156.3779297-.6845703.3779297z" fill="#ff736c"/></g></g></svg>