<?xml version="1.0" encoding="UTF-8"?>
<svg id="Layer_2" data-name="Layer 2" xmlns="http://www.w3.org/2000/svg" viewBox="0 0 292.34 44">
  <defs>
    <style>
      .cls-1 {
        fill: #00d300;
      }

      .cls-2 {
        fill: #5271ff;
      }
    </style>
  </defs>
  <g id="Layer_1-2" data-name="Layer 1">
    <g>
      <g>
        <path class="cls-2" d="M59.18,33.61V0h14.36v31.17h2.63c6.91,0,9.66-.98,11.61-3.18v14.79h-20.29c-6.36,0-8.31-2.69-8.31-9.17Z"/>
        <path class="cls-2" d="M89.31,34.1c0-4.83,2.81-9.59,14.79-11.37l3.06-.43c-.92-1.71-3.12-2.57-5.99-2.57-4.03,0-7.03,1.77-8.8,4.34v-14.91c2.44-.73,6.11-1.22,9.96-1.22,12.47,0,18.88,5.07,18.88,15.4v19.86c-2.75-1.34-4.83-2.14-7.27-2.14-4.46,0-7.33,2.93-13.38,2.93-7.15,0-11.24-4.03-11.24-9.9ZM107.77,31.53v-2.81l-1.34.24c-3.24.61-4.52,1.83-4.52,3.61s1.16,2.63,2.75,2.63,3.12-.92,3.12-3.67Z"/>
        <path class="cls-2" d="M131.91,10.88c4.89,0,7.15-2.93,13.32-2.93,4.16,0,7.15,1.34,8.92,4.46,3.42-2.81,6.97-4.46,12.22-4.46,8.74,0,13.87,4.77,13.87,13.75v21.08h-14.06v-18.64c0-2.81-1.41-3.91-3.3-3.91s-3.3,1.1-3.3,3.91v18.64h-14.06v-18.64c0-2.81-1.41-3.91-3.3-3.91s-3.3,1.1-3.3,3.91v18.64h-14.06V8.74c2.75,1.59,4.89,2.14,7.03,2.14Z"/>
        <path class="cls-2" d="M183.92,0h13.75v8.8c2.2-.61,4.16-.86,6.17-.86,9.9,0,16.19,6.11,16.19,16.32,0,11.49-7.88,17.72-22.61,18.52l-13.51.73V0ZM205.92,25.06c0-4.09-1.83-6.17-5.38-6.17-.98,0-2.02.12-2.87.37v13.14l1.59-.12c4.28-.31,6.66-2.32,6.66-7.21Z"/>
        <path class="cls-2" d="M221.87,27.07c0-11,7.64-17.91,19.8-17.91h2.57V0h13.75v43.21c-2.44-1.1-4.34-1.65-6.23-1.65-4.03,0-6.84,2.44-12.89,2.44-10.39,0-16.99-6.66-16.99-16.93ZM240.39,33c2.75,0,3.85-1.83,3.85-4.71v-8.74h-1.83c-3.73,0-6.42,1.77-6.42,7.21,0,4.03,1.71,6.23,4.4,6.23Z"/>
        <path class="cls-2" d="M260.44,34.1c0-4.83,2.81-9.59,14.79-11.37l3.06-.43c-.92-1.71-3.12-2.57-5.99-2.57-4.03,0-7.03,1.77-8.8,4.34v-14.91c2.44-.73,6.11-1.22,9.96-1.22,12.47,0,18.88,5.07,18.88,15.4v19.86c-2.75-1.34-4.83-2.14-7.27-2.14-4.46,0-7.33,2.93-13.38,2.93-7.15,0-11.24-4.03-11.24-9.9ZM278.89,31.53v-2.81l-1.34.24c-3.24.61-4.52,1.83-4.52,3.61s1.16,2.63,2.75,2.63,3.12-.92,3.12-3.67Z"/>
      </g>
      <path class="cls-1" d="M24.55,38.25c-.95-1.33-1.8-3.41-2.37-5.69l-5.31,10.71-7.01-5.02c-4.36-3.13-4.74-6.92-2.18-10.33.95-1.33,2.56-2.65,4.36-3.79l-12.04-1.9,2.65-8.15c1.61-5.21,5.02-6.64,9.1-5.31,1.42.47,3.03,1.42,4.64,2.65L14.6.72h8.63c5.31,0,7.87,2.75,7.87,7.11,0,1.42-.38,3.22-1.04,5.02l10.71-5.5,2.65,8.15c1.71,5.12-.19,8.34-4.27,9.67-1.52.47-3.6.66-5.78.57l8.63,8.53-6.92,5.02c-4.36,3.22-7.96,2.37-10.52-1.04Z"/>
    </g>
  </g>
</svg>