<svg id="Layer_1" enable-background="new 0 0 53 53" height="512" viewBox="0 0 53 53" width="512" xmlns="http://www.w3.org/2000/svg"><g id="_x31_5"><g><g><g><g><g><path d="m19.1724377 4.722362v42.953404c0 1.1638145-.9434586 2.1072731-2.1072731 2.1072731h-9.8378802c-1.163815 0-2.1072736-.9434586-2.1072736-2.1072731v-42.953404c0-1.163815.9434586-2.1072733 2.1072736-2.1072733h9.8378801c1.1638146 0 2.1072732.9434583 2.1072732 2.1072733z" fill="#fc6559"/></g></g><g><g><path d="m19.1727142 4.7210174v42.9535599c0 1.1630287-.9461613 2.1092529-2.1091309 2.1092529h-9.8365192c-1.1334929 0-2.0600433-.8969536-2.1093726-2.0107155h9.9351788c1.1629696 0 2.109251-.9461594 2.109251-2.1092529v-43.0520967c1.1137614.0493293 2.0105929.9757591 2.0105929 2.1092523z" fill="#f05543"/></g></g><g><g><g><path d="m15.7889585 41.4811859c0 2.0106544-1.6360512 3.6468239-3.6467648 3.6468239s-3.6370192-1.6361694-3.6370192-3.6468239 1.6263056-3.6369591 3.6370192-3.6369591 3.6467648 1.6263047 3.6467648 3.6369591z" fill="#e4e3ff"/></g></g></g><g><g opacity=".3"><g><g><path d="m5.953207 26.8956337v-.9385738c0-.3396988.2756038-.6153011.6153011-.6153011.3396978 0 .6153016.2756023.6153016.6153011v.9385738c0 .3396988-.2756038.6153011-.6153016.6153011-.3396973 0-.6153011-.2756023-.6153011-.6153011z" fill="#fff"/></g></g></g><g opacity=".3"><g><g><path d="m5.953207 24.3118496v-8.2617569c0-.3396969.2756038-.6153002.6153011-.6153002.3396978 0 .6153016.2756033.6153016.6153002v8.2617569c0 .3396969-.2756038.6153011-.6153016.6153011-.3396973 0-.6153011-.2756042-.6153011-.6153011z" fill="#fff"/></g></g></g></g><g><g opacity=".3"><g><g><path d="m7.4217858 4.2024808h.9385753c.3396969 0 .6153011.2756033.6153011.6153011s-.2756042.6153012-.6153011.6153012h-.9385753c-.3396978 0-.6153016-.2756033-.6153016-.6153011s.2756038-.6153012.6153016-.6153012z" fill="#fff"/></g></g></g><g opacity=".3"><g><g><path d="m10.0055704 4.2024808h5.7976933c.3396978 0 .6153021.2756033.6153021.6153011s-.2756042.6153011-.6153021.6153011h-5.7976933c-.3396969 0-.6153011-.2756033-.6153011-.6153011s.2756042-.6153011.6153011-.6153011z" fill="#fff"/></g></g></g></g></g><g><g><g><path d="m15.7849731 41.4778137c0 2.0100098-1.6298828 3.6499634-3.6398926 3.6499634-1.2600098 0-2.3601074-.6399536-3.0200195-1.6099854.5799561.3900146 1.2700195.6199951 2.0300293.6199951 2.0100098 0 3.6499023-1.6300049 3.6499023-3.6400146 0-.75-.2299805-1.4499512-.6098633-2.0199585.959961.6499634 1.5898438 1.75 1.5898438 3z" fill="#d0d0f7"/></g></g></g></g><g><g><g><path d="m33.4679985 4.722362v42.953404c0 1.1638145-.9434586 2.1072731-2.1072712 2.1072731h-9.8378792c-1.1638165 0-2.107275-.9434586-2.107275-2.1072731v-42.953404c0-1.163815.9434586-2.1072733 2.107275-2.1072733h9.8378792c1.1638126 0 2.1072712.9434583 2.1072712 2.1072733z" fill="#a2a2f9"/></g></g><g><g><path d="m33.468277 4.7210174v42.9535599c0 1.1630287-.9461594 2.1092529-2.1091309 2.1092529h-9.8365192c-1.1334934 0-2.0600433-.8969536-2.1093731-2.0107155h9.9351788c1.1629696 0 2.109251-.9461594 2.109251-2.1092529v-43.0520967c1.1137619.0493293 2.0105934.9757591 2.0105934 2.1092523z" fill="#7979f7"/></g></g><g><g><g><path d="m30.0845203 41.4811859c0 2.0106544-1.6360493 3.6468239-3.6467648 3.6468239s-3.6370182-1.6361694-3.6370182-3.6468239 1.6263046-3.6369591 3.6370182-3.6369591 3.6467648 1.6263047 3.6467648 3.6369591z" fill="#e4e3ff"/></g></g></g><g><g><g><path d="m30.0825043 41.4778137c0 2.0100098-1.6298828 3.6499634-3.6398926 3.6499634-1.2600098 0-2.3701172-.6399536-3.0200195-1.6099854.5799561.3900146 1.2700195.6199951 2.0300293.6199951 2.0100098 0 3.6499023-1.6300049 3.6499023-3.6400146 0-.75-.2299805-1.4499512-.6099854-2.0199585.9600831.6499634 1.5899659 1.75 1.5899659 3z" fill="#d0d0f7"/></g></g></g><g><g opacity=".3"><g><g><path d="m20.2487698 26.8956337v-.9385738c0-.3396988.2756042-.6153011.6153011-.6153011.3396988 0 .6153011.2756023.6153011.6153011v.9385738c0 .3396988-.2756023.6153011-.6153011.6153011-.3396969 0-.6153011-.2756023-.6153011-.6153011z" fill="#fff"/></g></g></g><g opacity=".3"><g><g><path d="m20.2487698 24.3118496v-8.2617569c0-.3396969.2756042-.6153002.6153011-.6153002.3396988 0 .6153011.2756033.6153011.6153002v8.2617569c0 .3396969-.2756023.6153011-.6153011.6153011-.3396969 0-.6153011-.2756042-.6153011-.6153011z" fill="#fff"/></g></g></g></g><g><g opacity=".3"><g><g><path d="m21.7173481 4.2024808h.9385757c.3396969 0 .6153011.2756033.6153011.6153011s-.2756042.6153011-.6153011.6153011h-.9385757c-.3396969 0-.6153011-.2756033-.6153011-.6153011s.2756042-.6153011.6153011-.6153011z" fill="#fff"/></g></g></g><g opacity=".3"><g><g><path d="m24.3011341 4.2024808h5.7976933c.3396969 0 .6153011.2756033.6153011.6153011s-.2756042.6153011-.6153011.6153011h-5.7976933c-.3396988 0-.6153011-.2756033-.6153011-.6153011s.2756023-.6153011.6153011-.6153011z" fill="#fff"/></g></g></g></g></g><g><g><g><path d="m47.7635651 4.722362v42.953404c0 1.1638145-.9434586 2.1072731-2.1072769 2.1072731h-9.8378792c-1.1638145 0-2.1072731-.9434586-2.1072731-2.1072731v-42.953404c0-1.163815.9434586-2.1072733 2.1072731-2.1072733h9.8378792c1.1638183 0 2.1072769.9434583 2.1072769 2.1072733z" fill="#f9b938"/></g></g><g><g><path d="m47.7638397 4.7210174v42.9535599c0 1.1630287-.9461594 2.1092529-2.1091309 2.1092529h-9.8365173c-1.1334953 0-2.0600433-.8969536-2.109375-2.0107155h9.9351807c1.1629677 0 2.1092491-.9461594 2.1092491-2.1092529v-43.0520967c1.1137619.0493293 2.0105934.9757591 2.0105934 2.1092523z" fill="#ecb021"/></g></g><g><g><g><path d="m36.6671944 8.381711v9.6855497c0 .6139164.4976768 1.1115932 1.1115952 1.1115932h5.9154396c.6139145 0 1.1115913-.4976768 1.1115913-1.1115932v-9.6855497c0-.6139159-.4976768-1.1115932-1.1115913-1.1115932h-5.9154396c-.6139184 0-1.1115952.4976773-1.1115952 1.1115932z" fill="#e4e3ff"/></g></g><g><g><path d="m36.6667137 18.0684624v-.0985985h5.8249588c.6110802 0 1.1038933-.4928131 1.1038933-1.1137619v-9.5835176h.0985374c.6112061 0 1.113884.4928122 1.113884 1.1137614v9.6821165c0 .6110821-.5026779 1.11376-1.113884 1.11376h-5.9137497c-.6109619.0000001-1.1136398-.5026779-1.1136398-1.1137599z" fill="#d0d0f7"/></g></g></g><g><g><g><path d="m22.3184223 8.381711v9.6855497c0 .6139164.4976768 1.1115932 1.1115932 1.1115932h5.9154396c.6139164 0 1.1115932-.4976768 1.1115932-1.1115932v-9.6855497c0-.6139159-.4976768-1.1115932-1.1115932-1.1115932h-5.9154396c-.6139163 0-1.1115932.4976773-1.1115932 1.1115932z" fill="#e4e3ff"/></g></g><g><g><path d="m22.3179417 18.0684624v-.0985985h5.8249569c.6110821 0 1.1038952-.4928131 1.1038952-1.1137619v-9.5835176h.0985394c.6112022 0 1.1138802.4928122 1.1138802 1.1137614v9.6821165c0 .6110821-.5026779 1.11376-1.1138802 1.11376h-5.9137516c-.610962.0000001-1.1136399-.5026779-1.1136399-1.1137599z" fill="#d0d0f7"/></g></g></g><g><g><g><path d="m8.0912495 8.381711v9.6855497c0 .6139164.4976778 1.1115932 1.1115932 1.1115932h5.9154396c.6139164 0 1.1115932-.4976768 1.1115932-1.1115932v-9.6855497c0-.6139159-.4976768-1.1115932-1.1115932-1.1115932h-5.9154396c-.6139154 0-1.1115932.4976773-1.1115932 1.1115932z" fill="#e4e3ff"/></g></g><g><g><path d="m8.0907688 18.0684624v-.0985985h5.8249569c.611083 0 1.1038961-.4928131 1.1038961-1.1137619v-9.5835176h.0985384c.6112022 0 1.1138802.4928122 1.1138802 1.1137614v9.6821165c0 .6110821-.5026779 1.11376-1.1138802 1.11376h-5.9137506c-.6109629.0000001-1.1136408-.5026779-1.1136408-1.1137599z" fill="#d0d0f7"/></g></g></g><g><g><g><path d="m44.380085 41.4811859c0 2.0106544-1.6360512 3.6468239-3.6467667 3.6468239-2.0107117 0-3.6370163-1.6361694-3.6370163-3.6468239s1.6263046-3.6369591 3.6370163-3.6369591c2.0107155 0 3.6467667 1.6263047 3.6467667 3.6369591z" fill="#e4e3ff"/></g></g></g><g><g><g><path d="m44.378067 41.4778137c0 2.0100098-1.6298828 3.6499634-3.6398926 3.6499634-1.2600098 0-2.3701172-.6399536-3.0200195-1.6099854.5799561.3900146 1.2700195.6199951 2.0300293.6199951 2.0100098 0 3.6499023-1.6300049 3.6499023-3.6400146 0-.75-.2299805-1.4499512-.6099854-2.0199585.9600831.6499634 1.5899659 1.75 1.5899659 3z" fill="#d0d0f7"/></g></g></g><g><g opacity=".3"><g><g><path d="m34.5443344 26.8956337v-.9385738c0-.3396988.2756004-.6153011.6152992-.6153011s.615303.2756023.615303.6153011v.9385738c0 .3396988-.2756042.6153011-.615303.6153011s-.6152992-.2756023-.6152992-.6153011z" fill="#fff"/></g></g></g><g opacity=".3"><g><g><path d="m34.5443344 24.3118496v-8.2617569c0-.3396969.2756004-.6153002.6152992-.6153002s.615303.2756033.615303.6153002v8.2617569c0 .3396969-.2756042.6153011-.615303.6153011s-.6152992-.2756042-.6152992-.6153011z" fill="#fff"/></g></g></g></g><g><g opacity=".3"><g><g><path d="m36.0129128 4.2024808h.9385757c.339695 0 .6152992.2756033.6152992.6153011s-.2756042.6153011-.6152992.6153011h-.9385757c-.3396988 0-.615303-.2756033-.615303-.6153011s.2756042-.6153011.615303-.6153011z" fill="#fff"/></g></g></g><g opacity=".3"><g><g><path d="m38.5966949 4.2024808h5.7976952c.3396988 0 .6152992.2756033.6152992.6153011s-.2756004.6153011-.6152992.6153011h-5.7976952c-.339695 0-.6152992-.2756033-.6152992-.6153011s.2756043-.6153011.6152992-.6153011z" fill="#fff"/></g></g></g></g></g></g><g><g><path d="m50.4550171 30.9782619v17.419981c0 1.0999756-.9000244 1.9899902-2 1.9899902h-43.9100342c-1.0998535 0-2-.8900146-2-1.9899902v-17.419981c0-1.1000366.9001465-1.9900513 2-1.9900513h43.9100342c1.0999756.0000001 2 .8900147 2 1.9900513z" fill="#b75f25"/></g></g><g><g><path d="m50.4550171 30.9862442v17.4039574c0 1.1034851-.8945503 1.9980316-1.9980316 1.9980316h-43.9139695c-1.1034832 0-1.998033-.8945465-1.998033-1.9980316v-.351944h26.500019c10.5210419 0 19.0500298-8.5289879 19.0500298-19.0500278v-.0000191h.3619537c1.1034813 0 1.9980316.8945503 1.9980316 1.9980335z" fill="#aa5821"/></g></g><g><g><path d="m37.5300293 38.7382088v1.8999634c0 .9300537-.75 1.6800537-1.6800537 1.6800537h-18.7000733c-.9299316 0-1.6799316-.75-1.6799316-1.6800537v-1.8999634c0-.9299927.75-1.6799927 1.6799316-1.6799927h18.7000732c.9300538 0 1.6800538.75 1.6800538 1.6799927z" fill="#f9b938"/></g></g><g><g><path d="m37.4650269 38.3182259c-.1300049-.039978-.2698975-.0599976-.4200439-.0599976h-18.6999513c-.9299316 0-1.6799316.75-1.6799316 1.6799927v1.9000244c0 .1499634.0200195.289978.0599365.4199829-.7299805-.1799927-1.2600098-.8399658-1.2600098-1.6199951v-1.9000244c0-.9299927.75-1.6799927 1.6800537-1.6799927h18.6999512c.7800293 0 1.4399414.5300293 1.6199952 1.2600098z" fill="#ecb021"/></g></g><g><g opacity=".3"><g><g><path d="m4.1772823 45.0575333v-.9385757c0-.3396988.2756038-.615303.6153016-.615303.3396974 0 .6153011.2756042.6153011.615303v.9385757c0 .339695-.2756038.6152992-.6153011.6152992-.3396978 0-.6153016-.2756043-.6153016-.6152992z" fill="#fff"/></g></g></g><g opacity=".3"><g><g><path d="m4.1772823 42.4737473v-8.2617569c0-.339695.2756038-.6152992.6153016-.6152992.3396974 0 .6153011.2756042.6153011.6152992v8.2617569c0 .3396988-.2756038.615303-.6153011.615303-.3396978 0-.6153016-.2756043-.6153016-.615303z" fill="#fff"/></g></g></g></g><g><g opacity=".3"><g><g><path d="m16.1653881 31.1156616h.9385738c.3396969 0 .6153011.2756023.6153011.6153011 0 .3396969-.2756042.6153011-.6153011.6153011h-.9385738c-.3396988 0-.6153021-.2756042-.6153021-.6153011 0-.3396987.2756033-.6153011.6153021-.6153011z" fill="#fff"/></g></g></g><g opacity=".3"><g><g><path d="m18.7491722 31.1156616h8.261755c.3396988 0 .615303.2756023.615303.6153011 0 .3396969-.2756042.6153011-.615303.6153011h-8.261755c-.3396969 0-.6153011-.2756042-.6153011-.6153011 0-.3396987.2756042-.6153011.6153011-.6153011z" fill="#fff"/></g></g></g></g></g></svg>