<svg id="Layer_1" enable-background="new 0 0 68 68" height="512" viewBox="0 0 68 68" width="512" xmlns="http://www.w3.org/2000/svg"><g id="Files"><g><g><g><g><path d="m60.8368111 64.1150131-12.7907219 1.8150482c-.9288254.1318054-1.7886391-.5143051-1.9204445-1.4431381l-8.3357811-58.741363c-.1318054-.9288278.5143051-1.7886398 1.4431343-1.9204438l12.7907181-1.8150501c.9288292-.1318039 1.7886429.5143116 1.9204483 1.4431396l8.3357811 58.7413635c.1318054.9288284-.514309 1.7886421-1.4431343 1.9204437z" fill="#748bfd"/></g><g><path d="m55.6891785 37.6301765-10.0670395 1.4285469c-.5005722.0710335-.9639473-.2771759-1.0349808-.7777443l-4.1015854-28.9034395c-.0710335-.5005703.2771721-.9639454.7777443-1.0349779l10.0670357-1.4285497c.5005722-.071033.9639473.2771759 1.0349808.7777462l4.1015854 28.9034386c.0710334.5005712-.2771721.9639463-.7777405 1.0349797z" fill="#f1f6fa"/></g><g><path d="m57.0577431 50.8896179c.3547173 2.4996758-1.3799133 4.8174591-3.8877182 5.1733246-2.4996758.3547134-4.8187828-1.387825-5.1735039-3.8875046-.3558884-2.5079079 1.3880119-4.8188095 3.8876877-5.1735229 2.5078048-.3558693 4.817646 1.3797951 5.1735344 3.8877029z" fill="#fff"/></g><g><path d="m56.4497452 50.9758797c.3071175 2.1642303-1.1947327 4.1709709-3.3659973 4.4790802-2.1642227.3071098-4.1721153-1.2015839-4.4792328-3.3658104-.3081322-2.1713562 1.2017441-4.172142 3.3659706-4.4792519 2.1712646-.3081131 4.1711311 1.1946297 4.4792595 3.3659821z" fill="#1d2943"/></g><g><path d="m52.5233231 54.1945305c-1.3144531 0-2.4462891-.9838867-2.6318359-2.2885742-.2060547-1.4526367.8085938-2.8027344 2.2617188-3.0087891.1289063-.0180664.2558594-.0273438.3818359-.0273438 1.3125 0 2.4423828.9838867 2.6279297 2.2890625.2060547 1.4526367-.8085938 2.8027344-2.2617188 3.0087891-.1269532.0180664-.2529297.0268555-.3779297.0268555z" fill="#4c5c75"/></g><g><g><path d="m51.0906334 11.7109175-8.2625122 1.1724806c-.1584435.0224838-.3051147-.0877333-.3275986-.2461758l-.2754555-1.9410934c-.0224838-.1584444.0877342-.3051157.2461777-.3275995l8.262516-1.1724806c.1584435-.0224838.3051147.0877333.3275986.2461767l.2754517 1.9410925c.0224838.1584444-.0877343.3051156-.2461777.3275995z" fill="#9ea9c9"/></g></g></g><g><g><path d="m54.5404091 35.5958138-8.3808365 1.18927c-.1257706.0178452-.2421951-.0696411-.2600441-.1954117-.0178452-.1257706.0696411-.2421989.1954117-.2600441l8.3808365-1.18927c.1257706-.017849.2421951.0696411.2600441.1954117.0178451.1257705-.0696411.2421951-.1954117.2600441z" fill="#c9cee2"/></g><g><path d="m54.1666451 32.9619408-8.3808365 1.18927c-.1257706.017849-.2421951-.0696411-.2600403-.1954117-.017849-.1257706.0696411-.2421951.1954079-.2600441l8.3808365-1.18927c.1257706-.0178452.2421951.0696411.2600441.1954117.0178451.1257705-.0696412.2421951-.1954117.2600441z" fill="#c9cee2"/></g><g><path d="m53.792881 30.3280697-8.3808327 1.18927c-.1257706.017849-.2421989-.0696411-.2600441-.1954117-.017849-.1257706.0696411-.2421951.1954117-.2600422l8.3808327-1.1892719c.1257706-.0178471.2421951.0696411.2600441.1954117v.0000019c.017849.1257687-.0696411.2421951-.1954117.2600422z" fill="#c9cee2"/></g><g><path d="m53.419117 27.6941986-8.3808327 1.18927c-.1257706.017849-.2421951-.0696411-.2600441-.1954117-.017849-.1257706.0696411-.2421951.1954117-.2600422l8.3808327-1.1892719c.1257706-.0178471.2421951.0696411.2600441.1954117.0178489.1257706-.0696412.242197-.1954117.2600441z" fill="#c9cee2"/></g><g><path d="m53.0453529 25.0603275-8.3808327 1.18927c-.1257706.0178471-.2421951-.0696411-.2600441-.1954117-.017849-.1257706.0696411-.2421951.1954117-.2600422l8.3808327-1.1892719c.1257706-.0178471.2421989.0696411.2600441.1954117.017849.1257706-.0696411.2421971-.1954117.2600441z" fill="#c9cee2"/></g><g><path d="m52.6715927 22.4264565-8.3808365 1.18927c-.1257706.0178471-.2421951-.0696411-.2600441-.1954117-.0178452-.1257706.0696411-.2421951.1954117-.2600441l8.3808365-1.18927c.1257706-.0178471.2421951.0696411.2600403.1954117.0178489.1257705-.0696411.2421951-.1954079.2600441z" fill="#c9cee2"/></g><g><path d="m52.2978287 19.7925854-8.3808365 1.18927c-.1257706.0178471-.2421951-.0696411-.2600441-.1954117-.0178452-.1257706.0696411-.242197.1954117-.2600441l8.3808365-1.18927c.1257706-.0178471.2421951.0696411.2600441.1954117.0178451.1257705-.0696412.2421951-.1954117.2600441z" fill="#c9cee2"/></g><g><path d="m51.9240646 17.1587124-8.3808365 1.1892719c-.1257668.0178471-.2421951-.0696411-.2600403-.1954117-.017849-.1257706.0696411-.242197.1954117-.2600441l8.3808327-1.18927c.1257706-.0178471.2421951.0696411.2600441.1954117.0178452.1257706-.0696411.2421951-.1954117.2600422z" fill="#c9cee2"/></g><g><path d="m51.5503006 14.5248423-8.3808327 1.189271c-.1257706.0178471-.2421989-.0696421-.2600441-.1954126-.017849-.1257706.0696411-.2421961.1954117-.2600431l8.3808327-1.189271c.1257706-.0178471.2421951.0696421.2600441.1954126.0178489.1257705-.0696411.242195-.1954117.2600431z" fill="#c9cee2"/></g></g></g><g><g><g><path d="m36.1685066 66.0069962h-12.7233581c-.9239349 0-1.6729336-.7490005-1.6729336-1.6729355v-60.6541312c0-.9239354.7489986-1.6729331 1.6729336-1.6729331h12.7233582c.9239349 0 1.6729317.7489977 1.6729317 1.6729331v60.6541328c-.0000001.9239333-.7489968 1.6729339-1.6729318 1.6729339z" fill="#f45170"/></g><g><path d="m34.8138351 37.2472496h-10.014019c-.4979324 0-.9015865-.403656-.9015865-.9015884v-28.7511945c0-.4979329.4036541-.901588.9015865-.901588h10.014019c.4979362 0 .9015884.4036551.9015884.901588v28.751194c.0000001.4979329-.4036521.9015889-.9015884.9015889z" fill="#f1f6fa"/></g><g><path d="m34.3135757 52.864933c0 2.4865074-2.0121498 4.5065498-4.5067482 4.5065498-2.4865112 0-4.5067501-2.0200424-4.5067501-4.5065498 0-2.4946976 2.0202389-4.506752 4.5067501-4.506752 2.4945984 0 4.5067482 2.0120544 4.5067482 4.506752z" fill="#fff"/></g><g><path d="m33.7087822 52.8649178c0 2.1528282-1.7421265 3.901783-3.9019547 3.901783-2.1528282 0-3.9019585-1.7489548-3.9019585-3.901783 0-2.1599159 1.7491302-3.9019547 3.9019585-3.9019547 2.1598282 0 3.9019547 1.7420387 3.9019547 3.9019547z" fill="#1d2943"/></g><g><path d="m29.8065262 55.4669914c-1.4345703 0-2.6015625-1.1674805-2.6015625-2.6020508s1.1669922-2.6020508 2.6015625-2.6020508 2.6025391 1.1674805 2.6025391 2.6020508-1.1679688 2.6020508-2.6025391 2.6020508z" fill="#4c5c75"/></g><g><g><path d="m33.9119415 11.3371572h-8.2102299c-.1600304 0-.2897606-.1297312-.2897606-.2897615v-1.9220982c0-.1600313.1297302-.2897615.2897606-.2897615h8.2102299c.1600304 0 .2897606.1297302.2897606.2897615v1.9220982c0 .1600304-.1297302.2897615-.2897606.2897615z" fill="#9ea9c9"/></g></g></g><g><g><path d="m33.975174 35.1045914h-8.3366947c-.1251087 0-.2265282-.1014175-.2265282-.2265282 0-.1251068.1014194-.2265282.2265282-.2265282h8.3366947c.1251068 0 .2265282.1014214.2265282.2265282-.0000001.1251106-.1014214.2265282-.2265282.2265282z" fill="#c9cee2"/></g><g><path d="m33.975174 32.4845963h-8.3366947c-.1251087 0-.2265282-.1014214-.2265282-.2265282 0-.1251106.1014194-.2265282.2265282-.2265282h8.3366947c.1251068 0 .2265282.1014175.2265282.2265282-.0000001.1251068-.1014214.2265282-.2265282.2265282z" fill="#c9cee2"/></g><g><path d="m33.975174 29.8645973h-8.3366947c-.1251087 0-.2265282-.1014194-.2265282-.2265282 0-.1251087.1014194-.2265282.2265282-.2265282h8.3366947c.1251068 0 .2265282.1014194.2265282.2265282-.0000001.1251088-.1014214.2265282-.2265282.2265282z" fill="#c9cee2"/></g><g><path d="m33.975174 27.2446003h-8.3366947c-.1251087 0-.2265282-.1014214-.2265282-.2265282 0-.1251087.1014194-.2265282.2265282-.2265282h8.3366947c.1251068 0 .2265282.1014194.2265282.2265282-.0000001.1251068-.1014214.2265282-.2265282.2265282z" fill="#c9cee2"/></g><g><path d="m33.975174 24.6246014h-8.3366947c-.1251087 0-.2265282-.1014194-.2265282-.2265282 0-.1251068.1014194-.2265282.2265282-.2265282h8.3366947c.1251068 0 .2265282.1014214.2265282.2265282-.0000001.1251087-.1014214.2265282-.2265282.2265282z" fill="#c9cee2"/></g><g><path d="m33.975174 22.0046043h-8.3366947c-.1251087 0-.2265282-.1014194-.2265282-.2265282 0-.1251087.1014194-.2265282.2265282-.2265282h8.3366947c.1251068 0 .2265282.1014194.2265282.2265282-.0000001.1251088-.1014214.2265282-.2265282.2265282z" fill="#c9cee2"/></g><g><path d="m33.975174 19.3846073h-8.3366947c-.1251087 0-.2265282-.1014214-.2265282-.2265282v-.0000019c0-.1251068.1014194-.2265263.2265282-.2265263h8.3366947c.1251068 0 .2265282.1014194.2265282.2265263v.0000019c-.0000001.1251069-.1014214.2265282-.2265282.2265282z" fill="#c9cee2"/></g><g><path d="m33.975174 16.7646084h-8.3366947c-.1251087 0-.2265282-.1014194-.2265282-.2265282 0-.1251087.1014194-.2265282.2265282-.2265282h8.3366947c.1251068 0 .2265282.1014194.2265282.2265282-.0000001.1251087-.1014214.2265282-.2265282.2265282z" fill="#c9cee2"/></g><g><path d="m33.975174 14.1446114h-8.3366947c-.1251087 0-.2265282-.1014204-.2265282-.2265282v-.000001c0-.1251078.1014194-.2265272.2265282-.2265272h8.3366947c.1251068 0 .2265282.1014194.2265282.2265272v.000001c-.0000001.1251078-.1014214.2265282-.2265282.2265282z" fill="#c9cee2"/></g></g></g><g><g><g><path d="m20.0992832 66.0069962h-12.7233572c-.9239354 0-1.6729331-.7490005-1.6729331-1.6729355v-60.6541312c0-.9239354.7489977-1.6729331 1.6729331-1.6729331h12.7233572c.9239349 0 1.6729317.7489977 1.6729317 1.6729331v60.6541328c0 .9239333-.7489967 1.6729339-1.6729317 1.6729339z" fill="#ffd06c"/></g><g><path d="m18.7446136 37.2472496h-10.014019c-.4979334 0-.9015884-.403656-.9015884-.9015884v-28.7511945c0-.4979329.4036551-.901588.9015884-.901588h10.014019c.4979343 0 .9015884.4036551.9015884.901588v28.751194c.0000001.4979329-.403654.9015889-.9015884.9015889z" fill="#f1f6fa"/></g><g><path d="m18.2443542 52.864933c0 2.4865074-2.0121517 4.5065498-4.5067501 4.5065498-2.4865103 0-4.5067501-2.0200424-4.5067501-4.5065498 0-2.4946976 2.0202398-4.506752 4.5067501-4.506752 2.4945984 0 4.5067501 2.0120544 4.5067501 4.506752z" fill="#fff"/></g><g><path d="m17.6395607 52.8649178c0 2.1528282-1.7421265 3.901783-3.9019566 3.901783-2.1528273 0-3.9019566-1.7489548-3.9019566-3.901783 0-2.1599159 1.7491293-3.9019547 3.9019566-3.9019547 2.1598301 0 3.9019566 1.7420387 3.9019566 3.9019547z" fill="#1d2943"/></g><g><path d="m13.7371912 55.4669914c-1.4345703 0-2.6015625-1.1674805-2.6015625-2.6020508s1.1669922-2.6020508 2.6015625-2.6020508 2.6025381 1.1674805 2.6025381 2.6020508-1.1679678 2.6020508-2.6025381 2.6020508z" fill="#4c5c75"/></g><g><g><path d="m17.8427181 11.3371572h-8.210228c-.1600313 0-.2897625-.1297312-.2897625-.2897615v-1.9220982c0-.1600313.1297312-.2897615.2897625-.2897615h8.210228c.1600323 0 .2897625.1297302.2897625.2897615v1.9220982c0 .1600304-.1297302.2897615-.2897625.2897615z" fill="#9ea9c9"/></g></g></g><g><g><path d="m17.9059525 35.1045914h-8.3366967c-.1251078 0-.2265282-.1014175-.2265282-.2265282 0-.1251068.1014204-.2265282.2265282-.2265282h8.3366966c.1251087 0 .2265282.1014214.2265282.2265282 0 .1251106-.1014194.2265282-.2265281.2265282z" fill="#c9cee2"/></g><g><path d="m17.9059525 32.4845963h-8.3366967c-.1251078 0-.2265282-.1014214-.2265282-.2265282 0-.1251106.1014204-.2265282.2265282-.2265282h8.3366966c.1251087 0 .2265282.1014175.2265282.2265282 0 .1251068-.1014194.2265282-.2265281.2265282z" fill="#c9cee2"/></g><g><path d="m17.9059525 29.8645973h-8.3366967c-.1251078 0-.2265282-.1014194-.2265282-.2265282 0-.1251087.1014204-.2265282.2265282-.2265282h8.3366966c.1251087 0 .2265282.1014194.2265282.2265282 0 .1251088-.1014194.2265282-.2265281.2265282z" fill="#c9cee2"/></g><g><path d="m17.9059525 27.2446003h-8.3366967c-.1251078 0-.2265282-.1014214-.2265282-.2265282 0-.1251087.1014204-.2265282.2265282-.2265282h8.3366966c.1251087 0 .2265282.1014194.2265282.2265282 0 .1251068-.1014194.2265282-.2265281.2265282z" fill="#c9cee2"/></g><g><path d="m17.9059525 24.6246014h-8.3366967c-.1251078 0-.2265282-.1014194-.2265282-.2265282 0-.1251068.1014204-.2265282.2265282-.2265282h8.3366966c.1251087 0 .2265282.1014214.2265282.2265282 0 .1251087-.1014194.2265282-.2265281.2265282z" fill="#c9cee2"/></g><g><path d="m17.9059525 22.0046043h-8.3366967c-.1251078 0-.2265282-.1014194-.2265282-.2265282 0-.1251087.1014204-.2265282.2265282-.2265282h8.3366966c.1251087 0 .2265282.1014194.2265282.2265282 0 .1251088-.1014194.2265282-.2265281.2265282z" fill="#c9cee2"/></g><g><path d="m17.9059525 19.3846073h-8.3366967c-.1251078 0-.2265282-.1014214-.2265282-.2265282v-.0000019c0-.1251068.1014204-.2265263.2265282-.2265263h8.3366966c.1251087 0 .2265282.1014194.2265282.2265263v.0000019c0 .1251069-.1014194.2265282-.2265281.2265282z" fill="#c9cee2"/></g><g><path d="m17.9059525 16.7646084h-8.3366967c-.1251078 0-.2265282-.1014194-.2265282-.2265282 0-.1251087.1014204-.2265282.2265282-.2265282h8.3366966c.1251087 0 .2265282.1014194.2265282.2265282 0 .1251087-.1014194.2265282-.2265281.2265282z" fill="#c9cee2"/></g><g><path d="m17.9059525 14.1446114h-8.3366967c-.1251078 0-.2265282-.1014204-.2265282-.2265282v-.000001c0-.1251078.1014204-.2265272.2265282-.2265272h8.3366966c.1251087 0 .2265282.1014194.2265282.2265272v.000001c0 .1251078-.1014194.2265282-.2265281.2265282z" fill="#c9cee2"/></g></g></g></g></g></svg>