<svg id="Capa_1" enable-background="new 0 0 510 510" height="512" viewBox="0 0 510 510" width="512" xmlns="http://www.w3.org/2000/svg"><path d="m393.893 391.764c0 55.676-62.191 100.808-138.893 100.808s-138.893-45.132-138.893-100.808c0-55.686 62.191-100.817 138.893-100.817s138.893 45.132 138.893 100.817z" fill="#d8d2d7"/><path d="m393.893 391.764c0 55.676-62.191 100.808-138.893 100.808v-201.625c76.702 0 138.893 45.132 138.893 100.817z" fill="#b5adb6"/><path d="m14.962 22.003c-25.512 25.512-24.907 140.474 54.043 193.107l80.018-129.106c0 .001-108.549-89.513-134.061-64.001z" fill="#d8d2d7"/><path d="m495.038 22.003c25.512 25.512 24.907 140.474-54.043 193.108l-80.018-129.106s108.549-89.514 134.061-64.002z" fill="#804231"/><path d="m476.244 321.935c0 66.015-76.508 125.535-156.32 101.97-16.111-4.772-33.915-9.187-49.629-11.135-5.598-.693-10.442-1.04-15.295-1.04-4.823 0-9.667.347-15.295 1.04-15.703 1.948-33.487 6.363-49.598 11.115-79.71 23.555-156.35-35.904-156.35-101.949 0-19.395.867-38.259 2.651-56.45 12.736-129.399 72.45-224.65 203.052-231.206 5.068-.265 10.248-.388 15.54-.367 161.857-.001 221.244 126.217 221.244 288.022z" fill="#f4f1f4"/><path d="m476.244 321.935c0 66.015-76.508 125.535-156.32 101.97-16.111-4.772-33.915-9.187-49.629-11.135-5.598-.693-10.442-1.04-15.295-1.04v-377.818c161.854 0 221.244 126.217 221.244 288.023z" fill="#d8d2d7"/><path d="m36.407 265.485c12.736-129.399 72.45-224.65 203.052-231.206 5.65 119.815-85.623 221.754-203.052 231.206z" fill="#b35f49"/><path d="m366.491 147.642c-8.284 0-15 6.716-15 15v8.078c0 8.284 6.716 15 15 15s15-6.716 15-15v-8.078c0-8.284-6.716-15-15-15z" fill="#40383f"/><path d="m143.518 147.642c-8.284 0-15 6.716-15 15v8.078c0 8.284 6.716 15 15 15s15-6.716 15-15v-8.078c0-8.284-6.716-15-15-15z" fill="#40383f"/><path d="m270.295 317.694v95.076c-5.629-.693-10.472-1.04-15.295-1.04-4.854 0-9.697.347-15.295 1.04v-95.076z" fill="#b5adb6"/><path d="m270.295 317.694v95.076c-5.629-.693-10.472-1.04-15.295-1.04v-94.036z" fill="#918291"/><path d="m313.303 292.607c0 23.13-26.104 58.973-58.303 58.973s-58.303-35.842-58.303-58.973 26.104-42.107 58.303-42.107 58.303 18.977 58.303 42.107z" fill="#685e68"/><path d="m313.303 292.607c0 23.13-26.104 58.973-58.303 58.973v-101.08c32.199 0 58.303 18.977 58.303 42.107z" fill="#40383f"/></svg>