<svg id="Layer_1" enable-background="new 0 0 53 53" height="512" viewBox="0 0 53 53" width="512" xmlns="http://www.w3.org/2000/svg"><g id="_x33_96"><g><path d="m42.7181206 20.7055016v14.2700195c0 7.5799561-35.1199951 7.5799561-35.1199951 0v-14.2700195z" fill="#474646"/></g><g><path d="m42.7181206 22.3854942v1.2800293l-16.8898926 4.3499756c-.4400635.1199951-.9101563.1199951-1.3500977 0l-16.8800044-4.3499756v-1.2800293l16.8800049 4.3499756c.4399414.1100464.9100342.1100464 1.3500977 0z" fill="#2d2c2c"/></g><g opacity=".2"><path d="m10.8926811 34.7901077c-.4140625 0-.75-.3359375-.75-.75v-2.8051777c0-.4140625.3359375-.75.75-.75s.75.3359375.75.75v2.8051777c0 .4140625-.3359375.75-.75.75z" fill="#fff"/></g><g opacity=".2"><g><path d="m10.8926811 28.6418419c-.4140625 0-.75-.3359375-.75-.75v-.6040039c0-.4140625.3359375-.75.75-.75s.75.3359375.75.75v.6040039c0 .4140625-.3359375.75-.75.75z" fill="#fff"/></g></g><g><path d="m42.7181206 20.7055016v14.2700195c0 7.3099976-32.6999512 7.5699463-34.9899902.7699585 6.5600581 5.0499878 33.6999512 4.2399902 33.6999512-2.4199829 0-3.1549988 0-12.6199951 0-12.6199951z" fill="#2d2c2c"/></g><g><path d="m49.153759 18.9590416v1.3522034h-.0131416c-.0261192.2624912-.1967888.4988632-.4855614.5644855l-22.8292732 5.8812313c-.4331608.118187-.9059029.118187-1.3522034 0l-22.8029922-5.8812313c-.3281952-.078764-.4988631-.3544769-.5120037-.630188 0-.0130615 0-.0130615 0-.0262012v-1.2602997c0 .275713.1706679.5513458.5120037.6432514l22.8029919 5.8813114c.4463005.1049633.9190426.1049633 1.3522034 0l22.8292735-5.8813114c.3281937-.0919056.498703-.3675384.498703-.6432514z" fill="#1b1b1b"/></g><g><path d="m48.6533241 19.6025105-22.8224239 5.87644c-.4447002.114502-.9111595.1144733-1.3558464-.0000839l-22.8105194-5.8763752c-.6736131-.1735344-.6735548-1.1301975.0000795-1.3036499l22.8107624-5.8734713c.4444809-.1144485.9107075-.1144772 1.3552017-.0000839l22.8226662 5.8735342c.673744.1733913.6738012 1.1302185.0000799 1.30369z" fill="#474646"/></g><g opacity=".2"><g><path d="m12.0010796 18.202877c-.2226563 0-.4257813-.1499023-.484375-.3754883-.0683594-.2670898.0917969-.5400391.359375-.6088867l1.2363281-.3183594c.2705078-.0703125.5400391.0927734.609375.3598633.0683594.2670898-.0917969.5400391-.359375.6088867l-1.2363281.3183594c-.0419922.0107422-.0839844.015625-.125.015625z" fill="#fff"/></g></g><g opacity=".2"><g><path d="m15.859478 17.2092247c-.2226563 0-.4257813-.1499023-.484375-.3754883-.0683594-.2670898.0927734-.5400391.359375-.6088867l7.875-2.0273447c.2695313-.0703125.5400391.0927734.609375.3598633.0683594.2670898-.0927734.5400391-.359375.6088867l-7.875 2.0273447c-.0419922.0107422-.0839844.015625-.125.015625z" fill="#fff"/></g></g><g><path d="m49.1539726 28.2654495c-.2763672 0-.5-.2236328-.5-.5v-6.8149414c0-.8261719-.6728516-1.4985352-1.4990234-1.4985352h-21.9990254c-.2763672 0-.5-.2236328-.5-.5s.2236328-.5.5-.5h21.9990253c1.3779297 0 2.4990234 1.1206055 2.4990234 2.4985352v6.8149414c.0000001.2763672-.2236327.5-.4999999.5z" fill="#f9b938"/></g><g><path d="m51.0882378 35.6954918h-3.8701172c-.4899902 0-.8499756-.460022-.7299805-.9400024l1.1899414-4.5899658c-.25-.3100586-.3898926-.710022-.3898926-1.1300049 0-1.0300293.8399658-1.8699951 1.869873-1.8699951 1.0200195 0 1.8601074.8399658 1.8601074 1.8699951 0 .4199829-.1400146.8199463-.3900146 1.1300049l1.1900635 4.5899658c.1198731.4799804-.2399902.9400024-.7299804.9400024z" fill="#f9b938"/></g><g><path d="m51.0882378 35.6954918h-.7900391c.4899902 0 .8499756-.460022.7299805-.9400024l-1.0646057-4.1065063c-.0677567-.2613544-.0542831-.5421352.0680733-.782814.1275558-.250906.1964836-.5358467.1964836-.8306503 0-.8900146-.6300049-1.6400146-1.4699707-1.8200073.1300049-.0400391.2600098-.0499878.3999023-.0499878 1.0200195 0 1.8601074.8399658 1.8601074 1.8699951 0 .4199829-.1400146.8199463-.3900146 1.1300049l1.1900635 4.5899658c.119873.4799803-.2399903.9400023-.7299805.9400023z" fill="#ecb021"/></g><g><path d="m28.4831123 18.9659328c0 .7756214-1.4959583 1.3989086-3.3243122 1.3989086-1.8418789 0-3.3239727-.6232872-3.3239727-1.3989086 0-.7894859 1.4820938-1.4126892 3.3239727-1.4126892 1.8283539 0 3.3243122.6232033 3.3243122 1.4126892z" fill="#f9b938"/></g><g><path d="m28.4781303 18.9655113c0 .7799683-1.4899902 1.3999634-3.3200684 1.3999634-1.3598633 0-2.5198975-.3399658-3.0299072-.8299561.5699463.1999512 1.3099365.3199463 2.1099854.3199463 1.8200684 0 3.3200684-.6199951 3.3200684-1.3999634 0-.2000122-.1000977-.3900146-.2600098-.5599976.7199707.2500001 1.1799316.630005 1.1799316 1.0700074z" fill="#ecb021"/></g></g></svg>