<svg id="Layer_1" enable-background="new 0 0 53 53" height="512" viewBox="0 0 53 53" width="512" xmlns="http://www.w3.org/2000/svg"><g id="_x33_29"><g><path d="m16.7998543 7.4917307v3.1400146l-7.9399414 7.1699839v-10.3099985z" fill="#fc6559"/></g><g><path d="m16.7998543 7.4917307v3.1400146l-7.9399414 7.1699839v-.2900391l6.1131277-5.522521c.4563046-.412219.7167063-.9983883.7167063-1.6133175v-.0000038c0-1.2007532-.973403-2.1741562-2.1741562-2.1741562h-4.6556778v-.7099609z" fill="#f05543"/></g><g><path d="m44.6897469 28.601717v16.9500103c0 2.3399658-1.8999023 4.2399902-4.25 4.2399902h-27.8798829c-2.3500977 0-4.25-1.9000244-4.25-4.2399902v-16.9500103c.0999756-.0700073.1899414-.1400146.2900391-.2299805l17.8999023-16.1600342 17.9000244 16.1600342c.0999757.0899658.1900635.1599732.2899171.2299805z" fill="#e4e3ff"/></g><g><path d="m44.6897469 28.601717v16.9500103c0 2.3399658-1.8999023 4.2399902-4.25 4.2399902h-27.8798829c-1.75 0-3.2600098-1.0599976-3.9100342-2.5700073.5799561.2999878 1.2299805.460022 1.9200439.460022h27.8798828c2.3500977 0 4.25-1.9000244 4.25-4.2399902v-16.6000348l1.7000732 1.5300293c.0999758.0899658.1900636.1599732.2899172.2299805z" fill="#d0d0f7"/></g><g><g><path d="m44.6897469 28.601717v2.6400146c-.0998535-.0700073-.1999512-.1500244-.289917-.2300415l-17.9000244-16.1699838-17.8999024 16.1699838c-.0900879.0900269-.1900635.1600342-.2900391.2400513v-2.6500244c.0999756-.0700073.1899414-.1400146.2900391-.2299805l17.8999023-16.1600342 17.9000244 16.1600342c.0999757.0899658.1900635.1599732.2899171.2299805z" fill="#d0d0f7"/></g></g><g><g><path d="m46.9703598 29.3621769c-.9158249 0-1.83498-.3260708-2.5678101-.9881935l-17.9031314-16.1679697-17.9023009 16.1679697c-1.5704651 1.4182415-3.9943709 1.2951336-5.4134459-.2753315-1.4182428-1.5712967-1.2951343-3.995203.2761624-5.4142761l20.4701111-18.4878993c1.4606647-1.3175933 3.6791134-1.3175933 5.1381149 0l20.4717731 18.4878998c1.5712967 1.4190731 1.69524 3.8429794.276165 5.4134445-.7569503.838468-1.7992133 1.2643561-2.8456382 1.2643561z" fill="#fc6559"/></g></g><g opacity=".3"><g><g><path d="m11.5266609 19.3940754c-.2773438-.3076172-.2539063-.7822266.0537109-1.0595703l4.7167969-4.2597666c.3076172-.2773438.78125-.2548828 1.0595703.0537109.2773438.3076172.2539063.7822266-.0537109 1.0595703l-4.7167969 4.2597666c-.3062477.2770806-.7811393.2540284-1.0595703-.0537109z" fill="#fff"/></g></g><g><g><path d="m19.0793953 12.5737619c-.2773438-.3076172-.2539063-.78125.0537109-1.0595703l1.2900391-1.1660156c.3076172-.2773438.78125-.2539063 1.0595703.0537109.2773438.3076172.2539063.78125-.0537109 1.0595703l-1.2900391 1.1660156c-.3062477.2770816-.7811394.2540294-1.0595703-.0537109z" fill="#fff"/></g></g></g><g><g><path d="m49.8198738 28.101717c-.7600098.8300171-1.8000488 1.2600098-2.8500977 1.2600098-.9199219 0-1.8299561-.3300171-2.5699463-.9899902l-17.9000243-16.170045-17.8999024 16.1700449c-1.5700684 1.4199829-4 1.2999878-5.420166-.2700195-.8999023-1-1.1799315-2.3599854-.8398438-3.5700073.1499023.5599976.4299316 1.0900269.8398438 1.5499878 1.420166 1.5700073 3.8500977 1.6900024 5.420166.2700195l17.2496548-15.5825787c.3693104-.3336191.9311848-.3336201 1.3004971-.0000029l17.2497749 15.5825816c.7399902.6599731 1.6500244.9899902 2.5699463.9899902 1.0500488 0 2.0900879-.4299927 2.8500977-1.2600098.4099121-.4599609.6999512-.9899902.8499756-1.539978.329956 1.210022.0499267 2.5599976-.8499757 3.5599976z" fill="#f05543"/></g></g><g><path d="m17.9057064 6.7509332v-2.6144495c0-.4094486-.3319244-.7413726-.7413731-.7413726h-8.6688995c-.4094486 0-.7413731.331924-.7413731.7413726v2.6144495c0 .4094486.3319244.7413726.7413731.7413726h8.6688995c.4094487 0 .7413731-.331924.7413731-.7413726z" fill="#fc6559"/></g><g><path d="m32.9109154 39.2799721v10.5084343h-12.8224354v-10.5084343c0-3.5408134 2.8703957-6.4112091 6.4112091-6.4112091h.0000134c3.5408134 0 6.4112129 2.8703956 6.4112129 6.4112091z" fill="#474646"/></g><g><path d="m31.0845547 34.8014832c-.8053398-.3751869-1.7021732-.5765495-2.6448097-.5765495-3.5416431 0-6.4151287 2.8644371-6.4151287 6.4060783v9.1607056h-1.9402351v-10.5151139c0-3.5416451 2.8735981-6.4060822 6.4152412-6.4060822 1.7753468 0 3.3768673.7137909 4.5391312 1.8760567.01832.0183182.036642.036583.0458011.054905z" fill="#1b1b1b"/></g><g><path d="m31.5904617 24.0227528c0 2.6463947-2.1442108 4.7906685-4.7906036 4.7906685s-4.7907333-2.1442738-4.7907333-4.7906685c0-2.6463299 2.1443386-4.8010731 4.7907333-4.8010731s4.7906036 2.1547432 4.7906036 4.8010731z" fill="#474646"/></g><g><path d="m30.9901447 21.7002583c-.8335476-.6871052-1.9035988-1.103878-3.052578-1.103878-2.6472187 0-4.787323 2.1514492-4.787323 4.7985973 0 .8335457.2139549 1.6333351.5970402 2.3204403-1.0589142-.8786469-1.734745-2.2078247-1.734745-3.6947193 0-2.6470795 2.1401062-4.7985287 4.787323-4.7985287 1.8022595 0 3.3792858 1.00247 4.1902828 2.4780884z" fill="#1b1b1b"/></g></g></svg>