<svg id="Layer_1" enable-background="new 0 0 53 53" height="512" viewBox="0 0 53 53" width="512" xmlns="http://www.w3.org/2000/svg"><g id="_x33_78"><g><path d="m33.6026459 7.4066639c-6.8843136-6.501332-18.4000664-6.7599756-25.6799331.5200195-6.880127 6.8800049-7.2099609 17.8300781-1 25.1099873.1599121.1900635.3200684.3800049.4899902.5599365.1699219.1900635.3400879.3701172.5200195.5500488 6.2561612 6.256443 15.8388023 7.0819473 22.9199219 2.6300049.7455692-.4317245 2.1273212-1.4472694 3.3000507-2.6199951 7.5419651-7.2273998 7.0348011-20.3594227-.5500492-26.7500019zm-3.7199726 22.4799805c-4.7886295 4.7780247-12.3116188 4.7626019-17.0300293.6000977-5.8223066-5.2956486-5.4729486-13.4619465-.6599121-18.2900391 4.8898916-4.8900146 12.8100576-4.8800049 17.6899414 0 4.8523082 4.8523063 4.8976802 12.7813663 0 17.6899414z" fill="#474646"/></g><g><path d="m34.1483078 34.1580658c-7.2399902 7.2399902-18.9799805 7.2299805-26.2199707-.0100098-.3598633-.3600464-.6999512-.7300415-1.0100098-1.1100464 7.2800298 6.210022 18.2299805 5.8800049 25.1101074-1 6.8898926-6.8899517 7.2199707-17.8399639 1.0100098-25.1199932.3798828.3099976.75.6500244 1.1098633 1.0100098 7.2401123 7.2399902 7.25 18.9800415 0 26.2300396z" fill="#2d2c2c"/></g><g opacity=".2"><g><path d="m6.3780446 28.0844593c-2.9941404-6.2265625-1.7314453-13.6835938 3.141602-18.5566406.3115234-.3120117.6337891-.6088867.9648438-.8911133.3134766-.2675781.7871094-.2324219 1.0566406.0839844.2695313.3154297.2314453.7885742-.0839844 1.0576172-.2998047.2558594-.5927734.5253906-.8759766.8095703-4.4238286 4.4238281-5.5693364 11.1933594-2.851563 16.8461914.1796875.3735352.0224609.8217773-.3505859 1.0009766-.3715719.1788406-.8213929.0235462-1.0009765-.350586z" fill="#fff"/></g></g><g opacity=".2"><g><path d="m14.5831232 7.6557484c-.2841797 0-.5566406-.1625977-.6826172-.4384766-.171875-.3769531-.0058594-.8217773.3710938-.9936523 1.2050781-.5498047 2.4794912-.9516602 3.788085-1.1938477.4013672-.0756836.7988281.1928711.8740234.6005859.0751953.4072266-.1933594.7988281-.6005859.8740234-1.1884766.2202148-2.3457022.5849609-3.4384756 1.0834961-.1015626.0463868-.2070313.0678712-.3115235.0678712z" fill="#fff"/></g></g><g><path d="m48.5961647 39.4625511c2.5217361 2.5217361 2.5300446 6.6216965.0083084 9.1434326-2.529995 2.529995-6.6299553 2.5216866-9.1516914-.0000496-1.3109169-1.3109169-4.1332397-5.235508-6.1957359-9.0681076.0668678-.050148.1253738-.1086578.1837807-.1670609l5.9285278-5.9285278c.058506-.058506.1169128-.1169128.1585999-.1753197 3.8327025 2.0623933 7.7572936 4.8847161 9.0682105 6.195633z" fill="#7979f7"/></g><g opacity=".3"><g><path d="m40.7774582 37.5224457c-.1337891 0-.2685547-.0356445-.390625-.1103516l-.2949219-.1796875c-.3544922-.2138672-.4697266-.6743164-.2558594-1.0292969s.6738281-.4702148 1.0292969-.2558594l.3046875.1855469c.3535156.2167969.4638672.6782227.2480469 1.0317383-.1416016.2304688-.3876953.3579102-.640625.3579102z" fill="#fff"/></g></g><g opacity=".3"><g><path d="m44.8077316 40.2309418c-.1552734 0-.3115234-.0478516-.4462891-.1474609-.5771484-.4282227-1.2392578-.8950195-1.9570313-1.3774414-.34375-.230957-.4355469-.6967773-.2050781-1.0405273.2314453-.34375.6982422-.4370117 1.0410156-.2045898.7392578.4960938 1.4208984.9765625 2.0146484 1.4174805.3330078.2470703.4033203.7167969.15625 1.0493164-.1474608.198242-.3740233.3032225-.6035155.3032225z" fill="#fff"/></g></g><g><path d="m48.6083908 48.608017c-2.5299072 2.5300293-6.6300049 2.5200195-9.1600342 0-1.3099365-1.3099976-4.1298828-5.2399902-6.1899414-9.0700073.0700684-.0499878.1199951-.1099854.1799316-.1699829l.9400635-.9400024c1.9400635 3.3099976 4.2199707 6.4299927 5.3599854 7.5700073 2.5200195 2.5200195 6.6199951 2.5300293 9.1500244 0 .75-.75 1.2799072-1.6500244 1.5799561-2.5999756.1799316 1.8599853-.4399414 3.789978-1.8599854 5.2099609z" fill="#5e5eef"/></g><g><path d="m38.3198166 27.7843475 1.202919 1.202919c1.1238708 1.1238708 1.1941299 2.9150677.166832 4.1180382-.0438385.0614166-.1052551.1228333-.1667786.1843567l-6.234108 6.234108c-.0614166.0614166-.1229401.1229401-.1932526.1756744-1.2029724 1.0097198-2.9941673.9570427-4.1180382-.166832l-1.202919-1.202919c1.29949-.5093346 2.5464096-1.1591339 3.722908-1.9668159.9308357-.632328 1.8263512-1.3698578 2.6516647-2.1951675.8342056-.8342094 1.5630531-1.7210464 2.2039566-2.6604538.8078958-1.176714 1.4662706-2.4322052 1.9668161-3.7229081z" fill="#f9b938"/></g><g><path d="m39.6883469 33.108017c-.0400391.0599976-.0999756.1199951-.1699219.1799927l-6.2299805 6.2400513c-.0600586.0599976-.1201172.1199951-.1900635.1699829-1.2099609 1.0100098-3 .960022-4.1199951-.1699829l-1.1999512-1.2000122c.3000488-.1199951.6099854-.25.8999023-.3800049l.3000488.2999878c1.1199951 1.1300049 2.9100342 1.1799927 4.1199951.1699829.0699463-.0499878.1300049-.1199951.1900635-.1799927l6.2299805-6.2299805c.0699463-.0599957.1298828-.1199932.1699219-.1900005.3400879-.3900146.5600586-.8499756.6600342-1.3200073.1900635.8900146-.0198974 1.8599834-.6600341 2.6099834z" fill="#e5a320"/></g></g></svg>