<svg id="Layer_1" enable-background="new 0 0 53 53" height="512" viewBox="0 0 53 53" width="512" xmlns="http://www.w3.org/2000/svg"><g id="_x32_66"><g><g><path d="m41.4551773 37.5354691c-.25.5900269-.5299683 1.1699829-.8299561 1.7200317-1.6000366 2.9199829-3.960022 5.2799683-6.7800293 6.8799438-2.5899658 1.4500122-5.5599976 2.2600098-8.6699829 2.2600098-4.1500244 0-7.9700317-1.4499512-10.9899893-3.8599854-4.0400391-3.2299805-6.6300049-8.2000122-6.6300049-13.7600079 0-3.3999634.9899902-6.7000122 2.7999878-9.5100098.8400269-1.3199463 1.8599854-2.5199585 3.039978-3.5799561.0599976-.0700073.1300049-.1199951.1900024-.1799927l2.5499868 2.9199829.7400513.8399658c-1.0599966.9200439-1.9500113 2.0100098-2.6300039 3.1900024-1.1000366 1.9000244-1.6900024 4.0800171-1.6900024 6.3200073 0 4.0499859 1.9199829 7.670042 4.8999624 9.9800396 2.1300049 1.6599731 4.8099976 2.6399536 7.7200317 2.6399536 2.1699829 0 4.2399902-.5499878 6.0499878-1.539978 1.2399902-.6699829 2.3599854-1.5499878 3.3099976-2.5999756.9500122-1.0500488 1.7299805-2.2700195 2.2999878-3.6400146z" fill="#7979f7"/></g></g><g opacity=".3"><g><g><path d="m10.8567123 38.1879501c-.9518099-1.9759102-1.5360022-4.0835686-1.7360601-6.2639008-.0378885-.4120979.2657108-.7773018.6782808-.8156929.4107723-.0334511.7773323.2666855.8152208.6787834.1836672 2.0010719.7198982 3.9353485 1.5938587 5.7505455.1797781.3724556.0229158.8209724-.350029 1.0007668-.3733625.1797944-.8218936.0226632-1.0012712-.350502z" fill="#fff"/></g></g><g><g><path d="m9.8807573 29.610899c-.0292816.0009212-.0586262-.0001087-.0884886-.0021-.4124651-.0358658-.718462-.3984871-.6835718-.8109207.0281992-.3301525.0647564-.6586151.1091833-.9853706.0559063-.4121189.4345284-.7064056.8444691-.6421261.4101524.055481.6975756.433342.6420956.8434944-.0412598.3032055-.0747118.6061668-.1007814.9108486-.0328837.3830604-.3480912.6743736-.7229062.6861744z" fill="#fff"/></g></g></g><g><path d="m41.4551773 37.5354691c-.25.5900269-.5299683 1.1699829-.8299561 1.7200317h-6.0900269c.9500122-1.0500488 1.7299805-2.2700195 2.2999878-3.6400146z" fill="#5e5eef"/></g><g><path d="m32.5151749 21.3155003-6.1599731 6.1499634c-.8800049.8800049-2.2999878.8800049-3.1699829 0l-4.210022-4.2099609-2.8400269-2.8300172-4.919982-4.9199829-2.2099609-2.210022c-.8800049-.8800049-.8800049-2.2999878 0-3.1799927l6.1599731-6.1500244c.8699942-.8800049 2.2899771-.8800049 3.169982 0l14.1799927 14.1699829c.8699951.8800049.8699951 2.3000489 0 3.1800538z" fill="#7979f7"/></g><g><path d="m32.5151749 21.3155003-6.1599731 6.1499634c-.8800049.8800049-2.2999878.8800049-3.1699829 0l-14.1799918-14.169983c-.7700195-.7700195-.8699951-1.960022-.2800293-2.8400269.0800171.1100464.1799927.2300415.2800293.3300171l14.1799917 14.1799927c.8699951.8800049 2.289978.8800049 3.1699829 0l6.1599731-6.1599731c.1000366-.1000366.1900024-.2200317.2800293-.3300171.5800172.8800049.4799805 2.0700073-.2800292 2.8400269z" fill="#5e5eef"/></g><g><path d="m27.1161175 26.7086639 3.2611752 3.2611771c.4677467.4677448 1.2261124.4677448 1.6938591 0l2.9413223-2.9413242c.4677467-.4677467.4677467-1.2261124 0-1.6938572l-3.2611752-3.2611771z" fill="#474646"/></g><g><path d="m35.0166283 27.0273266-.0200195.0200195c-.0499878-.1000366-.1199951-.1900024-.1999512-.2800293l-1.0601006-1.0601006c-1.2149734-1.2149773-3.1848412-1.2149773-4.3998184 0l-1.6100864 1.6100883-.6099854-.6099854 4.6299438-4.6300049 3.2700176 3.2600098c.460022.4700319.460022 1.2200319.0000001 1.6900026z" fill="#2d2c2c"/></g><g><path d="m8.261 4.845h5.826v2.572h-5.826z" fill="#474646" transform="matrix(.707 -.707 .707 .707 -1.063 9.697)"/></g><g><path d="m14.1451807 4.9854827-.6499634.6499634-.3817501-.3844056c-.5783415-.582365-1.5197859-.5840006-2.1001472-.0036492l-2.4181271 2.4180841-.3899536-.3800049 4.1199341-4.1199951z" fill="#2d2c2c"/></g><g><path d="m5.7164702 7.8785353.0000019.0000019c.5222402.5222397 1.3689594.5222397 1.8911996 0l5.3134995-5.3134995c.5222397-.5222402.5222397-1.3689591 0-1.8911994l-.0000019-.0000019c-.5222406-.5222403-1.3689594-.5222403-1.8912001 0l-5.313499 5.3134995c-.5222401.5222399-.5222401 1.3689587 0 1.8911994z" fill="#7979f7"/></g><g opacity=".3"><g><path d="m8.3722315 4.5535369c-.0976563-.0976563-.0976563-.2558594 0-.3535156l1.4536133-1.4531248c.0976563-.0976563.2558594-.0976563.3535156 0s.0976563.2558594 0 .3535156l-1.4536133 1.4531248c-.0976591.0976591-.2558565.0976591-.3535156 0z" fill="#fff"/></g></g><g opacity=".3"><g><path d="m10.6344385 2.2918184c-.0976563-.0976563-.0976563-.2558594 0-.3535156l.2617188-.2617188c.0976563-.0976563.2558594-.0976563.3535156 0s.0976563.2558594 0 .3535156l-.2617188.2617188c-.0976591.0976591-.2558565.0976591-.3535156 0z" fill="#fff"/></g></g><g><path d="m12.92521 2.5655-5.3200073 5.3099973c-.5199585.5299687-1.3699951.5299687-1.8900146 0-.3199464-.3200073-.4400025-.7600097-.3699952-1.1700439.0599976.1400146.1500244.2700195.2700195.3900146.5200195.5200195 1.3599854.5200195 1.8900146 0l5.3099976-5.3200073c.1999512-.2000122.3199463-.4500122.3699951-.7099609.2299805.4899905.1399537 1.0999758-.2600097 1.5000002z" fill="#5e5eef"/></g><g><path d="m7.3642988 49.8966141v2.0711784c0 .414238.3358064.7500458.7500448.7500458h30.7029095c.414238 0 .7500458-.3358078.7500458-.7500458v-2.0711784c0-.414238-.3358078-.750042-.7500458-.750042h-30.7029095c-.4142384 0-.7500448.335804-.7500448.750042z" fill="#7979f7"/></g><g><path d="m7.3642969 51.8311234v.1366577c0 .4142456.3358154.750061.750061.750061h30.7028809c.4142456 0 .750061-.3358154.750061-.750061v-.1366577z" fill="#5e5eef"/></g><g><path d="m33.845192 46.1354446c-2.5899658 1.4500122-5.5599976 2.2600098-8.6699829 2.2600098-4.1500244 0-7.9700317-1.4499512-10.9899893-3.8599854.7799683-1.5100098 1.8999624-2.8099976 3.2699575-3.7799683 2.1300049 1.6599731 4.8099976 2.6399536 7.7200317 2.6399536 2.1699829 0 4.2399902-.5499878 6.0499878-1.539978 1.1900025 1.1799928 2.0900269 2.630005 2.6199952 4.2799683z" fill="#5e5eef"/></g><g><path d="m14.0350847 49.1465721c.1464825-5.2082481 4.4110708-9.3857117 9.6547194-9.3857117s9.5107079 4.1774635 9.6572723 9.3857117z" fill="#474646"/></g><g opacity=".3"><g><path d="m16.4869766 47.8162308c-.0327148 0-.065918-.0029297-.0991211-.0097656-.2705078-.0546875-.4457998-.3183594-.3916006-.5888672.0278311-.1376953.0595694-.2744141.0942373-.4101563.0693359-.2675781.34375-.4257813.609375-.359375.2670898.0693359.4282227.3417969.359375.609375-.0307617.1181641-.0585938.2373047-.0825195.3574219-.0478515.2373047-.2563476.4013672-.4897461.4013672z" fill="#fff"/></g></g><g opacity=".3"><g><path d="m17.3683243 45.5623245c-.0888672 0-.1787109-.0234375-.2597656-.0732422-.2358398-.1435547-.3105469-.4511719-.1665039-.6865234.409668-.6728516.921875-1.2763672 1.5224609-1.7929688.2075195-.1806641.5234375-.1582031.7050781.0527344.1801758.2089844.1567383.5253906-.0527344.7050781-.5209961.4482422-.965332.9716797-1.3212891 1.5546875-.0942382.1552735-.258789.2402344-.427246.2402344z" fill="#fff"/></g></g><g><path d="m33.345192 49.1454544h-19.3099966c.0100098-.289978.0300293-.5700073.0700073-.8499756h11.3495035c3.9667645 0 5.7783756-5.0954628 2.5998669-7.468708-.0230427-.0172081-.0461655-.0343094-.0693665-.0513115 3.1099854 1.5300293 5.2600098 4.6900024 5.3599854 8.3699951z" fill="#2d2c2c"/></g><g><path d="m28.1178226 34.8500366v2.7137032c0 .5097923.4132671.9230576.9230595.9230576h17.7074013c.5097885 0 .9230576-.4132652.9230576-.9230576v-2.7137032c0-.5097885-.413269-.9230576-.9230576-.9230576h-17.7074013c-.5097923.0000001-.9230595.4132691-.9230595.9230576z" fill="#474646"/></g><g><path d="m47.675209 34.8454666v2.7200317c0 .5099487-.4199829.9199829-.9299927.9199829h-17.7000121c-.4500122 0-.8200073-.3099976-.9100342-.7299805.0200195.0099487.0300293.0099487.0500488.0099487h17.7099609c.5100098 0 .9200439-.4099731.9200439-.9199829v-2.710022c0-.0699463-.0100098-.1399536-.0200195-.2099609.4899903.0299684.8800049.4299928.8800049.919983z" fill="#2d2c2c"/></g><g><path d="m20.9051895 19.0655003c0 1.6799927-.75 3.1799927-1.9299927 4.1900024l-2.8400268-2.8300171.7400513.8399658c-1.0599966.9200439-1.9500113 2.0100098-2.6300039 3.1900024-1.75-.3699951-3.1900024-1.5799561-3.8900146-3.1900024.8400269-1.3199463 1.8599854-2.5199585 3.039978-3.5799561l-2.1799927-2.1799927c1-1.1800537 2.5-1.9400024 4.1799927-1.9400024 3.040038.0000001 5.5100087 2.4699708 5.5100087 5.5000001z" fill="#5e5eef"/></g><g><path d="m10.8956146 19.067028c0 2.4880867 2.0159845 4.5040913 4.5040607 4.5040913 2.4864292 0 4.5040607-2.0160046 4.5040607-4.5040913 0-2.4863873-2.0176315-4.5023918-4.5040607-4.5023918-2.4880761 0-4.5040607 2.0160046-4.5040607 4.5023918z" fill="#474646"/></g><g opacity=".3"><g><path d="m11.9015284 19.1179905c-.206543-.0185547-.3579102-.2021484-.3388672-.4082031.0761719-.8144531.3999023-1.5712891.9355469-2.1865234.1367188-.15625.3735352-.1728516.5288086-.0371094.15625.1367188.1728516.3730469.0366211.5292969-.4316406.4960938-.6928711 1.1064453-.7539063 1.7646484-.018323.1970977-.1901636.35606-.4082031.3378906z" fill="#fff"/></g></g><g opacity=".3"><g><path d="m14.0685205 15.8191624c-.0576172-.1992188.0571289-.4072266.2563477-.4648438.3291016-.0947266.6699219-.1464844 1.0131836-.1513672h.0058594c.2045898 0 .371582.1640625.375.3691406.0029297.2070313-.1621094.3779297-.3691406.3808594-.2768555.0039063-.5512695.0449219-.8168945.1220703-.2035685.0573426-.4079095-.0603351-.4643556-.2558593z" fill="#fff"/></g></g><g><path d="m19.9051895 19.0655003c0 2.4899902-2.0200195 4.5099487-4.5100088 4.5099487-1.6499634 0-3.0999756-.8999634-3.8899536-2.2399902.8199463.8500366 1.9599609 1.3699951 3.2299805 1.3699951 2.4899893 0 4.499999-2.0199585 4.499999-4.5 0-.8399658-.2299805-1.6300049-.6400146-2.2999878.8099975.8200073 1.3099975 1.9299927 1.3099975 3.1600342z" fill="#2d2c2c"/></g><g><path d="m13.1924667 19.067461c0 1.2192841.9879303 2.2072239 2.2072086 2.2072239 1.2184715 0 2.2072086-.9879398 2.2072086-2.2072239 0-1.2184505-.9887371-2.2063904-2.2072086-2.2063904-1.2192783 0-2.2072086.9879399-2.2072086 2.2063904z" fill="#fff"/></g><g><path d="m25.4955559 44.5942154c0 .9973259-.8028946 1.8087311-1.8002205 1.8087311-.9973755 0-1.8087311-.8114052-1.8087311-1.8087311 0-.9889145.8113556-1.8002701 1.8087311-1.8002701.9973259 0 1.8002205.8113556 1.8002205 1.8002701z" fill="#fff"/></g><g><path d="m25.3552017 43.8954544c-.3200073-.2999878-.7399902-.4799805-1.210022-.4799805-1 0-1.8099976.8099976-1.8099976 1.7999878 0 .25.0499878.4899902.1400146.7000122-.3599854-.3200073-.5900269-.789978-.5900269-1.3200073 0-.9899902.8100586-1.7999878 1.8100586-1.7999878.7500002 0 1.3899538.460022 1.6599733 1.0999756z" fill="#d0d0f7"/></g><g opacity=".3"><g><g><path d="m36.8204231 35.8938446h-4.4628906c-.2763672 0-.5000019-.2236328-.5000019-.5s.2236347-.5.5000019-.5h4.4628906c.2763672 0 .5.2236328.5.5s-.2236328.5-.5.5z" fill="#fff"/></g></g><g><g><path d="m30.6490345 35.8938446h-.2231445c-.2763672 0-.5-.2236328-.5-.5s.2236328-.5.5-.5h.2231445c.2763672 0 .5.2236328.5.5s-.2236328.5-.5.5z" fill="#fff"/></g></g></g><g opacity=".3"><g><g><path d="m21.8942032 12.9031467-2.9428711-2.9423828c-.2929688-.2929688-.2929688-.7675781 0-1.0605469s.7675781-.2929688 1.0605469 0l2.9428711 2.9423828c.2929688.2929688.2929688.7675781 0 1.0605469-.2929593.2929602-.7675686.2929774-1.0605469 0z" fill="#fff"/></g></g><g><g><path d="m17.1583633 8.1677952-.3066406-.3076177c-.2924805-.2929688-.2915039-.7675781.0019531-1.0605469.2929688-.2919922.7685547-.2919922 1.0605469.0019531l.3066406.3076172c.2924805.2929688.2915039.7675781-.0019531 1.0605474-.2922172.2912397-.7678051.2927389-1.0605469-.0019531z" fill="#fff"/></g></g></g></g></svg>