<svg id="Layer_1" enable-background="new 0 0 53 53" height="512" viewBox="0 0 53 53" width="512" xmlns="http://www.w3.org/2000/svg" xmlns:xlink="http://www.w3.org/1999/xlink"><linearGradient id="lg1"><stop offset="0" stop-color="#fe90a9"/><stop offset=".9999998" stop-color="#cc104a"/></linearGradient><linearGradient id="SVGID_1_" gradientTransform="matrix(-1 0 0 1 91.999 0)" gradientUnits="userSpaceOnUse" x1="67.377" x2="67.377" xlink:href="#lg1" y1="30.886" y2="40.218"/><linearGradient id="SVGID_2_" gradientTransform="matrix(-1 0 0 1 91.999 0)" gradientUnits="userSpaceOnUse" x1="62.758" x2="71.996" xlink:href="#lg1" y1="42.623" y2="42.623"/><linearGradient id="lg2"><stop offset="0" stop-color="#e9e7fc"/><stop offset=".2510511" stop-color="#dfdffa"/><stop offset=".9999995" stop-color="#bec3f4"/></linearGradient><linearGradient id="SVGID_3_" gradientTransform="matrix(-1 0 0 1 91.999 0)" gradientUnits="userSpaceOnUse" x1="67.377" x2="67.377" xlink:href="#lg2" y1="10.898" y2="41.958"/><linearGradient id="SVGID_4_" gradientTransform="matrix(-1 0 0 1 91.999 0)" gradientUnits="userSpaceOnUse" x1="39.823" x2="98.648" xlink:href="#lg2" y1="23.731" y2="23.666"/><linearGradient id="SVGID_5_" gradientTransform="matrix(-1 0 0 1 91.999 0)" gradientUnits="userSpaceOnUse" x1="71.832" x2="99.51" xlink:href="#lg2" y1="23.711" y2="23.711"/><linearGradient id="lg3"><stop offset="0" stop-color="#4c5c75"/><stop offset=".9999999" stop-color="#1d2943"/></linearGradient><linearGradient id="SVGID_6_" gradientUnits="userSpaceOnUse" x1="43.013" x2="41.636" xlink:href="#lg3" y1="31.418" y2="30.041"/><linearGradient id="SVGID_7_" gradientUnits="userSpaceOnUse" x1="46.278" x2="44.569" y1="33.483" y2="35.192"><stop offset="0" stop-color="#57b3fe"/><stop offset=".9999995" stop-color="#497bfe"/></linearGradient><linearGradient id="SVGID_8_" gradientTransform="matrix(.707 -.707 -.707 -.707 -10.865 212.663)" gradientUnits="userSpaceOnUse" x1="166.258" x2="166.258" xlink:href="#lg3" y1="94.599" y2="109.334"/><linearGradient id="lg4"><stop offset="0" stop-color="#4c5c75" stop-opacity="0"/><stop offset=".2587109" stop-color="#475670" stop-opacity=".181"/><stop offset=".5895997" stop-color="#384760" stop-opacity=".413"/><stop offset=".9584271" stop-color="#202c46" stop-opacity=".671"/><stop offset=".9999999" stop-color="#1d2943" stop-opacity=".7"/></linearGradient><linearGradient id="SVGID_9_" gradientUnits="userSpaceOnUse" x1="39.013" x2="33.985" xlink:href="#lg4" y1="26.561" y2="21.533"/><linearGradient id="SVGID_10_" gradientUnits="userSpaceOnUse" x1="31.638" x2="38.072" xlink:href="#lg1" y1="23.382" y2="23.382"/><linearGradient id="SVGID_11_" gradientUnits="userSpaceOnUse" x1="42.112" x2="34.893" xlink:href="#lg4" y1="30.999" y2="23.78"/><g id="_x36_3"><g><g><g><g><g><path d="m2.4999807 15.2846088v26.0723248c0 1.6000938 1.5453093 2.7508125 3.0686114 2.2576294 4.6796741-1.5123978 9.6881151-1.6658478 14.4335423-.4493713l.2958584.8548622c.1644173.4822159.6137218.8000145 1.117878.8000145h6.4112053c.5041561 0 .9535275-.3177986 1.117878-.8000145l.2959251-.8548622c4.7454262-1.2164764 9.742897-1.0630264 14.4334755.4493713 1.5123978.4931831 3.0686111-.6575356 3.0686111-2.2576294v-26.0723248c0-.9754-.6137199-1.8521366-1.5452423-2.2247849-6.6304054-2.5973663-14.0828342-2.3891354-20.5817356.6685057-6.4988995-3.057641-13.9512606-3.265872-20.5816689-.6685057-.920616.3726483-1.5343383 1.249385-1.5343383 2.2247849z" fill="url(#SVGID_1_)"/><path d="m20.3448067 40.4254837h8.5476971l.3483486 2.7396965-.2959156.8548965c-.1643295.4821854-.6137161.799984-1.1178417.799984h-6.411253c-.5041256 0-.9534569-.3177986-1.1178417-.799984l-.2958604-.8548965z" fill="url(#SVGID_2_)"/><path d="m4.1499281 14.6291981v24.121603c0 1.4747429 1.4287233 2.5439758 2.8389378 2.0923386 4.0648508-1.3180618 8.387701-1.520874 12.5354757-.6083717.516222.1106033.9217281.4885445 1.096859.9862556.1475086.4424133.5622959.7373734 1.0323868.7373734h5.9267044c.4700336 0 .8848228-.29496 1.0415573-.7373734.1659031-.4977112.5806351-.8756523 1.0876312-.9862556 4.1477737-.9125023 8.4706802-.7096901 12.5447044.6083717 1.4010429.4516373 2.8389359-.6175957 2.8389359-2.0923386v-24.121603c0-.9125023-.5714684-1.7236271-1.4287224-2.064662-6.1386833-2.4057522-13.0331898-2.2121696-19.0428734.6175423-6.0189114-2.8297119-12.9134169-3.0232944-19.0520992-.6175423-.8572006.3410349-1.4194975 1.1521597-1.4194975 2.064662z" fill="url(#SVGID_3_)"/><g><g><path d="m43.6651115 9.8524227c.8518524.3355246 1.4256401 1.143363 1.4256401 2.0588961v24.1229982c0 1.4771461-1.4348068 2.5403061-2.840313 2.0858498-5.7701263-1.8657799-12.0763149-1.4916611-17.6314545 1.1223602v-28.7746429c6.0128728-2.8294096 12.9056932-3.0345636 19.0461274-.6154614z" fill="url(#SVGID_4_)"/></g><g><path d="m5.5721903 9.8524227c-.8518529.3355236-1.4256415 1.143363-1.4256415 2.0588961v24.1229982c0 1.4771461 1.4348054 2.5403061 2.840313 2.0858498 5.7701268-1.8657799 12.0763149-1.4916611 17.6314545 1.1223602v-28.7746429c-6.0128723-2.8294096-12.9056927-3.0345636-19.046126-.6154614z" fill="url(#SVGID_5_)"/></g></g></g><g><g><path d="m22.7300243 31.3985004v2.2358418c0 .6426582-.6429787 1.0914497-1.2419281.8584862-4.5692081-1.7771988-9.6420946-1.7772026-14.2113352-.0000305-.5989475.2329559-1.2419205-.2158318-1.2419205-.8584862v-2.2358494c0-.3663349.214251-.7060966.5503612-.8518066 4.9738107-2.1562405 10.6206989-2.1562386 15.5944691.0000439.3361068.1457118.5503535.4854697.5503535.8518008z" fill="#e9e7fc"/></g></g><g><g><path d="m22.7300243 15.8768539v2.2358418c0 .6426601-.6429787 1.0914478-1.2419281.8584862-4.5692081-1.7772007-9.6420946-1.7772007-14.2113352-.0000286-.5989475.2329559-1.2419205-.2158337-1.2419205-.85849v-2.2358484c0-.3663349.214251-.7060957.5503612-.8518057 4.9738107-2.1562405 10.6206989-2.1562386 15.5944691.0000429.3361068.1457119.5503535.4854707.5503535.8518018z" fill="#e9e7fc"/></g></g><g><g><path d="m22.7300243 23.6376781v2.2358418c0 .6426582-.6429787 1.0914478-1.2419281.8584862-4.5692081-1.7772007-9.6420946-1.7772026-14.2113352-.0000305-.5989475.2329559-1.2419205-.2158318-1.2419205-.8584881v-2.2358494c0-.3663349.214251-.7060947.5503612-.8518047 4.9738107-2.1562405 10.6206989-2.1562386 15.5944691.000042.3361068.1457118.5503535.4854697.5503535.8518027z" fill="#e9e7fc"/></g></g></g></g><g><g><path d="m42.867981 33.6211853 2.3485412-2.3485393-3.7942657-3.7942639-2.3485413 2.3485394z" fill="url(#SVGID_6_)"/><path d="m41.2496567 31.2506866 1.5963669-1.5963631c.5246315-.5246315 1.3752556-.5246315 1.8998871 0l5.3606339 5.3606224c.5246315.5246315.5246315 1.3752556 0 1.8998871l-1.5963631 1.5963631c-.5246315.5246315-1.3752594.5246315-1.8998909 0l-5.3606339-5.3606224c-.5246315-.5246315-.5246315-1.3752556 0-1.8998871z" fill="url(#SVGID_7_)"/><g><g><circle cx="34.977" cy="23.382" fill="url(#SVGID_8_)" r="8.697"/><path d="m34.978611 16.2151852c-3.9569683.0001221-7.1636944 3.2089233-7.1625957 7.1670532.0010376 3.9581299 3.2096558 7.1668091 7.166563 7.166626 3.9569092-.000061 7.1637573-3.2089233 7.1625366-7.1670532-.0010376-3.9581299-3.2096558-7.1666871-7.1665039-7.166626z" fill="#e9e7fc"/><g><path d="m42.1058693 24.1308956-4.2925415-4.2925415-2.9584351 1.8244629-.8829956 4.6202393 3.1721802 3.9321899c2.6708374-.8448486 4.6644287-3.2120361 4.961792-6.0843506z" fill="url(#SVGID_9_)"/></g></g></g></g></g></g><path d="m34.8495827 27.1718082c-.4452782 0-.8776932-.3514099-.8776932-.8887444v-4.9676495h-1.4785156c-.4601479 0-.8555813-.3491898-.8555813-.8565407 0-.4963474.3907452-.8666344.8555813-.8666344h4.7114525c.2220688 0 .4325981.0850773.6085205.2460995.1711159.1706352.2585983.3830872.2585983.6205349 0 .4993134-.3894653.8565407-.8671188.8565407h-1.46698v4.9676495c0 .4900857-.3821984.8887444-.8882637.8887444z" fill="url(#SVGID_10_)"/></g><g><path d="m45.0907326 36.0342751v-14.4244976l-2.6966553-2.7724609c1.0643311 11.8028488-4.4784546 13.8629971-13.5671978 10.6943359l6.8109112 7.437315c2.2342529.0727539 4.4607544.4553833 6.6126709 1.1511841 1.4054565.4544677 2.840271-.6087037 2.840271-2.0858765z" fill="url(#SVGID_11_)"/></g></g></svg>