<svg id="Layer_1" enable-background="new 0 0 52 52" height="512" viewBox="0 0 52 52" width="512" xmlns="http://www.w3.org/2000/svg"><g id="_x35_5"><g><g><g><g><path d="m40.8118248 5.3262658v41.3474655c0 1.4542198-1.1790619 2.6202469-2.6202431 2.6202469h-32.9233904c-1.4411027 0-2.6202452-1.1660271-2.6202452-2.6202469v-34.508667l9.4591274-9.4590473h26.084507c1.4411824.0000036 2.6202443 1.1791461 2.6202443 2.6202488z" fill="#deddff"/></g></g><g><g><path d="m13.4171963 2.7060206v6.8388023c0 2.1617346-1.768714 3.9303675-3.9303684 3.9303675h-6.8388818v-1.3101225l9.4591274-9.4590473z" fill="#c6c6f7"/></g></g><g><g><path d="m12.1070738 2.7060206v6.8388023c0 1.4471216-1.1731243 2.620245-2.6202459 2.620245h-6.8388818z" fill="#b5b5ea"/></g></g></g><g><g><g><g><path d="m30.1437397 20.9512978c0 .3328876-.2694244.602314-.602314.602314h-15.6230802c-.33284 0-.602314-.2694263-.602314-.602314 0-.33284.269474-.6022663.602314-.6022663h15.6230803c.3328895-.0000001.6023139.2694263.6023139.6022663z" fill="#c6c6f7"/></g></g><g><g><g><path d="m35.2273102 20.9512978c0 .3328876-.2694244.602314-.602314.602314h-2.0010872c-.33284 0-.602314-.2694263-.602314-.602314 0-.33284.269474-.6022663.602314-.6022663h2.0010872c.3328895-.0000001.602314.2694263.602314.6022663z" fill="#c6c6f7"/></g></g><g><g><path d="m11.4381762 20.9512978c0 .3328876-.2694254.602314-.602314.602314h-2.0010872c-.332839 0-.602313-.2694263-.602313-.602314 0-.33284.269474-.6022663.602313-.6022663h2.0010872c.3328886-.0000001.602314.2694263.602314.6022663z" fill="#c6c6f7"/></g></g></g></g><g><g><g><g><path d="m35.2238655 25.2165565c0 .3316994-.2605629.6041164-.6041183.6041164h-25.7869778c-.3317013 0-.6041174-.2724171-.6041174-.6041164 0-.3316288.2724161-.5922604.6041174-.5922604h25.7869778c.3435554.0000001.6041183.2606316.6041183.5922604z" fill="#c6c6f7"/></g></g></g></g><g><g><g><g><path d="m35.2238655 29.4877186c0 .3317013-.2605629.6041164-.6041183.6041164h-25.7869778c-.3317013 0-.6041174-.2724152-.6041174-.6041164 0-.3316288.2724161-.5922604.6041174-.5922604h25.7869778c.3435554 0 .6041183.2606316.6041183.5922604z" fill="#c6c6f7"/></g></g></g></g><g><g><g><g><path d="m35.2238655 33.3990135c0 .3316994-.2605629.6041145-.6041183.6041145h-25.7869778c-.3317013 0-.6041174-.2724152-.6041174-.6041145 0-.3316307.2724161-.5922623.6041174-.5922623h25.7869778c.3435554.0000001.6041183.2606316.6041183.5922623z" fill="#c6c6f7"/></g></g></g></g><g><g><g><g><path d="m35.2238655 37.3103065c0 .3316994-.2605629.6041145-.6041183.6041145h-25.7869778c-.3317013 0-.6041174-.2724152-.6041174-.6041145 0-.3316307.2724161-.5922623.6041174-.5922623h25.7869778c.3435554.0000001.6041183.2606316.6041183.5922623z" fill="#c6c6f7"/></g></g></g></g></g></g><g><g><g><path d="m8.748415 46.1562347c-.0817604 0-.1645365-.0185852-.2422342-.0577126-.2539148-.1291237-.3514175-.4323654-.217351-.6769142l2.2009306-4.0198975c.0909014-.1648254.3656368-.6656647.9227257-.6744652.3884888.0185852.7165461.232811.8658476.5942535.1015663.248951.094964.4964333.0898857.6769104l-.0472279 1.6942368c-.0081253.2968826.0304699.3712273.0426579.386879-.0066023-.0122299.0558615-.0273895.1066437-.0679855.1112146-.0880394.2046556-.246994.303174-.4157333.321456-.5438766.6550999-1.0026512 1.0278454-1.4252319.1416845-.159935.3118076-.3409042.5464239-.4700241.3209486-.1780319.6820145-.2078667.9907751-.0851021.4565382.181942.725688.6935387.6540833 1.2432861-.0223446.1706963-.0731277.33601-.1264496.5008354-.0304699.0924416-.0614471.1848793-.0797291.2797661-.0238676.1217842.0005083.2029762.012188.2186279.0360556.0146713.206687.0083122.2696581.0073357l1.0994492-.0337486c.2716885-.0176086.5276337.2078667.5362663.4842072.0096493.2768288-.215826.5076828-.5027504.5164871l-1.0994492.0337486c-.2259836.0088043-.6043167.0190735-.9242487-.2059097-.3509102-.2474823-.5093527-.7087021-.4138803-1.2041588.0258989-.1345024.0675411-.2650948.1096907-.3956833.0350399-.1076012.0726194-.2147141.087347-.3267174.013711-.1036873-.0198059-.1853676-.0360565-.2019958-.1503172.0875473-.2437572.1887894-.3316116.2880783-.3300896.374649-.6266613.7820663-.8800678 1.2110062-.1680918.2871017-.3204403.5482788-.5819721.7546806-.405755.3228035-.9623356.3712234-1.35184.1208076-.5225563-.3350334-.50529-.9689064-.4981804-1.2398643l.0462122-1.6458168-2.1181545 3.8687668c-.0934403.1702079-.27372.2670478-.4606011.2670478z" fill="#fcb73e"/></g></g></g><g><g><path d="m29.5398827 13.6079941v2.2699823c0 .3865995-.3134003.6999998-.6999989.6999998h-14.2199955c-.3865995 0-.6999998-.3134003-.6999998-.6999998v-2.2699823c0-.3865995.3134003-.7000008.6999998-.7000008h14.2199955c.3865986 0 .6999989.3134012.6999989.7000008z" fill="#e83d62"/></g></g><g><g><path d="m19.539299 16.5823307h-4.9200439c-.3899536 0-.6999512-.3200073-.6999512-.7000122v-2.2700195c0-.3899536.3099976-.6999512.6999512-.6999512h4.9200439c-.3900146 0-.7000122.3099976-.7000122.6999512v2.2700195c0 .3800049.3099976.7000122.7000122.7000122z" fill="#ce2955"/></g></g><g><g><g><path d="m37.725 29.576h2.559v9.854h-2.559z" fill="#312e4b" transform="matrix(.859 -.511 .511 .859 -12.158 24.795)"/></g></g><g><g><path d="m38.8148499 34.185276c-5.0796051 3.0223122-11.639698 1.3565292-14.6619854-3.7230206-3.0223236-5.079607-1.3619823-11.6488228 3.7176208-14.6711349s11.6542568-1.3528328 14.6765766 3.7267742c3.0222893 5.0795498 1.3473892 11.6450692-3.732212 14.6673813z" fill="#5b5e8b"/></g></g><g><g><path d="m40.4210815 20.7813644c2.3254051 3.9083061 1.0437469 8.9557114-2.8645096 11.281086-3.9083023 2.3254013-8.9627285 1.047905-11.2881374-2.8603992s-1.0409031-8.9669132 2.8673973-11.2923126c3.9082547-2.3253756 8.9598408-1.0366803 11.2852497 2.8716258z" fill="#deddff"/></g></g><g><g><path d="m43.4486313 35.7074356 5.6876259 9.5591736c.4329147.7276001.1940269 1.6683769-.5335693 2.1012917l-2.8714943 1.7085114c-.7275963.4329109-1.6683769.1940231-2.1012917-.5335732l-5.6876221-9.5591774c-.4329147-.7275963-.1940269-1.6683769.5335693-2.1012878l2.8714905-1.7085114c.7275963-.4329148 1.668377-.1940232 2.1012917.5335731z" fill="#65b9ff"/></g></g><g><g><path d="m47.7423973 47.8808098-2.0149498 1.1989326c-.7243195.4309654-1.6696014.1909332-2.1005669-.53339l-5.6888847-9.5612755c-.4309654-.7243233-.190937-1.6696053.5333862-2.1005669l2.014946-1.1989326c-.7243347.4310303-.9643478 1.3762474-.5333824 2.1005669l5.6888809 9.5612793c.4309693.7243194 1.3762474.9643516 2.1005707.5333862z" fill="#3e7fff"/></g></g></g><g><g><g><g><g><g><path d="m37.992981 26.0722141h-9.28998c-.4699707 0-.8499756-.3899536-.8499756-.8599854 0-.4599609.3800049-.8399658.8499756-.8399658h9.2899799c.4800415 0 .8500366.3699951.8500366.8399658.0000001.4800416-.369995.8599854-.8500365.8599854z" fill="#c6c6f7"/></g></g><g><g><path d="m30.690443 20.952219c0-.4699707.3800049-.8499756.8500366-.8499756h3.1199932c.4699707 0 .8499756.3800049.8499756.8499756 0 .4700317-.3800049.8500366-.8499756.8500366h-3.1199932c-.4700317 0-.8500366-.3800049-.8500366-.8500366z" fill="#c6c6f7"/></g></g><g><g><path d="m37.9692917 29.4922581c0 .4699707-.3699951.8499756-.8500366.8499756h-7.789978c-.4699707 0-.8499756-.3800049-.8499756-.8499756 0-.4700317.3800049-.8500366.8499756-.8500366h7.789978c.4800415 0 .8500366.3699951.8500366.8500366z" fill="#c6c6f7"/></g></g></g></g></g></g></g></svg>