<svg id="Layer_1" enable-background="new 0 0 53 53" height="512" viewBox="0 0 53 53" width="512" xmlns="http://www.w3.org/2000/svg"><g id="_x39_6"><g><circle cx="24.894" cy="27.895" fill="#fc6559" r="22.394"/></g><g opacity=".4"><g><path d="m6.7030306 21.1390343c-.3821473-.1599598-.5622401-.5988426-.4026461-.9809914.4370542-1.0443153.9663501-2.0604477 1.5739794-3.0202084.2210894-.3495712.6837654-.4549904 1.0344334-.2320709.3499365.2214546.4538918.6844978.2320709 1.0344334-.5622406.8883839-1.0527363 1.8291111-1.4568458 2.7961922-.1563902.3742866-.5897741.5648956-.9809918.4026451z" fill="#fff"/></g></g><g opacity=".4"><g><path d="m10.9256868 14.4397411c-.2869768-.2983246-.2774591-.7730799.0204983-1.0600567 3.6069746-3.4660482 8.337697-5.4598775 13.3202562-5.613615.4026451-.008419.759903.3122339.7730808.7262268.0124454.4136267-.3126011.7595358-.7262268.7723475-4.611393.1423903-8.9892521 1.987606-12.3275518 5.1963272-.2992086.2864294-.7733288.2776232-1.0600567-.0212298z" fill="#fff"/></g></g><g><path d="m47.2855186 27.8965302c0 12.3617744-10.022953 22.3921394-22.392231 22.3921394-7.2040653 0-13.6061344-3.3959045-17.6992111-8.6734467 3.7931976 2.9461327 8.5534782 4.7002945 13.7261038 4.7002945 12.3692799 0 22.3921413-10.030365 22.3921413-22.3921413 0-5.1725788-1.7467499-9.9329052-4.7003403-13.718646 5.277587 4.0856199 8.6735373 10.4951467 8.6735373 17.6918001z" fill="#e24b40"/></g><g><circle cx="24.894" cy="27.895" fill="#fff" r="16.796"/></g><g><path d="m41.6856308 27.8965302c0 9.2582474-7.53405 16.7922516-16.7923431 16.7922516-5.4199791 0-10.2477026-2.5863113-13.3138504-6.5819778 2.8262081 2.174015 6.3571377 3.4559364 10.1878548 3.4559364 9.2581997 0 16.79216-7.53405 16.79216-16.7922516 0-3.8382206-1.2893791-7.3766079-3.4708061-10.2027702 4.0106277 3.0660552 6.5969848 7.9013289 6.5969848 13.3288116z" fill="#e4e3ff"/></g><g><circle cx="24.894" cy="27.895" fill="#fc6559" r="11.197"/></g><g opacity=".4"><g><path d="m16.8262787 26.3364601c-.397522-.1156693-.6259308-.5314922-.5102615-.9290123.1010265-.3488388.2262135-.6973095.3711662-1.035532.1632538-.3806839.6039677-.5563831.9846516-.3931293.3799515.1632538.5563831.6039696.3931293.9846516-.1207943.2818527-.2254829.5721226-.3096714.8620281-.1133175.3905048-.5218773.6276226-.9290142.5109939z" fill="#fff"/></g></g><g opacity=".4"><g><path d="m18.5342293 22.6965427c-.2957611-.2899055-.3001537-.7646618-.0102501-1.0604229 1.5761757-1.6080208 3.6787186-2.5557022 5.9196262-2.6680775.409235-.0322113.765028.2975922.7862568.7108536.0204983.4136257-.2979565.7657585-.7115841.7862568-1.8631516.0937061-3.6120987.8821602-4.9239922 2.2207737-.2865733.2930222-.7605876.302599-1.0600566.0106163z" fill="#fff"/></g></g><g><path d="m36.0931549 27.8965302c0 6.1696777-5.0227318 11.192318-11.1998672 11.192318-4.1605206 0-7.8038254-2.2789307-9.7379894-5.659874 1.9716835 1.7617149 4.5804634 2.8337135 7.436594 2.8337135 6.1697235 0 11.1923637-5.0226879 11.1923637-11.1923199 0-2.0240726-.5397263-3.9207172-1.4767952-5.5549564 2.3238144 2.0465851 3.7856941 5.0451984 3.7856941 8.3811188z" fill="#e24b40"/></g><g><circle cx="24.894" cy="27.895" fill="#fff" r="5.599"/></g><g><path d="m30.4932671 27.8965302c0 3.0885677-2.5113201 5.5999336-5.5999794 5.5999336-2.0090199 0-3.7706871-1.0644951-4.7526855-2.653801.8620281.5472775 1.881546.8621197 2.9685993.8621197 3.0809727 0 5.5923843-2.5113201 5.5923843-5.5998898 0-1.0870056-.3073845-2.0990658-.8546162-2.9536343 1.5892601.9820424 2.6462975 2.7437096 2.6462975 4.7452718z" fill="#e4e3ff"/></g><g><g><path d="m40.9317589 13.1810265c-.7102966 1.8341379-2.274086 5.1683292-5.0888329 7.983078-.1219101.1219101-.2703514.2703495-.4399796.4293671-1.4523964 1.3570175-3.0056076 2.4012356-4.4049416 3.1858482-2.5126305 1.3994007-4.5164318 1.9506435-4.5164318 1.9506435s1.4366398-5.2318707 5.5659885-9.3612194c2.8147507-2.8147507 6.148941-4.37854 7.983078-5.0888357.5830498-2.5126295 2.1414986-8.3329849 4.224762-9.3136282 2.2899055-1.0814265 3.1857834 1.5743692 3.3924942 2.3429339.0159149.0583663.0265617.1113944.0424156.1378598.0000305.0424156.0105782.0635753.0105782.0635753s3.8007317.779274 2.5444984 3.4456167c-.9754027 2.0885036-6.8009986 3.6417129-9.313629 4.2247608z" fill="#7979f7"/></g><g><path d="m40.9317589 13.1810265c-.7102966 1.8341379-2.274086 5.1683292-5.0888329 7.983078-.1219101.1219101-.2703514.2703495-.4399796.4293671-1.4523964 1.3570175-3.0056076 2.4012356-4.4049416 3.1858482l-1.4101086-1.4101086 18.0599996-18.0599976c.0159149.0583663.0265617.1113944.0424156.1378598.0000305.0424156.0105782.0635753.0105782.0635753s3.8007317.779274 2.5444984 3.4456167c-.9754028 2.0885039-6.8009987 3.6417132-9.3136291 4.2247611z" fill="#a2a2f9"/></g><g><path d="m28.6652622 21.8156128c-.6840897 1.1706905-1.1933384 2.2559681-1.540041 3.1031208l-2.1673183 2.9097729c-.2123051.2851658.147049.6438084.4317303.4308224l2.9282455-2.190321c.8432064-.3450851 1.9172554-.8495789 3.0753288-1.5254498z" fill="#1b1b1b"/></g></g></g></svg>